# Blender 5.1.1
# www.blender.org
mtllib boulders.mtl
o Ground
v -4.000000 0.000000 4.000000
v 4.000000 0.000000 4.000000
v -4.000000 0.000000 -4.000000
v 4.000000 0.000000 -4.000000
vn -0.0000 1.0000 -0.0000
vt 1.000000 0.000000
vt 0.000000 1.000000
vt 0.000000 0.000000
vt 1.000000 1.000000
s 0
usemtl Ground
f 2/1/1 3/2/1 1/3/1
f 2/1/1 4/4/1 3/2/1
o Rock_1
v -0.717969 -0.310662 0.695697
v -0.253797 -0.034622 1.088358
v -0.873915 0.003409 1.273627
v -1.247334 -0.010148 0.695697
v -0.872564 0.005814 0.121406
v -0.283491 -0.014384 0.321854
v -0.553229 0.455013 1.297306
v -1.177013 0.473908 1.085110
v -1.155113 0.458982 0.320163
v -0.548661 0.463142 0.081783
v -0.186013 0.454355 0.695697
v -0.717969 0.759451 0.695697
v -0.818743 -0.245888 1.059927
v -0.472889 -0.204102 0.908910
v -0.564628 -0.046084 1.258915
v -0.207342 -0.055700 0.695697
v -0.461995 -0.228343 0.475581
v -1.032164 -0.224388 0.695697
v -1.123174 -0.049112 1.046196
v -0.819688 -0.251410 0.328927
v -1.157895 -0.078151 0.323260
v -0.555913 -0.065002 0.109080
v -0.114706 0.221420 0.924588
v -0.131606 0.221400 0.471609
v -0.717968 0.221390 1.413342
v -0.344532 0.221330 1.295790
v -1.300435 0.221384 0.918677
v -1.079439 0.221406 1.281297
v -1.091222 0.221449 0.095823
v -1.288794 0.221398 0.476026
v -0.366098 0.221408 0.121728
v -0.717968 0.221390 -0.018161
v -0.332409 0.475460 1.033782
v -0.869906 0.485820 1.255150
v -1.218906 0.491894 0.695697
v -0.871614 0.489528 0.131657
v -0.307787 0.496052 0.342055
v -0.617247 0.688350 1.059781
v -0.404683 0.665529 0.695697
v -0.981003 0.686838 0.920287
v -0.968693 0.659446 0.478906
v -0.613024 0.713034 0.320261
vn 0.0351 -0.9991 0.0232
vn 0.6785 -0.5791 0.4520
vn -0.2852 -0.5429 0.7899
vn -0.8707 -0.4904 0.0361
vn -0.2611 -0.5256 -0.8097
vn 0.7309 -0.5057 -0.4584
vn 0.2878 0.5619 0.7755
vn -0.7204 0.5083 0.4719
vn -0.7168 0.5460 -0.4336
vn 0.2943 0.4893 -0.8210
vn 0.8379 0.5454 0.0217
vn -0.0096 0.9999 0.0049
vn -0.1447 -0.8814 0.4497
vn 0.3813 -0.8940 0.2352
vn 0.2143 -0.6349 0.7422
vn 0.7916 -0.6106 -0.0247
vn 0.4230 -0.8802 -0.2153
vn -0.5044 -0.8627 0.0365
vn -0.6797 -0.5858 0.4414
vn -0.1440 -0.8885 -0.4357
vn -0.6878 -0.5792 -0.4376
vn 0.2585 -0.5887 -0.7659
vn 0.9638 0.0744 0.2559
vn 0.9558 0.0102 -0.2937
vn -0.0333 -0.0212 0.9992
vn 0.6098 0.0502 0.7910
vn -0.9693 -0.0382 0.2428
vn -0.6014 -0.0462 0.7976
vn -0.6008 0.0058 -0.7994
vn -0.9722 0.0309 -0.2319
vn 0.6420 0.0036 -0.7667
vn -0.0146 -0.0198 -0.9997
vn 0.6749 0.6144 0.4086
vn -0.2486 0.6002 0.7602
vn -0.8230 0.5666 -0.0398
vn -0.2932 0.6084 -0.7375
vn 0.7153 0.5590 -0.4194
vn 0.1982 0.8749 0.4419
vn 0.5360 0.8432 0.0406
vn -0.4021 0.8844 0.2368
vn -0.4390 0.8618 -0.2540
vn 0.1418 0.8956 -0.4217
vt 0.181819 0.000000
vt 0.227273 0.078731
vt 0.136365 0.078731
vt 0.272728 0.157461
vt 0.318182 0.078731
vt 0.363637 0.157461
vt 0.909091 0.000000
vt 0.954545 0.078731
vt 0.863636 0.078731
vt 0.727273 0.000000
vt 0.772727 0.078731
vt 0.681818 0.078731
vt 0.545455 0.000000
vt 0.590909 0.078731
vt 0.500000 0.078731
vt 0.318182 0.236191
vt 0.090910 0.157461
vt 0.181819 0.157461
vt 0.136365 0.236191
vt 0.818182 0.157461
vt 0.909091 0.157461
vt 0.863636 0.236191
vt 0.636364 0.157461
vt 0.727273 0.157461
vt 0.681818 0.236191
vt 0.454546 0.157461
vt 0.545455 0.157461
vt 0.500000 0.236191
vt 0.227273 0.236191
vt 0.045455 0.236191
vt 0.772727 0.236191
vt 0.590909 0.236191
vt 0.409092 0.236191
vt 0.181819 0.314921
vt 0.272728 0.314921
vt 0.227273 0.393651
vt 0.000000 0.314921
vt 0.090910 0.314921
vt 0.045455 0.393651
vt 0.727273 0.314921
vt 0.818182 0.314921
vt 0.772727 0.393651
vt 0.545455 0.314921
vt 0.636364 0.314921
vt 0.590909 0.393651
vt 0.363637 0.314921
vt 0.454546 0.314921
vt 0.409092 0.393651
vt 0.500000 0.393651
vt 0.454546 0.472382
vt 0.681818 0.393651
vt 0.636364 0.472382
vt 0.863636 0.393651
vt 0.818182 0.472382
vt 0.909091 0.314921
vt 0.136365 0.393651
vt 0.090910 0.472382
vt 0.318182 0.393651
vt 0.272728 0.472382
vt 0.954545 0.236191
vt 1.000000 0.157461
vt 0.409092 0.078731
vt 0.363637 0.000000
s 1
usemtl Rock_Material
f 5/5/2 18/6/15 17/7/14
f 6/8/3 18/9/15 20/10/17
f 5/11/2 17/12/14 22/13/19
f 5/14/2 22/15/19 24/16/21
f 5/17/2 24/18/21 21/19/18
f 6/8/3 20/10/17 27/20/24
f 7/21/4 19/22/16 29/23/26
f 8/24/5 23/25/20 31/26/28
f 9/27/6 25/28/22 33/29/30
f 10/30/7 26/31/23 35/32/32
f 6/8/3 27/20/24 30/33/27
f 7/21/4 29/23/26 32/34/29
f 8/24/5 31/26/28 34/35/31
f 9/27/6 33/29/30 36/36/33
f 10/30/7 35/32/32 28/37/25
f 11/38/8 37/39/34 42/40/39
f 12/41/9 38/42/35 44/43/41
f 13/44/10 39/45/36 45/46/42
f 14/47/11 40/48/37 46/49/43
f 15/50/12 41/51/38 43/52/40
f 43/52/40 46/53/43 16/54/13
f 43/52/40 41/51/38 46/53/43
f 41/51/38 14/47/11 46/53/43
f 46/49/43 45/55/42 16/56/13
f 46/49/43 40/48/37 45/55/42
f 40/48/37 13/44/10 45/55/42
f 45/46/42 44/57/41 16/58/13
f 45/46/42 39/45/36 44/57/41
f 39/45/36 12/59/9 44/57/41
f 44/43/41 42/60/39 16/61/13
f 44/43/41 38/42/35 42/60/39
f 38/42/35 11/38/8 42/60/39
f 42/40/39 43/62/40 16/63/13
f 42/40/39 37/39/34 43/62/40
f 37/39/34 15/50/12 43/62/40
f 28/37/25 41/51/38 15/50/12
f 28/37/25 35/32/32 41/51/38
f 35/32/32 14/47/11 41/51/38
f 36/36/33 40/48/37 14/47/11
f 36/36/33 33/29/30 40/48/37
f 33/29/30 13/44/10 40/48/37
f 34/35/31 39/45/36 13/44/10
f 34/35/31 31/26/28 39/45/36
f 31/26/28 12/59/9 39/45/36
f 32/34/29 38/42/35 12/41/9
f 32/34/29 29/23/26 38/42/35
f 29/23/26 11/38/8 38/42/35
f 30/33/27 37/39/34 11/38/8
f 30/33/27 27/20/24 37/39/34
f 27/20/24 15/50/12 37/39/34
f 35/32/32 36/36/33 14/47/11
f 35/32/32 26/31/23 36/36/33
f 26/31/23 9/27/6 36/36/33
f 33/29/30 34/35/31 13/44/10
f 33/29/30 25/28/22 34/35/31
f 25/28/22 8/24/5 34/35/31
f 31/26/28 32/64/29 12/59/9
f 31/26/28 23/25/20 32/64/29
f 23/25/20 7/65/4 32/64/29
f 29/23/26 30/33/27 11/38/8
f 29/23/26 19/22/16 30/33/27
f 19/22/16 6/8/3 30/33/27
f 27/20/24 28/37/25 15/50/12
f 27/20/24 20/10/17 28/37/25
f 20/10/17 10/30/7 28/37/25
f 21/19/18 26/31/23 10/30/7
f 21/19/18 24/18/21 26/31/23
f 24/18/21 9/27/6 26/31/23
f 24/16/21 25/28/22 9/27/6
f 24/16/21 22/15/19 25/28/22
f 22/15/19 8/24/5 25/28/22
f 22/13/19 23/25/20 8/24/5
f 22/13/19 17/12/14 23/25/20
f 17/12/14 7/65/4 23/25/20
f 20/10/17 21/66/18 10/30/7
f 20/10/17 18/9/15 21/66/18
f 18/9/15 5/67/2 21/66/18
f 17/7/14 19/22/16 7/21/4
f 17/7/14 18/6/15 19/22/16
f 18/6/15 6/8/3 19/22/16
o Rock_2
v 1.420520 -0.472878 -0.685744
v 2.192096 0.042029 -0.337375
v 1.125989 0.042683 -0.123929
v 0.458281 0.036876 -0.685744
v 1.119376 0.029557 -1.277397
v 2.207658 0.030293 -1.050331
v 1.719162 0.794960 -0.104572
v 0.626627 0.803795 -0.314304
v 0.636066 0.796675 -1.047346
v 1.724858 0.806267 -1.292616
v 2.419894 0.814656 -0.685744
v 1.420343 1.300912 -0.685744
v 1.249932 -0.277048 -0.366355
v 1.891279 -0.336046 -0.463137
v 1.704781 -0.033155 -0.131998
v 2.349168 -0.039558 -0.685744
v 1.889562 -0.331883 -0.906591
v 0.840468 -0.332166 -0.685744
v 0.680828 -0.028703 -0.348502
v 1.241433 -0.330515 -1.042363
v 0.670850 -0.037994 -1.033421
v 1.714144 -0.056484 -1.282012
v 2.468133 0.414482 -0.465702
v 2.444184 0.414605 -0.895118
v 1.420430 0.414564 0.004928
v 2.055544 0.414540 -0.133320
v 0.367191 0.414674 -0.463236
v 0.787801 0.414610 -0.138258
v 0.797241 0.414696 -1.214466
v 0.362083 0.414700 -0.910528
v 2.052292 0.414511 -1.231704
v 1.420430 0.414564 -1.354874
v 2.163905 0.861437 -0.344451
v 1.138469 0.856325 -0.142856
v 0.494116 0.866900 -0.685744
v 1.135045 0.864859 -1.244185
v 2.151139 0.849550 -1.013687
v 1.592765 1.117729 -0.358311
v 1.979972 1.120983 -0.685744
v 0.964307 1.129480 -0.478226
v 0.963407 1.131660 -0.894184
v 1.596169 1.139148 -1.028092
vn -0.0175 -0.9980 0.0603
vn 0.6006 -0.4479 0.6623
vn -0.2022 -0.4289 0.8804
vn -0.8447 -0.5349 0.0183
vn -0.2315 -0.3378 -0.9123
vn 0.6416 -0.4277 -0.6367
vn 0.1919 0.4215 0.8863
vn -0.5873 0.4787 0.6527
vn -0.5884 0.4645 -0.6618
vn 0.2184 0.3878 -0.8955
vn 0.8436 0.5360 -0.0325
vn 0.0042 0.9996 0.0263
vn -0.1434 -0.7705 0.6211
vn 0.3555 -0.8419 0.4060
vn 0.1685 -0.4732 0.8647
vn 0.8150 -0.5793 0.0121
vn 0.3760 -0.8549 -0.3575
vn -0.4646 -0.8842 0.0480
vn -0.5505 -0.5451 0.6323
vn -0.1498 -0.8045 -0.5747
vn -0.5863 -0.5199 -0.6212
vn 0.1961 -0.4399 -0.8764
vn 0.9070 -0.0291 0.4200
vn 0.8952 -0.0057 -0.4457
vn -0.0136 -0.0053 0.9999
vn 0.4449 -0.0063 0.8956
vn -0.9050 -0.0168 0.4250
vn -0.4210 -0.0251 0.9067
vn -0.4211 0.0026 -0.9070
vn -0.9019 -0.0017 -0.4318
vn 0.4671 0.0328 -0.8836
vn -0.0263 0.0143 -0.9996
vn 0.5420 0.5631 0.6239
vn -0.1748 0.4877 0.8554
vn -0.7825 0.6226 -0.0105
vn -0.2081 0.4579 -0.8643
vn 0.5685 0.5432 -0.6179
vn 0.1359 0.7960 0.5899
vn 0.4451 0.8955 0.0004
vn -0.3458 0.8590 0.3775
vn -0.3656 0.8570 -0.3633
vn 0.1490 0.8118 -0.5647
vt 0.181819 0.000000
vt 0.227273 0.078731
vt 0.136365 0.078731
vt 0.272728 0.157461
vt 0.318182 0.078731
vt 0.363637 0.157461
vt 0.909091 0.000000
vt 0.954545 0.078731
vt 0.863636 0.078731
vt 0.727273 0.000000
vt 0.772727 0.078731
vt 0.681818 0.078731
vt 0.545455 0.000000
vt 0.590909 0.078731
vt 0.500000 0.078731
vt 0.318182 0.236191
vt 0.090910 0.157461
vt 0.181819 0.157461
vt 0.136365 0.236191
vt 0.818182 0.157461
vt 0.909091 0.157461
vt 0.863636 0.236191
vt 0.636364 0.157461
vt 0.727273 0.157461
vt 0.681818 0.236191
vt 0.454546 0.157461
vt 0.545455 0.157461
vt 0.500000 0.236191
vt 0.227273 0.236191
vt 0.045455 0.236191
vt 0.772727 0.236191
vt 0.590909 0.236191
vt 0.409092 0.236191
vt 0.181819 0.314921
vt 0.272728 0.314921
vt 0.227273 0.393651
vt 0.000000 0.314921
vt 0.090910 0.314921
vt 0.045455 0.393651
vt 0.727273 0.314921
vt 0.818182 0.314921
vt 0.772727 0.393651
vt 0.545455 0.314921
vt 0.636364 0.314921
vt 0.590909 0.393651
vt 0.363637 0.314921
vt 0.454546 0.314921
vt 0.409092 0.393651
vt 0.500000 0.393651
vt 0.454546 0.472382
vt 0.681818 0.393651
vt 0.636364 0.472382
vt 0.863636 0.393651
vt 0.818182 0.472382
vt 0.909091 0.314921
vt 0.136365 0.393651
vt 0.090910 0.472382
vt 0.318182 0.393651
vt 0.272728 0.472382
vt 0.954545 0.236191
vt 1.000000 0.157461
vt 0.409092 0.078731
vt 0.363637 0.000000
s 1
usemtl Rock_Material
f 47/68/44 60/69/57 59/70/56
f 48/71/45 60/72/57 62/73/59
f 47/74/44 59/75/56 64/76/61
f 47/77/44 64/78/61 66/79/63
f 47/80/44 66/81/63 63/82/60
f 48/71/45 62/73/59 69/83/66
f 49/84/46 61/85/58 71/86/68
f 50/87/47 65/88/62 73/89/70
f 51/90/48 67/91/64 75/92/72
f 52/93/49 68/94/65 77/95/74
f 48/71/45 69/83/66 72/96/69
f 49/84/46 71/86/68 74/97/71
f 50/87/47 73/89/70 76/98/73
f 51/90/48 75/92/72 78/99/75
f 52/93/49 77/95/74 70/100/67
f 53/101/50 79/102/76 84/103/81
f 54/104/51 80/105/77 86/106/83
f 55/107/52 81/108/78 87/109/84
f 56/110/53 82/111/79 88/112/85
f 57/113/54 83/114/80 85/115/82
f 85/115/82 88/116/85 58/117/55
f 85/115/82 83/114/80 88/116/85
f 83/114/80 56/110/53 88/116/85
f 88/112/85 87/118/84 58/119/55
f 88/112/85 82/111/79 87/118/84
f 82/111/79 55/107/52 87/118/84
f 87/109/84 86/120/83 58/121/55
f 87/109/84 81/108/78 86/120/83
f 81/108/78 54/122/51 86/120/83
f 86/106/83 84/123/81 58/124/55
f 86/106/83 80/105/77 84/123/81
f 80/105/77 53/101/50 84/123/81
f 84/103/81 85/125/82 58/126/55
f 84/103/81 79/102/76 85/125/82
f 79/102/76 57/113/54 85/125/82
f 70/100/67 83/114/80 57/113/54
f 70/100/67 77/95/74 83/114/80
f 77/95/74 56/110/53 83/114/80
f 78/99/75 82/111/79 56/110/53
f 78/99/75 75/92/72 82/111/79
f 75/92/72 55/107/52 82/111/79
f 76/98/73 81/108/78 55/107/52
f 76/98/73 73/89/70 81/108/78
f 73/89/70 54/122/51 81/108/78
f 74/97/71 80/105/77 54/104/51
f 74/97/71 71/86/68 80/105/77
f 71/86/68 53/101/50 80/105/77
f 72/96/69 79/102/76 53/101/50
f 72/96/69 69/83/66 79/102/76
f 69/83/66 57/113/54 79/102/76
f 77/95/74 78/99/75 56/110/53
f 77/95/74 68/94/65 78/99/75
f 68/94/65 51/90/48 78/99/75
f 75/92/72 76/98/73 55/107/52
f 75/92/72 67/91/64 76/98/73
f 67/91/64 50/87/47 76/98/73
f 73/89/70 74/127/71 54/122/51
f 73/89/70 65/88/62 74/127/71
f 65/88/62 49/128/46 74/127/71
f 71/86/68 72/96/69 53/101/50
f 71/86/68 61/85/58 72/96/69
f 61/85/58 48/71/45 72/96/69
f 69/83/66 70/100/67 57/113/54
f 69/83/66 62/73/59 70/100/67
f 62/73/59 52/93/49 70/100/67
f 63/82/60 68/94/65 52/93/49
f 63/82/60 66/81/63 68/94/65
f 66/81/63 51/90/48 68/94/65
f 66/79/63 67/91/64 51/90/48
f 66/79/63 64/78/61 67/91/64
f 64/78/61 50/87/47 67/91/64
f 64/76/61 65/88/62 50/87/47
f 64/76/61 59/75/56 65/88/62
f 59/75/56 49/128/46 65/88/62
f 62/73/59 63/129/60 52/93/49
f 62/73/59 60/72/57 63/129/60
f 60/72/57 47/130/44 63/129/60
f 59/70/56 61/85/58 49/84/46
f 59/70/56 60/69/57 61/85/58
f 60/69/57 48/71/45 61/85/58
o Rock_3
v 1.368845 -0.298367 0.721132
v 1.914200 -0.019918 0.985571
v 1.161771 -0.017282 1.143833
v 0.677093 -0.031526 0.721132
v 1.153866 -0.034659 0.263915
v 1.909956 -0.016385 0.460997
v 1.573643 0.444768 1.133816
v 0.825223 0.451019 0.983831
v 0.827938 0.448759 0.461186
v 1.573440 0.444322 0.309333
v 2.018457 0.436181 0.721132
v 1.368840 0.740818 0.721132
v 1.246749 -0.230666 0.971229
v 1.674983 -0.193961 0.861957
v 1.569705 -0.069028 1.140341
v 1.979526 -0.036690 0.721132
v 1.687601 -0.228159 0.567523
v 0.976495 -0.224568 0.721132
v 0.865432 -0.045780 0.957118
v 1.249587 -0.210604 0.483290
v 0.851854 -0.059661 0.471292
v 1.564044 -0.053460 0.326860
v 2.082048 0.216248 0.874884
v 2.112188 0.216095 0.554272
v 1.368854 0.216264 1.212669
v 1.810019 0.216286 1.124578
v 0.670546 0.216205 0.868411
v 0.937834 0.216336 1.105053
v 0.931669 0.216279 0.325347
v 0.681119 0.216152 0.578450
v 1.792579 0.216124 0.351248
v 1.368854 0.216264 0.229985
v 1.878061 0.484223 0.963021
v 1.171844 0.490990 1.123415
v 0.766457 0.462543 0.721132
v 1.181352 0.464846 0.360729
v 1.896258 0.502827 0.460676
v 1.491160 0.664620 0.972100
v 1.758425 0.650957 0.721132
v 1.044752 0.675197 0.880164
v 1.061289 0.630381 0.578852
v 1.491845 0.669463 0.467204
vn 0.0243 -0.9997 -0.0053
vn 0.6252 -0.5572 0.5464
vn -0.2500 -0.4163 0.8742
vn -0.8564 -0.5161 0.0182
vn -0.1950 -0.4559 -0.8684
vn 0.5914 -0.5159 -0.6197
vn 0.2069 0.4351 0.8763
vn -0.6570 0.4783 0.5827
vn -0.6081 0.5423 -0.5797
vn 0.1651 0.3884 -0.9066
vn 0.8050 0.5898 0.0649
vn -0.0136 0.9995 -0.0285
vn -0.1225 -0.8602 0.4950
vn 0.3418 -0.8930 0.2927
vn 0.2004 -0.5482 0.8120
vn 0.7384 -0.6740 0.0223
vn 0.3400 -0.8952 -0.2880
vn -0.3910 -0.9204 0.0048
vn -0.5580 -0.5560 0.6160
vn -0.1014 -0.8742 -0.4748
vn -0.5818 -0.5691 -0.5811
vn 0.2205 -0.5032 -0.8356
vn 0.9155 0.0016 0.4024
vn 0.9227 -0.0261 -0.3847
vn -0.0162 0.0287 0.9995
vn 0.4635 0.0448 0.8850
vn -0.9182 0.0529 0.3926
vn -0.4727 -0.0288 0.8807
vn -0.4750 0.0692 -0.8773
vn -0.9182 0.0749 -0.3890
vn 0.4101 -0.0144 -0.9119
vn 0.0272 0.0837 -0.9961
vn 0.5794 0.5929 0.5592
vn -0.1872 0.4839 0.8548
vn -0.7844 0.6196 -0.0298
vn -0.1962 0.5326 -0.8233
vn 0.5709 0.5782 -0.5829
vn 0.1479 0.8371 0.5268
vn 0.4348 0.8998 0.0348
vn -0.3685 0.8880 0.2751
vn -0.3476 0.8545 -0.3859
vn 0.0700 0.8348 -0.5461
vt 0.181819 0.000000
vt 0.227273 0.078731
vt 0.136365 0.078731
vt 0.272728 0.157461
vt 0.318182 0.078731
vt 0.363637 0.157461
vt 0.909091 0.000000
vt 0.954545 0.078731
vt 0.863636 0.078731
vt 0.727273 0.000000
vt 0.772727 0.078731
vt 0.681818 0.078731
vt 0.545455 0.000000
vt 0.590909 0.078731
vt 0.500000 0.078731
vt 0.318182 0.236191
vt 0.090910 0.157461
vt 0.181819 0.157461
vt 0.136365 0.236191
vt 0.818182 0.157461
vt 0.909091 0.157461
vt 0.863636 0.236191
vt 0.636364 0.157461
vt 0.727273 0.157461
vt 0.681818 0.236191
vt 0.454546 0.157461
vt 0.545455 0.157461
vt 0.500000 0.236191
vt 0.227273 0.236191
vt 0.045455 0.236191
vt 0.772727 0.236191
vt 0.590909 0.236191
vt 0.409092 0.236191
vt 0.181819 0.314921
vt 0.272728 0.314921
vt 0.227273 0.393651
vt 0.000000 0.314921
vt 0.090910 0.314921
vt 0.045455 0.393651
vt 0.727273 0.314921
vt 0.818182 0.314921
vt 0.772727 0.393651
vt 0.545455 0.314921
vt 0.636364 0.314921
vt 0.590909 0.393651
vt 0.363637 0.314921
vt 0.454546 0.314921
vt 0.409092 0.393651
vt 0.500000 0.393651
vt 0.454546 0.472382
vt 0.681818 0.393651
vt 0.636364 0.472382
vt 0.863636 0.393651
vt 0.818182 0.472382
vt 0.909091 0.314921
vt 0.136365 0.393651
vt 0.090910 0.472382
vt 0.318182 0.393651
vt 0.272728 0.472382
vt 0.954545 0.236191
vt 1.000000 0.157461
vt 0.409092 0.078731
vt 0.363637 0.000000
s 1
usemtl Rock_Material
f 89/131/86 102/132/99 101/133/98
f 90/134/87 102/135/99 104/136/101
f 89/137/86 101/138/98 106/139/103
f 89/140/86 106/141/103 108/142/105
f 89/143/86 108/144/105 105/145/102
f 90/134/87 104/136/101 111/146/108
f 91/147/88 103/148/100 113/149/110
f 92/150/89 107/151/104 115/152/112
f 93/153/90 109/154/106 117/155/114
f 94/156/91 110/157/107 119/158/116
f 90/134/87 111/146/108 114/159/111
f 91/147/88 113/149/110 116/160/113
f 92/150/89 115/152/112 118/161/115
f 93/153/90 117/155/114 120/162/117
f 94/156/91 119/158/116 112/163/109
f 95/164/92 121/165/118 126/166/123
f 96/167/93 122/168/119 128/169/125
f 97/170/94 123/171/120 129/172/126
f 98/173/95 124/174/121 130/175/127
f 99/176/96 125/177/122 127/178/124
f 127/178/124 130/179/127 100/180/97
f 127/178/124 125/177/122 130/179/127
f 125/177/122 98/173/95 130/179/127
f 130/175/127 129/181/126 100/182/97
f 130/175/127 124/174/121 129/181/126
f 124/174/121 97/170/94 129/181/126
f 129/172/126 128/183/125 100/184/97
f 129/172/126 123/171/120 128/183/125
f 123/171/120 96/185/93 128/183/125
f 128/169/125 126/186/123 100/187/97
f 128/169/125 122/168/119 126/186/123
f 122/168/119 95/164/92 126/186/123
f 126/166/123 127/188/124 100/189/97
f 126/166/123 121/165/118 127/188/124
f 121/165/118 99/176/96 127/188/124
f 112/163/109 125/177/122 99/176/96
f 112/163/109 119/158/116 125/177/122
f 119/158/116 98/173/95 125/177/122
f 120/162/117 124/174/121 98/173/95
f 120/162/117 117/155/114 124/174/121
f 117/155/114 97/170/94 124/174/121
f 118/161/115 123/171/120 97/170/94
f 118/161/115 115/152/112 123/171/120
f 115/152/112 96/185/93 123/171/120
f 116/160/113 122/168/119 96/167/93
f 116/160/113 113/149/110 122/168/119
f 113/149/110 95/164/92 122/168/119
f 114/159/111 121/165/118 95/164/92
f 114/159/111 111/146/108 121/165/118
f 111/146/108 99/176/96 121/165/118
f 119/158/116 120/162/117 98/173/95
f 119/158/116 110/157/107 120/162/117
f 110/157/107 93/153/90 120/162/117
f 117/155/114 118/161/115 97/170/94
f 117/155/114 109/154/106 118/161/115
f 109/154/106 92/150/89 118/161/115
f 115/152/112 116/190/113 96/185/93
f 115/152/112 107/151/104 116/190/113
f 107/151/104 91/191/88 116/190/113
f 113/149/110 114/159/111 95/164/92
f 113/149/110 103/148/100 114/159/111
f 103/148/100 90/134/87 114/159/111
f 111/146/108 112/163/109 99/176/96
f 111/146/108 104/136/101 112/163/109
f 104/136/101 94/156/91 112/163/109
f 105/145/102 110/157/107 94/156/91
f 105/145/102 108/144/105 110/157/107
f 108/144/105 93/153/90 110/157/107
f 108/142/105 109/154/106 93/153/90
f 108/142/105 106/141/103 109/154/106
f 106/141/103 92/150/89 109/154/106
f 106/139/103 107/151/104 92/150/89
f 106/139/103 101/138/98 107/151/104
f 101/138/98 91/191/88 107/151/104
f 104/136/101 105/192/102 94/156/91
f 104/136/101 102/135/99 105/192/102
f 102/135/99 89/193/86 105/192/102
f 101/133/98 103/148/100 91/147/88
f 101/133/98 102/132/99 103/148/100
f 102/132/99 90/134/87 103/148/100
o Rock_4
v 1.154436 -0.151605 -1.416280
v 1.633871 0.101630 -1.037925
v 0.992723 0.143981 -0.865270
v 0.615575 0.134559 -1.416280
v 0.992799 0.144131 -1.967072
v 1.611713 0.118398 -1.779694
v 1.326084 0.546754 -0.836867
v 0.678905 0.566522 -1.040558
v 0.709788 0.543152 -1.771178
v 1.332914 0.560247 -2.015218
v 1.698900 0.539984 -1.416280
v 1.154436 0.809000 -1.416280
v 1.051967 -0.076302 -1.071206
v 1.411266 -0.047691 -1.210713
v 1.315178 0.093257 -0.872376
v 1.706613 0.069291 -1.416280
v 1.418947 -0.066897 -1.627015
v 0.831700 -0.058367 -1.416280
v 0.720665 0.081334 -1.071410
v 1.051673 -0.078225 -1.762190
v 0.706456 0.068172 -1.770710
v 1.321943 0.076954 -1.979483
v 1.785751 0.335578 -1.193505
v 1.765991 0.335564 -1.633079
v 1.154436 0.335554 -0.726509
v 1.537753 0.335525 -0.841791
v 0.548674 0.335548 -1.201232
v 0.772953 0.335579 -0.844146
v 0.778612 0.335567 -1.981152
v 0.566190 0.335561 -1.626031
v 1.516973 0.335569 -1.964102
v 1.154436 0.335554 -2.084154
v 1.551448 0.555724 -1.096144
v 0.994111 0.576841 -0.873570
v 0.625019 0.584698 -1.416280
v 0.991821 0.582362 -1.965524
v 1.573510 0.576161 -1.751261
v 1.259194 0.762412 -1.064677
v 1.486533 0.748403 -1.416280
v 0.881206 0.759802 -1.199678
v 0.893238 0.729718 -1.624785
v 1.260449 0.770636 -1.771461
vn 0.0161 -0.9997 0.0159
vn 0.6363 -0.6015 0.4831
vn -0.2404 -0.5819 0.7770
vn -0.8418 -0.5398 0.0059
vn -0.2465 -0.5366 -0.8070
vn 0.6846 -0.5331 -0.4972
vn 0.2877 0.5745 0.7662
vn -0.6935 0.5413 0.4754
vn -0.6945 0.5585 -0.4537
vn 0.2885 0.4941 -0.8202
vn 0.8066 0.5908 0.0184
vn -0.0208 0.9997 -0.0127
vn -0.1266 -0.8919 0.4342
vn 0.3169 -0.9181 0.2379
vn 0.1888 -0.6587 0.7283
vn 0.7586 -0.6511 -0.0241
vn 0.3507 -0.9098 -0.2220
vn -0.4665 -0.8844 0.0161
vn -0.6377 -0.6384 0.4310
vn -0.1413 -0.8959 -0.4212
vn -0.6568 -0.6134 -0.4386
vn 0.2254 -0.6022 -0.7658
vn 0.9510 0.1167 0.2863
vn 0.9444 0.0615 -0.3229
vn -0.0249 -0.0324 0.9992
vn 0.5891 0.0670 0.8053
vn -0.9707 -0.0454 0.2360
vn -0.5678 -0.0471 0.8218
vn -0.5817 0.0011 -0.8134
vn -0.9636 0.0148 -0.2669
vn 0.6126 0.0111 -0.7903
vn -0.0288 -0.0421 -0.9987
vn 0.6400 0.6466 0.4151
vn -0.2237 0.6223 0.7501
vn -0.7977 0.6005 -0.0554
vn -0.2883 0.6112 -0.7371
vn 0.6810 0.5959 -0.4256
vn 0.1869 0.8875 0.4213
vn 0.4999 0.8656 0.0303
vn -0.3516 0.9101 0.2193
vn -0.3858 0.8876 -0.2515
vn 0.1305 0.9124 -0.3879
vt 0.181819 0.000000
vt 0.227273 0.078731
vt 0.136365 0.078731
vt 0.272728 0.157461
vt 0.318182 0.078731
vt 0.363637 0.157461
vt 0.909091 0.000000
vt 0.954545 0.078731
vt 0.863636 0.078731
vt 0.727273 0.000000
vt 0.772727 0.078731
vt 0.681818 0.078731
vt 0.545455 0.000000
vt 0.590909 0.078731
vt 0.500000 0.078731
vt 0.318182 0.236191
vt 0.090910 0.157461
vt 0.181819 0.157461
vt 0.136365 0.236191
vt 0.818182 0.157461
vt 0.909091 0.157461
vt 0.863636 0.236191
vt 0.636364 0.157461
vt 0.727273 0.157461
vt 0.681818 0.236191
vt 0.454546 0.157461
vt 0.545455 0.157461
vt 0.500000 0.236191
vt 0.227273 0.236191
vt 0.045455 0.236191
vt 0.772727 0.236191
vt 0.590909 0.236191
vt 0.409092 0.236191
vt 0.181819 0.314921
vt 0.272728 0.314921
vt 0.227273 0.393651
vt 0.000000 0.314921
vt 0.090910 0.314921
vt 0.045455 0.393651
vt 0.727273 0.314921
vt 0.818182 0.314921
vt 0.772727 0.393651
vt 0.545455 0.314921
vt 0.636364 0.314921
vt 0.590909 0.393651
vt 0.363637 0.314921
vt 0.454546 0.314921
vt 0.409092 0.393651
vt 0.500000 0.393651
vt 0.454546 0.472382
vt 0.681818 0.393651
vt 0.636364 0.472382
vt 0.863636 0.393651
vt 0.818182 0.472382
vt 0.909091 0.314921
vt 0.136365 0.393651
vt 0.090910 0.472382
vt 0.318182 0.393651
vt 0.272728 0.472382
vt 0.954545 0.236191
vt 1.000000 0.157461
vt 0.409092 0.078731
vt 0.363637 0.000000
s 1
usemtl Rock_Material
f 131/194/128 144/195/141 143/196/140
f 132/197/129 144/198/141 146/199/143
f 131/200/128 143/201/140 148/202/145
f 131/203/128 148/204/145 150/205/147
f 131/206/128 150/207/147 147/208/144
f 132/197/129 146/199/143 153/209/150
f 133/210/130 145/211/142 155/212/152
f 134/213/131 149/214/146 157/215/154
f 135/216/132 151/217/148 159/218/156
f 136/219/133 152/220/149 161/221/158
f 132/197/129 153/209/150 156/222/153
f 133/210/130 155/212/152 158/223/155
f 134/213/131 157/215/154 160/224/157
f 135/216/132 159/218/156 162/225/159
f 136/219/133 161/221/158 154/226/151
f 137/227/134 163/228/160 168/229/165
f 138/230/135 164/231/161 170/232/167
f 139/233/136 165/234/162 171/235/168
f 140/236/137 166/237/163 172/238/169
f 141/239/138 167/240/164 169/241/166
f 169/241/166 172/242/169 142/243/139
f 169/241/166 167/240/164 172/242/169
f 167/240/164 140/236/137 172/242/169
f 172/238/169 171/244/168 142/245/139
f 172/238/169 166/237/163 171/244/168
f 166/237/163 139/233/136 171/244/168
f 171/235/168 170/246/167 142/247/139
f 171/235/168 165/234/162 170/246/167
f 165/234/162 138/248/135 170/246/167
f 170/232/167 168/249/165 142/250/139
f 170/232/167 164/231/161 168/249/165
f 164/231/161 137/227/134 168/249/165
f 168/229/165 169/251/166 142/252/139
f 168/229/165 163/228/160 169/251/166
f 163/228/160 141/239/138 169/251/166
f 154/226/151 167/240/164 141/239/138
f 154/226/151 161/221/158 167/240/164
f 161/221/158 140/236/137 167/240/164
f 162/225/159 166/237/163 140/236/137
f 162/225/159 159/218/156 166/237/163
f 159/218/156 139/233/136 166/237/163
f 160/224/157 165/234/162 139/233/136
f 160/224/157 157/215/154 165/234/162
f 157/215/154 138/248/135 165/234/162
f 158/223/155 164/231/161 138/230/135
f 158/223/155 155/212/152 164/231/161
f 155/212/152 137/227/134 164/231/161
f 156/222/153 163/228/160 137/227/134
f 156/222/153 153/209/150 163/228/160
f 153/209/150 141/239/138 163/228/160
f 161/221/158 162/225/159 140/236/137
f 161/221/158 152/220/149 162/225/159
f 152/220/149 135/216/132 162/225/159
f 159/218/156 160/224/157 139/233/136
f 159/218/156 151/217/148 160/224/157
f 151/217/148 134/213/131 160/224/157
f 157/215/154 158/253/155 138/248/135
f 157/215/154 149/214/146 158/253/155
f 149/214/146 133/254/130 158/253/155
f 155/212/152 156/222/153 137/227/134
f 155/212/152 145/211/142 156/222/153
f 145/211/142 132/197/129 156/222/153
f 153/209/150 154/226/151 141/239/138
f 153/209/150 146/199/143 154/226/151
f 146/199/143 136/219/133 154/226/151
f 147/208/144 152/220/149 136/219/133
f 147/208/144 150/207/147 152/220/149
f 150/207/147 135/216/132 152/220/149
f 150/205/147 151/217/148 135/216/132
f 150/205/147 148/204/145 151/217/148
f 148/204/145 134/213/131 151/217/148
f 148/202/145 149/214/146 134/213/131
f 148/202/145 143/201/140 149/214/146
f 143/201/140 133/254/130 149/214/146
f 146/199/143 147/255/144 136/219/133
f 146/199/143 144/198/141 147/255/144
f 144/198/141 131/256/128 147/255/144
f 143/196/140 145/211/142 133/210/130
f 143/196/140 144/195/141 145/211/142
f 144/195/141 132/197/129 145/211/142
o Rock_5
v 0.563338 0.059556 0.394955
v 0.864272 0.244414 0.617328
v 0.445418 0.238852 0.763803
v 0.145329 0.217822 0.394955
v 0.441782 0.232058 0.015065
v 0.876620 0.235599 0.163731
v 0.685460 0.564747 0.776562
v 0.270003 0.545909 0.611880
v 0.248925 0.560958 0.162920
v 0.685724 0.565240 0.012547
v 0.957329 0.564051 0.394955
v 0.563338 0.782688 0.394955
v 0.499841 0.130879 0.594100
v 0.761704 0.055947 0.541062
v 0.682113 0.195767 0.765853
v 0.912464 0.220735 0.394955
v 0.737859 0.111558 0.265942
v 0.338403 0.094174 0.394955
v 0.261984 0.204163 0.617304
v 0.497473 0.116415 0.188619
v 0.257882 0.200568 0.169667
v 0.669114 0.225563 0.063521
v 0.978502 0.397876 0.531960
v 0.962235 0.397874 0.263168
v 0.563338 0.397874 0.810709
v 0.808295 0.397876 0.737843
v 0.161414 0.397874 0.527713
v 0.296403 0.397881 0.767710
v 0.319068 0.397873 0.053002
v 0.141154 0.397872 0.255698
v 0.815347 0.397873 0.042484
v 0.563338 0.397874 -0.048623
v 0.832105 0.563027 0.593950
v 0.456246 0.573203 0.730387
v 0.196963 0.587250 0.394955
v 0.455371 0.575209 0.056868
v 0.861202 0.588526 0.175108
v 0.633924 0.708166 0.615627
v 0.785138 0.695659 0.394955
v 0.374715 0.717079 0.534077
v 0.377263 0.711138 0.257659
v 0.629893 0.683544 0.186526
vn -0.0627 -0.9976 -0.0304
vn 0.7566 -0.4322 0.4906
vn -0.2319 -0.5591 0.7960
vn -0.8692 -0.4935 0.0297
vn -0.2255 -0.5370 -0.8129
vn 0.6826 -0.5396 -0.4929
vn 0.2911 0.4773 0.8291
vn -0.6938 0.5144 0.5040
vn -0.6705 0.4938 -0.5537
vn 0.2378 0.5474 -0.8024
vn 0.8525 0.5207 0.0463
vn 0.0534 0.9974 -0.0477
vn -0.1894 -0.8965 0.4005
vn 0.3666 -0.9002 0.2348
vn 0.2206 -0.5483 0.8066
vn 0.8264 -0.5624 -0.0272
vn 0.3349 -0.8819 -0.3317
vn -0.3401 -0.9401 0.0230
vn -0.5983 -0.6301 0.4950
vn -0.0659 -0.9072 -0.4154
vn -0.6076 -0.5987 -0.5218
vn 0.2518 -0.6354 -0.7300
vn 0.9402 -0.0060 0.3407
vn 0.9517 -0.0388 -0.3045
vn -0.0010 0.0356 0.9994
vn 0.6171 0.0443 0.7857
vn -0.9374 0.0897 0.3366
vn -0.5763 0.0655 0.8146
vn -0.5713 0.0498 -0.8192
vn -0.9428 0.0574 -0.3283
vn 0.5970 -0.0524 -0.8006
vn -0.0114 -0.0148 -0.9998
vn 0.6586 0.5831 0.4756
vn -0.2672 0.5693 0.7775
vn -0.8256 0.5622 0.0477
vn -0.2585 0.5900 -0.7649
vn 0.6545 0.5938 -0.4680
vn 0.2033 0.8542 0.4785
vn 0.4945 0.8689 0.0210
vn -0.4298 0.8346 0.3444
vn -0.3692 0.8656 -0.3384
vn 0.1430 0.8765 -0.4597
vt 0.181819 0.000000
vt 0.227273 0.078731
vt 0.136365 0.078731
vt 0.272728 0.157461
vt 0.318182 0.078731
vt 0.363637 0.157461
vt 0.909091 0.000000
vt 0.954545 0.078731
vt 0.863636 0.078731
vt 0.727273 0.000000
vt 0.772727 0.078731
vt 0.681818 0.078731
vt 0.545455 0.000000
vt 0.590909 0.078731
vt 0.500000 0.078731
vt 0.318182 0.236191
vt 0.090910 0.157461
vt 0.181819 0.157461
vt 0.136365 0.236191
vt 0.818182 0.157461
vt 0.909091 0.157461
vt 0.863636 0.236191
vt 0.636364 0.157461
vt 0.727273 0.157461
vt 0.681818 0.236191
vt 0.454546 0.157461
vt 0.545455 0.157461
vt 0.500000 0.236191
vt 0.227273 0.236191
vt 0.045455 0.236191
vt 0.772727 0.236191
vt 0.590909 0.236191
vt 0.409092 0.236191
vt 0.181819 0.314921
vt 0.272728 0.314921
vt 0.227273 0.393651
vt 0.000000 0.314921
vt 0.090910 0.314921
vt 0.045455 0.393651
vt 0.727273 0.314921
vt 0.818182 0.314921
vt 0.772727 0.393651
vt 0.545455 0.314921
vt 0.636364 0.314921
vt 0.590909 0.393651
vt 0.363637 0.314921
vt 0.454546 0.314921
vt 0.409092 0.393651
vt 0.500000 0.393651
vt 0.454546 0.472382
vt 0.681818 0.393651
vt 0.636364 0.472382
vt 0.863636 0.393651
vt 0.818182 0.472382
vt 0.909091 0.314921
vt 0.136365 0.393651
vt 0.090910 0.472382
vt 0.318182 0.393651
vt 0.272728 0.472382
vt 0.954545 0.236191
vt 1.000000 0.157461
vt 0.409092 0.078731
vt 0.363637 0.000000
s 1
usemtl Rock_Material
f 173/257/170 186/258/183 185/259/182
f 174/260/171 186/261/183 188/262/185
f 173/263/170 185/264/182 190/265/187
f 173/266/170 190/267/187 192/268/189
f 173/269/170 192/270/189 189/271/186
f 174/260/171 188/262/185 195/272/192
f 175/273/172 187/274/184 197/275/194
f 176/276/173 191/277/188 199/278/196
f 177/279/174 193/280/190 201/281/198
f 178/282/175 194/283/191 203/284/200
f 174/260/171 195/272/192 198/285/195
f 175/273/172 197/275/194 200/286/197
f 176/276/173 199/278/196 202/287/199
f 177/279/174 201/281/198 204/288/201
f 178/282/175 203/284/200 196/289/193
f 179/290/176 205/291/202 210/292/207
f 180/293/177 206/294/203 212/295/209
f 181/296/178 207/297/204 213/298/210
f 182/299/179 208/300/205 214/301/211
f 183/302/180 209/303/206 211/304/208
f 211/304/208 214/305/211 184/306/181
f 211/304/208 209/303/206 214/305/211
f 209/303/206 182/299/179 214/305/211
f 214/301/211 213/307/210 184/308/181
f 214/301/211 208/300/205 213/307/210
f 208/300/205 181/296/178 213/307/210
f 213/298/210 212/309/209 184/310/181
f 213/298/210 207/297/204 212/309/209
f 207/297/204 180/311/177 212/309/209
f 212/295/209 210/312/207 184/313/181
f 212/295/209 206/294/203 210/312/207
f 206/294/203 179/290/176 210/312/207
f 210/292/207 211/314/208 184/315/181
f 210/292/207 205/291/202 211/314/208
f 205/291/202 183/302/180 211/314/208
f 196/289/193 209/303/206 183/302/180
f 196/289/193 203/284/200 209/303/206
f 203/284/200 182/299/179 209/303/206
f 204/288/201 208/300/205 182/299/179
f 204/288/201 201/281/198 208/300/205
f 201/281/198 181/296/178 208/300/205
f 202/287/199 207/297/204 181/296/178
f 202/287/199 199/278/196 207/297/204
f 199/278/196 180/311/177 207/297/204
f 200/286/197 206/294/203 180/293/177
f 200/286/197 197/275/194 206/294/203
f 197/275/194 179/290/176 206/294/203
f 198/285/195 205/291/202 179/290/176
f 198/285/195 195/272/192 205/291/202
f 195/272/192 183/302/180 205/291/202
f 203/284/200 204/288/201 182/299/179
f 203/284/200 194/283/191 204/288/201
f 194/283/191 177/279/174 204/288/201
f 201/281/198 202/287/199 181/296/178
f 201/281/198 193/280/190 202/287/199
f 193/280/190 176/276/173 202/287/199
f 199/278/196 200/316/197 180/311/177
f 199/278/196 191/277/188 200/316/197
f 191/277/188 175/317/172 200/316/197
f 197/275/194 198/285/195 179/290/176
f 197/275/194 187/274/184 198/285/195
f 187/274/184 174/260/171 198/285/195
f 195/272/192 196/289/193 183/302/180
f 195/272/192 188/262/185 196/289/193
f 188/262/185 178/282/175 196/289/193
f 189/271/186 194/283/191 178/282/175
f 189/271/186 192/270/189 194/283/191
f 192/270/189 177/279/174 194/283/191
f 192/268/189 193/280/190 177/279/174
f 192/268/189 190/267/187 193/280/190
f 190/267/187 176/276/173 193/280/190
f 190/265/187 191/277/188 176/276/173
f 190/265/187 185/264/182 191/277/188
f 185/264/182 175/317/172 191/277/188
f 188/262/185 189/318/186 178/282/175
f 188/262/185 186/261/183 189/318/186
f 186/261/183 173/319/170 189/318/186
f 185/259/182 187/274/184 175/273/172
f 185/259/182 186/258/183 187/274/184
f 186/258/183 174/260/171 187/274/184
o Rock_6
v 0.166703 -0.226728 1.183204
v 0.792225 0.134021 1.616243
v -0.065221 0.147581 1.861460
v -0.592044 0.142655 1.183204
v -0.065319 0.147390 0.504633
v 0.783459 0.140502 0.756793
v 0.403268 0.746258 1.876328
v -0.460525 0.752085 1.617533
v -0.439246 0.736354 0.764964
v 0.404292 0.748241 0.486802
v 0.963525 0.764943 1.183204
v 0.166704 1.095523 1.183204
v 0.026942 -0.139983 1.592892
v 0.545520 -0.171219 1.446166
v 0.384936 0.101339 1.820720
v 0.882278 0.094387 1.183204
v 0.547778 -0.176681 0.918535
v -0.297142 -0.162615 1.183204
v -0.408105 0.098132 1.579846
v 0.033621 -0.097704 0.794914
v -0.448360 0.061614 0.756101
v 0.401328 0.062291 0.493130
v 0.968249 0.442429 1.430785
v 0.976027 0.442426 0.933000
v 0.166703 0.442423 2.014345
v 0.657060 0.442407 1.824195
v -0.650146 0.442422 1.435948
v -0.323595 0.442438 1.824111
v -0.339275 0.442421 0.519876
v -0.656631 0.442425 0.928273
v 0.679019 0.442431 0.510814
v 0.166703 0.442423 0.353549
v 0.758134 0.801793 1.592425
v -0.057628 0.798033 1.840273
v -0.570626 0.806393 1.183204
v -0.057929 0.798750 0.525171
v 0.740160 0.785487 0.787586
v 0.307201 1.029490 1.595252
v 0.625072 1.036737 1.183204
v -0.199897 1.026506 1.436928
v -0.205900 1.041031 0.924941
v 0.307102 1.028864 0.771474
vn -0.0428 -0.9984 -0.0377
vn 0.6996 -0.4616 0.5455
vn -0.2725 -0.5059 0.8184
vn -0.8673 -0.4952 0.0510
vn -0.2555 -0.5335 -0.8063
vn 0.7321 -0.4753 -0.4880
vn 0.2754 0.4874 0.8286
vn -0.6823 0.4856 0.5465
vn -0.6827 0.5004 -0.5324
vn 0.2703 0.5195 -0.8106
vn 0.8730 0.4874 -0.0165
vn -0.0001 1.0000 0.0075
vn -0.1517 -0.8620 0.4837
vn 0.3646 -0.8777 0.3111
vn 0.2339 -0.5570 0.7969
vn 0.8385 -0.5449 -0.0035
vn 0.3560 -0.8907 -0.2829
vn -0.4415 -0.8972 0.0105
vn -0.6446 -0.5623 0.5180
vn -0.1462 -0.8831 -0.4457
vn -0.6232 -0.5945 -0.5080
vn 0.2063 -0.5887 -0.7816
vn 0.9422 -0.0313 0.3335
vn 0.9464 -0.0221 -0.3222
vn 0.0009 -0.0285 0.9996
vn 0.5740 -0.0133 0.8188
vn -0.9398 -0.0346 0.3399
vn -0.5732 -0.0339 0.8187
vn -0.5642 0.0276 -0.8252
vn -0.9491 0.0257 -0.3140
vn 0.6014 0.0360 -0.7982
vn -0.0284 0.0115 -0.9995
vn 0.6461 0.5531 0.5259
vn -0.2528 0.5676 0.7835
vn -0.8121 0.5833 -0.0130
vn -0.2571 0.5742 -0.7773
vn 0.6388 0.5813 -0.5041
vn 0.1276 0.8882 0.4413
vn 0.4281 0.9036 -0.0168
vn -0.3448 0.8959 0.2802
vn -0.3648 0.8869 -0.2835
vn 0.1532 0.8838 -0.4420
vt 0.181819 0.000000
vt 0.227273 0.078731
vt 0.136365 0.078731
vt 0.272728 0.157461
vt 0.318182 0.078731
vt 0.363637 0.157461
vt 0.909091 0.000000
vt 0.954545 0.078731
vt 0.863636 0.078731
vt 0.727273 0.000000
vt 0.772727 0.078731
vt 0.681818 0.078731
vt 0.545455 0.000000
vt 0.590909 0.078731
vt 0.500000 0.078731
vt 0.318182 0.236191
vt 0.090910 0.157461
vt 0.181819 0.157461
vt 0.136365 0.236191
vt 0.818182 0.157461
vt 0.909091 0.157461
vt 0.863636 0.236191
vt 0.636364 0.157461
vt 0.727273 0.157461
vt 0.681818 0.236191
vt 0.454546 0.157461
vt 0.545455 0.157461
vt 0.500000 0.236191
vt 0.227273 0.236191
vt 0.045455 0.236191
vt 0.772727 0.236191
vt 0.590909 0.236191
vt 0.409092 0.236191
vt 0.181819 0.314921
vt 0.272728 0.314921
vt 0.227273 0.393651
vt 0.000000 0.314921
vt 0.090910 0.314921
vt 0.045455 0.393651
vt 0.727273 0.314921
vt 0.818182 0.314921
vt 0.772727 0.393651
vt 0.545455 0.314921
vt 0.636364 0.314921
vt 0.590909 0.393651
vt 0.363637 0.314921
vt 0.454546 0.314921
vt 0.409092 0.393651
vt 0.500000 0.393651
vt 0.454546 0.472382
vt 0.681818 0.393651
vt 0.636364 0.472382
vt 0.863636 0.393651
vt 0.818182 0.472382
vt 0.909091 0.314921
vt 0.136365 0.393651
vt 0.090910 0.472382
vt 0.318182 0.393651
vt 0.272728 0.472382
vt 0.954545 0.236191
vt 1.000000 0.157461
vt 0.409092 0.078731
vt 0.363637 0.000000
s 1
usemtl Rock_Material
f 215/320/212 228/321/225 227/322/224
f 216/323/213 228/324/225 230/325/227
f 215/326/212 227/327/224 232/328/229
f 215/329/212 232/330/229 234/331/231
f 215/332/212 234/333/231 231/334/228
f 216/323/213 230/325/227 237/335/234
f 217/336/214 229/337/226 239/338/236
f 218/339/215 233/340/230 241/341/238
f 219/342/216 235/343/232 243/344/240
f 220/345/217 236/346/233 245/347/242
f 216/323/213 237/335/234 240/348/237
f 217/336/214 239/338/236 242/349/239
f 218/339/215 241/341/238 244/350/241
f 219/342/216 243/344/240 246/351/243
f 220/345/217 245/347/242 238/352/235
f 221/353/218 247/354/244 252/355/249
f 222/356/219 248/357/245 254/358/251
f 223/359/220 249/360/246 255/361/252
f 224/362/221 250/363/247 256/364/253
f 225/365/222 251/366/248 253/367/250
f 253/367/250 256/368/253 226/369/223
f 253/367/250 251/366/248 256/368/253
f 251/366/248 224/362/221 256/368/253
f 256/364/253 255/370/252 226/371/223
f 256/364/253 250/363/247 255/370/252
f 250/363/247 223/359/220 255/370/252
f 255/361/252 254/372/251 226/373/223
f 255/361/252 249/360/246 254/372/251
f 249/360/246 222/374/219 254/372/251
f 254/358/251 252/375/249 226/376/223
f 254/358/251 248/357/245 252/375/249
f 248/357/245 221/353/218 252/375/249
f 252/355/249 253/377/250 226/378/223
f 252/355/249 247/354/244 253/377/250
f 247/354/244 225/365/222 253/377/250
f 238/352/235 251/366/248 225/365/222
f 238/352/235 245/347/242 251/366/248
f 245/347/242 224/362/221 251/366/248
f 246/351/243 250/363/247 224/362/221
f 246/351/243 243/344/240 250/363/247
f 243/344/240 223/359/220 250/363/247
f 244/350/241 249/360/246 223/359/220
f 244/350/241 241/341/238 249/360/246
f 241/341/238 222/374/219 249/360/246
f 242/349/239 248/357/245 222/356/219
f 242/349/239 239/338/236 248/357/245
f 239/338/236 221/353/218 248/357/245
f 240/348/237 247/354/244 221/353/218
f 240/348/237 237/335/234 247/354/244
f 237/335/234 225/365/222 247/354/244
f 245/347/242 246/351/243 224/362/221
f 245/347/242 236/346/233 246/351/243
f 236/346/233 219/342/216 246/351/243
f 243/344/240 244/350/241 223/359/220
f 243/344/240 235/343/232 244/350/241
f 235/343/232 218/339/215 244/350/241
f 241/341/238 242/379/239 222/374/219
f 241/341/238 233/340/230 242/379/239
f 233/340/230 217/380/214 242/379/239
f 239/338/236 240/348/237 221/353/218
f 239/338/236 229/337/226 240/348/237
f 229/337/226 216/323/213 240/348/237
f 237/335/234 238/352/235 225/365/222
f 237/335/234 230/325/227 238/352/235
f 230/325/227 220/345/217 238/352/235
f 231/334/228 236/346/233 220/345/217
f 231/334/228 234/333/231 236/346/233
f 234/333/231 219/342/216 236/346/233
f 234/331/231 235/343/232 219/342/216
f 234/331/231 232/330/229 235/343/232
f 232/330/229 218/339/215 235/343/232
f 232/328/229 233/340/230 218/339/215
f 232/328/229 227/327/224 233/340/230
f 227/327/224 217/380/214 233/340/230
f 230/325/227 231/381/228 220/345/217
f 230/325/227 228/324/225 231/381/228
f 228/324/225 215/382/212 231/381/228
f 227/322/224 229/337/226 217/336/214
f 227/322/224 228/321/225 229/337/226
f 228/321/225 216/323/213 229/337/226
o Rock_7
v 1.280362 -0.348361 0.419344
v 1.744556 -0.024681 0.891988
v 1.096512 -0.035855 1.199563
v 0.727139 -0.013835 0.419344
v 1.113358 -0.007120 -0.321204
v 1.732520 -0.016810 -0.046703
v 1.463252 0.517725 1.197280
v 0.802462 0.517173 0.899505
v 0.803367 0.516581 -0.060321
v 1.458305 0.509288 -0.346943
v 1.846874 0.504367 0.419344
v 1.280411 0.806230 0.419344
v 1.174842 -0.272462 0.871920
v 1.561591 -0.282945 0.701741
v 1.440820 -0.054531 1.127578
v 1.819727 -0.067324 0.419344
v 1.554588 -0.268001 0.140779
v 0.951522 -0.250583 0.419344
v 0.856539 -0.057304 0.859245
v 1.177778 -0.255919 -0.026379
v 0.807721 -0.096442 -0.047139
v 1.443757 -0.060600 -0.295753
v 1.925611 0.241839 0.705777
v 1.871320 0.241728 0.146226
v 1.280367 0.241762 1.338784
v 1.664352 0.241700 1.154074
v 0.675217 0.241767 0.695943
v 0.913378 0.241700 1.136010
v 0.890159 0.241869 -0.321998
v 0.681616 0.241780 0.144314
v 1.658034 0.241746 -0.308671
v 1.280367 0.241762 -0.509980
v 1.710594 0.545959 0.862730
v 1.114232 0.549795 1.140854
v 0.745123 0.548157 0.419344
v 1.113624 0.551051 -0.303586
v 1.732431 0.563465 -0.035932
v 1.383868 0.744587 0.867198
v 1.611194 0.737518 0.419344
v 1.016206 0.730056 0.692404
v 1.007090 0.749510 0.141296
v 1.382293 0.735707 -0.024832
vn -0.0389 -0.9990 -0.0220
vn 0.7284 -0.5262 0.4389
vn -0.3347 -0.5612 0.7570
vn -0.8829 -0.4675 0.0439
vn -0.2753 -0.6014 -0.7500
vn 0.7676 -0.4877 -0.4160
vn 0.3259 0.5811 0.7458
vn -0.7534 0.5050 0.4211
vn -0.7657 0.5033 -0.4004
vn 0.3181 0.5846 -0.7464
vn 0.8698 0.4933 -0.0087
vn 0.0015 1.0000 0.0047
vn -0.1853 -0.9078 0.3763
vn 0.4192 -0.8762 0.2378
vn 0.3224 -0.6385 0.6988
vn 0.8391 -0.5427 -0.0366
vn 0.4165 -0.8736 -0.2516
vn -0.5128 -0.8581 0.0258
vn -0.7407 -0.5655 0.3628
vn -0.1323 -0.9103 -0.3922
vn -0.7085 -0.5895 -0.3880
vn 0.2907 -0.6558 -0.6967
vn 0.9739 0.0140 0.2266
vn 0.9686 -0.0217 -0.2476
vn -0.0098 -0.0109 0.9999
vn 0.6824 -0.0303 0.7304
vn -0.9731 -0.0452 0.2261
vn -0.7050 0.0002 0.7092
vn -0.6719 -0.0027 -0.7407
vn -0.9823 0.0100 -0.1871
vn 0.7044 -0.0394 -0.7087
vn 0.0013 -0.0322 -0.9995
vn 0.7001 0.6115 0.3687
vn -0.3228 0.6415 0.6959
vn -0.8358 0.5490 0.0053
vn -0.2844 0.6636 -0.6919
vn 0.7231 0.5764 -0.3807
vn 0.1505 0.9257 0.3469
vn 0.4770 0.8788 0.0110
vn -0.3856 0.8997 0.2043
vn -0.3819 0.9025 -0.1990
vn 0.1463 0.9235 -0.3547
vt 0.181819 0.000000
vt 0.227273 0.078731
vt 0.136365 0.078731
vt 0.272728 0.157461
vt 0.318182 0.078731
vt 0.363637 0.157461
vt 0.909091 0.000000
vt 0.954545 0.078731
vt 0.863636 0.078731
vt 0.727273 0.000000
vt 0.772727 0.078731
vt 0.681818 0.078731
vt 0.545455 0.000000
vt 0.590909 0.078731
vt 0.500000 0.078731
vt 0.318182 0.236191
vt 0.090910 0.157461
vt 0.181819 0.157461
vt 0.136365 0.236191
vt 0.818182 0.157461
vt 0.909091 0.157461
vt 0.863636 0.236191
vt 0.636364 0.157461
vt 0.727273 0.157461
vt 0.681818 0.236191
vt 0.454546 0.157461
vt 0.545455 0.157461
vt 0.500000 0.236191
vt 0.227273 0.236191
vt 0.045455 0.236191
vt 0.772727 0.236191
vt 0.590909 0.236191
vt 0.409092 0.236191
vt 0.181819 0.314921
vt 0.272728 0.314921
vt 0.227273 0.393651
vt 0.000000 0.314921
vt 0.090910 0.314921
vt 0.045455 0.393651
vt 0.727273 0.314921
vt 0.818182 0.314921
vt 0.772727 0.393651
vt 0.545455 0.314921
vt 0.636364 0.314921
vt 0.590909 0.393651
vt 0.363637 0.314921
vt 0.454546 0.314921
vt 0.409092 0.393651
vt 0.500000 0.393651
vt 0.454546 0.472382
vt 0.681818 0.393651
vt 0.636364 0.472382
vt 0.863636 0.393651
vt 0.818182 0.472382
vt 0.909091 0.314921
vt 0.136365 0.393651
vt 0.090910 0.472382
vt 0.318182 0.393651
vt 0.272728 0.472382
vt 0.954545 0.236191
vt 1.000000 0.157461
vt 0.409092 0.078731
vt 0.363637 0.000000
s 1
usemtl Rock_Material
f 257/383/254 270/384/267 269/385/266
f 258/386/255 270/387/267 272/388/269
f 257/389/254 269/390/266 274/391/271
f 257/392/254 274/393/271 276/394/273
f 257/395/254 276/396/273 273/397/270
f 258/386/255 272/388/269 279/398/276
f 259/399/256 271/400/268 281/401/278
f 260/402/257 275/403/272 283/404/280
f 261/405/258 277/406/274 285/407/282
f 262/408/259 278/409/275 287/410/284
f 258/386/255 279/398/276 282/411/279
f 259/399/256 281/401/278 284/412/281
f 260/402/257 283/404/280 286/413/283
f 261/405/258 285/407/282 288/414/285
f 262/408/259 287/410/284 280/415/277
f 263/416/260 289/417/286 294/418/291
f 264/419/261 290/420/287 296/421/293
f 265/422/262 291/423/288 297/424/294
f 266/425/263 292/426/289 298/427/295
f 267/428/264 293/429/290 295/430/292
f 295/430/292 298/431/295 268/432/265
f 295/430/292 293/429/290 298/431/295
f 293/429/290 266/425/263 298/431/295
f 298/427/295 297/433/294 268/434/265
f 298/427/295 292/426/289 297/433/294
f 292/426/289 265/422/262 297/433/294
f 297/424/294 296/435/293 268/436/265
f 297/424/294 291/423/288 296/435/293
f 291/423/288 264/437/261 296/435/293
f 296/421/293 294/438/291 268/439/265
f 296/421/293 290/420/287 294/438/291
f 290/420/287 263/416/260 294/438/291
f 294/418/291 295/440/292 268/441/265
f 294/418/291 289/417/286 295/440/292
f 289/417/286 267/428/264 295/440/292
f 280/415/277 293/429/290 267/428/264
f 280/415/277 287/410/284 293/429/290
f 287/410/284 266/425/263 293/429/290
f 288/414/285 292/426/289 266/425/263
f 288/414/285 285/407/282 292/426/289
f 285/407/282 265/422/262 292/426/289
f 286/413/283 291/423/288 265/422/262
f 286/413/283 283/404/280 291/423/288
f 283/404/280 264/437/261 291/423/288
f 284/412/281 290/420/287 264/419/261
f 284/412/281 281/401/278 290/420/287
f 281/401/278 263/416/260 290/420/287
f 282/411/279 289/417/286 263/416/260
f 282/411/279 279/398/276 289/417/286
f 279/398/276 267/428/264 289/417/286
f 287/410/284 288/414/285 266/425/263
f 287/410/284 278/409/275 288/414/285
f 278/409/275 261/405/258 288/414/285
f 285/407/282 286/413/283 265/422/262
f 285/407/282 277/406/274 286/413/283
f 277/406/274 260/402/257 286/413/283
f 283/404/280 284/442/281 264/437/261
f 283/404/280 275/403/272 284/442/281
f 275/403/272 259/443/256 284/442/281
f 281/401/278 282/411/279 263/416/260
f 281/401/278 271/400/268 282/411/279
f 271/400/268 258/386/255 282/411/279
f 279/398/276 280/415/277 267/428/264
f 279/398/276 272/388/269 280/415/277
f 272/388/269 262/408/259 280/415/277
f 273/397/270 278/409/275 262/408/259
f 273/397/270 276/396/273 278/409/275
f 276/396/273 261/405/258 278/409/275
f 276/394/273 277/406/274 261/405/258
f 276/394/273 274/393/271 277/406/274
f 274/393/271 260/402/257 277/406/274
f 274/391/271 275/403/272 260/402/257
f 274/391/271 269/390/266 275/403/272
f 269/390/266 259/443/256 275/403/272
f 272/388/269 273/444/270 262/408/259
f 272/388/269 270/387/267 273/444/270
f 270/387/267 257/445/254 273/444/270
f 269/385/266 271/400/268 259/399/256
f 269/385/266 270/384/267 271/400/268
f 270/384/267 258/386/255 271/400/268
