# Blender 5.1.1
# www.blender.org
mtllib Directions.mtl
o Sign_Post
v -0.065000 0.000000 0.065000
v -0.065000 0.015000 0.080000
v -0.080000 0.015000 0.065000
v -0.065000 1.485000 0.080000
v -0.065000 1.500000 0.065000
v -0.080000 1.485000 0.065000
v -0.065000 0.000000 -0.065000
v -0.080000 0.015000 -0.065000
v -0.065000 0.015000 -0.080000
v -0.065000 1.500000 -0.065000
v -0.065000 1.485000 -0.080000
v -0.080000 1.485000 -0.065000
v 0.065000 0.000000 0.065000
v 0.080000 0.015000 0.065000
v 0.065000 0.015000 0.080000
v 0.065000 1.500000 0.065000
v 0.065000 1.485000 0.080000
v 0.080000 1.485000 0.065000
v 0.065000 0.000000 -0.065000
v 0.065000 0.015000 -0.080000
v 0.080000 0.015000 -0.065000
v 0.065000 1.500000 -0.065000
v 0.080000 1.485000 -0.065000
v 0.065000 1.485000 -0.080000
vn -0.5774 -0.5774 0.5773
vn -0.5774 0.5774 0.5773
vn -0.5774 -0.5774 -0.5773
vn -0.5774 0.5774 -0.5773
vn 0.5774 -0.5774 0.5773
vn 0.5774 0.5774 0.5773
vn 0.5774 -0.5774 -0.5773
vn 0.5774 0.5774 -0.5773
vn -0.7071 -0.7071 -0.0000
vn -0.7071 -0.0000 0.7071
vn -0.7071 0.7071 -0.0000
vn -0.7071 -0.0000 -0.7071
vn -0.0000 -0.7071 -0.7071
vn -0.0000 0.7071 -0.7071
vn 0.7071 -0.0000 -0.7071
vn 0.7071 -0.7071 -0.0000
vn 0.7071 0.7071 -0.0000
vn 0.7071 -0.0000 0.7071
vn -0.0000 -0.7071 0.7071
vn -0.0000 0.7071 0.7071
vn -0.0000 -1.0000 -0.0000
vn -1.0000 -0.0000 -0.0000
vn -0.0000 -0.0000 1.0000
vn -0.0000 1.0000 -0.0000
vn -0.0000 -0.0000 -1.0000
vn 1.0000 -0.0000 -0.0000
vt 0.148438 0.726562
vt 0.148438 0.750000
vt 0.125000 0.726562
vt 0.622500 0.000000
vt 0.625000 0.023438
vt 0.622500 0.023438
vt 0.148438 0.523438
vt 0.125000 0.523438
vt 0.148438 0.500000
vt 0.625000 0.242188
vt 0.622500 0.267578
vt 0.622500 0.226562
vt 0.351562 0.726562
vt 0.376875 0.726563
vt 0.364531 0.761719
vt 0.636719 0.750000
vt 0.622500 0.773438
vt 0.622500 0.732422
vt 0.351562 0.523438
vt 0.364531 0.488281
vt 0.376875 0.523438
vt 0.636719 0.500000
vt 0.622500 0.517578
vt 0.622500 0.476562
vt 0.377500 0.023438
vt 0.377500 0.000000
vt 0.377500 0.273438
vt 0.625000 0.976562
vt 0.377500 0.226562
vt 0.377500 0.976562
vt 0.851562 0.523438
vt 0.622500 0.976562
vt 0.851562 0.726562
s 0
usemtl Sign_Wood
f 1/1/1 2/2/1 3/3/1
f 4/4/2 5/5/2 6/6/2
f 7/7/3 8/8/3 9/9/3
f 10/10/4 11/11/4 12/12/4
f 13/13/5 14/14/5 15/15/5
f 16/16/6 17/17/6 18/18/6
f 19/19/7 20/20/7 21/21/7
f 22/22/8 23/23/8 24/24/8
f 1/1/9 8/8/9 7/7/9
f 4/4/10 3/25/10 2/26/10
f 10/10/11 6/6/11 5/5/11
f 9/27/12 12/12/12 11/11/12
f 7/7/13 20/20/13 19/19/13
f 22/22/14 11/11/14 10/10/14
f 21/21/15 24/24/15 23/23/15
f 19/19/16 14/14/16 13/13/16
f 16/16/17 23/23/17 22/22/17
f 15/15/18 18/18/18 17/17/18
f 13/13/19 2/2/19 1/1/19
f 5/28/20 17/17/20 16/16/20
f 19/19/21 1/1/21 7/7/21
f 6/6/22 8/29/22 3/25/22
f 17/17/23 2/30/23 15/15/23
f 10/31/24 16/16/24 22/22/24
f 11/11/25 20/20/25 9/27/25
f 23/23/26 14/14/26 21/21/26
f 1/1/9 3/3/9 8/8/9
f 4/4/10 6/6/10 3/25/10
f 10/10/11 12/12/11 6/6/11
f 9/27/12 8/29/12 12/12/12
f 7/7/13 9/9/13 20/20/13
f 22/22/14 24/24/14 11/11/14
f 21/21/15 20/20/15 24/24/15
f 19/19/16 21/21/16 14/14/16
f 16/16/17 18/18/17 23/23/17
f 15/15/18 14/14/18 18/18/18
f 13/13/19 15/15/19 2/2/19
f 5/28/20 4/32/20 17/17/20
f 19/19/21 13/13/21 1/1/21
f 6/6/22 12/12/22 8/29/22
f 17/17/23 4/32/23 2/30/23
f 10/31/24 5/33/24 16/16/24
f 11/11/25 24/24/25 20/20/25
f 23/23/26 18/18/26 14/14/26
o Sign_Base
v 0.000000 0.000000 -0.264871
v 0.000000 0.015000 -0.280000
v 0.000000 0.100000 -0.264871
v 0.000000 0.085000 -0.280000
v 0.068554 0.000000 -0.255845
v 0.072469 0.015000 -0.270459
v 0.068554 0.100000 -0.255845
v 0.072469 0.085000 -0.270459
v 0.132435 0.000000 -0.229385
v 0.140000 0.015000 -0.242487
v 0.132435 0.100000 -0.229385
v 0.140000 0.085000 -0.242487
v 0.187292 0.000000 -0.187292
v 0.197990 0.015000 -0.197990
v 0.187292 0.100000 -0.187292
v 0.197990 0.085000 -0.197990
v 0.229385 0.000000 -0.132435
v 0.242487 0.015000 -0.140000
v 0.229385 0.100000 -0.132435
v 0.242487 0.085000 -0.140000
v 0.255845 0.000000 -0.068554
v 0.270459 0.015000 -0.072469
v 0.255845 0.100000 -0.068554
v 0.270459 0.085000 -0.072469
v 0.264871 0.000000 0.000000
v 0.280000 0.015000 0.000000
v 0.264871 0.100000 0.000000
v 0.280000 0.085000 0.000000
v 0.255845 0.000000 0.068554
v 0.270459 0.015000 0.072469
v 0.255845 0.100000 0.068554
v 0.270459 0.085000 0.072469
v 0.229385 0.000000 0.132435
v 0.242487 0.015000 0.140000
v 0.229385 0.100000 0.132435
v 0.242487 0.085000 0.140000
v 0.187292 0.000000 0.187292
v 0.197990 0.015000 0.197990
v 0.187292 0.100000 0.187292
v 0.197990 0.085000 0.197990
v 0.132435 0.000000 0.229385
v 0.140000 0.015000 0.242487
v 0.132435 0.100000 0.229385
v 0.140000 0.085000 0.242487
v 0.068554 0.000000 0.255845
v 0.072469 0.015000 0.270459
v 0.068554 0.100000 0.255845
v 0.072469 0.085000 0.270459
v 0.000000 0.000000 0.264871
v 0.000000 0.015000 0.280000
v 0.000000 0.100000 0.264871
v 0.000000 0.085000 0.280000
v -0.068554 0.000000 0.255845
v -0.072469 0.015000 0.270459
v -0.068554 0.100000 0.255845
v -0.072469 0.085000 0.270459
v -0.132435 0.000000 0.229385
v -0.140000 0.015000 0.242487
v -0.132435 0.100000 0.229385
v -0.140000 0.085000 0.242487
v -0.187292 0.000000 0.187292
v -0.197990 0.015000 0.197990
v -0.187292 0.100000 0.187292
v -0.197990 0.085000 0.197990
v -0.229385 0.000000 0.132435
v -0.242487 0.015000 0.140000
v -0.229385 0.100000 0.132435
v -0.242487 0.085000 0.140000
v -0.255845 0.000000 0.068554
v -0.270459 0.015000 0.072469
v -0.255845 0.100000 0.068554
v -0.270459 0.085000 0.072469
v -0.264871 0.000000 0.000000
v -0.280000 0.015000 0.000000
v -0.264871 0.100000 0.000000
v -0.280000 0.085000 0.000000
v -0.255845 0.000000 -0.068554
v -0.270459 0.015000 -0.072469
v -0.255845 0.100000 -0.068554
v -0.270459 0.085000 -0.072469
v -0.229385 0.000000 -0.132435
v -0.242487 0.015000 -0.140000
v -0.229385 0.100000 -0.132435
v -0.242487 0.085000 -0.140000
v -0.187292 0.000000 -0.187292
v -0.197990 0.015000 -0.197990
v -0.187292 0.100000 -0.187292
v -0.197990 0.085000 -0.197990
v -0.132435 0.000000 -0.229385
v -0.140000 0.015000 -0.242487
v -0.132435 0.100000 -0.229385
v -0.140000 0.085000 -0.242487
v -0.068554 0.000000 -0.255845
v -0.072469 0.015000 -0.270459
v -0.068554 0.100000 -0.255845
v -0.072469 0.085000 -0.270459
vn 0.0923 -0.7071 -0.7011
vn 0.0923 0.7071 -0.7011
vn 0.2706 -0.7071 -0.6533
vn 0.2706 0.7071 -0.6533
vn 0.4305 -0.7071 -0.5610
vn 0.4305 0.7071 -0.5610
vn 0.5610 -0.7071 -0.4305
vn 0.5610 0.7071 -0.4305
vn 0.6533 -0.7071 -0.2706
vn 0.6533 0.7071 -0.2706
vn 0.7011 -0.7071 -0.0923
vn 0.7011 0.7071 -0.0923
vn 0.7011 -0.7071 0.0923
vn 0.7011 0.7071 0.0923
vn 0.6533 -0.7071 0.2706
vn 0.6533 0.7071 0.2706
vn 0.5610 -0.7071 0.4305
vn 0.5610 0.7071 0.4305
vn 0.4305 -0.7071 0.5610
vn 0.4305 0.7071 0.5610
vn 0.2706 -0.7071 0.6533
vn 0.2706 0.7071 0.6533
vn 0.0923 -0.7071 0.7011
vn 0.0923 0.7071 0.7011
vn -0.0923 -0.7071 0.7011
vn -0.0923 0.7071 0.7011
vn -0.2706 -0.7071 0.6533
vn -0.2706 0.7071 0.6533
vn -0.4305 -0.7071 0.5610
vn -0.4305 0.7071 0.5610
vn -0.5610 -0.7071 0.4305
vn -0.5610 0.7071 0.4305
vn -0.6533 -0.7071 0.2706
vn -0.6533 0.7071 0.2706
vn -0.7011 -0.7071 0.0923
vn -0.7011 0.7071 0.0923
vn -0.7011 -0.7071 -0.0923
vn -0.7011 0.7071 -0.0923
vn -0.6533 -0.7071 -0.2706
vn -0.6533 0.7071 -0.2706
vn -0.5610 -0.7071 -0.4305
vn -0.5610 0.7071 -0.4305
vn -0.4305 -0.7071 -0.5610
vn -0.4305 0.7071 -0.5610
vn -0.2706 -0.7071 -0.6533
vn -0.2706 0.7071 -0.6533
vn -0.0923 -0.7071 -0.7011
vn -0.0923 0.7071 -0.7011
vn -0.0000 -1.0000 -0.0000
vn 0.1305 -0.0000 -0.9914
vn -0.1305 -0.0000 -0.9914
vn -0.0000 1.0000 -0.0000
vn 0.3827 -0.0000 -0.9239
vn 0.6088 -0.0000 -0.7934
vn 0.7934 -0.0000 -0.6088
vn 0.9239 -0.0000 -0.3827
vn 0.9914 -0.0000 -0.1305
vn 0.9914 -0.0000 0.1305
vn 0.9239 -0.0000 0.3827
vn 0.7934 -0.0000 0.6088
vn 0.6088 -0.0000 0.7934
vn 0.3827 -0.0000 0.9239
vn 0.1305 -0.0000 0.9914
vn -0.1305 -0.0000 0.9914
vn -0.3827 -0.0000 0.9239
vn -0.6088 -0.0000 0.7934
vn -0.7934 -0.0000 0.6088
vn -0.9239 -0.0000 0.3827
vn -0.9914 -0.0000 0.1305
vn -0.9914 -0.0000 -0.1305
vn -0.9239 -0.0000 -0.3827
vn -0.7934 -0.0000 -0.6088
vn -0.6088 -0.0000 -0.7934
vn -0.3827 -0.0000 -0.9239
vt 0.812117 0.481822
vt 0.750000 0.477032
vt 0.750000 0.490000
vt 0.250000 0.490000
vt 0.308760 0.469296
vt 0.312117 0.481822
vt 0.870000 0.457846
vt 0.808761 0.469296
vt 0.363516 0.446615
vt 0.370000 0.457846
vt 0.910536 0.410536
vt 0.863516 0.446616
vt 0.410536 0.410536
vt 0.419706 0.419706
vt 0.957846 0.370000
vt 0.919706 0.419706
vt 0.457846 0.370000
vt 0.446615 0.363516
vt 0.981822 0.312117
vt 0.946616 0.363516
vt 0.469296 0.308760
vt 0.481822 0.312117
vt 0.990000 0.250000
vt 0.969296 0.308760
vt 0.477032 0.250000
vt 0.490000 0.250000
vt 0.981822 0.187883
vt 0.977032 0.250000
vt 0.469296 0.191240
vt 0.481822 0.187883
vt 0.957846 0.130000
vt 0.969296 0.191240
vt 0.446615 0.136484
vt 0.457846 0.130000
vt 0.910536 0.089464
vt 0.946615 0.136484
vt 0.410536 0.089464
vt 0.419706 0.080294
vt 0.870000 0.042154
vt 0.919706 0.080294
vt 0.370000 0.042154
vt 0.363516 0.053385
vt 0.812117 0.018178
vt 0.863516 0.053385
vt 0.308760 0.030704
vt 0.312117 0.018178
vt 0.750000 0.010000
vt 0.808760 0.030704
vt 0.250000 0.022968
vt 0.250000 0.010000
vt 0.687883 0.018178
vt 0.750000 0.022968
vt 0.191240 0.030704
vt 0.187883 0.018178
vt 0.630000 0.042154
vt 0.691240 0.030704
vt 0.136484 0.053385
vt 0.130000 0.042154
vt 0.589464 0.089464
vt 0.636484 0.053385
vt 0.089464 0.089464
vt 0.080294 0.080294
vt 0.542154 0.130000
vt 0.580294 0.080294
vt 0.042154 0.130000
vt 0.053385 0.136484
vt 0.518178 0.187883
vt 0.553385 0.136484
vt 0.030704 0.191240
vt 0.018178 0.187883
vt 0.510000 0.250000
vt 0.530704 0.191240
vt 0.022968 0.250000
vt 0.010000 0.250000
vt 0.518178 0.312117
vt 0.522968 0.250000
vt 0.030704 0.308760
vt 0.018178 0.312117
vt 0.542154 0.370000
vt 0.530704 0.308760
vt 0.053385 0.363516
vt 0.042154 0.370000
vt 0.589464 0.410536
vt 0.553385 0.363516
vt 0.089464 0.410536
vt 0.080294 0.419706
vt 0.630000 0.457846
vt 0.580294 0.419706
vt 0.130000 0.457846
vt 0.136484 0.446616
vt 0.687883 0.481822
vt 0.636484 0.446615
vt 0.191240 0.469296
vt 0.187883 0.481822
vt 0.691240 0.469296
vt 0.250000 0.477032
vt 1.000000 0.925000
vt 0.958333 0.575000
vt 1.000000 0.575000
vt 0.041666 0.925000
vt -0.000000 0.575000
vt 0.041666 0.575000
vt 0.958333 0.925000
vt 0.916667 0.575000
vt 0.916667 0.925000
vt 0.875000 0.575000
vt 0.875000 0.925000
vt 0.833333 0.575000
vt 0.833333 0.925000
vt 0.791667 0.575000
vt 0.791667 0.925000
vt 0.750000 0.575000
vt 0.750000 0.925000
vt 0.708333 0.575000
vt 0.708333 0.925000
vt 0.666667 0.575000
vt 0.666667 0.925000
vt 0.625000 0.575000
vt 0.625000 0.925000
vt 0.583333 0.575000
vt 0.583333 0.925000
vt 0.541666 0.575000
vt 0.541666 0.925000
vt 0.500000 0.575000
vt 0.500000 0.925000
vt 0.458333 0.575000
vt 0.458333 0.925000
vt 0.416666 0.575000
vt 0.416666 0.925000
vt 0.375000 0.575000
vt 0.375000 0.925000
vt 0.333333 0.575000
vt 0.333333 0.925000
vt 0.291667 0.575000
vt 0.291667 0.925000
vt 0.250000 0.575000
vt 0.250000 0.925000
vt 0.208333 0.575000
vt 0.208333 0.925000
vt 0.166666 0.575000
vt 0.166666 0.925000
vt 0.125000 0.575000
vt 0.125000 0.925000
vt 0.083333 0.575000
vt 0.083333 0.925000
vt -0.000000 0.925000
s 0
usemtl Sign_Wood
f 30/34/27 25/35/27 26/36/27
f 28/37/28 31/38/28 32/39/28
f 34/40/29 29/41/29 30/34/29
f 32/39/30 35/42/30 36/43/30
f 34/40/31 37/44/31 33/45/31
f 36/43/32 39/46/32 40/47/32
f 42/48/33 37/44/33 38/49/33
f 44/50/34 39/46/34 43/51/34
f 46/52/35 41/53/35 42/48/35
f 44/50/36 47/54/36 48/55/36
f 50/56/37 45/57/37 46/52/37
f 48/55/38 51/58/38 52/59/38
f 54/60/39 49/61/39 50/56/39
f 52/59/40 55/62/40 56/63/40
f 58/64/41 53/65/41 54/60/41
f 56/63/42 59/66/42 60/67/42
f 58/64/43 61/68/43 57/69/43
f 60/67/44 63/70/44 64/71/44
f 66/72/45 61/68/45 62/73/45
f 68/74/46 63/70/46 67/75/46
f 70/76/47 65/77/47 66/72/47
f 68/74/48 71/78/48 72/79/48
f 74/80/49 69/81/49 70/76/49
f 72/79/50 75/82/50 76/83/50
f 78/84/51 73/85/51 74/80/51
f 76/83/52 79/86/52 80/87/52
f 82/88/53 77/89/53 78/84/53
f 80/87/54 83/90/54 84/91/54
f 82/88/55 85/92/55 81/93/55
f 84/91/56 87/94/56 88/95/56
f 90/96/57 85/92/57 86/97/57
f 92/98/58 87/94/58 91/99/58
f 94/100/59 89/101/59 90/96/59
f 92/98/60 95/102/60 96/103/60
f 98/104/61 93/105/61 94/100/61
f 96/103/62 99/106/62 100/107/62
f 102/108/63 97/109/63 98/104/63
f 100/107/64 103/110/64 104/111/64
f 106/112/65 101/113/65 102/108/65
f 104/111/66 107/114/66 108/115/66
f 106/112/67 109/116/67 105/117/67
f 108/115/68 111/118/68 112/119/68
f 114/120/69 109/116/69 110/121/69
f 116/122/70 111/118/70 115/123/70
f 118/124/71 113/125/71 114/120/71
f 116/122/72 119/126/72 120/127/72
f 26/36/73 117/128/73 118/124/73
f 120/127/74 27/129/74 28/37/74
f 53/65/75 85/92/75 117/128/75
f 28/130/76 30/131/76 26/132/76
f 120/133/77 26/134/77 118/135/77
f 99/106/78 67/75/78 35/42/78
f 32/136/79 34/137/79 30/131/79
f 36/138/80 38/139/80 34/137/80
f 40/140/81 42/141/81 38/139/81
f 44/142/82 46/143/82 42/141/82
f 48/144/83 50/145/83 46/143/83
f 52/146/84 54/147/84 50/145/84
f 56/148/85 58/149/85 54/147/85
f 60/150/86 62/151/86 58/149/86
f 64/152/87 66/153/87 62/151/87
f 68/154/88 70/155/88 66/153/88
f 72/156/89 74/157/89 70/155/89
f 76/158/90 78/159/90 74/157/90
f 80/160/91 82/161/91 78/159/91
f 84/162/92 86/163/92 82/161/92
f 88/164/93 90/165/93 86/163/93
f 92/166/94 94/167/94 90/165/94
f 96/168/95 98/169/95 94/167/95
f 100/170/96 102/171/96 98/169/96
f 104/172/97 106/173/97 102/171/97
f 108/174/98 110/175/98 106/173/98
f 112/176/99 114/177/99 110/175/99
f 116/178/100 118/135/100 114/177/100
f 30/34/27 29/41/27 25/35/27
f 28/37/28 27/129/28 31/38/28
f 34/40/29 33/45/29 29/41/29
f 32/39/30 31/38/30 35/42/30
f 34/40/31 38/49/31 37/44/31
f 36/43/32 35/42/32 39/46/32
f 42/48/33 41/53/33 37/44/33
f 44/50/34 40/47/34 39/46/34
f 46/52/35 45/57/35 41/53/35
f 44/50/36 43/51/36 47/54/36
f 50/56/37 49/61/37 45/57/37
f 48/55/38 47/54/38 51/58/38
f 54/60/39 53/65/39 49/61/39
f 52/59/40 51/58/40 55/62/40
f 58/64/41 57/69/41 53/65/41
f 56/63/42 55/62/42 59/66/42
f 58/64/43 62/73/43 61/68/43
f 60/67/44 59/66/44 63/70/44
f 66/72/45 65/77/45 61/68/45
f 68/74/46 64/71/46 63/70/46
f 70/76/47 69/81/47 65/77/47
f 68/74/48 67/75/48 71/78/48
f 74/80/49 73/85/49 69/81/49
f 72/79/50 71/78/50 75/82/50
f 78/84/51 77/89/51 73/85/51
f 76/83/52 75/82/52 79/86/52
f 82/88/53 81/93/53 77/89/53
f 80/87/54 79/86/54 83/90/54
f 82/88/55 86/97/55 85/92/55
f 84/91/56 83/90/56 87/94/56
f 90/96/57 89/101/57 85/92/57
f 92/98/58 88/95/58 87/94/58
f 94/100/59 93/105/59 89/101/59
f 92/98/60 91/99/60 95/102/60
f 98/104/61 97/109/61 93/105/61
f 96/103/62 95/102/62 99/106/62
f 102/108/63 101/113/63 97/109/63
f 100/107/64 99/106/64 103/110/64
f 106/112/65 105/117/65 101/113/65
f 104/111/66 103/110/66 107/114/66
f 106/112/67 110/121/67 109/116/67
f 108/115/68 107/114/68 111/118/68
f 114/120/69 113/125/69 109/116/69
f 116/122/70 112/119/70 111/118/70
f 118/124/71 117/128/71 113/125/71
f 116/122/72 115/123/72 119/126/72
f 26/36/73 25/35/73 117/128/73
f 120/127/74 119/126/74 27/129/74
f 117/128/75 25/35/75 29/41/75
f 29/41/75 33/45/75 37/44/75
f 37/44/75 41/53/75 45/57/75
f 45/57/75 49/61/75 53/65/75
f 53/65/75 57/69/75 61/68/75
f 61/68/75 65/77/75 69/81/75
f 69/81/75 73/85/75 77/89/75
f 77/89/75 81/93/75 85/92/75
f 85/92/75 89/101/75 93/105/75
f 93/105/75 97/109/75 101/113/75
f 101/113/75 105/117/75 109/116/75
f 109/116/75 113/125/75 117/128/75
f 117/128/75 29/41/75 37/44/75
f 37/44/75 45/57/75 53/65/75
f 53/65/75 61/68/75 69/81/75
f 69/81/75 77/89/75 85/92/75
f 85/92/75 93/105/75 101/113/75
f 101/113/75 109/116/75 117/128/75
f 117/128/75 37/44/75 53/65/75
f 53/65/75 69/81/75 85/92/75
f 85/92/75 101/113/75 117/128/75
f 28/130/76 32/136/76 30/131/76
f 120/133/77 28/179/77 26/134/77
f 35/42/78 31/38/78 27/129/78
f 27/129/78 119/126/78 115/123/78
f 115/123/78 111/118/78 107/114/78
f 107/114/78 103/110/78 99/106/78
f 99/106/78 95/102/78 91/99/78
f 91/99/78 87/94/78 83/90/78
f 83/90/78 79/86/78 75/82/78
f 75/82/78 71/78/78 67/75/78
f 67/75/78 63/70/78 59/66/78
f 59/66/78 55/62/78 51/58/78
f 51/58/78 47/54/78 43/51/78
f 43/51/78 39/46/78 35/42/78
f 35/42/78 27/129/78 115/123/78
f 115/123/78 107/114/78 99/106/78
f 99/106/78 91/99/78 83/90/78
f 83/90/78 75/82/78 67/75/78
f 67/75/78 59/66/78 51/58/78
f 51/58/78 43/51/78 35/42/78
f 35/42/78 115/123/78 99/106/78
f 99/106/78 83/90/78 67/75/78
f 67/75/78 51/58/78 35/42/78
f 32/136/79 36/138/79 34/137/79
f 36/138/80 40/140/80 38/139/80
f 40/140/81 44/142/81 42/141/81
f 44/142/82 48/144/82 46/143/82
f 48/144/83 52/146/83 50/145/83
f 52/146/84 56/148/84 54/147/84
f 56/148/85 60/150/85 58/149/85
f 60/150/86 64/152/86 62/151/86
f 64/152/87 68/154/87 66/153/87
f 68/154/88 72/156/88 70/155/88
f 72/156/89 76/158/89 74/157/89
f 76/158/90 80/160/90 78/159/90
f 80/160/91 84/162/91 82/161/91
f 84/162/92 88/164/92 86/163/92
f 88/164/93 92/166/93 90/165/93
f 92/166/94 96/168/94 94/167/94
f 96/168/95 100/170/95 98/169/95
f 100/170/96 104/172/96 102/171/96
f 104/172/97 108/174/97 106/173/97
f 108/174/98 112/176/98 110/175/98
f 112/176/99 116/178/99 114/177/99
f 116/178/100 120/133/100 118/135/100
o Directional_Arrow_Board
v 0.015000 1.140000 0.025000
v 0.015000 1.155000 0.040000
v 0.000000 1.155000 0.025000
v 0.015000 1.345000 0.040000
v 0.015000 1.360000 0.025000
v 0.000000 1.345000 0.025000
v 0.015000 1.140000 -0.025000
v 0.000000 1.155000 -0.025000
v 0.015000 1.155000 -0.040000
v 0.015000 1.360000 -0.025000
v 0.015000 1.345000 -0.040000
v 0.000000 1.345000 -0.025000
v 0.885000 1.140000 0.025000
v 0.900000 1.155000 0.025000
v 0.885000 1.155000 0.040000
v 0.885000 1.360000 0.025000
v 0.885000 1.345000 0.040000
v 0.900000 1.345000 0.025000
v 0.885000 1.140000 -0.025000
v 0.885000 1.155000 -0.040000
v 0.900000 1.155000 -0.025000
v 0.885000 1.360000 -0.025000
v 0.900000 1.345000 -0.025000
v 0.885000 1.345000 -0.040000
vn -0.5774 -0.5773 0.5774
vn -0.5774 0.5773 0.5774
vn -0.5774 -0.5773 -0.5774
vn -0.5774 0.5773 -0.5774
vn 0.5774 -0.5773 0.5774
vn 0.5774 0.5773 0.5774
vn 0.5774 -0.5773 -0.5774
vn 0.5774 0.5773 -0.5774
vn -0.7071 -0.7071 -0.0000
vn -0.7071 -0.0000 0.7071
vn -0.7071 0.7071 -0.0000
vn -0.7071 -0.0000 -0.7071
vn -0.0000 -0.7071 -0.7071
vn -0.0000 0.7071 -0.7071
vn 0.7071 -0.0000 -0.7071
vn 0.7071 -0.7071 -0.0000
vn 0.7071 0.7071 -0.0000
vn 0.7071 -0.0000 0.7071
vn -0.0000 -0.7071 0.7071
vn -0.0000 0.7071 0.7071
vn -0.0000 -1.0000 -0.0000
vn -1.0000 -0.0000 -0.0000
vn -0.0000 -0.0000 1.0000
vn -0.0000 1.0000 -0.0000
vn -0.0000 -0.0000 -1.0000
vn 1.0000 -0.0000 -0.0000
vt 0.129167 0.703125
vt 0.129167 0.750000
vt 0.125000 0.703125
vt 0.607955 0.000000
vt 0.625000 0.046875
vt 0.607955 0.046875
vt 0.129167 0.546875
vt 0.125000 0.546875
vt 0.129167 0.500000
vt 0.625000 0.220139
vt 0.607955 0.253125
vt 0.607955 0.203125
vt 0.370833 0.703125
vt 0.387784 0.703125
vt 0.381439 0.752083
vt 0.627083 0.728646
vt 0.607955 0.754167
vt 0.607955 0.714844
vt 0.370833 0.546875
vt 0.381439 0.497917
vt 0.387784 0.546875
vt 0.627083 0.521354
vt 0.607955 0.535156
vt 0.607955 0.495833
vt 0.392045 0.046875
vt 0.392045 0.000000
vt 0.392045 0.254167
vt 0.625000 0.995833
vt 0.392045 0.203125
vt 0.392045 0.995833
vt 0.870833 0.546875
vt 0.607955 0.995833
vt 0.870833 0.703125
s 0
usemtl Painted_Arrow
f 121/180/101 122/181/101 123/182/101
f 124/183/102 125/184/102 126/185/102
f 127/186/103 128/187/103 129/188/103
f 130/189/104 131/190/104 132/191/104
f 133/192/105 134/193/105 135/194/105
f 136/195/106 137/196/106 138/197/106
f 139/198/107 140/199/107 141/200/107
f 142/201/108 143/202/108 144/203/108
f 121/180/109 128/187/109 127/186/109
f 124/183/110 123/204/110 122/205/110
f 130/189/111 126/185/111 125/184/111
f 129/206/112 132/191/112 131/190/112
f 127/186/113 140/199/113 139/198/113
f 142/201/114 131/190/114 130/189/114
f 141/200/115 144/203/115 143/202/115
f 139/198/116 134/193/116 133/192/116
f 136/195/117 143/202/117 142/201/117
f 135/194/118 138/197/118 137/196/118
f 133/192/119 122/181/119 121/180/119
f 125/207/120 137/196/120 136/195/120
f 139/198/121 121/180/121 127/186/121
f 126/185/122 128/208/122 123/204/122
f 137/196/123 122/209/123 135/194/123
f 130/210/124 136/195/124 142/201/124
f 131/190/125 140/199/125 129/206/125
f 143/202/126 134/193/126 141/200/126
f 121/180/109 123/182/109 128/187/109
f 124/183/110 126/185/110 123/204/110
f 130/189/111 132/191/111 126/185/111
f 129/206/112 128/208/112 132/191/112
f 127/186/113 129/188/113 140/199/113
f 142/201/114 144/203/114 131/190/114
f 141/200/115 140/199/115 144/203/115
f 139/198/116 141/200/116 134/193/116
f 136/195/117 138/197/117 143/202/117
f 135/194/118 134/193/118 138/197/118
f 133/192/119 135/194/119 122/181/119
f 125/207/120 124/211/120 137/196/120
f 139/198/121 133/192/121 121/180/121
f 126/185/122 132/191/122 128/208/122
f 137/196/123 124/211/123 122/209/123
f 130/210/124 125/212/124 136/195/124
f 131/190/125 144/203/125 140/199/125
f 143/202/126 138/197/126 134/193/126
o Arrow_Tip
v 0.900000 1.250000 -0.150000
v 0.911149 1.262627 -0.140049
v 0.911149 1.237373 -0.140049
v 0.900000 1.107106 0.075000
v 0.911149 1.110272 0.060083
v 0.911149 1.122899 0.079966
v 0.900000 1.392894 0.075000
v 0.911149 1.377101 0.079966
v 0.911149 1.389728 0.060083
v 0.985272 1.262627 -0.006627
v 0.985272 1.250000 0.013255
v 0.985272 1.237373 -0.006627
vn 0.6659 -0.0000 -0.7461
vn 0.6914 -0.6099 0.3873
vn 0.6914 0.6099 0.3873
vn 1.0000 -0.0000 -0.0000
vn -0.4309 -0.7618 -0.4838
vn 0.8742 -0.0000 -0.4856
vn 0.8879 -0.3884 0.2466
vn -0.4068 -0.0000 0.9135
vn 0.8879 0.3884 0.2466
vn -0.4309 0.7618 -0.4838
vn -1.0000 -0.0000 -0.0000
vn 0.6944 -0.6074 -0.3858
vn 0.6944 0.6074 -0.3858
vn 0.6690 -0.0000 0.7433
vt 0.246810 0.458508
vt 0.234695 0.436732
vt 0.261479 0.438295
vt 0.428979 0.142983
vt 0.418808 0.165794
vt 0.404062 0.143379
vt 0.067832 0.148508
vt 0.092671 0.145911
vt 0.080633 0.169889
vt 0.234695 0.258837
vt 0.250000 0.232327
vt 0.265305 0.258837
vt 0.750000 0.450000
vt 0.923205 0.150000
vt 0.576795 0.150000
s 0
usemtl Painted_Arrow
f 145/213/127 146/214/127 147/215/127
f 148/216/128 149/217/128 150/218/128
f 151/219/129 152/220/129 153/221/129
f 154/222/130 155/223/130 156/224/130
f 149/217/131 145/213/131 147/215/131
f 154/222/132 147/215/132 146/214/132
f 150/218/133 156/224/133 155/223/133
f 152/220/134 148/216/134 150/218/134
f 154/222/135 152/220/135 155/223/135
f 146/214/136 151/219/136 153/221/136
f 145/225/137 148/226/137 151/227/137
f 147/215/138 156/224/138 149/217/138
f 153/221/139 154/222/139 146/214/139
f 150/218/140 155/223/140 152/220/140
f 149/217/131 148/216/131 145/213/131
f 154/222/132 156/224/132 147/215/132
f 150/218/133 149/217/133 156/224/133
f 152/220/134 151/219/134 148/216/134
f 154/222/135 153/221/135 152/220/135
f 146/214/136 145/213/136 151/219/136
o Hole_Number_Text_Placeholder
v 0.230000 1.220000 0.045000
v 0.230000 1.225000 0.050000
v 0.225000 1.225000 0.045000
v 0.230000 1.275000 0.050000
v 0.230000 1.280000 0.045000
v 0.225000 1.275000 0.045000
v 0.230000 1.220000 0.045000
v 0.225000 1.225000 0.045000
v 0.230000 1.225000 0.040000
v 0.230000 1.280000 0.045000
v 0.230000 1.275000 0.040000
v 0.225000 1.275000 0.045000
v 0.470000 1.220000 0.045000
v 0.475000 1.225000 0.045000
v 0.470000 1.225000 0.050000
v 0.470000 1.280000 0.045000
v 0.470000 1.275000 0.050000
v 0.475000 1.275000 0.045000
v 0.470000 1.220000 0.045000
v 0.470000 1.225000 0.040000
v 0.475000 1.225000 0.045000
v 0.470000 1.280000 0.045000
v 0.475000 1.275000 0.045000
v 0.470000 1.275000 0.040000
vn -0.5773 -0.5774 0.5774
vn -0.5773 0.5773 0.5774
vn -0.5773 -0.5774 -0.5774
vn -0.5773 0.5773 -0.5774
vn 0.5773 -0.5774 0.5774
vn 0.5773 0.5773 0.5774
vn 0.5773 -0.5774 -0.5774
vn 0.5773 0.5773 -0.5774
vn -0.7071 -0.7071 -0.0000
vn -0.7071 -0.0000 0.7071
vn -0.7071 0.7071 -0.0000
vn -0.7071 -0.0000 -0.7071
vn -0.0000 -0.7071 -0.7071
vn -0.0000 0.7071 -0.7071
vn 0.7071 -0.0000 -0.7071
vn 0.7071 -0.7071 -0.0000
vn 0.7071 0.7071 -0.0000
vn 0.7071 -0.0000 0.7071
vn -0.0000 -0.7071 0.7071
vn -0.0000 0.7071 0.7071
vn -0.0000 -1.0000 -0.0000
vn -1.0000 -0.0000 -0.0000
vn -0.0000 -0.0000 1.0000
vn -0.0000 1.0000 -0.0000
vn -0.0000 -0.0000 -1.0000
vn 1.0000 -0.0000 -0.0000
vt 0.130000 0.625000
vt 0.130000 0.750000
vt 0.125000 0.625000
vt 0.604167 0.995000
vt 0.625000 0.995000
vt 0.604167 1.000000
vt 0.130000 0.625000
vt 0.130000 0.500000
vt 0.625000 0.211667
vt 0.604167 0.255000
vt 0.604167 0.156250
vt 0.370000 0.625000
vt 0.390625 0.625000
vt 0.382917 0.752500
vt 0.627500 0.690000
vt 0.604167 0.755000
vt 0.604167 0.656250
vt 0.370000 0.625000
vt 0.382917 0.497500
vt 0.627500 0.592500
vt 0.604167 0.625000
vt 0.604167 0.496250
vt 0.604167 0.000000
vt 0.395833 0.125000
vt 0.395833 0.000000
vt 0.604167 0.125000
vt 0.625000 0.125000
vt 0.395833 0.255000
vt 0.395833 0.125000
vt 0.395833 0.995000
vt 0.870000 0.625000
vt 0.870000 0.625000
s 0
usemtl Dark_Text
f 157/228/141 158/229/141 159/230/141
f 160/231/142 161/232/142 162/233/142
f 163/234/143 164/230/143 165/235/143
f 166/236/144 167/237/144 168/238/144
f 169/239/145 170/240/145 171/241/145
f 172/242/146 173/243/146 174/244/146
f 175/245/147 176/246/147 177/240/147
f 178/247/148 179/248/148 180/249/148
f 157/228/149 164/230/149 163/234/149
f 160/250/150 159/251/150 158/252/150
f 166/236/151 162/253/151 161/254/151
f 165/255/152 168/238/152 167/237/152
f 163/234/153 176/246/153 175/245/153
f 178/247/154 167/237/154 166/236/154
f 177/240/155 180/249/155 179/248/155
f 175/245/156 170/240/156 169/239/156
f 172/242/157 179/248/157 178/247/157
f 171/241/158 174/244/158 173/243/158
f 169/239/159 158/229/159 157/228/159
f 161/232/160 173/243/160 172/242/160
f 175/245/161 157/228/161 163/234/161
f 162/253/162 164/256/162 159/251/162
f 173/243/163 158/257/163 171/241/163
f 166/258/164 172/242/164 178/247/164
f 167/237/165 176/246/165 165/255/165
f 179/248/166 170/240/166 177/240/166
f 157/228/149 159/230/149 164/230/149
f 160/250/150 162/253/150 159/251/150
f 166/236/151 168/238/151 162/253/151
f 165/255/152 164/256/152 168/238/152
f 163/234/153 165/235/153 176/246/153
f 178/247/154 180/249/154 167/237/154
f 177/240/155 176/246/155 180/249/155
f 175/245/156 177/240/156 170/240/156
f 172/242/157 174/244/157 179/248/157
f 171/241/158 170/240/158 174/244/158
f 169/239/159 171/241/159 158/229/159
f 161/232/160 160/231/160 173/243/160
f 175/245/161 169/239/161 157/228/161
f 162/253/162 168/238/162 164/256/162
f 173/243/163 160/231/163 158/257/163
f 166/258/164 161/259/164 172/242/164
f 167/237/165 180/249/165 176/246/165
f 179/248/166 174/244/166 170/240/166
o Directional_Arrow_Board.001
v -0.885000 0.840000 0.025000
v -0.885000 0.855000 0.040000
v -0.900000 0.855000 0.025000
v -0.885000 1.045000 0.040000
v -0.885000 1.060000 0.025000
v -0.900000 1.045000 0.025000
v -0.885000 0.840000 -0.025000
v -0.900000 0.855000 -0.025000
v -0.885000 0.855000 -0.040000
v -0.885000 1.060000 -0.025000
v -0.885000 1.045000 -0.040000
v -0.900000 1.045000 -0.025000
v -0.015000 0.840000 0.025000
v 0.000000 0.855000 0.025000
v -0.015000 0.855000 0.040000
v -0.015000 1.060000 0.025000
v -0.015000 1.045000 0.040000
v 0.000000 1.045000 0.025000
v -0.015000 0.840000 -0.025000
v -0.015000 0.855000 -0.040000
v 0.000000 0.855000 -0.025000
v -0.015000 1.060000 -0.025000
v 0.000000 1.045000 -0.025000
v -0.015000 1.045000 -0.040000
vn -0.5774 -0.5773 0.5774
vn -0.5774 0.5773 0.5774
vn -0.5774 -0.5773 -0.5774
vn -0.5774 0.5773 -0.5774
vn 0.5774 -0.5773 0.5774
vn 0.5774 0.5773 0.5774
vn 0.5774 -0.5773 -0.5774
vn 0.5774 0.5773 -0.5774
vn -0.7071 -0.7071 -0.0000
vn -0.7071 -0.0000 0.7071
vn -0.7071 0.7071 -0.0000
vn -0.7071 -0.0000 -0.7071
vn -0.0000 -0.7071 -0.7071
vn -0.0000 0.7071 -0.7071
vn 0.7071 -0.0000 -0.7071
vn 0.7071 -0.7071 -0.0000
vn 0.7071 0.7071 -0.0000
vn 0.7071 -0.0000 0.7071
vn -0.0000 -0.7071 0.7071
vn -0.0000 0.7071 0.7071
vn -0.0000 -1.0000 -0.0000
vn -1.0000 -0.0000 -0.0000
vn -0.0000 -0.0000 1.0000
vn -0.0000 1.0000 -0.0000
vn -0.0000 -0.0000 -1.0000
vn 1.0000 -0.0000 -0.0000
vt 0.129167 0.703125
vt 0.129167 0.750000
vt 0.125000 0.703125
vt 0.607955 0.000000
vt 0.625000 0.046875
vt 0.607955 0.046875
vt 0.129167 0.546875
vt 0.125000 0.546875
vt 0.129167 0.500000
vt 0.625000 0.220139
vt 0.607955 0.253125
vt 0.607955 0.203125
vt 0.370833 0.703125
vt 0.387784 0.703125
vt 0.381439 0.752083
vt 0.627083 0.728646
vt 0.607955 0.754167
vt 0.607955 0.714844
vt 0.370833 0.546875
vt 0.381439 0.497917
vt 0.387784 0.546875
vt 0.627083 0.521354
vt 0.607955 0.535156
vt 0.607955 0.495833
vt 0.392045 0.046875
vt 0.392045 0.000000
vt 0.392045 0.254167
vt 0.625000 0.995833
vt 0.392045 0.203125
vt 0.392045 0.995833
vt 0.870833 0.546875
vt 0.607955 0.995833
vt 0.870833 0.703125
s 0
usemtl Painted_Arrow
f 181/260/167 182/261/167 183/262/167
f 184/263/168 185/264/168 186/265/168
f 187/266/169 188/267/169 189/268/169
f 190/269/170 191/270/170 192/271/170
f 193/272/171 194/273/171 195/274/171
f 196/275/172 197/276/172 198/277/172
f 199/278/173 200/279/173 201/280/173
f 202/281/174 203/282/174 204/283/174
f 181/260/175 188/267/175 187/266/175
f 184/263/176 183/284/176 182/285/176
f 190/269/177 186/265/177 185/264/177
f 189/286/178 192/271/178 191/270/178
f 187/266/179 200/279/179 199/278/179
f 202/281/180 191/270/180 190/269/180
f 201/280/181 204/283/181 203/282/181
f 199/278/182 194/273/182 193/272/182
f 196/275/183 203/282/183 202/281/183
f 195/274/184 198/277/184 197/276/184
f 193/272/185 182/261/185 181/260/185
f 185/287/186 197/276/186 196/275/186
f 199/278/187 181/260/187 187/266/187
f 186/265/188 188/288/188 183/284/188
f 197/276/189 182/289/189 195/274/189
f 190/290/190 196/275/190 202/281/190
f 191/270/191 200/279/191 189/286/191
f 203/282/192 194/273/192 201/280/192
f 181/260/175 183/262/175 188/267/175
f 184/263/176 186/265/176 183/284/176
f 190/269/177 192/271/177 186/265/177
f 189/286/178 188/288/178 192/271/178
f 187/266/179 189/268/179 200/279/179
f 202/281/180 204/283/180 191/270/180
f 201/280/181 200/279/181 204/283/181
f 199/278/182 201/280/182 194/273/182
f 196/275/183 198/277/183 203/282/183
f 195/274/184 194/273/184 198/277/184
f 193/272/185 195/274/185 182/261/185
f 185/287/186 184/291/186 197/276/186
f 199/278/187 193/272/187 181/260/187
f 186/265/188 192/271/188 188/288/188
f 197/276/189 184/291/189 182/289/189
f 190/290/190 185/292/190 196/275/190
f 191/270/191 204/283/191 200/279/191
f 203/282/192 198/277/192 194/273/192
o Arrow_Tip.001
v -0.900000 0.950000 -0.150000
v -0.911149 0.962627 -0.140049
v -0.911149 0.937373 -0.140049
v -0.900000 0.807106 0.075000
v -0.911149 0.810272 0.060083
v -0.911149 0.822899 0.079966
v -0.900000 1.092894 0.075000
v -0.911149 1.077101 0.079966
v -0.911149 1.089728 0.060083
v -0.985272 0.962627 -0.006627
v -0.985272 0.950000 0.013255
v -0.985272 0.937373 -0.006627
vn -0.6659 -0.0000 -0.7461
vn -0.6914 -0.6099 0.3873
vn -0.6914 0.6099 0.3873
vn -1.0000 -0.0000 -0.0000
vn 0.4309 -0.7618 -0.4838
vn -0.8742 -0.0000 -0.4856
vn -0.8879 -0.3884 0.2466
vn 0.4068 -0.0000 0.9135
vn -0.8879 0.3884 0.2466
vn 0.4309 0.7618 -0.4838
vn 1.0000 -0.0000 -0.0000
vn -0.6944 -0.6074 -0.3858
vn -0.6944 0.6074 -0.3858
vn -0.6690 -0.0000 0.7433
vt 0.246810 0.458508
vt 0.234695 0.436732
vt 0.261479 0.438295
vt 0.428979 0.142983
vt 0.418808 0.165794
vt 0.404062 0.143379
vt 0.067832 0.148508
vt 0.092671 0.145911
vt 0.080633 0.169889
vt 0.234695 0.258837
vt 0.250000 0.232327
vt 0.265305 0.258837
vt 0.750000 0.450000
vt 0.923205 0.150000
vt 0.576795 0.150000
s 0
usemtl Painted_Arrow
f 205/293/193 207/295/193 206/294/193
f 208/296/194 210/298/194 209/297/194
f 211/299/195 213/301/195 212/300/195
f 214/302/196 216/304/196 215/303/196
f 209/297/197 207/295/197 205/293/197
f 214/302/198 206/294/198 207/295/198
f 210/298/199 215/303/199 216/304/199
f 212/300/200 210/298/200 208/296/200
f 214/302/201 215/303/201 212/300/201
f 206/294/202 213/301/202 211/299/202
f 205/305/203 211/307/203 208/306/203
f 207/295/204 209/297/204 216/304/204
f 213/301/205 206/294/205 214/302/205
f 210/298/206 212/300/206 215/303/206
f 209/297/197 205/293/197 208/296/197
f 214/302/198 207/295/198 216/304/198
f 210/298/199 216/304/199 209/297/199
f 212/300/200 208/296/200 211/299/200
f 214/302/201 212/300/201 213/301/201
f 206/294/202 211/299/202 205/293/202
o Hole_Number_Text_Placeholder.001
v -0.470000 0.920000 0.045000
v -0.470000 0.925000 0.050000
v -0.475000 0.925000 0.045000
v -0.470000 0.975000 0.050000
v -0.470000 0.980000 0.045000
v -0.475000 0.975000 0.045000
v -0.470000 0.920000 0.045000
v -0.475000 0.925000 0.045000
v -0.470000 0.925000 0.040000
v -0.470000 0.980000 0.045000
v -0.470000 0.975000 0.040000
v -0.475000 0.975000 0.045000
v -0.230000 0.920000 0.045000
v -0.225000 0.925000 0.045000
v -0.230000 0.925000 0.050000
v -0.230000 0.980000 0.045000
v -0.230000 0.975000 0.050000
v -0.225000 0.975000 0.045000
v -0.230000 0.920000 0.045000
v -0.230000 0.925000 0.040000
v -0.225000 0.925000 0.045000
v -0.230000 0.980000 0.045000
v -0.225000 0.975000 0.045000
v -0.230000 0.975000 0.040000
vn -0.5773 -0.5774 0.5774
vn -0.5773 0.5773 0.5774
vn -0.5773 -0.5774 -0.5774
vn -0.5773 0.5773 -0.5774
vn 0.5773 -0.5774 0.5774
vn 0.5773 0.5773 0.5774
vn 0.5773 -0.5774 -0.5774
vn 0.5773 0.5773 -0.5774
vn -0.7071 -0.7071 -0.0000
vn -0.7071 -0.0000 0.7071
vn -0.7071 0.7071 -0.0000
vn -0.7071 -0.0000 -0.7071
vn -0.0000 -0.7071 -0.7071
vn -0.0000 0.7071 -0.7071
vn 0.7071 -0.0000 -0.7071
vn 0.7071 -0.7071 -0.0000
vn 0.7071 0.7071 -0.0000
vn 0.7071 -0.0000 0.7071
vn -0.0000 -0.7071 0.7071
vn -0.0000 0.7071 0.7071
vn -0.0000 -1.0000 -0.0000
vn -1.0000 -0.0000 -0.0000
vn -0.0000 -0.0000 1.0000
vn -0.0000 1.0000 -0.0000
vn -0.0000 -0.0000 -1.0000
vn 1.0000 -0.0000 -0.0000
vt 0.130000 0.625000
vt 0.130000 0.750000
vt 0.125000 0.625000
vt 0.604167 0.995000
vt 0.625000 0.995000
vt 0.604167 1.000000
vt 0.130000 0.625000
vt 0.130000 0.500000
vt 0.625000 0.211667
vt 0.604167 0.255000
vt 0.604167 0.156250
vt 0.370000 0.625000
vt 0.390625 0.625000
vt 0.382917 0.752500
vt 0.627500 0.690000
vt 0.604167 0.755000
vt 0.604167 0.656250
vt 0.370000 0.625000
vt 0.382917 0.497500
vt 0.627500 0.592500
vt 0.604167 0.625000
vt 0.604167 0.496250
vt 0.604167 0.000000
vt 0.395833 0.125000
vt 0.395833 0.000000
vt 0.604167 0.125000
vt 0.625000 0.125000
vt 0.395833 0.255000
vt 0.395833 0.125000
vt 0.395833 0.995000
vt 0.870000 0.625000
vt 0.870000 0.625000
s 0
usemtl Dark_Text
f 217/308/207 218/309/207 219/310/207
f 220/311/208 221/312/208 222/313/208
f 223/314/209 224/310/209 225/315/209
f 226/316/210 227/317/210 228/318/210
f 229/319/211 230/320/211 231/321/211
f 232/322/212 233/323/212 234/324/212
f 235/325/213 236/326/213 237/320/213
f 238/327/214 239/328/214 240/329/214
f 217/308/215 224/310/215 223/314/215
f 220/330/216 219/331/216 218/332/216
f 226/316/217 222/333/217 221/334/217
f 225/335/218 228/318/218 227/317/218
f 223/314/219 236/326/219 235/325/219
f 238/327/220 227/317/220 226/316/220
f 237/320/221 240/329/221 239/328/221
f 235/325/222 230/320/222 229/319/222
f 232/322/223 239/328/223 238/327/223
f 231/321/224 234/324/224 233/323/224
f 229/319/225 218/309/225 217/308/225
f 221/312/226 233/323/226 232/322/226
f 235/325/227 217/308/227 223/314/227
f 222/333/228 224/336/228 219/331/228
f 233/323/229 218/337/229 231/321/229
f 226/338/230 232/322/230 238/327/230
f 227/317/231 236/326/231 225/335/231
f 239/328/232 230/320/232 237/320/232
f 217/308/215 219/310/215 224/310/215
f 220/330/216 222/333/216 219/331/216
f 226/316/217 228/318/217 222/333/217
f 225/335/218 224/336/218 228/318/218
f 223/314/219 225/315/219 236/326/219
f 238/327/220 240/329/220 227/317/220
f 237/320/221 236/326/221 240/329/221
f 235/325/222 237/320/222 230/320/222
f 232/322/223 234/324/223 239/328/223
f 231/321/224 230/320/224 234/324/224
f 229/319/225 231/321/225 218/309/225
f 221/312/226 220/311/226 233/323/226
f 235/325/227 229/319/227 217/308/227
f 222/333/228 228/318/228 224/336/228
f 233/323/229 220/311/229 218/337/229
f 226/338/230 221/339/230 232/322/230
f 227/317/231 240/329/231 236/326/231
f 239/328/232 234/324/232 230/320/232
