# Blender 5.1.1
# www.blender.org
mtllib Flag.mtl
o Turf_Around_Hole
v 0.000000 0.000000 -0.550000
v 0.000000 0.040000 -0.550000
v 0.086039 0.000000 -0.543229
v 0.086039 0.040000 -0.543229
v 0.169959 0.000000 -0.523081
v 0.169959 0.040000 -0.523081
v 0.249695 0.000000 -0.490054
v 0.249695 0.040000 -0.490054
v 0.323282 0.000000 -0.444959
v 0.323282 0.040000 -0.444959
v 0.388909 0.000000 -0.388909
v 0.388909 0.040000 -0.388909
v 0.444959 0.000000 -0.323282
v 0.444959 0.040000 -0.323282
v 0.490054 0.000000 -0.249695
v 0.490054 0.040000 -0.249695
v 0.523081 0.000000 -0.169959
v 0.523081 0.040000 -0.169959
v 0.543229 0.000000 -0.086039
v 0.543229 0.040000 -0.086039
v 0.550000 0.000000 0.000000
v 0.550000 0.040000 0.000000
v 0.543229 0.000000 0.086039
v 0.543229 0.040000 0.086039
v 0.523081 0.000000 0.169959
v 0.523081 0.040000 0.169959
v 0.490054 0.000000 0.249695
v 0.490054 0.040000 0.249695
v 0.444959 0.000000 0.323282
v 0.444959 0.040000 0.323282
v 0.388909 0.000000 0.388909
v 0.388909 0.040000 0.388909
v 0.323282 0.000000 0.444959
v 0.323282 0.040000 0.444959
v 0.249695 0.000000 0.490054
v 0.249695 0.040000 0.490054
v 0.169959 0.000000 0.523081
v 0.169959 0.040000 0.523081
v 0.086039 0.000000 0.543229
v 0.086039 0.040000 0.543229
v 0.000000 0.000000 0.550000
v 0.000000 0.040000 0.550000
v -0.086039 0.000000 0.543229
v -0.086039 0.040000 0.543229
v -0.169959 0.000000 0.523081
v -0.169959 0.040000 0.523081
v -0.249695 0.000000 0.490054
v -0.249695 0.040000 0.490054
v -0.323282 0.000000 0.444959
v -0.323282 0.040000 0.444959
v -0.388909 0.000000 0.388909
v -0.388909 0.040000 0.388909
v -0.444959 0.000000 0.323282
v -0.444959 0.040000 0.323282
v -0.490054 0.000000 0.249695
v -0.490054 0.040000 0.249695
v -0.523081 0.000000 0.169959
v -0.523081 0.040000 0.169959
v -0.543229 0.000000 0.086039
v -0.543229 0.040000 0.086039
v -0.550000 0.000000 0.000000
v -0.550000 0.040000 0.000000
v -0.543229 0.000000 -0.086039
v -0.543229 0.040000 -0.086039
v -0.523081 0.000000 -0.169959
v -0.523081 0.040000 -0.169959
v -0.490054 0.000000 -0.249695
v -0.490054 0.040000 -0.249695
v -0.444959 0.000000 -0.323282
v -0.444959 0.040000 -0.323282
v -0.388909 0.000000 -0.388909
v -0.388909 0.040000 -0.388909
v -0.323282 0.000000 -0.444959
v -0.323282 0.040000 -0.444959
v -0.249695 0.000000 -0.490054
v -0.249695 0.040000 -0.490054
v -0.169959 0.000000 -0.523081
v -0.169959 0.040000 -0.523081
v -0.086039 0.000000 -0.543229
v -0.086039 0.040000 -0.543229
vn 0.0785 -0.0000 -0.9969
vn 0.2334 -0.0000 -0.9724
vn 0.3827 -0.0000 -0.9239
vn 0.5225 -0.0000 -0.8526
vn 0.6494 -0.0000 -0.7604
vn 0.7604 -0.0000 -0.6494
vn 0.8526 -0.0000 -0.5225
vn 0.9239 -0.0000 -0.3827
vn 0.9724 -0.0000 -0.2334
vn 0.9969 -0.0000 -0.0785
vn 0.9969 -0.0000 0.0785
vn 0.9724 -0.0000 0.2334
vn 0.9239 -0.0000 0.3827
vn 0.8526 -0.0000 0.5225
vn 0.7604 -0.0000 0.6494
vn 0.6494 -0.0000 0.7604
vn 0.5225 -0.0000 0.8526
vn 0.3827 -0.0000 0.9239
vn 0.2334 -0.0000 0.9724
vn 0.0785 -0.0000 0.9969
vn -0.0785 -0.0000 0.9969
vn -0.2334 -0.0000 0.9724
vn -0.3827 -0.0000 0.9239
vn -0.5225 -0.0000 0.8526
vn -0.6494 -0.0000 0.7604
vn -0.7604 -0.0000 0.6494
vn -0.8526 -0.0000 0.5225
vn -0.9239 -0.0000 0.3827
vn -0.9724 -0.0000 0.2334
vn -0.9969 -0.0000 0.0785
vn -0.9969 -0.0000 -0.0785
vn -0.9724 -0.0000 -0.2334
vn -0.9239 -0.0000 -0.3827
vn -0.8526 -0.0000 -0.5225
vn -0.7604 -0.0000 -0.6494
vn -0.6494 -0.0000 -0.7604
vn -0.5225 -0.0000 -0.8526
vn -0.3827 -0.0000 -0.9239
vn -0.0000 1.0000 -0.0000
vn -0.2334 -0.0000 -0.9724
vn -0.0785 -0.0000 -0.9969
vn -0.0000 -1.0000 -0.0000
vt 1.000000 1.000000
vt 0.975000 0.500000
vt 1.000000 0.500000
vt 0.975000 1.000000
vt 0.950000 0.500000
vt 0.950000 1.000000
vt 0.925000 0.500000
vt 0.925000 1.000000
vt 0.900000 0.500000
vt 0.900000 1.000000
vt 0.875000 0.500000
vt 0.875000 1.000000
vt 0.850000 0.500000
vt 0.850000 1.000000
vt 0.825000 0.500000
vt 0.825000 1.000000
vt 0.800000 0.500000
vt 0.800000 1.000000
vt 0.775000 0.500000
vt 0.775000 1.000000
vt 0.750000 0.500000
vt 0.750000 1.000000
vt 0.725000 0.500000
vt 0.725000 1.000000
vt 0.700000 0.500000
vt 0.700000 1.000000
vt 0.675000 0.500000
vt 0.675000 1.000000
vt 0.650000 0.500000
vt 0.650000 1.000000
vt 0.625000 0.500000
vt 0.625000 1.000000
vt 0.600000 0.500000
vt 0.600000 1.000000
vt 0.575000 0.500000
vt 0.575000 1.000000
vt 0.550000 0.500000
vt 0.550000 1.000000
vt 0.525000 0.500000
vt 0.525000 1.000000
vt 0.500000 0.500000
vt 0.500000 1.000000
vt 0.475000 0.500000
vt 0.475000 1.000000
vt 0.450000 0.500000
vt 0.450000 1.000000
vt 0.425000 0.500000
vt 0.425000 1.000000
vt 0.400000 0.500000
vt 0.400000 1.000000
vt 0.375000 0.500000
vt 0.375000 1.000000
vt 0.350000 0.500000
vt 0.350000 1.000000
vt 0.325000 0.500000
vt 0.325000 1.000000
vt 0.300000 0.500000
vt 0.300000 1.000000
vt 0.275000 0.500000
vt 0.275000 1.000000
vt 0.250000 0.500000
vt 0.250000 1.000000
vt 0.225000 0.500000
vt 0.225000 1.000000
vt 0.200000 0.500000
vt 0.200000 1.000000
vt 0.175000 0.500000
vt 0.175000 1.000000
vt 0.150000 0.500000
vt 0.150000 1.000000
vt 0.125000 0.500000
vt 0.125000 1.000000
vt 0.100000 0.500000
vt 0.100000 1.000000
vt 0.075000 0.500000
vt 0.075000 1.000000
vt 0.050000 0.500000
vt 0.055836 0.108932
vt 0.490000 0.250000
vt 0.324164 0.478254
vt 0.050000 1.000000
vt 0.025000 0.500000
vt 0.025000 1.000000
vt 0.000000 0.500000
vt 0.919706 0.080294
vt 0.512955 0.287544
vt 0.712456 0.487045
vt 0.287544 0.487045
vt 0.250000 0.490000
vt 0.212456 0.487045
vt 0.175836 0.478254
vt 0.141042 0.463842
vt 0.108932 0.444164
vt 0.080294 0.419706
vt 0.055836 0.391068
vt 0.036158 0.358958
vt 0.021746 0.324164
vt 0.012955 0.287544
vt 0.010000 0.250000
vt 0.012955 0.212456
vt 0.021746 0.175836
vt 0.036158 0.141042
vt 0.080294 0.080294
vt 0.108932 0.055836
vt 0.141042 0.036158
vt 0.175836 0.021746
vt 0.212456 0.012955
vt 0.250000 0.010000
vt 0.287544 0.012955
vt 0.324164 0.021746
vt 0.358958 0.036158
vt 0.391068 0.055836
vt 0.419706 0.080294
vt 0.444164 0.108932
vt 0.463842 0.141042
vt 0.478254 0.175836
vt 0.487045 0.212456
vt 0.487045 0.287544
vt 0.478254 0.324164
vt 0.463842 0.358958
vt 0.444164 0.391068
vt 0.419706 0.419706
vt 0.391068 0.444164
vt 0.358958 0.463842
vt 0.000000 1.000000
vt 0.750000 0.490000
vt 0.787544 0.487045
vt 0.824164 0.478254
vt 0.858958 0.463842
vt 0.891068 0.444164
vt 0.919706 0.419706
vt 0.944164 0.391068
vt 0.963842 0.358958
vt 0.978254 0.324164
vt 0.987045 0.287544
vt 0.990000 0.250000
vt 0.987045 0.212456
vt 0.978254 0.175836
vt 0.963842 0.141042
vt 0.944164 0.108932
vt 0.891068 0.055836
vt 0.858958 0.036158
vt 0.824164 0.021746
vt 0.787544 0.012955
vt 0.750000 0.010000
vt 0.712456 0.012955
vt 0.675836 0.021746
vt 0.641042 0.036158
vt 0.608932 0.055836
vt 0.580294 0.080294
vt 0.555836 0.108932
vt 0.536158 0.141042
vt 0.521746 0.175836
vt 0.512955 0.212456
vt 0.510000 0.250000
vt 0.521746 0.324164
vt 0.536158 0.358958
vt 0.555836 0.391068
vt 0.580294 0.419706
vt 0.608932 0.444164
vt 0.641042 0.463842
vt 0.675836 0.478254
s 0
usemtl Green_Turf
f 2/1/1 3/2/1 1/3/1
f 4/4/2 5/5/2 3/2/2
f 6/6/3 7/7/3 5/5/3
f 8/8/4 9/9/4 7/7/4
f 10/10/5 11/11/5 9/9/5
f 12/12/6 13/13/6 11/11/6
f 14/14/7 15/15/7 13/13/7
f 16/16/8 17/17/8 15/15/8
f 18/18/9 19/19/9 17/17/9
f 20/20/10 21/21/10 19/19/10
f 22/22/11 23/23/11 21/21/11
f 24/24/12 25/25/12 23/23/12
f 26/26/13 27/27/13 25/25/13
f 28/28/14 29/29/14 27/27/14
f 30/30/15 31/31/15 29/29/15
f 32/32/16 33/33/16 31/31/16
f 34/34/17 35/35/17 33/33/17
f 36/36/18 37/37/18 35/35/18
f 38/38/19 39/39/19 37/37/19
f 40/40/20 41/41/20 39/39/20
f 42/42/21 43/43/21 41/41/21
f 44/44/22 45/45/22 43/43/22
f 46/46/23 47/47/23 45/45/23
f 48/48/24 49/49/24 47/47/24
f 50/50/25 51/51/25 49/49/25
f 52/52/26 53/53/26 51/51/26
f 54/54/27 55/55/27 53/53/27
f 56/56/28 57/57/28 55/55/28
f 58/58/29 59/59/29 57/57/29
f 60/60/30 61/61/30 59/59/30
f 62/62/31 63/63/31 61/61/31
f 64/64/32 65/65/32 63/63/32
f 66/66/33 67/67/33 65/65/33
f 68/68/34 69/69/34 67/67/34
f 70/70/35 71/71/35 69/69/35
f 72/72/36 73/73/36 71/71/36
f 74/74/37 75/75/37 73/73/37
f 76/76/38 77/77/38 75/75/38
f 54/78/39 22/79/39 6/80/39
f 78/81/40 79/82/40 77/77/40
f 80/83/41 1/84/41 79/82/41
f 31/85/42 63/86/42 79/87/42
f 2/1/1 4/4/1 3/2/1
f 4/4/2 6/6/2 5/5/2
f 6/6/3 8/8/3 7/7/3
f 8/8/4 10/10/4 9/9/4
f 10/10/5 12/12/5 11/11/5
f 12/12/6 14/14/6 13/13/6
f 14/14/7 16/16/7 15/15/7
f 16/16/8 18/18/8 17/17/8
f 18/18/9 20/20/9 19/19/9
f 20/20/10 22/22/10 21/21/10
f 22/22/11 24/24/11 23/23/11
f 24/24/12 26/26/12 25/25/12
f 26/26/13 28/28/13 27/27/13
f 28/28/14 30/30/14 29/29/14
f 30/30/15 32/32/15 31/31/15
f 32/32/16 34/34/16 33/33/16
f 34/34/17 36/36/17 35/35/17
f 36/36/18 38/38/18 37/37/18
f 38/38/19 40/40/19 39/39/19
f 40/40/20 42/42/20 41/41/20
f 42/42/21 44/44/21 43/43/21
f 44/44/22 46/46/22 45/45/22
f 46/46/23 48/48/23 47/47/23
f 48/48/24 50/50/24 49/49/24
f 50/50/25 52/52/25 51/51/25
f 52/52/26 54/54/26 53/53/26
f 54/54/27 56/56/27 55/55/27
f 56/56/28 58/58/28 57/57/28
f 58/58/29 60/60/29 59/59/29
f 60/60/30 62/62/30 61/61/30
f 62/62/31 64/64/31 63/63/31
f 64/64/32 66/66/32 65/65/32
f 66/66/33 68/68/33 67/67/33
f 68/68/34 70/70/34 69/69/34
f 70/70/35 72/72/35 71/71/35
f 72/72/36 74/74/36 73/73/36
f 74/74/37 76/76/37 75/75/37
f 76/76/38 78/81/38 77/77/38
f 6/80/39 4/88/39 2/89/39
f 2/89/39 80/90/39 78/91/39
f 78/91/39 76/92/39 74/93/39
f 74/93/39 72/94/39 70/95/39
f 70/95/39 68/96/39 66/97/39
f 66/97/39 64/98/39 62/99/39
f 62/99/39 60/100/39 58/101/39
f 58/101/39 56/102/39 54/78/39
f 54/78/39 52/103/39 50/104/39
f 50/104/39 48/105/39 46/106/39
f 46/106/39 44/107/39 42/108/39
f 42/108/39 40/109/39 38/110/39
f 38/110/39 36/111/39 34/112/39
f 34/112/39 32/113/39 30/114/39
f 30/114/39 28/115/39 26/116/39
f 26/116/39 24/117/39 22/79/39
f 22/79/39 20/118/39 18/119/39
f 18/119/39 16/120/39 14/121/39
f 14/121/39 12/122/39 10/123/39
f 10/123/39 8/124/39 6/80/39
f 6/80/39 2/89/39 78/91/39
f 78/91/39 74/93/39 70/95/39
f 70/95/39 66/97/39 62/99/39
f 62/99/39 58/101/39 54/78/39
f 54/78/39 50/104/39 46/106/39
f 46/106/39 42/108/39 38/110/39
f 38/110/39 34/112/39 30/114/39
f 30/114/39 26/116/39 22/79/39
f 22/79/39 18/119/39 14/121/39
f 14/121/39 10/123/39 6/80/39
f 6/80/39 78/91/39 70/95/39
f 70/95/39 62/99/39 54/78/39
f 54/78/39 46/106/39 38/110/39
f 38/110/39 30/114/39 22/79/39
f 22/79/39 14/121/39 6/80/39
f 6/80/39 70/95/39 54/78/39
f 54/78/39 38/110/39 22/79/39
f 78/81/40 80/83/40 79/82/40
f 80/83/41 2/125/41 1/84/41
f 79/87/42 1/126/42 3/127/42
f 3/127/42 5/128/42 7/129/42
f 7/129/42 9/130/42 11/131/42
f 11/131/42 13/132/42 15/133/42
f 15/133/42 17/134/42 19/135/42
f 19/135/42 21/136/42 23/137/42
f 23/137/42 25/138/42 27/139/42
f 27/139/42 29/140/42 31/85/42
f 31/85/42 33/141/42 35/142/42
f 35/142/42 37/143/42 39/144/42
f 39/144/42 41/145/42 43/146/42
f 43/146/42 45/147/42 47/148/42
f 47/148/42 49/149/42 51/150/42
f 51/150/42 53/151/42 55/152/42
f 55/152/42 57/153/42 59/154/42
f 59/154/42 61/155/42 63/86/42
f 63/86/42 65/156/42 67/157/42
f 67/157/42 69/158/42 71/159/42
f 71/159/42 73/160/42 75/161/42
f 75/161/42 77/162/42 79/87/42
f 79/87/42 3/127/42 7/129/42
f 7/129/42 11/131/42 15/133/42
f 15/133/42 19/135/42 23/137/42
f 23/137/42 27/139/42 31/85/42
f 31/85/42 35/142/42 39/144/42
f 39/144/42 43/146/42 47/148/42
f 47/148/42 51/150/42 55/152/42
f 55/152/42 59/154/42 63/86/42
f 63/86/42 67/157/42 71/159/42
f 71/159/42 75/161/42 79/87/42
f 79/87/42 7/129/42 15/133/42
f 15/133/42 23/137/42 31/85/42
f 31/85/42 39/144/42 47/148/42
f 47/148/42 55/152/42 63/86/42
f 63/86/42 71/159/42 79/87/42
f 79/87/42 15/133/42 31/85/42
f 31/85/42 47/148/42 63/86/42
o Golf_Hole_Cup
v 0.000000 0.025000 -0.130000
v 0.000000 0.075000 -0.130000
v 0.025362 0.025000 -0.127502
v 0.025362 0.075000 -0.127502
v 0.049749 0.025000 -0.120104
v 0.049749 0.075000 -0.120104
v 0.072224 0.025000 -0.108091
v 0.072224 0.075000 -0.108091
v 0.091924 0.025000 -0.091924
v 0.091924 0.075000 -0.091924
v 0.108091 0.025000 -0.072224
v 0.108091 0.075000 -0.072224
v 0.120104 0.025000 -0.049749
v 0.120104 0.075000 -0.049749
v 0.127502 0.025000 -0.025362
v 0.127502 0.075000 -0.025362
v 0.130000 0.025000 0.000000
v 0.130000 0.075000 0.000000
v 0.127502 0.025000 0.025362
v 0.127502 0.075000 0.025362
v 0.120104 0.025000 0.049749
v 0.120104 0.075000 0.049749
v 0.108091 0.025000 0.072224
v 0.108091 0.075000 0.072224
v 0.091924 0.025000 0.091924
v 0.091924 0.075000 0.091924
v 0.072224 0.025000 0.108091
v 0.072224 0.075000 0.108091
v 0.049749 0.025000 0.120104
v 0.049749 0.075000 0.120104
v 0.025362 0.025000 0.127502
v 0.025362 0.075000 0.127502
v 0.000000 0.025000 0.130000
v 0.000000 0.075000 0.130000
v -0.025362 0.025000 0.127502
v -0.025362 0.075000 0.127502
v -0.049749 0.025000 0.120104
v -0.049749 0.075000 0.120104
v -0.072224 0.025000 0.108091
v -0.072224 0.075000 0.108091
v -0.091924 0.025000 0.091924
v -0.091924 0.075000 0.091924
v -0.108091 0.025000 0.072224
v -0.108091 0.075000 0.072224
v -0.120104 0.025000 0.049749
v -0.120104 0.075000 0.049749
v -0.127502 0.025000 0.025362
v -0.127502 0.075000 0.025362
v -0.130000 0.025000 0.000000
v -0.130000 0.075000 0.000000
v -0.127502 0.025000 -0.025362
v -0.127502 0.075000 -0.025362
v -0.120104 0.025000 -0.049749
v -0.120104 0.075000 -0.049749
v -0.108091 0.025000 -0.072224
v -0.108091 0.075000 -0.072224
v -0.091924 0.025000 -0.091924
v -0.091924 0.075000 -0.091924
v -0.072224 0.025000 -0.108091
v -0.072224 0.075000 -0.108091
v -0.049749 0.025000 -0.120104
v -0.049749 0.075000 -0.120104
v -0.025362 0.025000 -0.127502
v -0.025362 0.075000 -0.127502
vn 0.0980 -0.0000 -0.9952
vn 0.2903 -0.0000 -0.9569
vn 0.4714 -0.0000 -0.8819
vn 0.6344 -0.0000 -0.7730
vn 0.7730 -0.0000 -0.6344
vn 0.8819 -0.0000 -0.4714
vn 0.9569 -0.0000 -0.2903
vn 0.9952 -0.0000 -0.0980
vn 0.9952 -0.0000 0.0980
vn 0.9569 -0.0000 0.2903
vn 0.8819 -0.0000 0.4714
vn 0.7730 -0.0000 0.6344
vn 0.6344 -0.0000 0.7730
vn 0.4714 -0.0000 0.8819
vn 0.2903 -0.0000 0.9569
vn 0.0980 -0.0000 0.9952
vn -0.0980 -0.0000 0.9952
vn -0.2903 -0.0000 0.9569
vn -0.4714 -0.0000 0.8819
vn -0.6344 -0.0000 0.7730
vn -0.7730 -0.0000 0.6344
vn -0.8819 -0.0000 0.4714
vn -0.9569 -0.0000 0.2903
vn -0.9952 -0.0000 0.0980
vn -0.9952 -0.0000 -0.0980
vn -0.9569 -0.0000 -0.2903
vn -0.8819 -0.0000 -0.4714
vn -0.7730 -0.0000 -0.6344
vn -0.6344 -0.0000 -0.7730
vn -0.4714 -0.0000 -0.8819
vn -0.0000 1.0000 -0.0000
vn -0.2903 -0.0000 -0.9569
vn -0.0980 -0.0000 -0.9952
vn -0.0000 -1.0000 -0.0000
vt 1.000000 1.000000
vt 0.968750 0.500000
vt 1.000000 0.500000
vt 0.968750 1.000000
vt 0.937500 0.500000
vt 0.937500 1.000000
vt 0.906250 0.500000
vt 0.906250 1.000000
vt 0.875000 0.500000
vt 0.875000 1.000000
vt 0.843750 0.500000
vt 0.843750 1.000000
vt 0.812500 0.500000
vt 0.812500 1.000000
vt 0.781250 0.500000
vt 0.781250 1.000000
vt 0.750000 0.500000
vt 0.750000 1.000000
vt 0.718750 0.500000
vt 0.718750 1.000000
vt 0.687500 0.500000
vt 0.687500 1.000000
vt 0.656250 0.500000
vt 0.656250 1.000000
vt 0.625000 0.500000
vt 0.625000 1.000000
vt 0.593750 0.500000
vt 0.593750 1.000000
vt 0.562500 0.500000
vt 0.562500 1.000000
vt 0.531250 0.500000
vt 0.531250 1.000000
vt 0.500000 0.500000
vt 0.500000 1.000000
vt 0.468750 0.500000
vt 0.468750 1.000000
vt 0.437500 0.500000
vt 0.437500 1.000000
vt 0.406250 0.500000
vt 0.406250 1.000000
vt 0.375000 0.500000
vt 0.375000 1.000000
vt 0.343750 0.500000
vt 0.343750 1.000000
vt 0.312500 0.500000
vt 0.312500 1.000000
vt 0.281250 0.500000
vt 0.281250 1.000000
vt 0.250000 0.500000
vt 0.250000 1.000000
vt 0.218750 0.500000
vt 0.218750 1.000000
vt 0.187500 0.500000
vt 0.187500 1.000000
vt 0.156250 0.500000
vt 0.156250 1.000000
vt 0.125000 0.500000
vt 0.125000 1.000000
vt 0.093750 0.500000
vt 0.093750 1.000000
vt 0.062500 0.500000
vt 0.158156 0.028269
vt 0.471731 0.158156
vt 0.341844 0.471731
vt 0.062500 1.000000
vt 0.031250 0.500000
vt 0.031250 1.000000
vt 0.000000 0.500000
vt 0.796822 0.014612
vt 0.514612 0.203178
vt 0.703178 0.485388
vt 0.296822 0.485388
vt 0.250000 0.490000
vt 0.203178 0.485388
vt 0.158156 0.471731
vt 0.116663 0.449553
vt 0.080294 0.419706
vt 0.050447 0.383337
vt 0.028269 0.341844
vt 0.014612 0.296822
vt 0.010000 0.250000
vt 0.014612 0.203178
vt 0.028269 0.158156
vt 0.050447 0.116663
vt 0.080294 0.080294
vt 0.116663 0.050447
vt 0.203178 0.014612
vt 0.250000 0.010000
vt 0.296822 0.014612
vt 0.341844 0.028269
vt 0.383337 0.050447
vt 0.419706 0.080294
vt 0.449553 0.116663
vt 0.485388 0.203178
vt 0.490000 0.250000
vt 0.485388 0.296822
vt 0.471731 0.341844
vt 0.449553 0.383337
vt 0.419706 0.419706
vt 0.383337 0.449553
vt 0.000000 1.000000
vt 0.750000 0.490000
vt 0.796822 0.485388
vt 0.841844 0.471731
vt 0.883337 0.449553
vt 0.919706 0.419706
vt 0.949553 0.383337
vt 0.971731 0.341844
vt 0.985388 0.296822
vt 0.990000 0.250000
vt 0.985388 0.203178
vt 0.971731 0.158156
vt 0.949553 0.116663
vt 0.919706 0.080294
vt 0.883337 0.050447
vt 0.841844 0.028269
vt 0.750000 0.010000
vt 0.703178 0.014612
vt 0.658156 0.028269
vt 0.616663 0.050447
vt 0.580294 0.080294
vt 0.550447 0.116663
vt 0.528269 0.158156
vt 0.510000 0.250000
vt 0.514612 0.296822
vt 0.528269 0.341844
vt 0.550447 0.383337
vt 0.580294 0.419706
vt 0.616663 0.449553
vt 0.658156 0.471731
s 0
usemtl Dark_Hole_Cup
f 82/163/43 83/164/43 81/165/43
f 84/166/44 85/167/44 83/164/44
f 86/168/45 87/169/45 85/167/45
f 88/170/46 89/171/46 87/169/46
f 90/172/47 91/173/47 89/171/47
f 92/174/48 93/175/48 91/173/48
f 94/176/49 95/177/49 93/175/49
f 96/178/50 97/179/50 95/177/50
f 98/180/51 99/181/51 97/179/51
f 100/182/52 101/183/52 99/181/52
f 102/184/53 103/185/53 101/183/53
f 104/186/54 105/187/54 103/185/54
f 106/188/55 107/189/55 105/187/55
f 108/190/56 109/191/56 107/189/56
f 110/192/57 111/193/57 109/191/57
f 112/194/58 113/195/58 111/193/58
f 114/196/59 115/197/59 113/195/59
f 116/198/60 117/199/60 115/197/60
f 118/200/61 119/201/61 117/199/61
f 120/202/62 121/203/62 119/201/62
f 122/204/63 123/205/63 121/203/63
f 124/206/64 125/207/64 123/205/64
f 126/208/65 127/209/65 125/207/65
f 128/210/66 129/211/66 127/209/66
f 130/212/67 131/213/67 129/211/67
f 132/214/68 133/215/68 131/213/68
f 134/216/69 135/217/69 133/215/69
f 136/218/70 137/219/70 135/217/70
f 138/220/71 139/221/71 137/219/71
f 140/222/72 141/223/72 139/221/72
f 118/224/73 102/225/73 86/226/73
f 142/227/74 143/228/74 141/223/74
f 144/229/75 81/230/75 143/228/75
f 111/231/76 127/232/76 143/233/76
f 82/163/43 84/166/43 83/164/43
f 84/166/44 86/168/44 85/167/44
f 86/168/45 88/170/45 87/169/45
f 88/170/46 90/172/46 89/171/46
f 90/172/47 92/174/47 91/173/47
f 92/174/48 94/176/48 93/175/48
f 94/176/49 96/178/49 95/177/49
f 96/178/50 98/180/50 97/179/50
f 98/180/51 100/182/51 99/181/51
f 100/182/52 102/184/52 101/183/52
f 102/184/53 104/186/53 103/185/53
f 104/186/54 106/188/54 105/187/54
f 106/188/55 108/190/55 107/189/55
f 108/190/56 110/192/56 109/191/56
f 110/192/57 112/194/57 111/193/57
f 112/194/58 114/196/58 113/195/58
f 114/196/59 116/198/59 115/197/59
f 116/198/60 118/200/60 117/199/60
f 118/200/61 120/202/61 119/201/61
f 120/202/62 122/204/62 121/203/62
f 122/204/63 124/206/63 123/205/63
f 124/206/64 126/208/64 125/207/64
f 126/208/65 128/210/65 127/209/65
f 128/210/66 130/212/66 129/211/66
f 130/212/67 132/214/67 131/213/67
f 132/214/68 134/216/68 133/215/68
f 134/216/69 136/218/69 135/217/69
f 136/218/70 138/220/70 137/219/70
f 138/220/71 140/222/71 139/221/71
f 140/222/72 142/227/72 141/223/72
f 86/226/73 84/234/73 82/235/73
f 82/235/73 144/236/73 142/237/73
f 142/237/73 140/238/73 138/239/73
f 138/239/73 136/240/73 134/241/73
f 134/241/73 132/242/73 130/243/73
f 130/243/73 128/244/73 126/245/73
f 126/245/73 124/246/73 122/247/73
f 122/247/73 120/248/73 118/224/73
f 118/224/73 116/249/73 114/250/73
f 114/250/73 112/251/73 110/252/73
f 110/252/73 108/253/73 106/254/73
f 106/254/73 104/255/73 102/225/73
f 102/225/73 100/256/73 98/257/73
f 98/257/73 96/258/73 94/259/73
f 94/259/73 92/260/73 90/261/73
f 90/261/73 88/262/73 86/226/73
f 86/226/73 82/235/73 142/237/73
f 142/237/73 138/239/73 134/241/73
f 134/241/73 130/243/73 126/245/73
f 126/245/73 122/247/73 118/224/73
f 118/224/73 114/250/73 110/252/73
f 110/252/73 106/254/73 102/225/73
f 102/225/73 98/257/73 94/259/73
f 94/259/73 90/261/73 86/226/73
f 86/226/73 142/237/73 134/241/73
f 134/241/73 126/245/73 118/224/73
f 118/224/73 110/252/73 102/225/73
f 102/225/73 94/259/73 86/226/73
f 86/226/73 134/241/73 118/224/73
f 142/227/74 144/229/74 143/228/74
f 144/229/75 82/263/75 81/230/75
f 143/233/76 81/264/76 83/265/76
f 83/265/76 85/266/76 87/267/76
f 87/267/76 89/268/76 91/269/76
f 91/269/76 93/270/76 95/271/76
f 95/271/76 97/272/76 99/273/76
f 99/273/76 101/274/76 103/275/76
f 103/275/76 105/276/76 107/277/76
f 107/277/76 109/278/76 111/231/76
f 111/231/76 113/279/76 115/280/76
f 115/280/76 117/281/76 119/282/76
f 119/282/76 121/283/76 123/284/76
f 123/284/76 125/285/76 127/232/76
f 127/232/76 129/286/76 131/287/76
f 131/287/76 133/288/76 135/289/76
f 135/289/76 137/290/76 139/291/76
f 139/291/76 141/292/76 143/233/76
f 143/233/76 83/265/76 87/267/76
f 87/267/76 91/269/76 95/271/76
f 95/271/76 99/273/76 103/275/76
f 103/275/76 107/277/76 111/231/76
f 111/231/76 115/280/76 119/282/76
f 119/282/76 123/284/76 127/232/76
f 127/232/76 131/287/76 135/289/76
f 135/289/76 139/291/76 143/233/76
f 143/233/76 87/267/76 95/271/76
f 95/271/76 103/275/76 111/231/76
f 111/231/76 119/282/76 127/232/76
f 127/232/76 135/289/76 143/233/76
f 143/233/76 95/271/76 111/231/76
o Flagpole
v 0.000000 0.050000 -0.025000
v 0.000000 1.450000 -0.025000
v 0.009567 0.050000 -0.023097
v 0.009567 1.450000 -0.023097
v 0.017678 0.050000 -0.017678
v 0.017678 1.450000 -0.017678
v 0.023097 0.050000 -0.009567
v 0.023097 1.450000 -0.009567
v 0.025000 0.050000 0.000000
v 0.025000 1.450000 0.000000
v 0.023097 0.050000 0.009567
v 0.023097 1.450000 0.009567
v 0.017678 0.050000 0.017678
v 0.017678 1.450000 0.017678
v 0.009567 0.050000 0.023097
v 0.009567 1.450000 0.023097
v 0.000000 0.050000 0.025000
v 0.000000 1.450000 0.025000
v -0.009567 0.050000 0.023097
v -0.009567 1.450000 0.023097
v -0.017678 0.050000 0.017678
v -0.017678 1.450000 0.017678
v -0.023097 0.050000 0.009567
v -0.023097 1.450000 0.009567
v -0.025000 0.050000 0.000000
v -0.025000 1.450000 0.000000
v -0.023097 0.050000 -0.009567
v -0.023097 1.450000 -0.009567
v -0.017678 0.050000 -0.017678
v -0.017678 1.450000 -0.017678
v -0.009567 0.050000 -0.023097
v -0.009567 1.450000 -0.023097
vn 0.1951 -0.0000 -0.9808
vn 0.5556 -0.0000 -0.8315
vn 0.8315 -0.0000 -0.5556
vn 0.9808 -0.0000 -0.1951
vn 0.9808 -0.0000 0.1951
vn 0.8315 -0.0000 0.5556
vn 0.5556 -0.0000 0.8315
vn 0.1951 -0.0000 0.9808
vn -0.1951 -0.0000 0.9808
vn -0.5556 -0.0000 0.8315
vn -0.8315 -0.0000 0.5556
vn -0.9808 -0.0000 0.1951
vn -0.9808 -0.0000 -0.1951
vn -0.8315 -0.0000 -0.5556
vn -0.0000 1.0000 -0.0000
vn -0.5556 -0.0000 -0.8315
vn -0.1951 -0.0000 -0.9808
vn -0.0000 -1.0000 -0.0000
vt 1.000000 1.000000
vt 0.937500 0.500000
vt 1.000000 0.500000
vt 0.937500 1.000000
vt 0.875000 0.500000
vt 0.875000 1.000000
vt 0.812500 0.500000
vt 0.812500 1.000000
vt 0.750000 0.500000
vt 0.750000 1.000000
vt 0.687500 0.500000
vt 0.687500 1.000000
vt 0.625000 0.500000
vt 0.625000 1.000000
vt 0.562500 0.500000
vt 0.562500 1.000000
vt 0.500000 0.500000
vt 0.500000 1.000000
vt 0.437500 0.500000
vt 0.437500 1.000000
vt 0.375000 0.500000
vt 0.375000 1.000000
vt 0.312500 0.500000
vt 0.312500 1.000000
vt 0.250000 0.500000
vt 0.250000 1.000000
vt 0.187500 0.500000
vt 0.187500 1.000000
vt 0.125000 0.500000
vt 0.080294 0.080294
vt 0.419706 0.080294
vt 0.419706 0.419706
vt 0.125000 1.000000
vt 0.062500 0.500000
vt 0.062500 1.000000
vt 0.000000 0.500000
vt 0.841844 0.028269
vt 0.528269 0.158156
vt 0.658156 0.471731
vt 0.341844 0.471731
vt 0.250000 0.490000
vt 0.158156 0.471731
vt 0.080294 0.419706
vt 0.028269 0.341844
vt 0.010000 0.250000
vt 0.028269 0.158156
vt 0.158156 0.028269
vt 0.250000 0.010000
vt 0.341844 0.028269
vt 0.471731 0.158156
vt 0.490000 0.250000
vt 0.471731 0.341844
vt 0.000000 1.000000
vt 0.750000 0.490000
vt 0.841844 0.471731
vt 0.919706 0.419706
vt 0.971731 0.341844
vt 0.990000 0.250000
vt 0.971731 0.158156
vt 0.919706 0.080294
vt 0.750000 0.010000
vt 0.658156 0.028269
vt 0.580294 0.080294
vt 0.510000 0.250000
vt 0.528269 0.341844
vt 0.580294 0.419706
s 0
usemtl Metal_Flagpole
f 146/293/77 147/294/77 145/295/77
f 148/296/78 149/297/78 147/294/78
f 150/298/79 151/299/79 149/297/79
f 152/300/80 153/301/80 151/299/80
f 154/302/81 155/303/81 153/301/81
f 156/304/82 157/305/82 155/303/82
f 158/306/83 159/307/83 157/305/83
f 160/308/84 161/309/84 159/307/84
f 162/310/85 163/311/85 161/309/85
f 164/312/86 165/313/86 163/311/86
f 166/314/87 167/315/87 165/313/87
f 168/316/88 169/317/88 167/315/88
f 170/318/89 171/319/89 169/317/89
f 172/320/90 173/321/90 171/319/90
f 166/322/91 158/323/91 150/324/91
f 174/325/92 175/326/92 173/321/92
f 176/327/93 145/328/93 175/326/93
f 159/329/94 167/330/94 175/331/94
f 146/293/77 148/296/77 147/294/77
f 148/296/78 150/298/78 149/297/78
f 150/298/79 152/300/79 151/299/79
f 152/300/80 154/302/80 153/301/80
f 154/302/81 156/304/81 155/303/81
f 156/304/82 158/306/82 157/305/82
f 158/306/83 160/308/83 159/307/83
f 160/308/84 162/310/84 161/309/84
f 162/310/85 164/312/85 163/311/85
f 164/312/86 166/314/86 165/313/86
f 166/314/87 168/316/87 167/315/87
f 168/316/88 170/318/88 169/317/88
f 170/318/89 172/320/89 171/319/89
f 172/320/90 174/325/90 173/321/90
f 150/324/91 148/332/91 146/333/91
f 146/333/91 176/334/91 174/335/91
f 174/335/91 172/336/91 170/337/91
f 170/337/91 168/338/91 166/322/91
f 166/322/91 164/339/91 162/340/91
f 162/340/91 160/341/91 158/323/91
f 158/323/91 156/342/91 154/343/91
f 154/343/91 152/344/91 150/324/91
f 150/324/91 146/333/91 174/335/91
f 174/335/91 170/337/91 166/322/91
f 166/322/91 162/340/91 158/323/91
f 158/323/91 154/343/91 150/324/91
f 150/324/91 174/335/91 166/322/91
f 174/325/92 176/327/92 175/326/92
f 176/327/93 146/345/93 145/328/93
f 175/331/94 145/346/94 147/347/94
f 147/347/94 149/348/94 151/349/94
f 151/349/94 153/350/94 155/351/94
f 155/351/94 157/352/94 159/329/94
f 159/329/94 161/353/94 163/354/94
f 163/354/94 165/355/94 167/330/94
f 167/330/94 169/356/94 171/357/94
f 171/357/94 173/358/94 175/331/94
f 175/331/94 147/347/94 151/349/94
f 151/349/94 155/351/94 159/329/94
f 159/329/94 163/354/94 167/330/94
f 167/330/94 171/357/94 175/331/94
f 175/331/94 151/349/94 159/329/94
o MiniGolf_Flag
v 0.005000 1.090000 0.015000
v 0.005000 1.410000 0.015000
v 0.005000 1.090000 -0.015000
v 0.005000 1.410000 -0.015000
v 0.555000 1.090000 0.015000
v 0.555000 1.410000 0.015000
v 0.555000 1.090000 -0.015000
v 0.555000 1.410000 -0.015000
vn -1.0000 -0.0000 -0.0000
vn -0.0000 -0.0000 -1.0000
vn 1.0000 -0.0000 -0.0000
vn -0.0000 -0.0000 1.0000
vn -0.0000 -1.0000 -0.0000
vn -0.0000 1.0000 -0.0000
vt 0.625000 0.000000
vt 0.375000 0.250000
vt 0.375000 0.000000
vt 0.625000 0.250000
vt 0.375000 0.500000
vt 0.625000 0.500000
vt 0.375000 0.750000
vt 0.625000 0.750000
vt 0.375000 1.000000
vt 0.125000 0.750000
vt 0.125000 0.500000
vt 0.875000 0.500000
vt 0.625000 1.000000
vt 0.875000 0.750000
s 0
usemtl Red_Flag
f 178/359/95 179/360/95 177/361/95
f 180/362/96 183/363/96 179/360/96
f 184/364/97 181/365/97 183/363/97
f 182/366/98 177/367/98 181/365/98
f 183/363/99 177/368/99 179/369/99
f 180/370/100 182/366/100 184/364/100
f 178/359/95 180/362/95 179/360/95
f 180/362/96 184/364/96 183/363/96
f 184/364/97 182/366/97 181/365/97
f 182/366/98 178/371/98 177/367/98
f 183/363/99 181/365/99 177/368/99
f 180/370/100 178/372/100 182/366/100
o Flagpole_Top_Ball
v 0.000000 1.535000 0.000000
v 0.000000 1.501048 -0.050813
v 0.000000 1.480000 -0.055000
v 0.000000 1.458952 -0.050813
v 0.000000 1.441109 -0.038891
v 0.000000 1.429187 -0.021048
v 0.000000 1.425000 0.000000
v 0.008055 1.530813 -0.019445
v 0.014883 1.518891 -0.035930
v 0.019445 1.501048 -0.046945
v 0.021048 1.480000 -0.050813
v 0.019445 1.458952 -0.046945
v 0.014883 1.441109 -0.035930
v 0.008055 1.429187 -0.019445
v 0.014883 1.530813 -0.014883
v 0.027500 1.518891 -0.027500
v 0.035930 1.501048 -0.035930
v 0.038891 1.480000 -0.038891
v 0.035930 1.458952 -0.035930
v 0.027500 1.441109 -0.027500
v 0.014883 1.429187 -0.014883
v 0.019445 1.530813 -0.008055
v 0.035930 1.518891 -0.014883
v 0.046945 1.501048 -0.019445
v 0.050813 1.480000 -0.021048
v 0.046945 1.458952 -0.019445
v 0.035930 1.441109 -0.014883
v 0.019445 1.429187 -0.008055
v 0.021048 1.530813 0.000000
v 0.038891 1.518891 0.000000
v 0.050813 1.501048 0.000000
v 0.055000 1.480000 0.000000
v 0.050813 1.458952 0.000000
v 0.038891 1.441109 0.000000
v 0.021048 1.429187 0.000000
v 0.019445 1.530813 0.008055
v 0.035930 1.518891 0.014883
v 0.046945 1.501048 0.019445
v 0.050813 1.480000 0.021048
v 0.046945 1.458952 0.019445
v 0.035930 1.441109 0.014883
v 0.019445 1.429187 0.008055
v 0.014883 1.530813 0.014883
v 0.027500 1.518891 0.027500
v 0.035930 1.501048 0.035930
v 0.038891 1.480000 0.038891
v 0.035930 1.458952 0.035930
v 0.027500 1.441109 0.027500
v 0.014883 1.429187 0.014883
v 0.008055 1.530813 0.019445
v 0.014883 1.518891 0.035930
v 0.019445 1.501048 0.046945
v 0.021048 1.480000 0.050813
v 0.019445 1.458952 0.046945
v 0.014883 1.441109 0.035930
v 0.008055 1.429187 0.019445
v -0.000000 1.530813 0.021048
v -0.000000 1.518891 0.038891
v -0.000000 1.501048 0.050813
v -0.000000 1.480000 0.055000
v -0.000000 1.458952 0.050813
v -0.000000 1.441109 0.038891
v -0.000000 1.429187 0.021048
v -0.008055 1.530813 0.019445
v -0.014883 1.518891 0.035930
v -0.019445 1.501048 0.046945
v -0.021048 1.480000 0.050813
v -0.019445 1.458952 0.046945
v -0.014883 1.441109 0.035930
v -0.008055 1.429187 0.019445
v -0.014883 1.530813 0.014883
v -0.027500 1.518891 0.027500
v -0.035930 1.501048 0.035930
v -0.038891 1.480000 0.038891
v -0.035930 1.458952 0.035930
v -0.027500 1.441109 0.027500
v -0.014883 1.429187 0.014883
v -0.019445 1.530813 0.008055
v -0.035930 1.518891 0.014883
v -0.046945 1.501048 0.019445
v -0.050813 1.480000 0.021048
v -0.046945 1.458952 0.019445
v -0.035930 1.441109 0.014883
v -0.019445 1.429187 0.008055
v -0.021048 1.530813 -0.000000
v -0.038891 1.518891 -0.000000
v -0.050813 1.501048 -0.000000
v -0.055000 1.480000 -0.000000
v -0.050813 1.458952 -0.000000
v -0.038891 1.441109 -0.000000
v -0.021048 1.429187 -0.000000
v -0.019445 1.530813 -0.008055
v -0.035930 1.518891 -0.014883
v -0.046945 1.501048 -0.019445
v -0.050813 1.480000 -0.021048
v -0.046945 1.458952 -0.019445
v -0.035930 1.441109 -0.014883
v -0.019445 1.429187 -0.008055
v -0.014883 1.530813 -0.014883
v -0.027500 1.518891 -0.027500
v -0.035930 1.501048 -0.035930
v -0.038891 1.480000 -0.038891
v -0.035930 1.458952 -0.035930
v -0.027500 1.441109 -0.027500
v -0.014883 1.429187 -0.014883
v -0.008055 1.530813 -0.019445
v -0.014883 1.518891 -0.035930
v -0.019445 1.501048 -0.046945
v -0.021048 1.480000 -0.050813
v -0.019445 1.458952 -0.046945
v -0.014883 1.441109 -0.035930
v -0.008055 1.429187 -0.019445
v 0.000000 1.530813 -0.021048
v 0.000000 1.518891 -0.038891
vn 0.1098 -0.8264 -0.5522
vn 0.1915 -0.1915 -0.9626
vn 0.1632 0.5481 -0.8203
vn 0.0388 0.9800 -0.1949
vn 0.0388 -0.9800 -0.1949
vn 0.1632 -0.5481 -0.8203
vn 0.1915 0.1915 -0.9626
vn 0.1098 0.8264 -0.5522
vn 0.1104 0.9800 -0.1653
vn 0.1104 -0.9800 -0.1653
vn 0.4647 -0.5481 -0.6954
vn 0.5453 0.1915 -0.8161
vn 0.3128 0.8264 -0.4681
vn 0.3128 -0.8264 -0.4681
vn 0.5453 -0.1915 -0.8161
vn 0.4647 0.5481 -0.6954
vn 0.6954 -0.5481 -0.4647
vn 0.8161 0.1915 -0.5453
vn 0.4681 0.8264 -0.3128
vn 0.4681 -0.8264 -0.3128
vn 0.8161 -0.1915 -0.5453
vn 0.6954 0.5481 -0.4647
vn 0.1653 0.9800 -0.1104
vn 0.1653 -0.9800 -0.1104
vn 0.5522 -0.8264 -0.1098
vn 0.9626 -0.1915 -0.1915
vn 0.8203 0.5481 -0.1632
vn 0.1949 0.9800 -0.0388
vn 0.1949 -0.9800 -0.0388
vn 0.8203 -0.5481 -0.1632
vn 0.9626 0.1915 -0.1915
vn 0.5522 0.8264 -0.1098
vn 0.9626 -0.1915 0.1915
vn 0.8203 0.5481 0.1632
vn 0.1949 0.9800 0.0388
vn 0.1949 -0.9800 0.0388
vn 0.8203 -0.5481 0.1632
vn 0.9626 0.1915 0.1915
vn 0.5522 0.8264 0.1098
vn 0.5522 -0.8264 0.1098
vn 0.1653 -0.9800 0.1104
vn 0.6954 -0.5481 0.4647
vn 0.8161 0.1915 0.5453
vn 0.4681 0.8264 0.3128
vn 0.4681 -0.8264 0.3128
vn 0.8161 -0.1915 0.5453
vn 0.6954 0.5481 0.4647
vn 0.1653 0.9800 0.1104
vn 0.5453 0.1915 0.8161
vn 0.3128 0.8264 0.4681
vn 0.3128 -0.8264 0.4681
vn 0.5453 -0.1915 0.8161
vn 0.4647 0.5481 0.6954
vn 0.1104 0.9800 0.1653
vn 0.1104 -0.9800 0.1653
vn 0.4647 -0.5481 0.6954
vn 0.1098 -0.8264 0.5522
vn 0.1915 -0.1915 0.9626
vn 0.1632 0.5481 0.8203
vn 0.0388 0.9800 0.1949
vn 0.0388 -0.9800 0.1949
vn 0.1632 -0.5481 0.8203
vn 0.1915 0.1915 0.9626
vn 0.1098 0.8264 0.5522
vn -0.1632 0.5481 0.8203
vn -0.0388 0.9800 0.1949
vn -0.0388 -0.9800 0.1949
vn -0.1632 -0.5481 0.8203
vn -0.1915 0.1915 0.9626
vn -0.1098 0.8264 0.5522
vn -0.1098 -0.8264 0.5522
vn -0.1915 -0.1915 0.9626
vn -0.1104 -0.9800 0.1653
vn -0.4647 -0.5481 0.6954
vn -0.5453 0.1915 0.8161
vn -0.3128 0.8264 0.4681
vn -0.3128 -0.8264 0.4681
vn -0.5453 -0.1915 0.8161
vn -0.4647 0.5481 0.6954
vn -0.1104 0.9800 0.1653
vn -0.4681 0.8264 0.3128
vn -0.4681 -0.8264 0.3128
vn -0.8161 -0.1915 0.5453
vn -0.6954 0.5481 0.4647
vn -0.1653 0.9800 0.1104
vn -0.1653 -0.9800 0.1104
vn -0.6954 -0.5481 0.4647
vn -0.8161 0.1915 0.5453
vn -0.5522 -0.8264 0.1098
vn -0.9626 -0.1915 0.1915
vn -0.8203 0.5481 0.1632
vn -0.1949 0.9800 0.0388
vn -0.1949 -0.9800 0.0388
vn -0.8203 -0.5481 0.1632
vn -0.9626 0.1915 0.1915
vn -0.5522 0.8264 0.1098
vn -0.1949 0.9800 -0.0388
vn -0.1949 -0.9800 -0.0388
vn -0.8203 -0.5481 -0.1632
vn -0.9626 0.1915 -0.1915
vn -0.5522 0.8264 -0.1098
vn -0.5522 -0.8264 -0.1098
vn -0.9626 -0.1915 -0.1915
vn -0.8203 0.5481 -0.1632
vn -0.6954 -0.5481 -0.4647
vn -0.8161 0.1915 -0.5453
vn -0.4681 0.8264 -0.3128
vn -0.4681 -0.8264 -0.3128
vn -0.8161 -0.1915 -0.5453
vn -0.6954 0.5481 -0.4647
vn -0.1653 0.9800 -0.1104
vn -0.1653 -0.9800 -0.1104
vn -0.3128 -0.8264 -0.4681
vn -0.5453 -0.1915 -0.8161
vn -0.4647 0.5481 -0.6954
vn -0.1104 0.9800 -0.1653
vn -0.1104 -0.9800 -0.1653
vn -0.4647 -0.5481 -0.6954
vn -0.5453 0.1915 -0.8161
vn -0.3128 0.8264 -0.4681
vn -0.1915 -0.1915 -0.9626
vn -0.1632 0.5481 -0.8203
vn -0.0388 0.9800 -0.1949
vn -0.0388 -0.9800 -0.1949
vn -0.1632 -0.5481 -0.8203
vn -0.1915 0.1915 -0.9626
vn -0.1098 0.8264 -0.5522
vn -0.1098 -0.8264 -0.5522
vt 0.750000 0.125000
vt 0.687500 0.250000
vt 0.687500 0.125000
vt 0.750000 0.500000
vt 0.687500 0.375000
vt 0.750000 0.375000
vt 0.750000 0.750000
vt 0.687500 0.625000
vt 0.750000 0.625000
vt 0.750000 0.875000
vt 0.718750 1.000000
vt 0.687500 0.875000
vt 0.718750 0.000000
vt 0.750000 0.250000
vt 0.687500 0.500000
vt 0.687500 0.750000
vt 0.656250 1.000000
vt 0.625000 0.875000
vt 0.656250 0.000000
vt 0.625000 0.125000
vt 0.625000 0.250000
vt 0.625000 0.625000
vt 0.625000 0.500000
vt 0.625000 0.750000
vt 0.625000 0.375000
vt 0.562500 0.250000
vt 0.562500 0.500000
vt 0.562500 0.750000
vt 0.562500 0.125000
vt 0.562500 0.375000
vt 0.562500 0.625000
vt 0.593750 1.000000
vt 0.562500 0.875000
vt 0.593750 0.000000
vt 0.500000 0.125000
vt 0.500000 0.375000
vt 0.500000 0.750000
vt 0.500000 0.625000
vt 0.531250 1.000000
vt 0.500000 0.875000
vt 0.531250 0.000000
vt 0.500000 0.250000
vt 0.500000 0.500000
vt 0.437500 0.375000
vt 0.437500 0.750000
vt 0.437500 0.625000
vt 0.468750 1.000000
vt 0.437500 0.875000
vt 0.468750 0.000000
vt 0.437500 0.125000
vt 0.437500 0.250000
vt 0.437500 0.500000
vt 0.406250 0.000000
vt 0.375000 0.125000
vt 0.375000 0.250000
vt 0.375000 0.500000
vt 0.375000 0.750000
vt 0.375000 0.375000
vt 0.375000 0.625000
vt 0.406250 1.000000
vt 0.375000 0.875000
vt 0.312500 0.500000
vt 0.312500 0.750000
vt 0.312500 0.250000
vt 0.312500 0.125000
vt 0.312500 0.375000
vt 0.312500 0.625000
vt 0.343750 1.000000
vt 0.312500 0.875000
vt 0.343750 0.000000
vt 0.250000 0.125000
vt 0.250000 0.375000
vt 0.250000 0.750000
vt 0.250000 0.625000
vt 0.281250 1.000000
vt 0.250000 0.875000
vt 0.281250 0.000000
vt 0.250000 0.250000
vt 0.250000 0.500000
vt 0.187500 0.750000
vt 0.187500 0.625000
vt 0.218750 1.000000
vt 0.187500 0.875000
vt 0.218750 0.000000
vt 0.187500 0.125000
vt 0.187500 0.250000
vt 0.187500 0.500000
vt 0.187500 0.375000
vt 0.156250 0.000000
vt 0.125000 0.125000
vt 0.125000 0.250000
vt 0.125000 0.500000
vt 0.125000 0.750000
vt 0.125000 0.375000
vt 0.125000 0.625000
vt 0.156250 1.000000
vt 0.125000 0.875000
vt 0.062500 0.750000
vt 0.062500 0.250000
vt 0.062500 0.125000
vt 0.062500 0.500000
vt 0.062500 0.375000
vt 0.062500 0.625000
vt 0.093750 1.000000
vt 0.062500 0.875000
vt 0.093750 0.000000
vt 0.000000 0.125000
vt 0.000000 0.375000
vt 0.000000 0.750000
vt 0.000000 0.625000
vt 0.031250 1.000000
vt 0.000000 0.875000
vt 0.031250 0.000000
vt 0.000000 0.250000
vt 0.000000 0.500000
vt 1.000000 0.875000
vt 0.968750 1.000000
vt 0.937500 0.875000
vt 0.968750 0.000000
vt 1.000000 0.125000
vt 0.937500 0.125000
vt 1.000000 0.375000
vt 0.937500 0.250000
vt 1.000000 0.250000
vt 1.000000 0.625000
vt 0.937500 0.500000
vt 1.000000 0.500000
vt 1.000000 0.750000
vt 0.937500 0.750000
vt 0.937500 0.375000
vt 0.937500 0.625000
vt 0.875000 0.250000
vt 0.875000 0.500000
vt 0.875000 0.750000
vt 0.875000 0.125000
vt 0.875000 0.375000
vt 0.875000 0.625000
vt 0.906250 1.000000
vt 0.875000 0.875000
vt 0.906250 0.000000
vt 0.812500 0.125000
vt 0.812500 0.375000
vt 0.812500 0.750000
vt 0.812500 0.625000
vt 0.843750 1.000000
vt 0.812500 0.875000
vt 0.843750 0.000000
vt 0.812500 0.250000
vt 0.812500 0.500000
vt 0.781250 1.000000
vt 0.781250 0.000000
s 0
usemtl Metal_Flagpole
f 190/373/101 197/374/101 198/375/101
f 187/376/102 196/377/102 188/378/102
f 298/379/103 194/380/103 186/381/103
f 297/382/104 185/383/104 192/384/104
f 191/385/105 190/373/105 198/375/105
f 188/378/106 197/374/106 189/386/106
f 186/381/107 195/387/107 187/376/107
f 297/382/108 193/388/108 298/379/108
f 192/384/109 185/389/109 199/390/109
f 191/391/110 198/375/110 205/392/110
f 196/377/111 204/393/111 197/374/111
f 195/387/112 201/394/112 202/395/112
f 192/384/113 200/396/113 193/388/113
f 197/374/114 205/392/114 198/375/114
f 195/387/115 203/397/115 196/377/115
f 193/388/116 201/394/116 194/380/116
f 203/397/117 211/398/117 204/393/117
f 201/394/118 209/399/118 202/395/118
f 199/390/119 207/400/119 200/396/119
f 204/393/120 212/401/120 205/392/120
f 202/395/121 210/402/121 203/397/121
f 201/394/122 207/400/122 208/403/122
f 199/390/123 185/404/123 206/405/123
f 191/406/124 205/392/124 212/401/124
f 211/398/125 219/407/125 212/401/125
f 209/399/126 217/408/126 210/402/126
f 208/403/127 214/409/127 215/410/127
f 206/405/128 185/411/128 213/412/128
f 191/413/129 212/401/129 219/407/129
f 210/402/130 218/414/130 211/398/130
f 208/403/131 216/415/131 209/399/131
f 207/400/132 213/412/132 214/409/132
f 216/415/133 224/416/133 217/408/133
f 215/410/134 221/417/134 222/418/134
f 213/412/135 185/419/135 220/420/135
f 191/421/136 219/407/136 226/422/136
f 217/408/137 225/423/137 218/414/137
f 215/410/138 223/424/138 216/415/138
f 213/412/139 221/417/139 214/409/139
f 218/414/140 226/422/140 219/407/140
f 191/425/141 226/422/141 233/426/141
f 224/416/142 232/427/142 225/423/142
f 222/418/143 230/428/143 223/424/143
f 220/420/144 228/429/144 221/417/144
f 225/423/145 233/426/145 226/422/145
f 223/424/146 231/430/146 224/416/146
f 221/417/147 229/431/147 222/418/147
f 220/420/148 185/432/148 227/433/148
f 229/431/149 237/434/149 230/428/149
f 227/433/150 235/435/150 228/429/150
f 233/426/151 239/436/151 240/437/151
f 230/428/152 238/438/152 231/430/152
f 229/431/153 235/435/153 236/439/153
f 227/433/154 185/440/154 234/441/154
f 191/442/155 233/426/155 240/437/155
f 231/430/156 239/436/156 232/427/156
f 239/436/157 247/443/157 240/437/157
f 237/434/158 245/444/158 238/438/158
f 236/439/159 242/445/159 243/446/159
f 234/441/160 185/447/160 241/448/160
f 191/449/161 240/437/161 247/443/161
f 238/438/162 246/450/162 239/436/162
f 237/434/163 243/446/163 244/451/163
f 234/441/164 242/445/164 235/435/164
f 243/446/165 249/452/165 250/453/165
f 241/448/166 185/454/166 248/455/166
f 191/456/167 247/443/167 254/457/167
f 245/444/168 253/458/168 246/450/168
f 243/446/169 251/459/169 244/451/169
f 241/448/170 249/452/170 242/445/170
f 246/450/171 254/457/171 247/443/171
f 244/451/172 252/460/172 245/444/172
f 191/461/173 254/457/173 261/462/173
f 252/460/174 260/463/174 253/458/174
f 250/453/175 258/464/175 251/459/175
f 248/455/176 256/465/176 249/452/176
f 253/458/177 261/462/177 254/457/177
f 251/459/178 259/466/178 252/460/178
f 250/453/179 256/465/179 257/467/179
f 248/455/180 185/468/180 255/469/180
f 255/469/181 263/470/181 256/465/181
f 261/462/182 267/471/182 268/472/182
f 259/466/183 265/473/183 266/474/183
f 257/467/184 263/470/184 264/475/184
f 255/469/185 185/476/185 262/477/185
f 191/478/186 261/462/186 268/472/186
f 259/466/187 267/471/187 260/463/187
f 257/467/188 265/473/188 258/464/188
f 267/471/189 275/479/189 268/472/189
f 265/473/190 273/480/190 266/474/190
f 264/475/191 270/481/191 271/482/191
f 262/477/192 185/483/192 269/484/192
f 191/485/193 268/472/193 275/479/193
f 266/474/194 274/486/194 267/471/194
f 264/475/195 272/487/195 265/473/195
f 262/477/196 270/481/196 263/470/196
f 269/488/197 185/489/197 276/490/197
f 191/491/198 275/492/198 282/493/198
f 273/494/199 281/495/199 274/496/199
f 271/497/200 279/498/200 272/499/200
f 270/500/201 276/490/201 277/501/201
f 274/496/202 282/493/202 275/492/202
f 272/499/203 280/502/203 273/494/203
f 271/497/204 277/501/204 278/503/204
f 280/502/205 288/504/205 281/495/205
f 278/503/206 286/505/206 279/498/206
f 276/490/207 284/506/207 277/501/207
f 281/495/208 289/507/208 282/493/208
f 280/502/209 286/505/209 287/508/209
f 278/503/210 284/506/210 285/509/210
f 276/490/211 185/510/211 283/511/211
f 191/512/212 282/493/212 289/507/212
f 288/504/213 296/513/213 289/507/213
f 286/505/214 294/514/214 287/508/214
f 285/509/215 291/515/215 292/516/215
f 283/511/216 185/517/216 290/518/216
f 191/519/217 289/507/217 296/513/217
f 287/508/218 295/520/218 288/504/218
f 285/509/219 293/521/219 286/505/219
f 283/511/220 291/515/220 284/506/220
f 293/521/221 188/378/221 294/514/221
f 291/515/222 186/381/222 292/516/222
f 290/518/223 185/522/223 297/382/223
f 191/523/224 296/513/224 190/373/224
f 294/514/225 189/386/225 295/520/225
f 293/521/226 186/381/226 187/376/226
f 290/518/227 298/379/227 291/515/227
f 295/520/228 190/373/228 296/513/228
f 190/373/101 189/386/101 197/374/101
f 187/376/102 195/387/102 196/377/102
f 298/379/103 193/388/103 194/380/103
f 188/378/106 196/377/106 197/374/106
f 186/381/107 194/380/107 195/387/107
f 297/382/108 192/384/108 193/388/108
f 196/377/111 203/397/111 204/393/111
f 195/387/112 194/380/112 201/394/112
f 192/384/113 199/390/113 200/396/113
f 197/374/114 204/393/114 205/392/114
f 195/387/115 202/395/115 203/397/115
f 193/388/116 200/396/116 201/394/116
f 203/397/117 210/402/117 211/398/117
f 201/394/118 208/403/118 209/399/118
f 199/390/119 206/405/119 207/400/119
f 204/393/120 211/398/120 212/401/120
f 202/395/121 209/399/121 210/402/121
f 201/394/122 200/396/122 207/400/122
f 211/398/125 218/414/125 219/407/125
f 209/399/126 216/415/126 217/408/126
f 208/403/127 207/400/127 214/409/127
f 210/402/130 217/408/130 218/414/130
f 208/403/131 215/410/131 216/415/131
f 207/400/132 206/405/132 213/412/132
f 216/415/133 223/424/133 224/416/133
f 215/410/134 214/409/134 221/417/134
f 217/408/137 224/416/137 225/423/137
f 215/410/138 222/418/138 223/424/138
f 213/412/139 220/420/139 221/417/139
f 218/414/140 225/423/140 226/422/140
f 224/416/142 231/430/142 232/427/142
f 222/418/143 229/431/143 230/428/143
f 220/420/144 227/433/144 228/429/144
f 225/423/145 232/427/145 233/426/145
f 223/424/146 230/428/146 231/430/146
f 221/417/147 228/429/147 229/431/147
f 229/431/149 236/439/149 237/434/149
f 227/433/150 234/441/150 235/435/150
f 233/426/151 232/427/151 239/436/151
f 230/428/152 237/434/152 238/438/152
f 229/431/153 228/429/153 235/435/153
f 231/430/156 238/438/156 239/436/156
f 239/436/157 246/450/157 247/443/157
f 237/434/158 244/451/158 245/444/158
f 236/439/159 235/435/159 242/445/159
f 238/438/162 245/444/162 246/450/162
f 237/434/163 236/439/163 243/446/163
f 234/441/164 241/448/164 242/445/164
f 243/446/165 242/445/165 249/452/165
f 245/444/168 252/460/168 253/458/168
f 243/446/169 250/453/169 251/459/169
f 241/448/170 248/455/170 249/452/170
f 246/450/171 253/458/171 254/457/171
f 244/451/172 251/459/172 252/460/172
f 252/460/174 259/466/174 260/463/174
f 250/453/175 257/467/175 258/464/175
f 248/455/176 255/469/176 256/465/176
f 253/458/177 260/463/177 261/462/177
f 251/459/178 258/464/178 259/466/178
f 250/453/179 249/452/179 256/465/179
f 255/469/181 262/477/181 263/470/181
f 261/462/182 260/463/182 267/471/182
f 259/466/183 258/464/183 265/473/183
f 257/467/184 256/465/184 263/470/184
f 259/466/187 266/474/187 267/471/187
f 257/467/188 264/475/188 265/473/188
f 267/471/189 274/486/189 275/479/189
f 265/473/190 272/487/190 273/480/190
f 264/475/191 263/470/191 270/481/191
f 266/474/194 273/480/194 274/486/194
f 264/475/195 271/482/195 272/487/195
f 262/477/196 269/484/196 270/481/196
f 273/494/199 280/502/199 281/495/199
f 271/497/200 278/503/200 279/498/200
f 270/500/201 269/488/201 276/490/201
f 274/496/202 281/495/202 282/493/202
f 272/499/203 279/498/203 280/502/203
f 271/497/204 270/500/204 277/501/204
f 280/502/205 287/508/205 288/504/205
f 278/503/206 285/509/206 286/505/206
f 276/490/207 283/511/207 284/506/207
f 281/495/208 288/504/208 289/507/208
f 280/502/209 279/498/209 286/505/209
f 278/503/210 277/501/210 284/506/210
f 288/504/213 295/520/213 296/513/213
f 286/505/214 293/521/214 294/514/214
f 285/509/215 284/506/215 291/515/215
f 287/508/218 294/514/218 295/520/218
f 285/509/219 292/516/219 293/521/219
f 283/511/220 290/518/220 291/515/220
f 293/521/221 187/376/221 188/378/221
f 291/515/222 298/379/222 186/381/222
f 294/514/225 188/378/225 189/386/225
f 293/521/226 292/516/226 186/381/226
f 290/518/227 297/382/227 298/379/227
f 295/520/228 189/386/228 190/373/228
o Flag_Number_Patch
v 0.090000 1.180000 0.027500
v 0.090000 1.340000 0.027500
v 0.090000 1.180000 0.012500
v 0.090000 1.340000 0.012500
v 0.270000 1.180000 0.027500
v 0.270000 1.340000 0.027500
v 0.270000 1.180000 0.012500
v 0.270000 1.340000 0.012500
vn -1.0000 -0.0000 -0.0000
vn -0.0000 -0.0000 -1.0000
vn 1.0000 -0.0000 -0.0000
vn -0.0000 -0.0000 1.0000
vn -0.0000 -1.0000 -0.0000
vn -0.0000 1.0000 -0.0000
vt 0.625000 0.000000
vt 0.375000 0.250000
vt 0.375000 0.000000
vt 0.625000 0.250000
vt 0.375000 0.500000
vt 0.625000 0.500000
vt 0.375000 0.750000
vt 0.625000 0.750000
vt 0.375000 1.000000
vt 0.125000 0.750000
vt 0.125000 0.500000
vt 0.875000 0.500000
vt 0.625000 1.000000
vt 0.875000 0.750000
s 0
usemtl White_Number_Patch
f 300/524/229 301/525/229 299/526/229
f 302/527/230 305/528/230 301/525/230
f 306/529/231 303/530/231 305/528/231
f 304/531/232 299/532/232 303/530/232
f 305/528/233 299/533/233 301/534/233
f 302/535/234 304/531/234 306/529/234
f 300/524/229 302/527/229 301/525/229
f 302/527/230 306/529/230 305/528/230
f 306/529/231 304/531/231 303/530/231
f 304/531/232 300/536/232 299/532/232
f 305/528/233 303/530/233 299/533/233
f 302/535/234 300/537/234 304/531/234
