# Blender 5.1.1
# www.blender.org
mtllib hole_1.mtl
o Stake
v -0.025000 0.000000 0.025000
v -0.025000 1.100000 0.025000
v -0.025000 0.000000 -0.025000
v -0.025000 1.100000 -0.025000
v 0.025000 0.000000 0.025000
v 0.025000 1.100000 0.025000
v 0.025000 0.000000 -0.025000
v 0.025000 1.100000 -0.025000
vn -1.0000 -0.0000 -0.0000
vn -0.0000 -0.0000 -1.0000
vn 1.0000 -0.0000 -0.0000
vn -0.0000 -0.0000 1.0000
vn -0.0000 -1.0000 -0.0000
vn -0.0000 1.0000 -0.0000
vt 0.375000 0.000000
vt 0.625000 0.000000
vt 0.625000 0.250000
vt 0.375000 0.250000
vt 0.625000 0.500000
vt 0.375000 0.500000
vt 0.625000 0.750000
vt 0.375000 0.750000
vt 0.625000 1.000000
vt 0.375000 1.000000
vt 0.125000 0.500000
vt 0.125000 0.750000
vt 0.875000 0.500000
vt 0.875000 0.750000
s 0
usemtl Mat_Red
f 1/1/1 2/2/1 4/3/1 3/4/1
f 3/4/2 4/3/2 8/5/2 7/6/2
f 7/6/3 8/5/3 6/7/3 5/8/3
f 5/8/4 6/7/4 2/9/4 1/10/4
f 3/11/5 7/6/5 5/8/5 1/12/5
f 8/5/6 4/13/6 2/14/6 6/7/6
o Board
v -0.140000 0.980000 0.041000
v -0.140000 1.180000 0.041000
v -0.140000 0.980000 0.029000
v -0.140000 1.180000 0.029000
v 0.140000 0.980000 0.041000
v 0.140000 1.180000 0.041000
v 0.140000 0.980000 0.029000
v 0.140000 1.180000 0.029000
vn -1.0000 -0.0000 -0.0000
vn -0.0000 -0.0000 -1.0000
vn 1.0000 -0.0000 -0.0000
vn -0.0000 -0.0000 1.0000
vn -0.0000 -1.0000 -0.0000
vn -0.0000 1.0000 -0.0000
vt 0.375000 0.000000
vt 0.625000 0.000000
vt 0.625000 0.250000
vt 0.375000 0.250000
vt 0.625000 0.500000
vt 0.375000 0.500000
vt 0.625000 0.750000
vt 0.375000 0.750000
vt 0.625000 1.000000
vt 0.375000 1.000000
vt 0.125000 0.500000
vt 0.125000 0.750000
vt 0.875000 0.500000
vt 0.875000 0.750000
s 0
usemtl Mat_Board
f 9/15/7 10/16/7 12/17/7 11/18/7
f 11/18/8 12/17/8 16/19/8 15/20/8
f 15/20/9 16/19/9 14/21/9 13/22/9
f 13/22/10 14/21/10 10/23/10 9/24/10
f 11/25/11 15/20/11 13/22/11 9/26/11
f 16/19/12 12/27/12 10/28/12 14/21/12
o Number_1
v 0.005760 1.116000 0.055000
v 0.005760 1.034160 0.055000
v -0.006000 1.034160 0.055000
v -0.006000 1.116000 0.055000
v 0.005760 1.116000 0.041000
v 0.005760 1.034160 0.041000
v -0.006000 1.034160 0.041000
v -0.006000 1.116000 0.041000
v 0.005760 1.116000 0.041000
v 0.006069 1.116309 0.041049
v 0.006348 1.116588 0.041191
v 0.006569 1.116809 0.041412
v 0.006711 1.116951 0.041691
v 0.006760 1.117000 0.042000
v 0.006760 1.117000 0.054000
v 0.006711 1.116951 0.054309
v 0.006569 1.116809 0.054588
v 0.006348 1.116588 0.054809
v 0.006069 1.116309 0.054951
v 0.005760 1.116000 0.055000
v 0.005760 1.034160 0.041000
v 0.006069 1.033851 0.041049
v 0.006348 1.033572 0.041191
v 0.006569 1.033351 0.041412
v 0.006711 1.033209 0.041691
v 0.006760 1.033160 0.042000
v 0.006760 1.033160 0.054000
v 0.006711 1.033209 0.054309
v 0.006569 1.033351 0.054588
v 0.006348 1.033572 0.054809
v 0.006069 1.033851 0.054951
v 0.005760 1.034160 0.055000
v -0.006000 1.034160 0.041000
v -0.006309 1.033851 0.041049
v -0.006588 1.033572 0.041191
v -0.006809 1.033351 0.041412
v -0.006951 1.033209 0.041691
v -0.007000 1.033160 0.042000
v -0.007000 1.033160 0.054000
v -0.006951 1.033209 0.054309
v -0.006809 1.033351 0.054588
v -0.006588 1.033572 0.054809
v -0.006309 1.033851 0.054951
v -0.006000 1.034160 0.055000
v -0.006000 1.116000 0.041000
v -0.006309 1.116309 0.041049
v -0.006588 1.116588 0.041191
v -0.006809 1.116809 0.041412
v -0.006951 1.116951 0.041691
v -0.007000 1.117000 0.042000
v -0.007000 1.117000 0.054000
v -0.006951 1.116951 0.054309
v -0.006809 1.116809 0.054588
v -0.006588 1.116588 0.054809
v -0.006309 1.116309 0.054951
v -0.006000 1.116000 0.055000
vn -0.0000 -0.0000 1.0000
vn -0.0000 -0.0000 -1.0000
vn 0.1980 0.1980 -0.9600
vn 0.1980 -0.1980 -0.9600
vn 0.0787 -0.0787 -0.9938
vn 0.0787 0.0787 -0.9938
vn 0.3610 0.3610 -0.8599
vn 0.3610 -0.3610 -0.8599
vn 0.5226 0.5226 -0.6736
vn 0.5226 -0.5226 -0.6736
vn 0.6543 0.6543 -0.3792
vn 0.6543 -0.6543 -0.3792
vn 0.7032 0.7032 -0.1049
vn 0.7032 -0.7032 -0.1049
vn 0.7032 0.7032 0.1049
vn 0.7032 -0.7032 0.1049
vn 0.6543 0.6543 0.3792
vn 0.6543 -0.6543 0.3792
vn 0.5226 0.5226 0.6736
vn 0.5226 -0.5226 0.6736
vn 0.3610 0.3610 0.8599
vn 0.3610 -0.3610 0.8599
vn 0.1980 0.1980 0.9600
vn 0.1980 -0.1980 0.9600
vn 0.0787 0.0787 0.9938
vn 0.0787 -0.0787 0.9938
vn -0.1980 -0.1980 -0.9600
vn -0.0787 -0.0787 -0.9938
vn -0.3610 -0.3610 -0.8599
vn -0.5226 -0.5226 -0.6736
vn -0.6543 -0.6543 -0.3792
vn -0.7032 -0.7032 -0.1049
vn -0.7032 -0.7032 0.1049
vn -0.6543 -0.6543 0.3792
vn -0.5226 -0.5226 0.6736
vn -0.3610 -0.3610 0.8599
vn -0.1980 -0.1980 0.9600
vn -0.0787 -0.0787 0.9938
vn -0.1980 0.1980 -0.9600
vn -0.0787 0.0787 -0.9938
vn -0.3610 0.3610 -0.8599
vn -0.5226 0.5226 -0.6736
vn -0.6543 0.6543 -0.3792
vn -0.7032 0.7032 -0.1049
vn -0.7032 0.7032 0.1049
vn -0.6543 0.6543 0.3792
vn -0.5226 0.5226 0.6736
vn -0.3610 0.3610 0.8599
vn -0.1980 0.1980 0.9600
vn -0.0787 0.0787 0.9938
vt 0.333333 0.000000
vt 0.000000 0.000000
vt 1.000000 0.000000
vt 0.666667 0.000000
vt 0.000000 0.090909
vt 0.250000 0.090909
vt 0.250000 0.000000
vt 0.000000 0.181818
vt 0.250000 0.181818
vt 0.000000 0.272727
vt 0.250000 0.272727
vt 0.000000 0.363636
vt 0.250000 0.363636
vt 0.000000 0.454545
vt 0.250000 0.454545
vt 0.000000 0.545455
vt 0.250000 0.545455
vt 0.000000 0.636364
vt 0.250000 0.636364
vt 0.000000 0.727273
vt 0.250000 0.727273
vt 0.000000 0.818182
vt 0.250000 0.818182
vt 0.000000 0.909091
vt 0.250000 0.909091
vt 0.000000 1.000000
vt 0.250000 1.000000
vt 0.500000 0.090909
vt 0.500000 0.000000
vt 0.500000 0.181818
vt 0.500000 0.272727
vt 0.500000 0.363636
vt 0.500000 0.454545
vt 0.500000 0.545455
vt 0.500000 0.636364
vt 0.500000 0.727273
vt 0.500000 0.818182
vt 0.500000 0.909091
vt 0.500000 1.000000
vt 0.750000 0.090909
vt 0.750000 0.000000
vt 0.750000 0.181818
vt 0.750000 0.272727
vt 0.750000 0.363636
vt 0.750000 0.454545
vt 0.750000 0.545455
vt 0.750000 0.636364
vt 0.750000 0.727273
vt 0.750000 0.818182
vt 0.750000 0.909091
vt 0.750000 1.000000
vt 1.000000 0.090909
vt 1.000000 0.181818
vt 1.000000 0.272727
vt 1.000000 0.363636
vt 1.000000 0.454545
vt 1.000000 0.545455
vt 1.000000 0.636364
vt 1.000000 0.727273
vt 1.000000 0.818182
vt 1.000000 0.909091
vt 1.000000 1.000000
s 0
usemtl Mat_Digit
f 18/29/13 17/30/13 20/31/13
f 20/31/13 19/32/13 18/29/13
f 22/29/14 24/31/14 21/30/14
f 24/31/14 22/29/14 23/32/14
s 1
f 26/33/15 38/34/16 37/35/17 25/30/18
f 27/36/19 39/37/20 38/34/16 26/33/15
f 28/38/21 40/39/22 39/37/20 27/36/19
f 29/40/23 41/41/24 40/39/22 28/38/21
f 30/42/25 42/43/26 41/41/24 29/40/23
f 31/44/27 43/45/28 42/43/26 30/42/25
f 32/46/29 44/47/30 43/45/28 31/44/27
f 33/48/31 45/49/32 44/47/30 32/46/29
f 34/50/33 46/51/34 45/49/32 33/48/31
f 35/52/35 47/53/36 46/51/34 34/50/33
f 36/54/37 48/55/38 47/53/36 35/52/35
f 38/34/16 50/56/39 49/57/40 37/35/17
f 39/37/20 51/58/41 50/56/39 38/34/16
f 40/39/22 52/59/42 51/58/41 39/37/20
f 41/41/24 53/60/43 52/59/42 40/39/22
f 42/43/26 54/61/44 53/60/43 41/41/24
f 43/45/28 55/62/45 54/61/44 42/43/26
f 44/47/30 56/63/46 55/62/45 43/45/28
f 45/49/32 57/64/47 56/63/46 44/47/30
f 46/51/34 58/65/48 57/64/47 45/49/32
f 47/53/36 59/66/49 58/65/48 46/51/34
f 48/55/38 60/67/50 59/66/49 47/53/36
f 50/56/39 62/68/51 61/69/52 49/57/40
f 51/58/41 63/70/53 62/68/51 50/56/39
f 52/59/42 64/71/54 63/70/53 51/58/41
f 53/60/43 65/72/55 64/71/54 52/59/42
f 54/61/44 66/73/56 65/72/55 53/60/43
f 55/62/45 67/74/57 66/73/56 54/61/44
f 56/63/46 68/75/58 67/74/57 55/62/45
f 57/64/47 69/76/59 68/75/58 56/63/46
f 58/65/48 70/77/60 69/76/59 57/64/47
f 59/66/49 71/78/61 70/77/60 58/65/48
f 60/67/50 72/79/62 71/78/61 59/66/49
f 62/68/51 26/80/15 25/31/18 61/69/52
f 63/70/53 27/81/19 26/80/15 62/68/51
f 64/71/54 28/82/21 27/81/19 63/70/53
f 65/72/55 29/83/23 28/82/21 64/71/54
f 66/73/56 30/84/25 29/83/23 65/72/55
f 67/74/57 31/85/27 30/84/25 66/73/56
f 68/75/58 32/86/29 31/85/27 67/74/57
f 69/76/59 33/87/31 32/86/29 68/75/58
f 70/77/60 34/88/33 33/87/31 69/76/59
f 71/78/61 35/89/35 34/88/33 70/77/60
f 72/79/62 36/90/37 35/89/35 71/78/61
o Ground
v -2.000000 0.000000 2.000000
v 2.000000 0.000000 2.000000
v -2.000000 0.000000 -2.000000
v 2.000000 0.000000 -2.000000
vn -0.0000 1.0000 -0.0000
vt 0.000000 0.000000
vt 1.000000 0.000000
vt 1.000000 1.000000
vt 0.000000 1.000000
s 0
usemtl Mat_Ground
f 73/91/63 74/92/63 76/93/63 75/94/63
