# Blender 5.1.1
# www.blender.org
mtllib hole_4.mtl
o Stake
v -0.025000 0.000000 0.025000
v -0.025000 1.100000 0.025000
v -0.025000 0.000000 -0.025000
v -0.025000 1.100000 -0.025000
v 0.025000 0.000000 0.025000
v 0.025000 1.100000 0.025000
v 0.025000 0.000000 -0.025000
v 0.025000 1.100000 -0.025000
vn -1.0000 -0.0000 -0.0000
vn -0.0000 -0.0000 -1.0000
vn 1.0000 -0.0000 -0.0000
vn -0.0000 -0.0000 1.0000
vn -0.0000 -1.0000 -0.0000
vn -0.0000 1.0000 -0.0000
vt 0.375000 0.000000
vt 0.625000 0.000000
vt 0.625000 0.250000
vt 0.375000 0.250000
vt 0.625000 0.500000
vt 0.375000 0.500000
vt 0.625000 0.750000
vt 0.375000 0.750000
vt 0.625000 1.000000
vt 0.375000 1.000000
vt 0.125000 0.500000
vt 0.125000 0.750000
vt 0.875000 0.500000
vt 0.875000 0.750000
s 0
usemtl Mat_Red
f 1/1/1 2/2/1 4/3/1 3/4/1
f 3/4/2 4/3/2 8/5/2 7/6/2
f 7/6/3 8/5/3 6/7/3 5/8/3
f 5/8/4 6/7/4 2/9/4 1/10/4
f 3/11/5 7/6/5 5/8/5 1/12/5
f 8/5/6 4/13/6 2/14/6 6/7/6
o Board
v -0.140000 0.980000 0.041000
v -0.140000 1.180000 0.041000
v -0.140000 0.980000 0.029000
v -0.140000 1.180000 0.029000
v 0.140000 0.980000 0.041000
v 0.140000 1.180000 0.041000
v 0.140000 0.980000 0.029000
v 0.140000 1.180000 0.029000
vn -1.0000 -0.0000 -0.0000
vn -0.0000 -0.0000 -1.0000
vn 1.0000 -0.0000 -0.0000
vn -0.0000 -0.0000 1.0000
vn -0.0000 -1.0000 -0.0000
vn -0.0000 1.0000 -0.0000
vt 0.375000 0.000000
vt 0.625000 0.000000
vt 0.625000 0.250000
vt 0.375000 0.250000
vt 0.625000 0.500000
vt 0.375000 0.500000
vt 0.625000 0.750000
vt 0.375000 0.750000
vt 0.625000 1.000000
vt 0.375000 1.000000
vt 0.125000 0.500000
vt 0.125000 0.750000
vt 0.875000 0.500000
vt 0.875000 0.750000
s 0
usemtl Mat_Board
f 9/15/7 10/16/7 12/17/7 11/18/7
f 11/18/8 12/17/8 16/19/8 15/20/8
f 15/20/9 16/19/9 14/21/9 13/22/9
f 13/22/10 14/21/10 10/23/10 9/24/10
f 11/25/11 15/20/11 13/22/11 9/26/11
f 16/19/12 12/27/12 10/28/12 14/21/12
o Number_1
v 0.026520 1.081440 0.055000
v 0.026520 1.070880 0.055000
v 0.017760 1.070880 0.055000
v 0.017760 1.044000 0.055000
v 0.006000 1.044000 0.055000
v 0.006000 1.070880 0.055000
v -0.028680 1.070880 0.055000
v -0.028680 1.076280 0.055000
v 0.012720 1.126920 0.055000
v 0.017760 1.126920 0.055000
v 0.017760 1.081440 0.055000
v 0.006000 1.081440 0.055000
v 0.006000 1.104720 0.055000
v 0.005760 1.104720 0.055000
v -0.012960 1.081440 0.055000
v 0.026520 1.081440 0.041000
v 0.026520 1.070880 0.041000
v 0.017760 1.070880 0.041000
v 0.017760 1.044000 0.041000
v 0.006000 1.044000 0.041000
v 0.006000 1.070880 0.041000
v -0.028680 1.070880 0.041000
v -0.028680 1.076280 0.041000
v 0.012720 1.126920 0.041000
v 0.017760 1.126920 0.041000
v 0.017760 1.081440 0.041000
v 0.006000 1.081440 0.041000
v 0.006000 1.104720 0.041000
v 0.005760 1.104720 0.041000
v -0.012960 1.081440 0.041000
v 0.026520 1.081440 0.041000
v 0.026829 1.081749 0.041049
v 0.027108 1.082028 0.041191
v 0.027329 1.082249 0.041412
v 0.027471 1.082391 0.041691
v 0.027520 1.082440 0.042000
v 0.027520 1.082440 0.054000
v 0.027471 1.082391 0.054309
v 0.027329 1.082249 0.054588
v 0.027108 1.082028 0.054809
v 0.026829 1.081749 0.054951
v 0.026520 1.081440 0.055000
v 0.026520 1.070880 0.041000
v 0.026829 1.070571 0.041049
v 0.027108 1.070292 0.041191
v 0.027329 1.070071 0.041412
v 0.027471 1.069929 0.041691
v 0.027520 1.069880 0.042000
v 0.027520 1.069880 0.054000
v 0.027471 1.069929 0.054309
v 0.027329 1.070071 0.054588
v 0.027108 1.070292 0.054809
v 0.026829 1.070571 0.054951
v 0.026520 1.070880 0.055000
v 0.017760 1.070880 0.041000
v 0.018069 1.070571 0.041049
v 0.018348 1.070292 0.041191
v 0.018569 1.070071 0.041412
v 0.018711 1.069929 0.041691
v 0.018760 1.069880 0.042000
v 0.018760 1.069880 0.054000
v 0.018711 1.069929 0.054309
v 0.018569 1.070071 0.054588
v 0.018348 1.070292 0.054809
v 0.018069 1.070571 0.054951
v 0.017760 1.070880 0.055000
v 0.017760 1.044000 0.041000
v 0.018069 1.043691 0.041049
v 0.018348 1.043412 0.041191
v 0.018569 1.043191 0.041412
v 0.018711 1.043049 0.041691
v 0.018760 1.043000 0.042000
v 0.018760 1.043000 0.054000
v 0.018711 1.043049 0.054309
v 0.018569 1.043191 0.054588
v 0.018348 1.043412 0.054809
v 0.018069 1.043691 0.054951
v 0.017760 1.044000 0.055000
v 0.006000 1.044000 0.041000
v 0.005691 1.043691 0.041049
v 0.005412 1.043412 0.041191
v 0.005191 1.043191 0.041412
v 0.005049 1.043049 0.041691
v 0.005000 1.043000 0.042000
v 0.005000 1.043000 0.054000
v 0.005049 1.043049 0.054309
v 0.005191 1.043191 0.054588
v 0.005412 1.043412 0.054809
v 0.005691 1.043691 0.054951
v 0.006000 1.044000 0.055000
v 0.006000 1.070880 0.041000
v 0.005691 1.070571 0.041049
v 0.005412 1.070292 0.041191
v 0.005191 1.070071 0.041412
v 0.005049 1.069929 0.041691
v 0.005000 1.069880 0.042000
v 0.005000 1.069880 0.054000
v 0.005049 1.069929 0.054309
v 0.005191 1.070071 0.054588
v 0.005412 1.070292 0.054809
v 0.005691 1.070571 0.054951
v 0.006000 1.070880 0.055000
v -0.028680 1.070880 0.041000
v -0.028989 1.070571 0.041049
v -0.029268 1.070292 0.041191
v -0.029489 1.070071 0.041412
v -0.029631 1.069929 0.041691
v -0.029680 1.069880 0.042000
v -0.029680 1.069880 0.054000
v -0.029631 1.069929 0.054309
v -0.029489 1.070071 0.054588
v -0.029268 1.070292 0.054809
v -0.028989 1.070571 0.054951
v -0.028680 1.070880 0.055000
v -0.028680 1.076280 0.041000
v -0.028989 1.076390 0.041049
v -0.029268 1.076490 0.041191
v -0.029489 1.076569 0.041412
v -0.029631 1.076619 0.041691
v -0.029680 1.076637 0.042000
v -0.029680 1.076637 0.054000
v -0.029631 1.076619 0.054309
v -0.029489 1.076569 0.054588
v -0.029268 1.076490 0.054809
v -0.028989 1.076390 0.054951
v -0.028680 1.076280 0.055000
v 0.012720 1.126920 0.041000
v 0.012573 1.127229 0.041049
v 0.012441 1.127508 0.041191
v 0.012336 1.127729 0.041412
v 0.012269 1.127871 0.041691
v 0.012246 1.127920 0.042000
v 0.012246 1.127920 0.054000
v 0.012269 1.127871 0.054309
v 0.012336 1.127729 0.054588
v 0.012441 1.127508 0.054809
v 0.012573 1.127229 0.054951
v 0.012720 1.126920 0.055000
v 0.017760 1.126920 0.041000
v 0.018069 1.127229 0.041049
v 0.018348 1.127508 0.041191
v 0.018569 1.127729 0.041412
v 0.018711 1.127871 0.041691
v 0.018760 1.127920 0.042000
v 0.018760 1.127920 0.054000
v 0.018711 1.127871 0.054309
v 0.018569 1.127729 0.054588
v 0.018348 1.127508 0.054809
v 0.018069 1.127229 0.054951
v 0.017760 1.126920 0.055000
v 0.017760 1.081440 0.041000
v 0.018069 1.081749 0.041049
v 0.018348 1.082028 0.041191
v 0.018569 1.082249 0.041412
v 0.018711 1.082391 0.041691
v 0.018760 1.082440 0.042000
v 0.018760 1.082440 0.054000
v 0.018711 1.082391 0.054309
v 0.018569 1.082249 0.054588
v 0.018348 1.082028 0.054809
v 0.018069 1.081749 0.054951
v 0.017760 1.081440 0.055000
v 0.006000 1.081440 0.041000
v 0.005691 1.081749 0.041049
v 0.005412 1.082028 0.041191
v 0.005191 1.082249 0.041412
v 0.005049 1.082391 0.041691
v 0.005000 1.082440 0.042000
v 0.005000 1.082440 0.054000
v 0.005049 1.082391 0.054309
v 0.005191 1.082249 0.054588
v 0.005412 1.082028 0.054809
v 0.005691 1.081749 0.054951
v 0.006000 1.081440 0.055000
v 0.006000 1.104720 0.041000
v 0.005691 1.104411 0.041049
v 0.005412 1.104132 0.041191
v 0.005191 1.103911 0.041412
v 0.005049 1.103769 0.041691
v 0.005000 1.103720 0.042000
v 0.005000 1.103720 0.054000
v 0.005049 1.103769 0.054309
v 0.005191 1.103911 0.054588
v 0.005412 1.104132 0.054809
v 0.005691 1.104411 0.054951
v 0.006000 1.104720 0.055000
v 0.005760 1.104720 0.041000
v 0.005908 1.104411 0.041049
v 0.006042 1.104132 0.041191
v 0.006148 1.103911 0.041412
v 0.006216 1.103769 0.041691
v 0.006239 1.103720 0.042000
v 0.006239 1.103720 0.054000
v 0.006216 1.103769 0.054309
v 0.006148 1.103911 0.054588
v 0.006042 1.104132 0.054809
v 0.005908 1.104411 0.054951
v 0.005760 1.104720 0.055000
v -0.012960 1.081440 0.041000
v -0.012315 1.081749 0.041049
v -0.011733 1.082028 0.041191
v -0.011271 1.082249 0.041412
v -0.010975 1.082391 0.041691
v -0.010873 1.082440 0.042000
v -0.010873 1.082440 0.054000
v -0.010975 1.082391 0.054309
v -0.011271 1.082249 0.054588
v -0.011733 1.082028 0.054809
v -0.012315 1.081749 0.054951
v -0.012960 1.081440 0.055000
vn -0.0000 -0.0000 1.0000
vn -0.0000 -0.0000 -1.0000
vn 0.1980 0.1980 -0.9600
vn 0.1980 -0.1980 -0.9600
vn 0.0787 -0.0787 -0.9938
vn 0.0787 0.0787 -0.9938
vn 0.3610 0.3610 -0.8599
vn 0.3610 -0.3610 -0.8599
vn 0.5226 0.5226 -0.6736
vn 0.5226 -0.5226 -0.6736
vn 0.6543 0.6543 -0.3792
vn 0.6543 -0.6543 -0.3793
vn 0.7032 0.7032 -0.1049
vn 0.7032 -0.7032 -0.1049
vn 0.7032 0.7032 0.1049
vn 0.7032 -0.7032 0.1049
vn 0.6543 0.6543 0.3792
vn 0.6543 -0.6543 0.3793
vn 0.5226 0.5226 0.6736
vn 0.5226 -0.5226 0.6736
vn 0.3610 0.3610 0.8599
vn 0.3610 -0.3610 0.8599
vn 0.1980 0.1980 0.9600
vn 0.1980 -0.1980 0.9600
vn 0.0787 0.0787 0.9938
vn 0.0787 -0.0787 0.9938
vn 0.1203 -0.1203 -0.9854
vn 0.2882 -0.2882 -0.9132
vn 0.4666 -0.4666 -0.7513
vn 0.6319 -0.6319 -0.4487
vn 0.7024 -0.7024 -0.1158
vn 0.7024 -0.7024 0.1158
vn 0.6319 -0.6319 0.4487
vn 0.4666 -0.4666 0.7513
vn 0.2882 -0.2882 0.9132
vn 0.1203 -0.1203 0.9854
vn 0.6543 -0.6543 -0.3792
vn 0.6543 -0.6543 0.3792
vn -0.1980 -0.1980 -0.9600
vn -0.0787 -0.0787 -0.9938
vn -0.3610 -0.3610 -0.8599
vn -0.5226 -0.5226 -0.6736
vn -0.6543 -0.6543 -0.3792
vn -0.7032 -0.7032 -0.1049
vn -0.7032 -0.7032 0.1049
vn -0.6543 -0.6543 0.3792
vn -0.5226 -0.5226 0.6736
vn -0.3610 -0.3610 0.8599
vn -0.1980 -0.1980 0.9600
vn -0.0787 -0.0787 0.9938
vn -0.1203 -0.1203 -0.9854
vn -0.2882 -0.2882 -0.9132
vn -0.4666 -0.4666 -0.7513
vn -0.6319 -0.6319 -0.4487
vn -0.7024 -0.7024 -0.1158
vn -0.7024 -0.7024 0.1158
vn -0.6319 -0.6319 0.4487
vn -0.4666 -0.4666 0.7513
vn -0.2882 -0.2882 0.9132
vn -0.1203 -0.1203 0.9854
vn -0.6543 -0.6543 -0.3793
vn -0.6543 -0.6543 0.3793
vn -0.3037 0.1084 -0.9466
vn -0.1390 0.0496 -0.9891
vn -0.5535 0.1974 -0.8091
vn -0.7580 0.2704 -0.5936
vn -0.8939 0.3189 -0.3149
vn -0.9387 0.3349 -0.0818
vn -0.9387 0.3349 0.0818
vn -0.8939 0.3189 0.3149
vn -0.7580 0.2704 0.5936
vn -0.5535 0.1974 0.8091
vn -0.3037 0.1084 0.9466
vn -0.1390 0.0496 0.9891
vn -0.1368 0.2885 -0.9477
vn -0.0607 0.1280 -0.9899
vn -0.2479 0.5229 -0.8156
vn -0.3415 0.7202 -0.6039
vn -0.4055 0.8552 -0.3229
vn -0.4269 0.9003 -0.0847
vn -0.4269 0.9003 0.0847
vn -0.4055 0.8552 0.3229
vn -0.3415 0.7202 0.6039
vn -0.2479 0.5229 0.8156
vn -0.1368 0.2885 0.9477
vn -0.0607 0.1280 0.9899
vn 0.1203 0.1203 -0.9854
vn 0.2882 0.2882 -0.9132
vn 0.4666 0.4666 -0.7513
vn 0.6319 0.6319 -0.4487
vn 0.7024 0.7024 -0.1158
vn 0.7024 0.7024 0.1158
vn 0.6319 0.6319 0.4487
vn 0.4666 0.4666 0.7513
vn 0.2882 0.2882 0.9132
vn 0.1203 0.1203 0.9854
vn -0.1203 0.1203 -0.9854
vn -0.3472 0.4256 -0.8357
vn -0.0787 0.0787 -0.9938
vn -0.2882 0.2882 -0.9132
vn -0.6565 0.7365 -0.1629
vn -0.4666 0.4666 -0.7513
vn -0.7159 0.6850 -0.1349
vn -0.6319 0.6319 -0.4487
vn -0.7567 0.6488 -0.0806
vn -0.7024 0.7024 -0.1158
vn -0.7409 0.6716 -0.0110
vn -0.7024 0.7024 0.1158
vn -0.7409 0.6716 0.0110
vn -0.6319 0.6319 0.4487
vn -0.7567 0.6488 0.0806
vn -0.4666 0.4666 0.7513
vn -0.7159 0.6850 0.1349
vn -0.2882 0.2882 0.9132
vn -0.6565 0.7365 0.1629
vn -0.1203 0.1203 0.9854
vn -0.3472 0.4256 0.8357
vn -0.0787 0.0787 0.9938
vn 0.2654 0.0767 -0.9611
vn 0.0611 -0.1275 -0.9900
vn 0.8655 0.4744 -0.1607
vn 0.9089 0.3987 -0.1223
vn 0.9323 0.3554 -0.0667
vn 0.9220 0.3871 -0.0087
vn 0.9220 0.3871 0.0087
vn 0.9323 0.3554 0.0667
vn 0.9089 0.3987 0.1223
vn 0.8655 0.4744 0.1607
vn 0.2654 0.0767 0.9611
vn 0.0611 -0.1275 0.9900
vn 0.0808 0.0387 -0.9960
vn 0.0616 0.0295 -0.9977
vn 0.2206 0.1057 -0.9696
vn 0.4051 0.1941 -0.8934
vn 0.6786 0.3251 -0.6587
vn 0.8845 0.4238 -0.1951
vn 0.8845 0.4238 0.1951
vn 0.6786 0.3251 0.6587
vn 0.4051 0.1941 0.8934
vn 0.2206 0.1057 0.9696
vn 0.0808 0.0387 0.9960
vn 0.0616 0.0295 0.9977
vt 0.500000 0.000000
vt 0.428571 0.000000
vt 1.000000 0.000000
vt 0.357143 0.000000
vt 0.785714 0.000000
vt 0.928571 0.000000
vt 0.071429 0.000000
vt 0.000000 0.000000
vt 0.714286 0.000000
vt 0.142857 0.000000
vt 0.857143 0.000000
vt 0.642857 0.000000
vt 0.571429 0.000000
vt 0.285714 0.000000
vt 0.214286 0.000000
vt 0.000000 0.090909
vt 0.090909 0.090909
vt 0.090909 0.000000
vt 0.000000 0.181818
vt 0.090909 0.181818
vt 0.000000 0.272727
vt 0.090909 0.272727
vt 0.000000 0.363636
vt 0.090909 0.363636
vt 0.000000 0.454545
vt 0.090909 0.454545
vt 0.000000 0.545455
vt 0.090909 0.545455
vt 0.000000 0.636364
vt 0.090909 0.636364
vt 0.000000 0.727273
vt 0.090909 0.727273
vt 0.000000 0.818182
vt 0.090909 0.818182
vt 0.000000 0.909091
vt 0.090909 0.909091
vt 0.000000 1.000000
vt 0.090909 1.000000
vt 0.181818 0.090909
vt 0.181818 0.000000
vt 0.181818 0.181818
vt 0.181818 0.272727
vt 0.181818 0.363636
vt 0.181818 0.454545
vt 0.181818 0.545455
vt 0.181818 0.636364
vt 0.181818 0.727273
vt 0.181818 0.818182
vt 0.181818 0.909091
vt 0.181818 1.000000
vt 0.272727 0.090909
vt 0.272727 0.000000
vt 0.272727 0.181818
vt 0.272727 0.272727
vt 0.272727 0.363636
vt 0.272727 0.454545
vt 0.272727 0.545455
vt 0.272727 0.636364
vt 0.272727 0.727273
vt 0.272727 0.818182
vt 0.272727 0.909091
vt 0.272727 1.000000
vt 0.363636 0.090909
vt 0.363636 0.000000
vt 0.363636 0.181818
vt 0.363636 0.272727
vt 0.363636 0.363636
vt 0.363636 0.454545
vt 0.363636 0.545455
vt 0.363636 0.636364
vt 0.363636 0.727273
vt 0.363636 0.818182
vt 0.363636 0.909091
vt 0.363636 1.000000
vt 0.454545 0.090909
vt 0.454545 0.000000
vt 0.454545 0.181818
vt 0.454545 0.272727
vt 0.454545 0.363636
vt 0.454545 0.454545
vt 0.454545 0.545455
vt 0.454545 0.636364
vt 0.454545 0.727273
vt 0.454545 0.818182
vt 0.454545 0.909091
vt 0.454545 1.000000
vt 0.545455 0.090909
vt 0.545455 0.000000
vt 0.545455 0.181818
vt 0.545455 0.272727
vt 0.545455 0.363636
vt 0.545455 0.454545
vt 0.545455 0.545455
vt 0.545455 0.636364
vt 0.545455 0.727273
vt 0.545455 0.818182
vt 0.545455 0.909091
vt 0.545455 1.000000
vt 0.636364 0.090909
vt 0.636364 0.000000
vt 0.636364 0.181818
vt 0.636364 0.272727
vt 0.636364 0.363636
vt 0.636364 0.454545
vt 0.636364 0.545455
vt 0.636364 0.636364
vt 0.636364 0.727273
vt 0.636364 0.818182
vt 0.636364 0.909091
vt 0.636364 1.000000
vt 0.727273 0.090909
vt 0.727273 0.000000
vt 0.727273 0.181818
vt 0.727273 0.272727
vt 0.727273 0.363636
vt 0.727273 0.454545
vt 0.727273 0.545455
vt 0.727273 0.636364
vt 0.727273 0.727273
vt 0.727273 0.818182
vt 0.727273 0.909091
vt 0.727273 1.000000
vt 0.818182 0.090909
vt 0.818182 0.000000
vt 0.818182 0.181818
vt 0.818182 0.272727
vt 0.818182 0.363636
vt 0.818182 0.454545
vt 0.818182 0.545455
vt 0.818182 0.636364
vt 0.818182 0.727273
vt 0.818182 0.818182
vt 0.818182 0.909091
vt 0.818182 1.000000
vt 0.909091 0.090909
vt 0.909091 0.000000
vt 0.909091 0.181818
vt 0.909091 0.272727
vt 0.909091 0.363636
vt 0.909091 0.454545
vt 0.909091 0.545455
vt 0.909091 0.636364
vt 0.909091 0.727273
vt 0.909091 0.818182
vt 0.909091 0.909091
vt 0.909091 1.000000
vt 1.000000 0.090909
vt 1.000000 0.181818
vt 1.000000 0.272727
vt 1.000000 0.363636
vt 1.000000 0.454545
vt 1.000000 0.545455
vt 1.000000 0.636364
vt 1.000000 0.727273
vt 1.000000 0.818182
vt 1.000000 0.909091
vt 1.000000 1.000000
vt 0.250000 0.090909
vt 0.250000 0.000000
vt 0.250000 0.181818
vt 0.250000 0.272727
vt 0.250000 0.363636
vt 0.250000 0.454545
vt 0.250000 0.545455
vt 0.250000 0.636364
vt 0.250000 0.727273
vt 0.250000 0.818182
vt 0.250000 0.909091
vt 0.250000 1.000000
vt 0.500000 0.090909
vt 0.500000 0.181818
vt 0.500000 0.272727
vt 0.500000 0.363636
vt 0.500000 0.454545
vt 0.500000 0.545455
vt 0.500000 0.636364
vt 0.500000 0.727273
vt 0.500000 0.818182
vt 0.500000 0.909091
vt 0.500000 1.000000
vt 0.750000 0.090909
vt 0.750000 0.000000
vt 0.750000 0.181818
vt 0.750000 0.272727
vt 0.750000 0.363636
vt 0.750000 0.454545
vt 0.750000 0.545455
vt 0.750000 0.636364
vt 0.750000 0.727273
vt 0.750000 0.818182
vt 0.750000 0.909091
vt 0.750000 1.000000
s 0
usemtl Mat_Digit
f 24/29/13 23/30/13 31/31/13
f 31/31/13 23/30/13 22/32/13
f 22/32/13 28/33/13 31/31/13
f 24/29/13 31/31/13 30/34/13
f 18/35/13 17/36/13 27/37/13
f 18/35/13 27/37/13 19/38/13
f 29/39/13 27/37/13 26/40/13
f 25/41/13 29/39/13 26/40/13
f 22/32/13 21/42/13 20/43/13
f 20/43/13 19/38/13 22/32/13
f 28/33/13 22/32/13 19/38/13
f 19/38/13 27/37/13 28/33/13
f 27/37/13 29/39/13 28/33/13
f 29/39/13 25/41/13 30/34/13
f 24/29/13 30/34/13 25/41/13
f 39/29/14 46/31/14 38/30/14
f 46/31/14 37/32/14 38/30/14
f 37/32/14 46/31/14 43/33/14
f 39/29/14 45/34/14 46/31/14
f 33/35/14 42/37/14 32/36/14
f 33/35/14 34/38/14 42/37/14
f 44/39/14 41/40/14 42/37/14
f 40/41/14 41/40/14 44/39/14
f 37/32/14 35/43/14 36/42/14
f 35/43/14 37/32/14 34/38/14
f 43/33/14 34/38/14 37/32/14
f 34/38/14 43/33/14 42/37/14
f 42/37/14 43/33/14 44/39/14
f 44/39/14 45/34/14 40/41/14
f 39/29/14 40/41/14 45/34/14
s 1
f 48/44/15 60/45/16 59/46/17 47/36/18
f 49/47/19 61/48/20 60/45/16 48/44/15
f 50/49/21 62/50/22 61/48/20 49/47/19
f 51/51/23 63/52/24 62/50/22 50/49/21
f 52/53/25 64/54/26 63/52/24 51/51/23
f 53/55/27 65/56/28 64/54/26 52/53/25
f 54/57/29 66/58/30 65/56/28 53/55/27
f 55/59/31 67/60/32 66/58/30 54/57/29
f 56/61/33 68/62/34 67/60/32 55/59/31
f 57/63/35 69/64/36 68/62/34 56/61/33
f 58/65/37 70/66/38 69/64/36 57/63/35
f 60/45/16 72/67/39 71/68/17 59/46/17
f 61/48/20 73/69/40 72/67/39 60/45/16
f 62/50/22 74/70/41 73/69/40 61/48/20
f 63/52/24 75/71/42 74/70/41 62/50/22
f 64/54/26 76/72/43 75/71/42 63/52/24
f 65/56/28 77/73/44 76/72/43 64/54/26
f 66/58/30 78/74/45 77/73/44 65/56/28
f 67/60/32 79/75/46 78/74/45 66/58/30
f 68/62/34 80/76/47 79/75/46 67/60/32
f 69/64/36 81/77/48 80/76/47 68/62/34
f 70/66/38 82/78/38 81/77/48 69/64/36
f 72/67/39 84/79/16 83/80/17 71/68/17
f 73/69/40 85/81/20 84/79/16 72/67/39
f 74/70/41 86/82/22 85/81/20 73/69/40
f 75/71/42 87/83/49 86/82/22 74/70/41
f 76/72/43 88/84/26 87/83/49 75/71/42
f 77/73/44 89/85/28 88/84/26 76/72/43
f 78/74/45 90/86/50 89/85/28 77/73/44
f 79/75/46 91/87/32 90/86/50 78/74/45
f 80/76/47 92/88/34 91/87/32 79/75/46
f 81/77/48 93/89/36 92/88/34 80/76/47
f 82/78/38 94/90/38 93/89/36 81/77/48
f 84/79/16 96/91/51 95/92/52 83/80/17
f 85/81/20 97/93/53 96/91/51 84/79/16
f 86/82/22 98/94/54 97/93/53 85/81/20
f 87/83/49 99/95/55 98/94/54 86/82/22
f 88/84/26 100/96/56 99/95/55 87/83/49
f 89/85/28 101/97/57 100/96/56 88/84/26
f 90/86/50 102/98/58 101/97/57 89/85/28
f 91/87/32 103/99/59 102/98/58 90/86/50
f 92/88/34 104/100/60 103/99/59 91/87/32
f 93/89/36 105/101/61 104/100/60 92/88/34
f 94/90/38 106/102/62 105/101/61 93/89/36
f 96/91/51 108/103/63 107/104/52 95/92/52
f 97/93/53 109/105/64 108/103/63 96/91/51
f 98/94/54 110/106/65 109/105/64 97/93/53
f 99/95/55 111/107/66 110/106/65 98/94/54
f 100/96/56 112/108/67 111/107/66 99/95/55
f 101/97/57 113/109/68 112/108/67 100/96/56
f 102/98/58 114/110/69 113/109/68 101/97/57
f 103/99/59 115/111/70 114/110/69 102/98/58
f 104/100/60 116/112/71 115/111/70 103/99/59
f 105/101/61 117/113/72 116/112/71 104/100/60
f 106/102/62 118/114/62 117/113/72 105/101/61
f 108/103/63 120/115/51 119/116/52 107/104/52
f 109/105/64 121/117/53 120/115/51 108/103/63
f 110/106/65 122/118/54 121/117/53 109/105/64
f 111/107/66 123/119/73 122/118/54 110/106/65
f 112/108/67 124/120/56 123/119/73 111/107/66
f 113/109/68 125/121/57 124/120/56 112/108/67
f 114/110/69 126/122/74 125/121/57 113/109/68
f 115/111/70 127/123/59 126/122/74 114/110/69
f 116/112/71 128/124/60 127/123/59 115/111/70
f 117/113/72 129/125/61 128/124/60 116/112/71
f 118/114/62 130/126/62 129/125/61 117/113/72
f 120/115/51 132/127/75 131/128/76 119/116/52
f 121/117/53 133/129/77 132/127/75 120/115/51
f 122/118/54 134/130/78 133/129/77 121/117/53
f 123/119/73 135/131/79 134/130/78 122/118/54
f 124/120/56 136/132/80 135/131/79 123/119/73
f 125/121/57 137/133/81 136/132/80 124/120/56
f 126/122/74 138/134/82 137/133/81 125/121/57
f 127/123/59 139/135/83 138/134/82 126/122/74
f 128/124/60 140/136/84 139/135/83 127/123/59
f 129/125/61 141/137/85 140/136/84 128/124/60
f 130/126/62 142/138/86 141/137/85 129/125/61
f 132/127/75 144/139/87 143/140/88 131/128/76
f 133/129/77 145/141/89 144/139/87 132/127/75
f 134/130/78 146/142/90 145/141/89 133/129/77
f 135/131/79 147/143/91 146/142/90 134/130/78
f 136/132/80 148/144/92 147/143/91 135/131/79
f 137/133/81 149/145/93 148/144/92 136/132/80
f 138/134/82 150/146/94 149/145/93 137/133/81
f 139/135/83 151/147/95 150/146/94 138/134/82
f 140/136/84 152/148/96 151/147/95 139/135/83
f 141/137/85 153/149/97 152/148/96 140/136/84
f 142/138/86 154/150/98 153/149/97 141/137/85
f 144/139/87 156/151/15 155/152/18 143/140/88
f 145/141/89 157/153/19 156/151/15 144/139/87
f 146/142/90 158/154/21 157/153/19 145/141/89
f 147/143/91 159/155/23 158/154/21 146/142/90
f 148/144/92 160/156/25 159/155/23 147/143/91
f 149/145/93 161/157/27 160/156/25 148/144/92
f 150/146/94 162/158/29 161/157/27 149/145/93
f 151/147/95 163/159/31 162/158/29 150/146/94
f 152/148/96 164/160/33 163/159/31 151/147/95
f 153/149/97 165/161/35 164/160/33 152/148/96
f 154/150/98 166/162/37 165/161/35 153/149/97
f 156/151/15 168/163/99 167/164/18 155/152/18
f 157/153/19 169/165/100 168/163/99 156/151/15
f 158/154/21 170/166/101 169/165/100 157/153/19
f 159/155/23 171/167/102 170/166/101 158/154/21
f 160/156/25 172/168/103 171/167/102 159/155/23
f 161/157/27 173/169/104 172/168/103 160/156/25
f 162/158/29 174/170/105 173/169/104 161/157/27
f 163/159/31 175/171/106 174/170/105 162/158/29
f 164/160/33 176/172/107 175/171/106 163/159/31
f 165/161/35 177/173/108 176/172/107 164/160/33
f 166/162/37 178/174/37 177/173/108 165/161/35
f 168/163/99 48/175/15 47/31/18 167/164/18
f 169/165/100 49/176/19 48/175/15 168/163/99
f 170/166/101 50/177/21 49/176/19 169/165/100
f 171/167/102 51/178/23 50/177/21 170/166/101
f 172/168/103 52/179/25 51/178/23 171/167/102
f 173/169/104 53/180/27 52/179/25 172/168/103
f 174/170/105 54/181/29 53/180/27 173/169/104
f 175/171/106 55/182/31 54/181/29 174/170/105
f 176/172/107 56/183/33 55/182/31 175/171/106
f 177/173/108 57/184/35 56/183/33 176/172/107
f 178/174/37 58/185/37 57/184/35 177/173/108
f 180/44/109 192/186/110 191/187/52 179/36/111
f 181/47/112 193/188/113 192/186/110 180/44/109
f 182/49/114 194/189/115 193/188/113 181/47/112
f 183/51/116 195/190/117 194/189/115 182/49/114
f 184/53/118 196/191/119 195/190/117 183/51/116
f 185/55/120 197/192/121 196/191/119 184/53/118
f 186/57/122 198/193/123 197/192/121 185/55/120
f 187/59/124 199/194/125 198/193/123 186/57/122
f 188/61/126 200/195/127 199/194/125 187/59/124
f 189/63/128 201/196/129 200/195/127 188/61/126
f 190/65/130 202/197/62 201/196/129 189/63/128
f 192/186/110 204/198/131 203/29/132 191/187/52
f 193/188/113 205/199/133 204/198/131 192/186/110
f 194/189/115 206/200/134 205/199/133 193/188/113
f 195/190/117 207/201/135 206/200/134 194/189/115
f 196/191/119 208/202/136 207/201/135 195/190/117
f 197/192/121 209/203/137 208/202/136 196/191/119
f 198/193/123 210/204/138 209/203/137 197/192/121
f 199/194/125 211/205/139 210/204/138 198/193/123
f 200/195/127 212/206/140 211/205/139 199/194/125
f 201/196/129 213/207/141 212/206/140 200/195/127
f 202/197/62 214/208/142 213/207/141 201/196/129
f 204/198/131 216/209/143 215/210/144 203/29/132
f 205/199/133 217/211/145 216/209/143 204/198/131
f 206/200/134 218/212/146 217/211/145 205/199/133
f 207/201/135 219/213/147 218/212/146 206/200/134
f 208/202/136 220/214/148 219/213/147 207/201/135
f 209/203/137 221/215/149 220/214/148 208/202/136
f 210/204/138 222/216/150 221/215/149 209/203/137
f 211/205/139 223/217/151 222/216/150 210/204/138
f 212/206/140 224/218/152 223/217/151 211/205/139
f 213/207/141 225/219/153 224/218/152 212/206/140
f 214/208/142 226/220/154 225/219/153 213/207/141
f 216/209/143 180/175/109 179/31/111 215/210/144
f 217/211/145 181/176/112 180/175/109 216/209/143
f 218/212/146 182/177/114 181/176/112 217/211/145
f 219/213/147 183/178/116 182/177/114 218/212/146
f 220/214/148 184/179/118 183/178/116 219/213/147
f 221/215/149 185/180/120 184/179/118 220/214/148
f 222/216/150 186/181/122 185/180/120 221/215/149
f 223/217/151 187/182/124 186/181/122 222/216/150
f 224/218/152 188/183/126 187/182/124 223/217/151
f 225/219/153 189/184/128 188/183/126 224/218/152
f 226/220/154 190/185/130 189/184/128 225/219/153
o Ground
v -2.000000 0.000000 2.000000
v 2.000000 0.000000 2.000000
v -2.000000 0.000000 -2.000000
v 2.000000 0.000000 -2.000000
vn -0.0000 1.0000 -0.0000
vt 0.000000 0.000000
vt 1.000000 0.000000
vt 1.000000 1.000000
vt 0.000000 1.000000
s 0
usemtl Mat_Ground
f 227/221/155 228/222/155 230/223/155 229/224/155
