# Blender 5.1.1
# www.blender.org
mtllib Rocks.mtl
o Low_Poly_Rock_1
v -1.443074 0.042982 0.080293
v -1.625998 -0.005958 -0.277938
v -1.239567 0.069224 -0.358070
v -1.177863 0.266288 0.106266
v -1.526161 0.312895 0.473370
v -1.803122 0.144637 0.235915
v -1.473839 0.187105 -0.473370
v -1.196878 0.355363 -0.235915
v -1.374002 0.505958 0.277938
v -1.760433 0.430776 0.358070
v -1.822137 0.233712 -0.106266
v -1.556926 0.457018 -0.080293
v -1.313462 0.022061 -0.163271
v -1.540599 -0.022130 -0.116171
v -1.420982 -0.006706 -0.373836
v -1.752229 0.037622 -0.024701
v -1.644709 0.066387 0.185862
v -1.277192 0.137892 0.109657
v -1.157574 0.153317 -0.148005
v -1.481917 0.165286 0.325433
v -1.326029 0.296543 0.340700
v -1.693547 0.225038 0.416907
v -1.763408 0.089978 -0.225829
v -1.867518 0.178496 0.076205
v -1.331544 0.106774 -0.488709
v -1.558683 0.062582 -0.441610
v -1.132482 0.321504 -0.076205
v -1.168749 0.205673 -0.349137
v -1.441317 0.437418 0.441610
v -1.236592 0.410022 0.225829
v -1.831251 0.294327 0.349137
v -1.668456 0.393226 0.488709
v -1.673971 0.203457 -0.340700
v -1.306453 0.274962 -0.416907
v -1.247771 0.462378 0.024701
v -1.579018 0.506706 0.373836
v -1.842426 0.346683 0.148005
v -1.518083 0.334714 -0.325433
v -1.722808 0.362108 -0.109657
v -1.355291 0.433613 -0.185862
v -1.459401 0.522130 0.116171
v -1.686538 0.477939 0.163271
vn 0.2274 -0.9525 0.2028
vn -0.2560 -0.9659 0.0386
vn 0.4323 -0.8493 0.3030
vn 0.3780 -0.8031 0.4606
vn 0.1388 -0.8772 0.4596
vn -0.6064 -0.7771 -0.1686
vn 0.3726 -0.7887 -0.4890
vn 0.9606 -0.2172 0.1732
vn 0.5371 -0.1545 0.8293
vn -0.5752 -0.5595 0.5968
vn -0.6145 -0.6052 -0.5061
vn 0.7223 -0.3353 -0.6049
vn 0.9473 0.1526 0.2818
vn 0.1774 0.1280 0.9758
vn -0.8844 -0.3757 0.2770
vn -0.4177 0.5777 -0.7013
vn 0.2442 0.8227 -0.5133
vn 0.2560 0.9659 -0.0386
vn -0.3905 0.9176 0.0740
vn -0.7545 0.5753 -0.3158
vn -0.4323 0.8493 -0.3030
vn -0.6117 0.7542 -0.2388
vn -0.6398 0.7665 -0.0571
vn -0.2274 0.9525 -0.2028
vn -0.1975 0.9798 -0.0330
vn 0.0403 0.9961 0.0783
vn -0.0435 0.9546 -0.2948
vn 0.1755 0.9594 -0.2207
vn 0.3454 0.8899 -0.2980
vn -0.1388 0.8772 -0.4596
vn -0.0131 0.8230 -0.5679
vn -0.1172 0.6853 -0.7188
vn -0.3780 0.8031 -0.4606
vn -0.5012 0.6603 -0.5593
vn -0.6899 0.5204 -0.5032
vn -0.9606 0.2172 -0.1732
vn -0.9902 0.1118 0.0841
vn -0.8798 0.4458 0.1649
vn -0.3726 0.7887 0.4890
vn 0.0087 0.7080 0.7062
vn 0.2141 0.8665 0.4509
vn 0.6064 0.7771 0.1686
vn 0.8056 0.5827 0.1069
vn 0.7136 0.6859 -0.1423
vn 0.5752 0.5595 -0.5968
vn 0.5298 0.2649 -0.8057
vn 0.1130 0.3758 -0.9198
vn -0.5371 0.1545 -0.8293
vn -0.7280 -0.1111 -0.6766
vn -0.8338 0.1094 -0.5411
vn -0.7223 0.3353 0.6049
vn -0.5298 -0.2649 0.8057
vn -0.1130 -0.3758 0.9198
vn 0.6145 0.6052 0.5061
vn 0.7280 0.1111 0.6766
vn 0.8338 -0.1094 0.5411
vn 0.8844 0.3757 -0.2770
vn 0.9902 -0.1118 -0.0841
vn 0.8798 -0.4458 -0.1649
vn -0.1774 -0.1280 -0.9758
vn -0.0087 -0.7080 -0.7062
vn -0.2141 -0.8665 -0.4509
vn -0.9473 -0.1526 -0.2818
vn -0.8056 -0.5827 -0.1069
vn -0.7136 -0.6859 0.1423
vn -0.2442 -0.8227 0.5133
vn 0.0131 -0.8230 0.5679
vn 0.1172 -0.6853 0.7188
vn 0.4177 -0.5777 0.7013
vn 0.5012 -0.6603 0.5593
vn 0.6899 -0.5204 0.5032
vn 0.7545 -0.5753 0.3158
vn 0.6117 -0.7542 0.2388
vn 0.6398 -0.7665 0.0571
vn -0.3454 -0.8899 0.2980
vn -0.1755 -0.9594 0.2207
vn 0.0435 -0.9546 0.2948
vn 0.3905 -0.9176 -0.0740
vn 0.1975 -0.9798 0.0330
vn -0.0403 -0.9961 -0.0783
vt 0.181819 0.000000
vt 0.227273 0.078731
vt 0.136365 0.078731
vt 0.272728 0.157461
vt 0.318182 0.078731
vt 0.363637 0.157461
vt 0.909091 0.000000
vt 0.954545 0.078731
vt 0.863636 0.078731
vt 0.727273 0.000000
vt 0.772727 0.078731
vt 0.681818 0.078731
vt 0.545455 0.000000
vt 0.590909 0.078731
vt 0.500000 0.078731
vt 0.318182 0.236191
vt 0.090910 0.157461
vt 0.181819 0.157461
vt 0.136365 0.236191
vt 0.818182 0.157461
vt 0.909091 0.157461
vt 0.863636 0.236191
vt 0.636364 0.157461
vt 0.727273 0.157461
vt 0.681818 0.236191
vt 0.454546 0.157461
vt 0.545455 0.157461
vt 0.500000 0.236191
vt 0.227273 0.236191
vt 0.045455 0.236191
vt 0.772727 0.236191
vt 0.590909 0.236191
vt 0.409092 0.236191
vt 0.181819 0.314921
vt 0.272728 0.314921
vt 0.227273 0.393651
vt 0.000000 0.314921
vt 0.090910 0.314921
vt 0.045455 0.393651
vt 0.727273 0.314921
vt 0.818182 0.314921
vt 0.772727 0.393651
vt 0.545455 0.314921
vt 0.636364 0.314921
vt 0.590909 0.393651
vt 0.363637 0.314921
vt 0.454546 0.314921
vt 0.409092 0.393651
vt 0.500000 0.393651
vt 0.454546 0.472382
vt 0.681818 0.393651
vt 0.636364 0.472382
vt 0.863636 0.393651
vt 0.818182 0.472382
vt 0.909091 0.314921
vt 0.136365 0.393651
vt 0.090910 0.472382
vt 0.318182 0.393651
vt 0.272728 0.472382
vt 0.954545 0.236191
vt 1.000000 0.157461
vt 0.409092 0.078731
vt 0.363637 0.000000
s 0
usemtl Dark_Grey_Rock
f 1/1/1 14/2/1 13/3/1
f 2/4/2 14/5/2 16/6/2
f 1/7/3 13/8/3 18/9/3
f 1/10/4 18/11/4 20/12/4
f 1/13/5 20/14/5 17/15/5
f 2/4/6 16/6/6 23/16/6
f 3/17/7 15/18/7 25/19/7
f 4/20/8 19/21/8 27/22/8
f 5/23/9 21/24/9 29/25/9
f 6/26/10 22/27/10 31/28/10
f 2/4/11 23/16/11 26/29/11
f 3/17/12 25/19/12 28/30/12
f 4/20/13 27/22/13 30/31/13
f 5/23/14 29/25/14 32/32/14
f 6/26/15 31/28/15 24/33/15
f 7/34/16 33/35/16 38/36/16
f 8/37/17 34/38/17 40/39/17
f 9/40/18 35/41/18 41/42/18
f 10/43/19 36/44/19 42/45/19
f 11/46/20 37/47/20 39/48/20
f 39/48/21 42/49/21 12/50/21
f 39/48/22 37/47/22 42/49/22
f 37/47/23 10/43/23 42/49/23
f 42/45/24 41/51/24 12/52/24
f 42/45/25 36/44/25 41/51/25
f 36/44/26 9/40/26 41/51/26
f 41/42/27 40/53/27 12/54/27
f 41/42/28 35/41/28 40/53/28
f 35/41/29 8/55/29 40/53/29
f 40/39/30 38/56/30 12/57/30
f 40/39/31 34/38/31 38/56/31
f 34/38/32 7/34/32 38/56/32
f 38/36/33 39/58/33 12/59/33
f 38/36/34 33/35/34 39/58/34
f 33/35/35 11/46/35 39/58/35
f 24/33/36 37/47/36 11/46/36
f 24/33/37 31/28/37 37/47/37
f 31/28/38 10/43/38 37/47/38
f 32/32/39 36/44/39 10/43/39
f 32/32/40 29/25/40 36/44/40
f 29/25/41 9/40/41 36/44/41
f 30/31/42 35/41/42 9/40/42
f 30/31/43 27/22/43 35/41/43
f 27/22/44 8/55/44 35/41/44
f 28/30/45 34/38/45 8/37/45
f 28/30/46 25/19/46 34/38/46
f 25/19/47 7/34/47 34/38/47
f 26/29/48 33/35/48 7/34/48
f 26/29/49 23/16/49 33/35/49
f 23/16/50 11/46/50 33/35/50
f 31/28/51 32/32/51 10/43/51
f 31/28/52 22/27/52 32/32/52
f 22/27/53 5/23/53 32/32/53
f 29/25/54 30/31/54 9/40/54
f 29/25/55 21/24/55 30/31/55
f 21/24/56 4/20/56 30/31/56
f 27/22/57 28/60/57 8/55/57
f 27/22/58 19/21/58 28/60/58
f 19/21/59 3/61/59 28/60/59
f 25/19/60 26/29/60 7/34/60
f 25/19/61 15/18/61 26/29/61
f 15/18/62 2/4/62 26/29/62
f 23/16/63 24/33/63 11/46/63
f 23/16/64 16/6/64 24/33/64
f 16/6/65 6/26/65 24/33/65
f 17/15/66 22/27/66 6/26/66
f 17/15/67 20/14/67 22/27/67
f 20/14/68 5/23/68 22/27/68
f 20/12/69 21/24/69 5/23/69
f 20/12/70 18/11/70 21/24/70
f 18/11/71 4/20/71 21/24/71
f 18/9/72 19/21/72 4/20/72
f 18/9/73 13/8/73 19/21/73
f 13/8/74 3/61/74 19/21/74
f 16/6/75 17/62/75 6/26/75
f 16/6/76 14/5/76 17/62/76
f 14/5/77 1/63/77 17/62/77
f 13/3/78 15/18/78 3/17/78
f 13/3/79 14/2/79 15/18/79
f 14/2/80 2/4/80 15/18/80
o Low_Poly_Rock_2
v -0.352830 0.012064 0.039941
v -0.429025 0.022015 -0.271426
v -0.115644 0.133142 -0.174279
v -0.166081 0.205234 0.188403
v -0.510636 0.138660 0.315401
v -0.673141 0.025425 0.031210
v -0.289364 0.221340 -0.315401
v -0.126859 0.334575 -0.031210
v -0.370975 0.337985 0.271426
v -0.684357 0.226858 0.174279
v -0.633919 0.154766 -0.188403
v -0.447170 0.347936 -0.039941
v -0.205135 0.053747 -0.078961
v -0.389335 -0.011571 -0.136062
v -0.249920 0.059597 -0.261978
v -0.577608 -0.003717 -0.141195
v -0.532822 -0.009567 0.041822
v -0.234780 0.096122 0.134217
v -0.095365 0.167290 0.008303
v -0.437304 0.056990 0.208864
v -0.327535 0.170534 0.296128
v -0.625579 0.064844 0.203733
v -0.554555 0.072307 -0.270280
v -0.698043 0.074311 -0.092396
v -0.167829 0.176757 -0.287827
v -0.352030 0.111437 -0.344930
v -0.101957 0.285689 0.092396
v -0.072309 0.243315 -0.120784
v -0.447970 0.248563 0.344930
v -0.245445 0.287693 0.270280
v -0.727691 0.116685 0.120784
v -0.632171 0.183243 0.287827
v -0.472465 0.189466 -0.296128
v -0.174422 0.295156 -0.203733
v -0.222392 0.363717 0.141195
v -0.550080 0.300403 0.261978
v -0.704635 0.192710 -0.008303
v -0.362696 0.303010 -0.208864
v -0.565220 0.263878 -0.134217
v -0.267178 0.369567 -0.041822
v -0.410665 0.371571 0.136062
v -0.594865 0.306253 0.078961
vn 0.3166 -0.9466 0.0614
vn -0.0343 -0.9723 -0.2312
vn 0.4335 -0.8704 0.2333
vn 0.3102 -0.8687 0.3862
vn 0.1166 -0.9438 0.3093
vn -0.3212 -0.7898 -0.5225
vn 0.6452 -0.5655 -0.5137
vn 0.8875 -0.2330 0.3976
vn 0.1566 -0.3386 0.9278
vn -0.6280 -0.7030 0.3338
vn -0.2104 -0.5062 -0.8363
vn 0.8820 -0.1265 -0.4539
vn 0.7728 0.1262 0.6220
vn -0.2583 -0.1106 0.9597
vn -0.8674 -0.4971 -0.0218
vn -0.1948 0.7091 -0.6777
vn 0.2522 0.9260 -0.2811
vn 0.0343 0.9723 0.2312
vn -0.5531 0.8173 0.1615
vn -0.6754 0.6220 -0.3962
vn -0.4335 0.8704 -0.2333
vn -0.6021 0.7630 -0.2354
vn -0.6957 0.7161 -0.0567
vn -0.3166 0.9466 -0.0614
vn -0.3643 0.9237 0.1187
vn -0.2111 0.9324 0.2933
vn -0.1197 0.9869 -0.1077
vn 0.0411 0.9989 0.0219
vn 0.2439 0.9694 -0.0287
vn -0.1166 0.9438 -0.3093
vn 0.0490 0.9179 -0.3938
vn 0.0497 0.8089 -0.5859
vn -0.3102 0.8687 -0.3862
vn -0.3491 0.7594 -0.5490
vn -0.5233 0.6199 -0.5847
vn -0.8875 0.2330 -0.3976
vn -0.9879 0.0496 -0.1472
vn -0.9362 0.3495 0.0386
vn -0.6452 0.5655 0.5137
vn -0.4076 0.4597 0.7890
vn -0.1855 0.7144 0.6748
vn 0.3212 0.7898 0.5225
vn 0.6056 0.6337 0.4814
vn 0.5873 0.7861 0.1926
vn 0.6280 0.7030 -0.3338
vn 0.6899 0.4443 -0.5715
vn 0.3717 0.5512 -0.7470
vn -0.1566 0.3386 -0.9278
vn -0.3525 0.0407 -0.9349
vn -0.5738 0.2286 -0.7864
vn -0.8820 0.1265 0.4539
vn -0.6899 -0.4443 0.5715
vn -0.3717 -0.5512 0.7470
vn 0.2104 0.5062 0.8363
vn 0.3525 -0.0407 0.9349
vn 0.5738 -0.2286 0.7864
vn 0.8674 0.4971 0.0218
vn 0.9879 -0.0496 0.1472
vn 0.9362 -0.3495 -0.0386
vn 0.2583 0.1106 -0.9597
vn 0.4076 -0.4597 -0.7890
vn 0.1855 -0.7144 -0.6748
vn -0.7728 -0.1262 -0.6220
vn -0.6056 -0.6337 -0.4814
vn -0.5873 -0.7861 -0.1926
vn -0.2522 -0.9260 0.2811
vn -0.0490 -0.9179 0.3938
vn -0.0497 -0.8089 0.5859
vn 0.1948 -0.7091 0.6777
vn 0.3491 -0.7594 0.5490
vn 0.5233 -0.6199 0.5847
vn 0.6754 -0.6220 0.3962
vn 0.6021 -0.7630 0.2354
vn 0.6957 -0.7161 0.0567
vn -0.2439 -0.9694 0.0287
vn -0.0411 -0.9989 -0.0219
vn 0.1197 -0.9869 0.1077
vn 0.5531 -0.8173 -0.1615
vn 0.3643 -0.9237 -0.1187
vn 0.2111 -0.9324 -0.2933
vt 0.181819 0.000000
vt 0.227273 0.078731
vt 0.136365 0.078731
vt 0.272728 0.157461
vt 0.318182 0.078731
vt 0.363637 0.157461
vt 0.909091 0.000000
vt 0.954545 0.078731
vt 0.863636 0.078731
vt 0.727273 0.000000
vt 0.772727 0.078731
vt 0.681818 0.078731
vt 0.545455 0.000000
vt 0.590909 0.078731
vt 0.500000 0.078731
vt 0.318182 0.236191
vt 0.090910 0.157461
vt 0.181819 0.157461
vt 0.136365 0.236191
vt 0.818182 0.157461
vt 0.909091 0.157461
vt 0.863636 0.236191
vt 0.636364 0.157461
vt 0.727273 0.157461
vt 0.681818 0.236191
vt 0.454546 0.157461
vt 0.545455 0.157461
vt 0.500000 0.236191
vt 0.227273 0.236191
vt 0.045455 0.236191
vt 0.772727 0.236191
vt 0.590909 0.236191
vt 0.409092 0.236191
vt 0.181819 0.314921
vt 0.272728 0.314921
vt 0.227273 0.393651
vt 0.000000 0.314921
vt 0.090910 0.314921
vt 0.045455 0.393651
vt 0.727273 0.314921
vt 0.818182 0.314921
vt 0.772727 0.393651
vt 0.545455 0.314921
vt 0.636364 0.314921
vt 0.590909 0.393651
vt 0.363637 0.314921
vt 0.454546 0.314921
vt 0.409092 0.393651
vt 0.500000 0.393651
vt 0.454546 0.472382
vt 0.681818 0.393651
vt 0.636364 0.472382
vt 0.863636 0.393651
vt 0.818182 0.472382
vt 0.909091 0.314921
vt 0.136365 0.393651
vt 0.090910 0.472382
vt 0.318182 0.393651
vt 0.272728 0.472382
vt 0.954545 0.236191
vt 1.000000 0.157461
vt 0.409092 0.078731
vt 0.363637 0.000000
s 0
usemtl Dark_Grey_Rock
f 43/64/81 56/65/81 55/66/81
f 44/67/82 56/68/82 58/69/82
f 43/70/83 55/71/83 60/72/83
f 43/73/84 60/74/84 62/75/84
f 43/76/85 62/77/85 59/78/85
f 44/67/86 58/69/86 65/79/86
f 45/80/87 57/81/87 67/82/87
f 46/83/88 61/84/88 69/85/88
f 47/86/89 63/87/89 71/88/89
f 48/89/90 64/90/90 73/91/90
f 44/67/91 65/79/91 68/92/91
f 45/80/92 67/82/92 70/93/92
f 46/83/93 69/85/93 72/94/93
f 47/86/94 71/88/94 74/95/94
f 48/89/95 73/91/95 66/96/95
f 49/97/96 75/98/96 80/99/96
f 50/100/97 76/101/97 82/102/97
f 51/103/98 77/104/98 83/105/98
f 52/106/99 78/107/99 84/108/99
f 53/109/100 79/110/100 81/111/100
f 81/111/101 84/112/101 54/113/101
f 81/111/102 79/110/102 84/112/102
f 79/110/103 52/106/103 84/112/103
f 84/108/104 83/114/104 54/115/104
f 84/108/105 78/107/105 83/114/105
f 78/107/106 51/103/106 83/114/106
f 83/105/107 82/116/107 54/117/107
f 83/105/108 77/104/108 82/116/108
f 77/104/109 50/118/109 82/116/109
f 82/102/110 80/119/110 54/120/110
f 82/102/111 76/101/111 80/119/111
f 76/101/112 49/97/112 80/119/112
f 80/99/113 81/121/113 54/122/113
f 80/99/114 75/98/114 81/121/114
f 75/98/115 53/109/115 81/121/115
f 66/96/116 79/110/116 53/109/116
f 66/96/117 73/91/117 79/110/117
f 73/91/118 52/106/118 79/110/118
f 74/95/119 78/107/119 52/106/119
f 74/95/120 71/88/120 78/107/120
f 71/88/121 51/103/121 78/107/121
f 72/94/122 77/104/122 51/103/122
f 72/94/123 69/85/123 77/104/123
f 69/85/124 50/118/124 77/104/124
f 70/93/125 76/101/125 50/100/125
f 70/93/126 67/82/126 76/101/126
f 67/82/127 49/97/127 76/101/127
f 68/92/128 75/98/128 49/97/128
f 68/92/129 65/79/129 75/98/129
f 65/79/130 53/109/130 75/98/130
f 73/91/131 74/95/131 52/106/131
f 73/91/132 64/90/132 74/95/132
f 64/90/133 47/86/133 74/95/133
f 71/88/134 72/94/134 51/103/134
f 71/88/135 63/87/135 72/94/135
f 63/87/136 46/83/136 72/94/136
f 69/85/137 70/123/137 50/118/137
f 69/85/138 61/84/138 70/123/138
f 61/84/139 45/124/139 70/123/139
f 67/82/140 68/92/140 49/97/140
f 67/82/141 57/81/141 68/92/141
f 57/81/142 44/67/142 68/92/142
f 65/79/143 66/96/143 53/109/143
f 65/79/144 58/69/144 66/96/144
f 58/69/145 48/89/145 66/96/145
f 59/78/146 64/90/146 48/89/146
f 59/78/147 62/77/147 64/90/147
f 62/77/148 47/86/148 64/90/148
f 62/75/149 63/87/149 47/86/149
f 62/75/150 60/74/150 63/87/150
f 60/74/151 46/83/151 63/87/151
f 60/72/152 61/84/152 46/83/152
f 60/72/153 55/71/153 61/84/153
f 55/71/154 45/124/154 61/84/154
f 58/69/155 59/125/155 48/89/155
f 58/69/156 56/68/156 59/125/156
f 56/68/157 43/126/157 59/125/157
f 55/66/158 57/81/158 45/80/158
f 55/66/159 56/65/159 57/81/159
f 56/65/160 44/67/160 57/81/160
o Low_Poly_Rock_3
v 0.604848 0.009878 -0.020357
v 0.715692 0.059794 0.207504
v 0.436588 0.052236 0.193063
v 0.386310 0.093184 -0.100767
v 0.634343 0.126049 -0.267921
v 0.837910 0.105413 -0.077397
v 0.565657 0.173951 0.267921
v 0.362090 0.194587 0.077397
v 0.484308 0.240206 -0.207504
v 0.763412 0.247764 -0.193063
v 0.813690 0.206816 0.100767
v 0.595152 0.290122 0.020357
v 0.506799 0.010174 0.101513
v 0.670851 0.014617 0.110002
v 0.571951 0.039514 0.235447
v 0.807841 0.070771 0.076474
v 0.742689 0.041431 -0.057458
v 0.477246 0.034243 -0.071195
v 0.378345 0.059140 0.054249
v 0.623036 0.053560 -0.169444
v 0.494582 0.102526 -0.216709
v 0.760026 0.109714 -0.202973
v 0.793606 0.130374 0.181197
v 0.865444 0.157188 0.013737
v 0.483762 0.106614 0.270960
v 0.647816 0.111056 0.279449
v 0.334556 0.142812 -0.013737
v 0.364107 0.118743 0.158973
v 0.552184 0.188944 -0.279449
v 0.406394 0.169626 -0.181197
v 0.835893 0.181257 -0.158973
v 0.716238 0.193386 -0.270960
v 0.705418 0.197474 0.216709
v 0.439974 0.190286 0.202973
v 0.392159 0.229229 -0.076474
v 0.628049 0.260486 -0.235447
v 0.821655 0.240860 -0.054249
v 0.576964 0.246440 0.169444
v 0.722754 0.265757 0.071195
v 0.457311 0.258569 0.057458
v 0.529149 0.285383 -0.110002
v 0.693201 0.289826 -0.101513
vn 0.0259 -0.9994 0.0232
vn 0.4154 -0.8831 0.2181
vn -0.1429 -0.9833 -0.1126
vn -0.0676 -0.9552 -0.2881
vn 0.1480 -0.9538 -0.2614
vn 0.6816 -0.5922 0.4297
vn -0.2716 -0.7042 0.6560
vn -0.8127 -0.5590 -0.1645
vn -0.2350 -0.4636 -0.8543
vn 0.7341 -0.4882 -0.4720
vn 0.5571 -0.3312 0.7616
vn -0.6534 -0.3751 0.6575
vn -0.8881 -0.2015 -0.4132
vn 0.0544 -0.1109 -0.9923
vn 0.9654 -0.1788 -0.1901
vn 0.0845 0.7978 0.5970
vn -0.4795 0.8150 0.3253
vn -0.4154 0.8831 -0.2181
vn 0.1801 0.9389 -0.2933
vn 0.4822 0.8501 0.2115
vn 0.1429 0.9833 0.1126
vn 0.3312 0.9406 0.0744
vn 0.3916 0.9124 -0.1189
vn -0.0259 0.9994 -0.0232
vn -0.0158 0.9783 -0.2066
vn -0.1954 0.9210 -0.3369
vn -0.2051 0.9764 0.0684
vn -0.3826 0.9238 -0.0162
vn -0.5440 0.8351 0.0817
vn -0.1480 0.9538 0.2614
vn -0.2686 0.8839 0.3828
vn -0.1894 0.8010 0.5679
vn 0.0676 0.9552 0.2881
vn 0.1764 0.8828 0.4353
vn 0.3890 0.8153 0.4289
vn 0.8127 0.5590 0.1645
vn 0.9128 0.3956 -0.1011
vn 0.7168 0.6434 -0.2687
vn 0.2716 0.7042 -0.6560
vn 0.0313 0.4994 -0.8658
vn -0.2314 0.6758 -0.6998
vn -0.6816 0.5922 -0.4297
vn -0.8789 0.3532 -0.3205
vn -0.8463 0.5308 -0.0459
vn -0.7341 0.4882 0.4720
vn -0.6490 0.2454 0.7201
vn -0.3563 0.4698 0.8077
vn 0.2350 0.4636 0.8543
vn 0.5185 0.2484 0.8182
vn 0.6186 0.4866 0.6169
vn 0.6534 0.3751 -0.6575
vn 0.6490 -0.2454 -0.7201
vn 0.3563 -0.4698 -0.8077
vn -0.5571 0.3312 -0.7616
vn -0.5185 -0.2484 -0.8182
vn -0.6186 -0.4866 -0.6169
vn -0.9654 0.1788 0.1901
vn -0.9128 -0.3956 0.1011
vn -0.7168 -0.6434 0.2687
vn -0.0544 0.1109 0.9923
vn -0.0313 -0.4994 0.8658
vn 0.2314 -0.6758 0.6998
vn 0.8881 0.2015 0.4132
vn 0.8789 -0.3532 0.3205
vn 0.8463 -0.5308 0.0459
vn 0.4795 -0.8150 -0.3253
vn 0.2686 -0.8839 -0.3828
vn 0.1894 -0.8010 -0.5679
vn -0.0845 -0.7978 -0.5970
vn -0.1764 -0.8828 -0.4353
vn -0.3890 -0.8153 -0.4289
vn -0.4822 -0.8501 -0.2115
vn -0.3312 -0.9406 -0.0744
vn -0.3916 -0.9124 0.1189
vn 0.5440 -0.8351 -0.0817
vn 0.3826 -0.9238 0.0162
vn 0.2051 -0.9764 -0.0684
vn -0.1801 -0.9389 0.2933
vn 0.0158 -0.9783 0.2066
vn 0.1954 -0.9210 0.3369
vt 0.181819 0.000000
vt 0.227273 0.078731
vt 0.136365 0.078731
vt 0.272728 0.157461
vt 0.318182 0.078731
vt 0.363637 0.157461
vt 0.909091 0.000000
vt 0.954545 0.078731
vt 0.863636 0.078731
vt 0.727273 0.000000
vt 0.772727 0.078731
vt 0.681818 0.078731
vt 0.545455 0.000000
vt 0.590909 0.078731
vt 0.500000 0.078731
vt 0.318182 0.236191
vt 0.090910 0.157461
vt 0.181819 0.157461
vt 0.136365 0.236191
vt 0.818182 0.157461
vt 0.909091 0.157461
vt 0.863636 0.236191
vt 0.636364 0.157461
vt 0.727273 0.157461
vt 0.681818 0.236191
vt 0.454546 0.157461
vt 0.545455 0.157461
vt 0.500000 0.236191
vt 0.227273 0.236191
vt 0.045455 0.236191
vt 0.772727 0.236191
vt 0.590909 0.236191
vt 0.409092 0.236191
vt 0.181819 0.314921
vt 0.272728 0.314921
vt 0.227273 0.393651
vt 0.000000 0.314921
vt 0.090910 0.314921
vt 0.045455 0.393651
vt 0.727273 0.314921
vt 0.818182 0.314921
vt 0.772727 0.393651
vt 0.545455 0.314921
vt 0.636364 0.314921
vt 0.590909 0.393651
vt 0.363637 0.314921
vt 0.454546 0.314921
vt 0.409092 0.393651
vt 0.500000 0.393651
vt 0.454546 0.472382
vt 0.681818 0.393651
vt 0.636364 0.472382
vt 0.863636 0.393651
vt 0.818182 0.472382
vt 0.909091 0.314921
vt 0.136365 0.393651
vt 0.090910 0.472382
vt 0.318182 0.393651
vt 0.272728 0.472382
vt 0.954545 0.236191
vt 1.000000 0.157461
vt 0.409092 0.078731
vt 0.363637 0.000000
s 0
usemtl Dark_Grey_Rock
f 85/127/161 98/128/161 97/129/161
f 86/130/162 98/131/162 100/132/162
f 85/133/163 97/134/163 102/135/163
f 85/136/164 102/137/164 104/138/164
f 85/139/165 104/140/165 101/141/165
f 86/130/166 100/132/166 107/142/166
f 87/143/167 99/144/167 109/145/167
f 88/146/168 103/147/168 111/148/168
f 89/149/169 105/150/169 113/151/169
f 90/152/170 106/153/170 115/154/170
f 86/130/171 107/142/171 110/155/171
f 87/143/172 109/145/172 112/156/172
f 88/146/173 111/148/173 114/157/173
f 89/149/174 113/151/174 116/158/174
f 90/152/175 115/154/175 108/159/175
f 91/160/176 117/161/176 122/162/176
f 92/163/177 118/164/177 124/165/177
f 93/166/178 119/167/178 125/168/178
f 94/169/179 120/170/179 126/171/179
f 95/172/180 121/173/180 123/174/180
f 123/174/181 126/175/181 96/176/181
f 123/174/182 121/173/182 126/175/182
f 121/173/183 94/169/183 126/175/183
f 126/171/184 125/177/184 96/178/184
f 126/171/185 120/170/185 125/177/185
f 120/170/186 93/166/186 125/177/186
f 125/168/187 124/179/187 96/180/187
f 125/168/188 119/167/188 124/179/188
f 119/167/189 92/181/189 124/179/189
f 124/165/190 122/182/190 96/183/190
f 124/165/191 118/164/191 122/182/191
f 118/164/192 91/160/192 122/182/192
f 122/162/193 123/184/193 96/185/193
f 122/162/194 117/161/194 123/184/194
f 117/161/195 95/172/195 123/184/195
f 108/159/196 121/173/196 95/172/196
f 108/159/197 115/154/197 121/173/197
f 115/154/198 94/169/198 121/173/198
f 116/158/199 120/170/199 94/169/199
f 116/158/200 113/151/200 120/170/200
f 113/151/201 93/166/201 120/170/201
f 114/157/202 119/167/202 93/166/202
f 114/157/203 111/148/203 119/167/203
f 111/148/204 92/181/204 119/167/204
f 112/156/205 118/164/205 92/163/205
f 112/156/206 109/145/206 118/164/206
f 109/145/207 91/160/207 118/164/207
f 110/155/208 117/161/208 91/160/208
f 110/155/209 107/142/209 117/161/209
f 107/142/210 95/172/210 117/161/210
f 115/154/211 116/158/211 94/169/211
f 115/154/212 106/153/212 116/158/212
f 106/153/213 89/149/213 116/158/213
f 113/151/214 114/157/214 93/166/214
f 113/151/215 105/150/215 114/157/215
f 105/150/216 88/146/216 114/157/216
f 111/148/217 112/186/217 92/181/217
f 111/148/218 103/147/218 112/186/218
f 103/147/219 87/187/219 112/186/219
f 109/145/220 110/155/220 91/160/220
f 109/145/221 99/144/221 110/155/221
f 99/144/222 86/130/222 110/155/222
f 107/142/223 108/159/223 95/172/223
f 107/142/224 100/132/224 108/159/224
f 100/132/225 90/152/225 108/159/225
f 101/141/226 106/153/226 90/152/226
f 101/141/227 104/140/227 106/153/227
f 104/140/228 89/149/228 106/153/228
f 104/138/229 105/150/229 89/149/229
f 104/138/230 102/137/230 105/150/230
f 102/137/231 88/146/231 105/150/231
f 102/135/232 103/147/232 88/146/232
f 102/135/233 97/134/233 103/147/233
f 97/134/234 87/187/234 103/147/234
f 100/132/235 101/188/235 90/152/235
f 100/132/236 98/131/236 101/188/236
f 98/131/237 85/189/237 101/188/237
f 97/129/238 99/144/238 87/143/238
f 97/129/239 98/128/239 99/144/239
f 98/128/240 86/130/240 99/144/240
o Low_Poly_Rock_4
v 1.490300 0.020655 0.019884
v 1.695778 0.096999 -0.232843
v 1.826200 0.123604 0.097506
v 1.499828 0.160223 0.305395
v 1.167698 0.156247 0.103525
v 1.288805 0.117173 -0.229123
v 1.832302 0.283753 -0.103525
v 1.711195 0.322827 0.229123
v 1.304222 0.343001 0.232843
v 1.173800 0.316396 -0.097506
v 1.500172 0.279777 -0.305395
v 1.509700 0.419345 -0.019884
v 1.686033 0.046168 0.069000
v 1.609373 0.030530 -0.125173
v 1.806811 0.091041 -0.079549
v 1.490938 0.087262 -0.271536
v 1.370162 0.042388 -0.122987
v 1.494197 0.067692 0.191194
v 1.691634 0.128204 0.236820
v 1.298978 0.065355 0.072537
v 1.304578 0.147391 0.240357
v 1.180541 0.122087 -0.073825
v 1.615176 0.182838 -0.316369
v 1.375964 0.194697 -0.314183
v 1.887058 0.200813 -0.003538
v 1.810399 0.185174 -0.197713
v 1.624036 0.245303 0.314183
v 1.815875 0.223780 0.191989
v 1.189601 0.254826 0.197713
v 1.384824 0.257162 0.316369
v 1.184125 0.216220 -0.191989
v 1.112942 0.239187 0.003538
v 1.695422 0.292609 -0.240357
v 1.819459 0.317913 0.073825
v 1.509062 0.352738 0.271536
v 1.193189 0.348959 0.079549
v 1.308366 0.311796 -0.236820
v 1.701022 0.374645 -0.072537
v 1.505803 0.372308 -0.191194
v 1.629838 0.397612 0.122987
v 1.390627 0.409470 0.125173
v 1.313967 0.393832 -0.069000
vn 0.1213 -0.9921 0.0320
vn 0.1263 -0.8862 -0.4457
vn 0.0595 -0.9629 0.2630
vn -0.1496 -0.9526 0.2650
vn -0.2182 -0.9753 0.0351
vn 0.1763 -0.5964 -0.7831
vn 0.7995 -0.6003 0.0228
vn 0.2375 -0.4363 0.8679
vn -0.6468 -0.4468 0.6181
vn -0.6902 -0.5556 -0.4636
vn 0.4947 -0.3213 -0.8075
vn 0.9018 -0.2437 0.3569
vn 0.0037 -0.1081 0.9941
vn -0.9148 -0.1536 0.3735
vn -0.5386 -0.2701 -0.7981
vn 0.4546 0.7941 -0.4034
vn 0.4322 0.8591 0.2741
vn -0.1263 0.8862 0.4457
vn -0.4632 0.8793 -0.1110
vn -0.0936 0.7758 -0.6240
vn -0.0595 0.9629 -0.2630
vn -0.1730 0.8871 -0.4279
vn -0.3811 0.8356 -0.3957
vn -0.1213 0.9921 -0.0320
vn -0.3017 0.9525 0.0424
vn -0.3400 0.8974 0.2811
vn 0.0502 0.9928 0.1088
vn 0.0498 0.9442 0.3257
vn 0.2214 0.8690 0.4425
vn 0.2182 0.9753 -0.0351
vn 0.3951 0.9179 0.0360
vn 0.5458 0.8293 -0.1202
vn 0.1496 0.9526 -0.2650
vn 0.2521 0.8661 -0.4318
vn 0.1585 0.7633 -0.6263
vn -0.2375 0.4363 -0.8679
vn -0.4980 0.2592 -0.8275
vn -0.6106 0.5092 -0.6066
vn -0.7995 0.6003 -0.0228
vn -0.8570 0.4154 0.3049
vn -0.6233 0.6208 0.4756
vn -0.1763 0.5964 0.7831
vn 0.0280 0.3945 0.9185
vn 0.2486 0.5754 0.7792
vn 0.6902 0.5556 0.4636
vn 0.8993 0.3283 0.2888
vn 0.8544 0.5183 -0.0380
vn 0.6468 0.4468 -0.6181
vn 0.5060 0.2094 -0.8367
vn 0.2636 0.4115 -0.8725
vn -0.9018 0.2437 -0.3569
vn -0.8993 -0.3283 -0.2888
vn -0.8544 -0.5183 0.0380
vn -0.4947 0.3213 0.8075
vn -0.5060 -0.2094 0.8367
vn -0.2636 -0.4115 0.8725
vn 0.5386 0.2701 0.7981
vn 0.4980 -0.2592 0.8275
vn 0.6106 -0.5092 0.6066
vn 0.9148 0.1536 -0.3735
vn 0.8570 -0.4154 -0.3049
vn 0.6233 -0.6208 -0.4756
vn -0.0037 0.1081 -0.9941
vn -0.0280 -0.3945 -0.9185
vn -0.2486 -0.5754 -0.7792
vn -0.4322 -0.8591 -0.2741
vn -0.3951 -0.9179 -0.0360
vn -0.5458 -0.8293 0.1202
vn -0.4546 -0.7941 0.4034
vn -0.2521 -0.8661 0.4318
vn -0.1585 -0.7633 0.6263
vn 0.0936 -0.7758 0.6240
vn 0.1730 -0.8871 0.4279
vn 0.3811 -0.8356 0.3957
vn -0.2214 -0.8690 -0.4425
vn -0.0498 -0.9442 -0.3257
vn -0.0502 -0.9928 -0.1088
vn 0.4632 -0.8793 0.1110
vn 0.3017 -0.9525 -0.0424
vn 0.3400 -0.8974 -0.2811
vt 0.181819 0.000000
vt 0.227273 0.078731
vt 0.136365 0.078731
vt 0.272728 0.157461
vt 0.318182 0.078731
vt 0.363637 0.157461
vt 0.909091 0.000000
vt 0.954545 0.078731
vt 0.863636 0.078731
vt 0.727273 0.000000
vt 0.772727 0.078731
vt 0.681818 0.078731
vt 0.545455 0.000000
vt 0.590909 0.078731
vt 0.500000 0.078731
vt 0.318182 0.236191
vt 0.090910 0.157461
vt 0.181819 0.157461
vt 0.136365 0.236191
vt 0.818182 0.157461
vt 0.909091 0.157461
vt 0.863636 0.236191
vt 0.636364 0.157461
vt 0.727273 0.157461
vt 0.681818 0.236191
vt 0.454546 0.157461
vt 0.545455 0.157461
vt 0.500000 0.236191
vt 0.227273 0.236191
vt 0.045455 0.236191
vt 0.772727 0.236191
vt 0.590909 0.236191
vt 0.409092 0.236191
vt 0.181819 0.314921
vt 0.272728 0.314921
vt 0.227273 0.393651
vt 0.000000 0.314921
vt 0.090910 0.314921
vt 0.045455 0.393651
vt 0.727273 0.314921
vt 0.818182 0.314921
vt 0.772727 0.393651
vt 0.545455 0.314921
vt 0.636364 0.314921
vt 0.590909 0.393651
vt 0.363637 0.314921
vt 0.454546 0.314921
vt 0.409092 0.393651
vt 0.500000 0.393651
vt 0.454546 0.472382
vt 0.681818 0.393651
vt 0.636364 0.472382
vt 0.863636 0.393651
vt 0.818182 0.472382
vt 0.909091 0.314921
vt 0.136365 0.393651
vt 0.090910 0.472382
vt 0.318182 0.393651
vt 0.272728 0.472382
vt 0.954545 0.236191
vt 1.000000 0.157461
vt 0.409092 0.078731
vt 0.363637 0.000000
s 0
usemtl Dark_Grey_Rock
f 127/190/241 140/191/241 139/192/241
f 128/193/242 140/194/242 142/195/242
f 127/196/243 139/197/243 144/198/243
f 127/199/244 144/200/244 146/201/244
f 127/202/245 146/203/245 143/204/245
f 128/193/246 142/195/246 149/205/246
f 129/206/247 141/207/247 151/208/247
f 130/209/248 145/210/248 153/211/248
f 131/212/249 147/213/249 155/214/249
f 132/215/250 148/216/250 157/217/250
f 128/193/251 149/205/251 152/218/251
f 129/206/252 151/208/252 154/219/252
f 130/209/253 153/211/253 156/220/253
f 131/212/254 155/214/254 158/221/254
f 132/215/255 157/217/255 150/222/255
f 133/223/256 159/224/256 164/225/256
f 134/226/257 160/227/257 166/228/257
f 135/229/258 161/230/258 167/231/258
f 136/232/259 162/233/259 168/234/259
f 137/235/260 163/236/260 165/237/260
f 165/237/261 168/238/261 138/239/261
f 165/237/262 163/236/262 168/238/262
f 163/236/263 136/232/263 168/238/263
f 168/234/264 167/240/264 138/241/264
f 168/234/265 162/233/265 167/240/265
f 162/233/266 135/229/266 167/240/266
f 167/231/267 166/242/267 138/243/267
f 167/231/268 161/230/268 166/242/268
f 161/230/269 134/244/269 166/242/269
f 166/228/270 164/245/270 138/246/270
f 166/228/271 160/227/271 164/245/271
f 160/227/272 133/223/272 164/245/272
f 164/225/273 165/247/273 138/248/273
f 164/225/274 159/224/274 165/247/274
f 159/224/275 137/235/275 165/247/275
f 150/222/276 163/236/276 137/235/276
f 150/222/277 157/217/277 163/236/277
f 157/217/278 136/232/278 163/236/278
f 158/221/279 162/233/279 136/232/279
f 158/221/280 155/214/280 162/233/280
f 155/214/281 135/229/281 162/233/281
f 156/220/282 161/230/282 135/229/282
f 156/220/283 153/211/283 161/230/283
f 153/211/284 134/244/284 161/230/284
f 154/219/285 160/227/285 134/226/285
f 154/219/286 151/208/286 160/227/286
f 151/208/287 133/223/287 160/227/287
f 152/218/288 159/224/288 133/223/288
f 152/218/289 149/205/289 159/224/289
f 149/205/290 137/235/290 159/224/290
f 157/217/291 158/221/291 136/232/291
f 157/217/292 148/216/292 158/221/292
f 148/216/293 131/212/293 158/221/293
f 155/214/294 156/220/294 135/229/294
f 155/214/295 147/213/295 156/220/295
f 147/213/296 130/209/296 156/220/296
f 153/211/297 154/249/297 134/244/297
f 153/211/298 145/210/298 154/249/298
f 145/210/299 129/250/299 154/249/299
f 151/208/300 152/218/300 133/223/300
f 151/208/301 141/207/301 152/218/301
f 141/207/302 128/193/302 152/218/302
f 149/205/303 150/222/303 137/235/303
f 149/205/304 142/195/304 150/222/304
f 142/195/305 132/215/305 150/222/305
f 143/204/306 148/216/306 132/215/306
f 143/204/307 146/203/307 148/216/307
f 146/203/308 131/212/308 148/216/308
f 146/201/309 147/213/309 131/212/309
f 146/201/310 144/200/310 147/213/310
f 144/200/311 130/209/311 147/213/311
f 144/198/312 145/210/312 130/209/312
f 144/198/313 139/197/313 145/210/313
f 139/197/314 129/250/314 145/210/314
f 142/195/315 143/251/315 132/215/315
f 142/195/316 140/194/316 143/251/316
f 140/194/317 127/252/317 143/251/317
f 139/192/318 141/207/318 129/206/318
f 139/192/319 140/191/319 141/207/319
f 140/191/320 128/193/320 141/207/320
o Low_Poly_Rock_5
v -0.017122 -0.104740 -0.992005
v 0.054675 0.006898 -1.216929
v 0.219552 0.001968 -1.002438
v 0.070432 0.021256 -0.779635
v -0.186606 0.038106 -0.856430
v -0.196342 0.029233 -1.126693
v 0.186606 0.201894 -1.143570
v 0.196342 0.210767 -0.873307
v -0.054675 0.233102 -0.783071
v -0.219552 0.238032 -0.997562
v -0.070432 0.218744 -1.220365
v 0.017122 0.344740 -1.007995
v 0.118984 -0.081476 -0.996733
v 0.022073 -0.078578 -1.122807
v 0.161186 -0.015857 -1.128941
v -0.083269 0.000169 -1.201975
v -0.125470 -0.065450 -1.069768
v 0.031335 -0.070139 -0.865773
v 0.170448 -0.007418 -0.871905
v -0.119747 -0.060235 -0.910913
v -0.068284 0.013824 -0.786084
v -0.225090 0.018513 -0.990080
v -0.009262 0.111561 -1.257036
v -0.156806 0.124689 -1.203996
v 0.238734 0.098758 -1.085821
v 0.141822 0.101656 -1.211897
v 0.156806 0.115311 -0.796004
v 0.244457 0.103974 -0.926964
v -0.141822 0.138344 -0.788103
v 0.009262 0.128439 -0.742964
v -0.244457 0.136026 -1.073036
v -0.238734 0.141242 -0.914179
v 0.068284 0.226176 -1.213916
v 0.225090 0.221487 -1.009920
v 0.083269 0.239831 -0.798025
v -0.161186 0.255857 -0.871059
v -0.170448 0.247418 -1.128095
v 0.119747 0.300235 -1.089087
v -0.031335 0.310139 -1.134227
v 0.125470 0.305450 -0.930232
v -0.022073 0.318578 -0.877193
v -0.118984 0.321476 -1.003267
vn 0.1617 -0.9759 -0.1467
vn -0.0378 -0.7332 -0.6790
vn 0.1718 -0.9649 0.1985
vn -0.1559 -0.9358 0.3163
vn -0.3682 -0.9287 0.0438
vn -0.0796 -0.3987 -0.9136
vn 0.8358 -0.4439 -0.3231
vn 0.5619 -0.3890 0.7300
vn -0.5322 -0.3015 0.7911
vn -0.9261 -0.3072 -0.2190
vn 0.2688 -0.1971 -0.9428
vn 0.9757 -0.2175 -0.0280
vn 0.3245 -0.1351 0.9362
vn -0.7921 -0.0602 0.6075
vn -0.8309 -0.0993 -0.5475
vn 0.4819 0.6520 -0.5855
vn 0.7211 0.6622 0.2037
vn 0.0378 0.7332 0.6790
vn -0.6221 0.7620 0.1796
vn -0.3500 0.7174 -0.6023
vn -0.1718 0.9649 -0.1985
vn -0.3989 0.8514 -0.3407
vn -0.6338 0.7512 -0.1844
vn -0.1617 0.9759 0.1467
vn -0.3791 0.8714 0.3115
vn -0.3147 0.7544 0.5761
vn 0.1721 0.9547 0.2425
vn 0.2515 0.8326 0.4935
vn 0.5153 0.6907 0.5073
vn 0.3682 0.9287 -0.0438
vn 0.6210 0.7824 -0.0481
vn 0.7049 0.6440 -0.2974
vn 0.1559 0.9358 -0.3163
vn 0.2205 0.7963 -0.5633
vn -0.0030 0.6865 -0.7271
vn -0.5619 0.3890 -0.7300
vn -0.7935 0.2538 -0.5531
vn -0.8568 0.4251 -0.2918
vn -0.8358 0.4439 0.3231
vn -0.7555 0.2902 0.5874
vn -0.5162 0.4355 0.7375
vn 0.0796 0.3987 0.9136
vn 0.3473 0.2199 0.9116
vn 0.5796 0.3542 0.7339
vn 0.9261 0.3072 0.2190
vn 0.9901 0.1349 -0.0401
vn 0.9079 0.2888 -0.3038
vn 0.5322 0.3015 -0.7911
vn 0.2921 0.1572 -0.9434
vn 0.0257 0.3367 -0.9413
vn -0.9757 0.2175 0.0280
vn -0.9901 -0.1349 0.0401
vn -0.9079 -0.2888 0.3038
vn -0.2688 0.1971 0.9428
vn -0.2921 -0.1572 0.9434
vn -0.0257 -0.3367 0.9413
vn 0.8309 0.0993 0.5475
vn 0.7935 -0.2538 0.5531
vn 0.8568 -0.4251 0.2918
vn 0.7921 0.0602 -0.6075
vn 0.7555 -0.2902 -0.5874
vn 0.5162 -0.4355 -0.7375
vn -0.3245 0.1351 -0.9362
vn -0.3473 -0.2199 -0.9116
vn -0.5796 -0.3542 -0.7339
vn -0.7211 -0.6622 -0.2037
vn -0.6210 -0.7824 0.0481
vn -0.7049 -0.6440 0.2974
vn -0.4819 -0.6520 0.5855
vn -0.2205 -0.7963 0.5633
vn 0.0030 -0.6865 0.7271
vn 0.3500 -0.7174 0.6023
vn 0.3989 -0.8514 0.3407
vn 0.6338 -0.7512 0.1844
vn -0.5153 -0.6907 -0.5073
vn -0.2515 -0.8326 -0.4935
vn -0.1721 -0.9547 -0.2425
vn 0.6221 -0.7620 -0.1796
vn 0.3791 -0.8714 -0.3115
vn 0.3147 -0.7544 -0.5761
vt 0.181819 0.000000
vt 0.227273 0.078731
vt 0.136365 0.078731
vt 0.272728 0.157461
vt 0.318182 0.078731
vt 0.363637 0.157461
vt 0.909091 0.000000
vt 0.954545 0.078731
vt 0.863636 0.078731
vt 0.727273 0.000000
vt 0.772727 0.078731
vt 0.681818 0.078731
vt 0.545455 0.000000
vt 0.590909 0.078731
vt 0.500000 0.078731
vt 0.318182 0.236191
vt 0.090910 0.157461
vt 0.181819 0.157461
vt 0.136365 0.236191
vt 0.818182 0.157461
vt 0.909091 0.157461
vt 0.863636 0.236191
vt 0.636364 0.157461
vt 0.727273 0.157461
vt 0.681818 0.236191
vt 0.454546 0.157461
vt 0.545455 0.157461
vt 0.500000 0.236191
vt 0.227273 0.236191
vt 0.045455 0.236191
vt 0.772727 0.236191
vt 0.590909 0.236191
vt 0.409092 0.236191
vt 0.181819 0.314921
vt 0.272728 0.314921
vt 0.227273 0.393651
vt 0.000000 0.314921
vt 0.090910 0.314921
vt 0.045455 0.393651
vt 0.727273 0.314921
vt 0.818182 0.314921
vt 0.772727 0.393651
vt 0.545455 0.314921
vt 0.636364 0.314921
vt 0.590909 0.393651
vt 0.363637 0.314921
vt 0.454546 0.314921
vt 0.409092 0.393651
vt 0.500000 0.393651
vt 0.454546 0.472382
vt 0.681818 0.393651
vt 0.636364 0.472382
vt 0.863636 0.393651
vt 0.818182 0.472382
vt 0.909091 0.314921
vt 0.136365 0.393651
vt 0.090910 0.472382
vt 0.318182 0.393651
vt 0.272728 0.472382
vt 0.954545 0.236191
vt 1.000000 0.157461
vt 0.409092 0.078731
vt 0.363637 0.000000
s 0
usemtl Dark_Grey_Rock
f 169/253/321 182/254/321 181/255/321
f 170/256/322 182/257/322 184/258/322
f 169/259/323 181/260/323 186/261/323
f 169/262/324 186/263/324 188/264/324
f 169/265/325 188/266/325 185/267/325
f 170/256/326 184/258/326 191/268/326
f 171/269/327 183/270/327 193/271/327
f 172/272/328 187/273/328 195/274/328
f 173/275/329 189/276/329 197/277/329
f 174/278/330 190/279/330 199/280/330
f 170/256/331 191/268/331 194/281/331
f 171/269/332 193/271/332 196/282/332
f 172/272/333 195/274/333 198/283/333
f 173/275/334 197/277/334 200/284/334
f 174/278/335 199/280/335 192/285/335
f 175/286/336 201/287/336 206/288/336
f 176/289/337 202/290/337 208/291/337
f 177/292/338 203/293/338 209/294/338
f 178/295/339 204/296/339 210/297/339
f 179/298/340 205/299/340 207/300/340
f 207/300/341 210/301/341 180/302/341
f 207/300/342 205/299/342 210/301/342
f 205/299/343 178/295/343 210/301/343
f 210/297/344 209/303/344 180/304/344
f 210/297/345 204/296/345 209/303/345
f 204/296/346 177/292/346 209/303/346
f 209/294/347 208/305/347 180/306/347
f 209/294/348 203/293/348 208/305/348
f 203/293/349 176/307/349 208/305/349
f 208/291/350 206/308/350 180/309/350
f 208/291/351 202/290/351 206/308/351
f 202/290/352 175/286/352 206/308/352
f 206/288/353 207/310/353 180/311/353
f 206/288/354 201/287/354 207/310/354
f 201/287/355 179/298/355 207/310/355
f 192/285/356 205/299/356 179/298/356
f 192/285/357 199/280/357 205/299/357
f 199/280/358 178/295/358 205/299/358
f 200/284/359 204/296/359 178/295/359
f 200/284/360 197/277/360 204/296/360
f 197/277/361 177/292/361 204/296/361
f 198/283/362 203/293/362 177/292/362
f 198/283/363 195/274/363 203/293/363
f 195/274/364 176/307/364 203/293/364
f 196/282/365 202/290/365 176/289/365
f 196/282/366 193/271/366 202/290/366
f 193/271/367 175/286/367 202/290/367
f 194/281/368 201/287/368 175/286/368
f 194/281/369 191/268/369 201/287/369
f 191/268/370 179/298/370 201/287/370
f 199/280/371 200/284/371 178/295/371
f 199/280/372 190/279/372 200/284/372
f 190/279/373 173/275/373 200/284/373
f 197/277/374 198/283/374 177/292/374
f 197/277/375 189/276/375 198/283/375
f 189/276/376 172/272/376 198/283/376
f 195/274/377 196/312/377 176/307/377
f 195/274/378 187/273/378 196/312/378
f 187/273/379 171/313/379 196/312/379
f 193/271/380 194/281/380 175/286/380
f 193/271/381 183/270/381 194/281/381
f 183/270/382 170/256/382 194/281/382
f 191/268/383 192/285/383 179/298/383
f 191/268/384 184/258/384 192/285/384
f 184/258/385 174/278/385 192/285/385
f 185/267/386 190/279/386 174/278/386
f 185/267/387 188/266/387 190/279/387
f 188/266/388 173/275/388 190/279/388
f 188/264/389 189/276/389 173/275/389
f 188/264/390 186/263/390 189/276/390
f 186/263/391 172/272/391 189/276/391
f 186/261/392 187/273/392 172/272/392
f 186/261/393 181/260/393 187/273/393
f 181/260/394 171/313/394 187/273/394
f 184/258/395 185/314/395 174/278/395
f 184/258/396 182/257/396 185/314/396
f 182/257/397 169/315/397 185/314/397
f 181/255/398 183/270/398 171/269/398
f 181/255/399 182/254/399 183/270/399
f 182/254/400 170/256/400 183/270/400
