# Blender 5.1.1
# www.blender.org
mtllib Wooden_fence.mtl
o TopRail
v -1.500000 1.140000 -0.060000
v 1.500000 1.140000 -0.060000
v -1.500000 1.117039 -0.055433
v 1.500000 1.117039 -0.055433
v -1.500000 1.097574 -0.042426
v 1.500000 1.097574 -0.042426
v -1.500000 1.084567 -0.022961
v 1.500000 1.084567 -0.022961
v -1.500000 1.080000 0.000000
v 1.500000 1.080000 0.000000
v -1.500000 1.084567 0.022961
v 1.500000 1.084567 0.022961
v -1.500000 1.097574 0.042426
v 1.500000 1.097574 0.042426
v -1.500000 1.117039 0.055433
v 1.500000 1.117039 0.055433
v -1.500000 1.140000 0.060000
v 1.500000 1.140000 0.060000
v -1.500000 1.162961 0.055433
v 1.500000 1.162961 0.055433
v -1.500000 1.182426 0.042426
v 1.500000 1.182426 0.042426
v -1.500000 1.195433 0.022961
v 1.500000 1.195433 0.022961
v -1.500000 1.200000 0.000000
v 1.500000 1.200000 0.000000
v -1.500000 1.195433 -0.022961
v 1.500000 1.195433 -0.022961
v -1.500000 1.182426 -0.042426
v 1.500000 1.182426 -0.042426
v -1.500000 1.162961 -0.055433
v 1.500000 1.162961 -0.055433
vn -0.0000 -0.1951 -0.9808
vn -0.0000 -0.5556 -0.8315
vn -0.0000 -0.8315 -0.5556
vn -0.0000 -0.9808 -0.1951
vn -0.0000 -0.9808 0.1951
vn -0.0000 -0.8315 0.5556
vn -0.0000 -0.5556 0.8315
vn -0.0000 -0.1951 0.9808
vn -0.0000 0.1951 0.9808
vn -0.0000 0.5556 0.8315
vn -0.0000 0.8315 0.5556
vn -0.0000 0.9808 0.1951
vn -0.0000 0.9808 -0.1951
vn -0.0000 0.8315 -0.5556
vn 1.0000 -0.0000 -0.0000
vn -0.0000 0.5556 -0.8315
vn -0.0000 0.1951 -0.9808
vn -1.0000 -0.0000 -0.0000
vt 1.000000 0.500000
vt 1.000000 1.000000
vt 0.937500 1.000000
vt 0.937500 0.500000
vt 0.875000 1.000000
vt 0.875000 0.500000
vt 0.812500 1.000000
vt 0.812500 0.500000
vt 0.750000 1.000000
vt 0.750000 0.500000
vt 0.687500 1.000000
vt 0.687500 0.500000
vt 0.625000 1.000000
vt 0.625000 0.500000
vt 0.562500 1.000000
vt 0.562500 0.500000
vt 0.500000 1.000000
vt 0.500000 0.500000
vt 0.437500 1.000000
vt 0.437500 0.500000
vt 0.375000 1.000000
vt 0.375000 0.500000
vt 0.312500 1.000000
vt 0.312500 0.500000
vt 0.250000 1.000000
vt 0.250000 0.500000
vt 0.187500 1.000000
vt 0.187500 0.500000
vt 0.125000 1.000000
vt 0.125000 0.500000
vt 0.341844 0.471731
vt 0.250000 0.490000
vt 0.158156 0.471731
vt 0.080294 0.419706
vt 0.028269 0.341844
vt 0.010000 0.250000
vt 0.028269 0.158156
vt 0.080294 0.080294
vt 0.158156 0.028269
vt 0.250000 0.010000
vt 0.341844 0.028269
vt 0.419706 0.080294
vt 0.471731 0.158156
vt 0.490000 0.250000
vt 0.471731 0.341844
vt 0.419706 0.419706
vt 0.062500 1.000000
vt 0.062500 0.500000
vt 0.000000 1.000000
vt 0.000000 0.500000
vt 0.750000 0.490000
vt 0.841844 0.471731
vt 0.919706 0.419706
vt 0.971731 0.341844
vt 0.990000 0.250000
vt 0.971731 0.158156
vt 0.919706 0.080294
vt 0.841844 0.028269
vt 0.750000 0.010000
vt 0.658156 0.028269
vt 0.580294 0.080294
vt 0.528269 0.158156
vt 0.510000 0.250000
vt 0.528269 0.341844
vt 0.580294 0.419706
vt 0.658156 0.471731
s 0
usemtl DarkWood.003
f 1/1/1 2/2/1 4/3/1 3/4/1
f 3/4/2 4/3/2 6/5/2 5/6/2
f 5/6/3 6/5/3 8/7/3 7/8/3
f 7/8/4 8/7/4 10/9/4 9/10/4
f 9/10/5 10/9/5 12/11/5 11/12/5
f 11/12/6 12/11/6 14/13/6 13/14/6
f 13/14/7 14/13/7 16/15/7 15/16/7
f 15/16/8 16/15/8 18/17/8 17/18/8
f 17/18/9 18/17/9 20/19/9 19/20/9
f 19/20/10 20/19/10 22/21/10 21/22/10
f 21/22/11 22/21/11 24/23/11 23/24/11
f 23/24/12 24/23/12 26/25/12 25/26/12
f 25/26/13 26/25/13 28/27/13 27/28/13
f 27/28/14 28/27/14 30/29/14 29/30/14
f 4/31/15 2/32/15 32/33/15 30/34/15 28/35/15 26/36/15 24/37/15 22/38/15 20/39/15 18/40/15 16/41/15 14/42/15 12/43/15 10/44/15 8/45/15 6/46/15
f 29/30/16 30/29/16 32/47/16 31/48/16
f 31/48/17 32/47/17 2/49/17 1/50/17
f 1/51/18 3/52/18 5/53/18 7/54/18 9/55/18 11/56/18 13/57/18 15/58/18 17/59/18 19/60/18 21/61/18 23/62/18 25/63/18 27/64/18 29/65/18 31/66/18
o BottomRail
v -1.500000 0.110000 -0.060000
v 1.500000 0.110000 -0.060000
v -1.500000 0.087039 -0.055433
v 1.500000 0.087039 -0.055433
v -1.500000 0.067574 -0.042426
v 1.500000 0.067574 -0.042426
v -1.500000 0.054567 -0.022961
v 1.500000 0.054567 -0.022961
v -1.500000 0.050000 0.000000
v 1.500000 0.050000 0.000000
v -1.500000 0.054567 0.022961
v 1.500000 0.054567 0.022961
v -1.500000 0.067574 0.042426
v 1.500000 0.067574 0.042426
v -1.500000 0.087039 0.055433
v 1.500000 0.087039 0.055433
v -1.500000 0.110000 0.060000
v 1.500000 0.110000 0.060000
v -1.500000 0.132961 0.055433
v 1.500000 0.132961 0.055433
v -1.500000 0.152426 0.042426
v 1.500000 0.152426 0.042426
v -1.500000 0.165433 0.022961
v 1.500000 0.165433 0.022961
v -1.500000 0.170000 0.000000
v 1.500000 0.170000 0.000000
v -1.500000 0.165433 -0.022961
v 1.500000 0.165433 -0.022961
v -1.500000 0.152426 -0.042426
v 1.500000 0.152426 -0.042426
v -1.500000 0.132961 -0.055433
v 1.500000 0.132961 -0.055433
vn -0.0000 -0.1951 -0.9808
vn -0.0000 -0.5556 -0.8315
vn -0.0000 -0.8315 -0.5556
vn -0.0000 -0.9808 -0.1951
vn -0.0000 -0.9808 0.1951
vn -0.0000 -0.8315 0.5556
vn -0.0000 -0.5556 0.8315
vn -0.0000 -0.1951 0.9808
vn -0.0000 0.1951 0.9808
vn -0.0000 0.5556 0.8315
vn -0.0000 0.8315 0.5556
vn -0.0000 0.9808 0.1951
vn -0.0000 0.9808 -0.1951
vn -0.0000 0.8315 -0.5556
vn 1.0000 -0.0000 -0.0000
vn -0.0000 0.5556 -0.8315
vn -0.0000 0.1951 -0.9808
vn -1.0000 -0.0000 -0.0000
vt 1.000000 0.500000
vt 1.000000 1.000000
vt 0.937500 1.000000
vt 0.937500 0.500000
vt 0.875000 1.000000
vt 0.875000 0.500000
vt 0.812500 1.000000
vt 0.812500 0.500000
vt 0.750000 1.000000
vt 0.750000 0.500000
vt 0.687500 1.000000
vt 0.687500 0.500000
vt 0.625000 1.000000
vt 0.625000 0.500000
vt 0.562500 1.000000
vt 0.562500 0.500000
vt 0.500000 1.000000
vt 0.500000 0.500000
vt 0.437500 1.000000
vt 0.437500 0.500000
vt 0.375000 1.000000
vt 0.375000 0.500000
vt 0.312500 1.000000
vt 0.312500 0.500000
vt 0.250000 1.000000
vt 0.250000 0.500000
vt 0.187500 1.000000
vt 0.187500 0.500000
vt 0.125000 1.000000
vt 0.125000 0.500000
vt 0.341844 0.471731
vt 0.250000 0.490000
vt 0.158156 0.471731
vt 0.080294 0.419706
vt 0.028269 0.341844
vt 0.010000 0.250000
vt 0.028269 0.158156
vt 0.080294 0.080294
vt 0.158156 0.028269
vt 0.250000 0.010000
vt 0.341844 0.028269
vt 0.419706 0.080294
vt 0.471731 0.158156
vt 0.490000 0.250000
vt 0.471731 0.341844
vt 0.419706 0.419706
vt 0.062500 1.000000
vt 0.062500 0.500000
vt 0.000000 1.000000
vt 0.000000 0.500000
vt 0.750000 0.490000
vt 0.841844 0.471731
vt 0.919706 0.419706
vt 0.971731 0.341844
vt 0.990000 0.250000
vt 0.971731 0.158156
vt 0.919706 0.080294
vt 0.841844 0.028269
vt 0.750000 0.010000
vt 0.658156 0.028269
vt 0.580294 0.080294
vt 0.528269 0.158156
vt 0.510000 0.250000
vt 0.528269 0.341844
vt 0.580294 0.419706
vt 0.658156 0.471731
s 0
usemtl DarkWood.003
f 33/67/19 34/68/19 36/69/19 35/70/19
f 35/70/20 36/69/20 38/71/20 37/72/20
f 37/72/21 38/71/21 40/73/21 39/74/21
f 39/74/22 40/73/22 42/75/22 41/76/22
f 41/76/23 42/75/23 44/77/23 43/78/23
f 43/78/24 44/77/24 46/79/24 45/80/24
f 45/80/25 46/79/25 48/81/25 47/82/25
f 47/82/26 48/81/26 50/83/26 49/84/26
f 49/84/27 50/83/27 52/85/27 51/86/27
f 51/86/28 52/85/28 54/87/28 53/88/28
f 53/88/29 54/87/29 56/89/29 55/90/29
f 55/90/30 56/89/30 58/91/30 57/92/30
f 57/92/31 58/91/31 60/93/31 59/94/31
f 59/94/32 60/93/32 62/95/32 61/96/32
f 36/97/33 34/98/33 64/99/33 62/100/33 60/101/33 58/102/33 56/103/33 54/104/33 52/105/33 50/106/33 48/107/33 46/108/33 44/109/33 42/110/33 40/111/33 38/112/33
f 61/96/34 62/95/34 64/113/34 63/114/34
f 63/114/35 64/113/35 34/115/35 33/116/35
f 33/117/36 35/118/36 37/119/36 39/120/36 41/121/36 43/122/36 45/123/36 47/124/36 49/125/36 51/126/36 53/127/36 55/128/36 57/129/36 59/130/36 61/131/36 63/132/36
o Baluster_00
v -1.369053 0.170156 -0.030000
v -1.345232 1.079844 -0.030000
v -1.357577 0.169855 -0.027716
v -1.333756 1.079544 -0.027716
v -1.347847 0.169601 -0.021213
v -1.324026 1.079289 -0.021213
v -1.341346 0.169430 -0.011481
v -1.317525 1.079118 -0.011481
v -1.339064 0.169371 0.000000
v -1.315243 1.079059 0.000000
v -1.341346 0.169430 0.011481
v -1.317525 1.079118 0.011481
v -1.347847 0.169601 0.021213
v -1.324026 1.079289 0.021213
v -1.357577 0.169855 0.027716
v -1.333756 1.079544 0.027716
v -1.369053 0.170156 0.030000
v -1.345232 1.079844 0.030000
v -1.380530 0.170456 0.027716
v -1.356709 1.080145 0.027716
v -1.390259 0.170711 0.021213
v -1.366438 1.080399 0.021213
v -1.396760 0.170881 0.011481
v -1.372939 1.080570 0.011481
v -1.399043 0.170941 0.000000
v -1.375222 1.080629 0.000000
v -1.396760 0.170881 -0.011481
v -1.372939 1.080570 -0.011481
v -1.390259 0.170711 -0.021213
v -1.366438 1.080399 -0.021213
v -1.380530 0.170456 -0.027716
v -1.356709 1.080145 -0.027716
vn 0.1950 -0.0051 -0.9808
vn 0.5554 -0.0145 -0.8315
vn 0.8312 -0.0218 -0.5556
vn 0.9804 -0.0257 -0.1951
vn 0.9804 -0.0257 0.1951
vn 0.8312 -0.0218 0.5556
vn 0.5554 -0.0145 0.8315
vn 0.1950 -0.0051 0.9808
vn -0.1950 0.0051 0.9808
vn -0.5554 0.0145 0.8315
vn -0.8312 0.0218 0.5556
vn -0.9804 0.0257 0.1951
vn -0.9804 0.0257 -0.1951
vn -0.8312 0.0218 -0.5556
vn 0.0262 0.9997 -0.0000
vn -0.5554 0.0145 -0.8315
vn -0.1950 0.0051 -0.9808
vn -0.0262 -0.9997 -0.0000
vt 1.000000 0.500000
vt 1.000000 1.000000
vt 0.937500 1.000000
vt 0.937500 0.500000
vt 0.875000 1.000000
vt 0.875000 0.500000
vt 0.812500 1.000000
vt 0.812500 0.500000
vt 0.750000 1.000000
vt 0.750000 0.500000
vt 0.687500 1.000000
vt 0.687500 0.500000
vt 0.625000 1.000000
vt 0.625000 0.500000
vt 0.562500 1.000000
vt 0.562500 0.500000
vt 0.500000 1.000000
vt 0.500000 0.500000
vt 0.437500 1.000000
vt 0.437500 0.500000
vt 0.375000 1.000000
vt 0.375000 0.500000
vt 0.312500 1.000000
vt 0.312500 0.500000
vt 0.250000 1.000000
vt 0.250000 0.500000
vt 0.187500 1.000000
vt 0.187500 0.500000
vt 0.125000 1.000000
vt 0.125000 0.500000
vt 0.341844 0.471731
vt 0.250000 0.490000
vt 0.158156 0.471731
vt 0.080294 0.419706
vt 0.028269 0.341844
vt 0.010000 0.250000
vt 0.028269 0.158156
vt 0.080294 0.080294
vt 0.158156 0.028269
vt 0.250000 0.010000
vt 0.341844 0.028269
vt 0.419706 0.080294
vt 0.471731 0.158156
vt 0.490000 0.250000
vt 0.471731 0.341844
vt 0.419706 0.419706
vt 0.062500 1.000000
vt 0.062500 0.500000
vt 0.000000 1.000000
vt 0.000000 0.500000
vt 0.750000 0.490000
vt 0.841844 0.471731
vt 0.919706 0.419706
vt 0.971731 0.341844
vt 0.990000 0.250000
vt 0.971731 0.158156
vt 0.919706 0.080294
vt 0.841844 0.028269
vt 0.750000 0.010000
vt 0.658156 0.028269
vt 0.580294 0.080294
vt 0.528269 0.158156
vt 0.510000 0.250000
vt 0.528269 0.341844
vt 0.580294 0.419706
vt 0.658156 0.471731
s 0
usemtl DarkWood.003
f 65/133/37 66/134/37 68/135/37 67/136/37
f 67/136/38 68/135/38 70/137/38 69/138/38
f 69/138/39 70/137/39 72/139/39 71/140/39
f 71/140/40 72/139/40 74/141/40 73/142/40
f 73/142/41 74/141/41 76/143/41 75/144/41
f 75/144/42 76/143/42 78/145/42 77/146/42
f 77/146/43 78/145/43 80/147/43 79/148/43
f 79/148/44 80/147/44 82/149/44 81/150/44
f 81/150/45 82/149/45 84/151/45 83/152/45
f 83/152/46 84/151/46 86/153/46 85/154/46
f 85/154/47 86/153/47 88/155/47 87/156/47
f 87/156/48 88/155/48 90/157/48 89/158/48
f 89/158/49 90/157/49 92/159/49 91/160/49
f 91/160/50 92/159/50 94/161/50 93/162/50
f 68/163/51 66/164/51 96/165/51 94/166/51 92/167/51 90/168/51 88/169/51 86/170/51 84/171/51 82/172/51 80/173/51 78/174/51 76/175/51 74/176/51 72/177/51 70/178/51
f 93/162/52 94/161/52 96/179/52 95/180/52
f 95/180/53 96/179/53 66/181/53 65/182/53
f 65/183/54 67/184/54 69/185/54 71/186/54 73/187/54 75/188/54 77/189/54 79/190/54 81/191/54 83/192/54 85/193/54 87/194/54 89/195/54 91/196/54 93/197/54 95/198/54
o Baluster_01
v -1.202375 0.170156 -0.030000
v -1.226196 1.079844 -0.030000
v -1.190899 0.170456 -0.027716
v -1.214720 1.080145 -0.027716
v -1.181169 0.170711 -0.021213
v -1.204990 1.080399 -0.021213
v -1.174668 0.170881 -0.011481
v -1.198489 1.080570 -0.011481
v -1.172385 0.170941 0.000000
v -1.196207 1.080629 0.000000
v -1.174668 0.170881 0.011481
v -1.198489 1.080570 0.011481
v -1.181169 0.170711 0.021213
v -1.204990 1.080399 0.021213
v -1.190899 0.170456 0.027716
v -1.214720 1.080145 0.027716
v -1.202375 0.170156 0.030000
v -1.226196 1.079844 0.030000
v -1.213852 0.169855 0.027716
v -1.237673 1.079544 0.027716
v -1.223581 0.169601 0.021213
v -1.247402 1.079289 0.021213
v -1.230082 0.169430 0.011481
v -1.253903 1.079118 0.011481
v -1.232365 0.169371 0.000000
v -1.256186 1.079059 0.000000
v -1.230082 0.169430 -0.011481
v -1.253903 1.079118 -0.011481
v -1.223581 0.169601 -0.021213
v -1.247402 1.079289 -0.021213
v -1.213852 0.169855 -0.027716
v -1.237673 1.079544 -0.027716
vn 0.1950 0.0051 -0.9808
vn 0.5554 0.0145 -0.8315
vn 0.8312 0.0218 -0.5556
vn 0.9804 0.0257 -0.1951
vn 0.9804 0.0257 0.1951
vn 0.8312 0.0218 0.5556
vn 0.5554 0.0145 0.8315
vn 0.1950 0.0051 0.9808
vn -0.1950 -0.0051 0.9808
vn -0.5554 -0.0145 0.8315
vn -0.8312 -0.0218 0.5556
vn -0.9804 -0.0257 0.1951
vn -0.9804 -0.0257 -0.1951
vn -0.8312 -0.0218 -0.5556
vn -0.0262 0.9997 -0.0000
vn -0.5554 -0.0145 -0.8315
vn -0.1950 -0.0051 -0.9808
vn 0.0262 -0.9997 -0.0000
vt 1.000000 0.500000
vt 1.000000 1.000000
vt 0.937500 1.000000
vt 0.937500 0.500000
vt 0.875000 1.000000
vt 0.875000 0.500000
vt 0.812500 1.000000
vt 0.812500 0.500000
vt 0.750000 1.000000
vt 0.750000 0.500000
vt 0.687500 1.000000
vt 0.687500 0.500000
vt 0.625000 1.000000
vt 0.625000 0.500000
vt 0.562500 1.000000
vt 0.562500 0.500000
vt 0.500000 1.000000
vt 0.500000 0.500000
vt 0.437500 1.000000
vt 0.437500 0.500000
vt 0.375000 1.000000
vt 0.375000 0.500000
vt 0.312500 1.000000
vt 0.312500 0.500000
vt 0.250000 1.000000
vt 0.250000 0.500000
vt 0.187500 1.000000
vt 0.187500 0.500000
vt 0.125000 1.000000
vt 0.125000 0.500000
vt 0.341844 0.471731
vt 0.250000 0.490000
vt 0.158156 0.471731
vt 0.080294 0.419706
vt 0.028269 0.341844
vt 0.010000 0.250000
vt 0.028269 0.158156
vt 0.080294 0.080294
vt 0.158156 0.028269
vt 0.250000 0.010000
vt 0.341844 0.028269
vt 0.419706 0.080294
vt 0.471731 0.158156
vt 0.490000 0.250000
vt 0.471731 0.341844
vt 0.419706 0.419706
vt 0.062500 1.000000
vt 0.062500 0.500000
vt 0.000000 1.000000
vt 0.000000 0.500000
vt 0.750000 0.490000
vt 0.841844 0.471731
vt 0.919706 0.419706
vt 0.971731 0.341844
vt 0.990000 0.250000
vt 0.971731 0.158156
vt 0.919706 0.080294
vt 0.841844 0.028269
vt 0.750000 0.010000
vt 0.658156 0.028269
vt 0.580294 0.080294
vt 0.528269 0.158156
vt 0.510000 0.250000
vt 0.528269 0.341844
vt 0.580294 0.419706
vt 0.658156 0.471731
s 0
usemtl LightWood.003
f 97/199/55 98/200/55 100/201/55 99/202/55
f 99/202/56 100/201/56 102/203/56 101/204/56
f 101/204/57 102/203/57 104/205/57 103/206/57
f 103/206/58 104/205/58 106/207/58 105/208/58
f 105/208/59 106/207/59 108/209/59 107/210/59
f 107/210/60 108/209/60 110/211/60 109/212/60
f 109/212/61 110/211/61 112/213/61 111/214/61
f 111/214/62 112/213/62 114/215/62 113/216/62
f 113/216/63 114/215/63 116/217/63 115/218/63
f 115/218/64 116/217/64 118/219/64 117/220/64
f 117/220/65 118/219/65 120/221/65 119/222/65
f 119/222/66 120/221/66 122/223/66 121/224/66
f 121/224/67 122/223/67 124/225/67 123/226/67
f 123/226/68 124/225/68 126/227/68 125/228/68
f 100/229/69 98/230/69 128/231/69 126/232/69 124/233/69 122/234/69 120/235/69 118/236/69 116/237/69 114/238/69 112/239/69 110/240/69 108/241/69 106/242/69 104/243/69 102/244/69
f 125/228/70 126/227/70 128/245/70 127/246/70
f 127/246/71 128/245/71 98/247/71 97/248/71
f 97/249/72 99/250/72 101/251/72 103/252/72 105/253/72 107/254/72 109/255/72 111/256/72 113/257/72 115/258/72 117/259/72 119/260/72 121/261/72 123/262/72 125/263/72 127/264/72
o Baluster_02
v -1.083339 0.170156 -0.030000
v -1.059518 1.079844 -0.030000
v -1.071862 0.169855 -0.027716
v -1.048041 1.079544 -0.027716
v -1.062133 0.169601 -0.021213
v -1.038312 1.079289 -0.021213
v -1.055632 0.169430 -0.011481
v -1.031811 1.079118 -0.011481
v -1.053349 0.169371 0.000000
v -1.029528 1.079059 0.000000
v -1.055632 0.169430 0.011481
v -1.031811 1.079118 0.011481
v -1.062133 0.169601 0.021213
v -1.038312 1.079289 0.021213
v -1.071862 0.169855 0.027716
v -1.048041 1.079544 0.027716
v -1.083339 0.170156 0.030000
v -1.059518 1.079844 0.030000
v -1.094816 0.170456 0.027716
v -1.070995 1.080145 0.027716
v -1.104545 0.170711 0.021213
v -1.080724 1.080399 0.021213
v -1.111046 0.170881 0.011481
v -1.087225 1.080570 0.011481
v -1.113329 0.170941 0.000000
v -1.089508 1.080629 0.000000
v -1.111046 0.170881 -0.011481
v -1.087225 1.080570 -0.011481
v -1.104545 0.170711 -0.021213
v -1.080724 1.080399 -0.021213
v -1.094816 0.170456 -0.027716
v -1.070995 1.080145 -0.027716
vn 0.1950 -0.0051 -0.9808
vn 0.5554 -0.0145 -0.8315
vn 0.8312 -0.0218 -0.5556
vn 0.9804 -0.0257 -0.1951
vn 0.9804 -0.0257 0.1951
vn 0.8312 -0.0218 0.5556
vn 0.5554 -0.0145 0.8315
vn 0.1950 -0.0051 0.9808
vn -0.1950 0.0051 0.9808
vn -0.5554 0.0145 0.8315
vn -0.8312 0.0218 0.5556
vn -0.9804 0.0257 0.1951
vn -0.9804 0.0257 -0.1951
vn -0.8312 0.0218 -0.5556
vn 0.0262 0.9997 -0.0000
vn -0.5554 0.0145 -0.8315
vn -0.1950 0.0051 -0.9808
vn -0.0262 -0.9997 -0.0000
vt 1.000000 0.500000
vt 1.000000 1.000000
vt 0.937500 1.000000
vt 0.937500 0.500000
vt 0.875000 1.000000
vt 0.875000 0.500000
vt 0.812500 1.000000
vt 0.812500 0.500000
vt 0.750000 1.000000
vt 0.750000 0.500000
vt 0.687500 1.000000
vt 0.687500 0.500000
vt 0.625000 1.000000
vt 0.625000 0.500000
vt 0.562500 1.000000
vt 0.562500 0.500000
vt 0.500000 1.000000
vt 0.500000 0.500000
vt 0.437500 1.000000
vt 0.437500 0.500000
vt 0.375000 1.000000
vt 0.375000 0.500000
vt 0.312500 1.000000
vt 0.312500 0.500000
vt 0.250000 1.000000
vt 0.250000 0.500000
vt 0.187500 1.000000
vt 0.187500 0.500000
vt 0.125000 1.000000
vt 0.125000 0.500000
vt 0.341844 0.471731
vt 0.250000 0.490000
vt 0.158156 0.471731
vt 0.080294 0.419706
vt 0.028269 0.341844
vt 0.010000 0.250000
vt 0.028269 0.158156
vt 0.080294 0.080294
vt 0.158156 0.028269
vt 0.250000 0.010000
vt 0.341844 0.028269
vt 0.419706 0.080294
vt 0.471731 0.158156
vt 0.490000 0.250000
vt 0.471731 0.341844
vt 0.419706 0.419706
vt 0.062500 1.000000
vt 0.062500 0.500000
vt 0.000000 1.000000
vt 0.000000 0.500000
vt 0.750000 0.490000
vt 0.841844 0.471731
vt 0.919706 0.419706
vt 0.971731 0.341844
vt 0.990000 0.250000
vt 0.971731 0.158156
vt 0.919706 0.080294
vt 0.841844 0.028269
vt 0.750000 0.010000
vt 0.658156 0.028269
vt 0.580294 0.080294
vt 0.528269 0.158156
vt 0.510000 0.250000
vt 0.528269 0.341844
vt 0.580294 0.419706
vt 0.658156 0.471731
s 0
usemtl LightWood.003
f 129/265/73 130/266/73 132/267/73 131/268/73
f 131/268/74 132/267/74 134/269/74 133/270/74
f 133/270/75 134/269/75 136/271/75 135/272/75
f 135/272/76 136/271/76 138/273/76 137/274/76
f 137/274/77 138/273/77 140/275/77 139/276/77
f 139/276/78 140/275/78 142/277/78 141/278/78
f 141/278/79 142/277/79 144/279/79 143/280/79
f 143/280/80 144/279/80 146/281/80 145/282/80
f 145/282/81 146/281/81 148/283/81 147/284/81
f 147/284/82 148/283/82 150/285/82 149/286/82
f 149/286/83 150/285/83 152/287/83 151/288/83
f 151/288/84 152/287/84 154/289/84 153/290/84
f 153/290/85 154/289/85 156/291/85 155/292/85
f 155/292/86 156/291/86 158/293/86 157/294/86
f 132/295/87 130/296/87 160/297/87 158/298/87 156/299/87 154/300/87 152/301/87 150/302/87 148/303/87 146/304/87 144/305/87 142/306/87 140/307/87 138/308/87 136/309/87 134/310/87
f 157/294/88 158/293/88 160/311/88 159/312/88
f 159/312/89 160/311/89 130/313/89 129/314/89
f 129/315/90 131/316/90 133/317/90 135/318/90 137/319/90 139/320/90 141/321/90 143/322/90 145/323/90 147/324/90 149/325/90 151/326/90 153/327/90 155/328/90 157/329/90 159/330/90
o Baluster_03
v -0.916661 0.170156 -0.030000
v -0.940482 1.079844 -0.030000
v -0.905184 0.170456 -0.027716
v -0.929005 1.080145 -0.027716
v -0.895455 0.170711 -0.021213
v -0.919276 1.080399 -0.021213
v -0.888954 0.170881 -0.011481
v -0.912775 1.080570 -0.011481
v -0.886671 0.170941 0.000000
v -0.910492 1.080629 0.000000
v -0.888954 0.170881 0.011481
v -0.912775 1.080570 0.011481
v -0.895455 0.170711 0.021213
v -0.919276 1.080399 0.021213
v -0.905184 0.170456 0.027716
v -0.929005 1.080145 0.027716
v -0.916661 0.170156 0.030000
v -0.940482 1.079844 0.030000
v -0.928137 0.169855 0.027716
v -0.951958 1.079544 0.027716
v -0.937867 0.169601 0.021213
v -0.961688 1.079289 0.021213
v -0.944368 0.169430 0.011481
v -0.968189 1.079118 0.011481
v -0.946651 0.169371 0.000000
v -0.970472 1.079059 0.000000
v -0.944368 0.169430 -0.011481
v -0.968189 1.079118 -0.011481
v -0.937867 0.169601 -0.021213
v -0.961688 1.079289 -0.021213
v -0.928137 0.169855 -0.027716
v -0.951958 1.079544 -0.027716
vn 0.1950 0.0051 -0.9808
vn 0.5554 0.0145 -0.8315
vn 0.8312 0.0218 -0.5556
vn 0.9804 0.0257 -0.1951
vn 0.9804 0.0257 0.1951
vn 0.8312 0.0218 0.5556
vn 0.5554 0.0145 0.8315
vn 0.1950 0.0051 0.9808
vn -0.1950 -0.0051 0.9808
vn -0.5554 -0.0145 0.8315
vn -0.8312 -0.0218 0.5556
vn -0.9804 -0.0257 0.1951
vn -0.9804 -0.0257 -0.1951
vn -0.8312 -0.0218 -0.5556
vn -0.0262 0.9997 -0.0000
vn -0.5554 -0.0145 -0.8315
vn -0.1950 -0.0051 -0.9808
vn 0.0262 -0.9997 -0.0000
vt 1.000000 0.500000
vt 1.000000 1.000000
vt 0.937500 1.000000
vt 0.937500 0.500000
vt 0.875000 1.000000
vt 0.875000 0.500000
vt 0.812500 1.000000
vt 0.812500 0.500000
vt 0.750000 1.000000
vt 0.750000 0.500000
vt 0.687500 1.000000
vt 0.687500 0.500000
vt 0.625000 1.000000
vt 0.625000 0.500000
vt 0.562500 1.000000
vt 0.562500 0.500000
vt 0.500000 1.000000
vt 0.500000 0.500000
vt 0.437500 1.000000
vt 0.437500 0.500000
vt 0.375000 1.000000
vt 0.375000 0.500000
vt 0.312500 1.000000
vt 0.312500 0.500000
vt 0.250000 1.000000
vt 0.250000 0.500000
vt 0.187500 1.000000
vt 0.187500 0.500000
vt 0.125000 1.000000
vt 0.125000 0.500000
vt 0.341844 0.471731
vt 0.250000 0.490000
vt 0.158156 0.471731
vt 0.080294 0.419706
vt 0.028269 0.341844
vt 0.010000 0.250000
vt 0.028269 0.158156
vt 0.080294 0.080294
vt 0.158156 0.028269
vt 0.250000 0.010000
vt 0.341844 0.028269
vt 0.419706 0.080294
vt 0.471731 0.158156
vt 0.490000 0.250000
vt 0.471731 0.341844
vt 0.419706 0.419706
vt 0.062500 1.000000
vt 0.062500 0.500000
vt 0.000000 1.000000
vt 0.000000 0.500000
vt 0.750000 0.490000
vt 0.841844 0.471731
vt 0.919706 0.419706
vt 0.971731 0.341844
vt 0.990000 0.250000
vt 0.971731 0.158156
vt 0.919706 0.080294
vt 0.841844 0.028269
vt 0.750000 0.010000
vt 0.658156 0.028269
vt 0.580294 0.080294
vt 0.528269 0.158156
vt 0.510000 0.250000
vt 0.528269 0.341844
vt 0.580294 0.419706
vt 0.658156 0.471731
s 0
usemtl DarkWood.003
f 161/331/91 162/332/91 164/333/91 163/334/91
f 163/334/92 164/333/92 166/335/92 165/336/92
f 165/336/93 166/335/93 168/337/93 167/338/93
f 167/338/94 168/337/94 170/339/94 169/340/94
f 169/340/95 170/339/95 172/341/95 171/342/95
f 171/342/96 172/341/96 174/343/96 173/344/96
f 173/344/97 174/343/97 176/345/97 175/346/97
f 175/346/98 176/345/98 178/347/98 177/348/98
f 177/348/99 178/347/99 180/349/99 179/350/99
f 179/350/100 180/349/100 182/351/100 181/352/100
f 181/352/101 182/351/101 184/353/101 183/354/101
f 183/354/102 184/353/102 186/355/102 185/356/102
f 185/356/103 186/355/103 188/357/103 187/358/103
f 187/358/104 188/357/104 190/359/104 189/360/104
f 164/361/105 162/362/105 192/363/105 190/364/105 188/365/105 186/366/105 184/367/105 182/368/105 180/369/105 178/370/105 176/371/105 174/372/105 172/373/105 170/374/105 168/375/105 166/376/105
f 189/360/106 190/359/106 192/377/106 191/378/106
f 191/378/107 192/377/107 162/379/107 161/380/107
f 161/381/108 163/382/108 165/383/108 167/384/108 169/385/108 171/386/108 173/387/108 175/388/108 177/389/108 179/390/108 181/391/108 183/392/108 185/393/108 187/394/108 189/395/108 191/396/108
o Baluster_04
v -0.797625 0.170156 -0.030000
v -0.773804 1.079844 -0.030000
v -0.786148 0.169855 -0.027716
v -0.762327 1.079544 -0.027716
v -0.776419 0.169601 -0.021213
v -0.752598 1.079289 -0.021213
v -0.769918 0.169430 -0.011481
v -0.746097 1.079118 -0.011481
v -0.767635 0.169371 0.000000
v -0.743814 1.079059 0.000000
v -0.769918 0.169430 0.011481
v -0.746097 1.079118 0.011481
v -0.776419 0.169601 0.021213
v -0.752598 1.079289 0.021213
v -0.786148 0.169855 0.027716
v -0.762327 1.079544 0.027716
v -0.797625 0.170156 0.030000
v -0.773804 1.079844 0.030000
v -0.809101 0.170456 0.027716
v -0.785280 1.080145 0.027716
v -0.818831 0.170711 0.021213
v -0.795010 1.080399 0.021213
v -0.825332 0.170881 0.011481
v -0.801511 1.080570 0.011481
v -0.827614 0.170941 0.000000
v -0.803793 1.080629 0.000000
v -0.825332 0.170881 -0.011481
v -0.801511 1.080570 -0.011481
v -0.818831 0.170711 -0.021213
v -0.795010 1.080399 -0.021213
v -0.809101 0.170456 -0.027716
v -0.785280 1.080145 -0.027716
vn 0.1950 -0.0051 -0.9808
vn 0.5554 -0.0145 -0.8315
vn 0.8312 -0.0218 -0.5556
vn 0.9804 -0.0257 -0.1951
vn 0.9804 -0.0257 0.1951
vn 0.8312 -0.0218 0.5556
vn 0.5554 -0.0145 0.8315
vn 0.1950 -0.0051 0.9808
vn -0.1950 0.0051 0.9808
vn -0.5554 0.0145 0.8315
vn -0.8312 0.0218 0.5556
vn -0.9804 0.0257 0.1951
vn -0.9804 0.0257 -0.1951
vn -0.8312 0.0218 -0.5556
vn 0.0262 0.9997 -0.0000
vn -0.5554 0.0145 -0.8315
vn -0.1950 0.0051 -0.9808
vn -0.0262 -0.9997 -0.0000
vt 1.000000 0.500000
vt 1.000000 1.000000
vt 0.937500 1.000000
vt 0.937500 0.500000
vt 0.875000 1.000000
vt 0.875000 0.500000
vt 0.812500 1.000000
vt 0.812500 0.500000
vt 0.750000 1.000000
vt 0.750000 0.500000
vt 0.687500 1.000000
vt 0.687500 0.500000
vt 0.625000 1.000000
vt 0.625000 0.500000
vt 0.562500 1.000000
vt 0.562500 0.500000
vt 0.500000 1.000000
vt 0.500000 0.500000
vt 0.437500 1.000000
vt 0.437500 0.500000
vt 0.375000 1.000000
vt 0.375000 0.500000
vt 0.312500 1.000000
vt 0.312500 0.500000
vt 0.250000 1.000000
vt 0.250000 0.500000
vt 0.187500 1.000000
vt 0.187500 0.500000
vt 0.125000 1.000000
vt 0.125000 0.500000
vt 0.341844 0.471731
vt 0.250000 0.490000
vt 0.158156 0.471731
vt 0.080294 0.419706
vt 0.028269 0.341844
vt 0.010000 0.250000
vt 0.028269 0.158156
vt 0.080294 0.080294
vt 0.158156 0.028269
vt 0.250000 0.010000
vt 0.341844 0.028269
vt 0.419706 0.080294
vt 0.471731 0.158156
vt 0.490000 0.250000
vt 0.471731 0.341844
vt 0.419706 0.419706
vt 0.062500 1.000000
vt 0.062500 0.500000
vt 0.000000 1.000000
vt 0.000000 0.500000
vt 0.750000 0.490000
vt 0.841844 0.471731
vt 0.919706 0.419706
vt 0.971731 0.341844
vt 0.990000 0.250000
vt 0.971731 0.158156
vt 0.919706 0.080294
vt 0.841844 0.028269
vt 0.750000 0.010000
vt 0.658156 0.028269
vt 0.580294 0.080294
vt 0.528269 0.158156
vt 0.510000 0.250000
vt 0.528269 0.341844
vt 0.580294 0.419706
vt 0.658156 0.471731
s 0
usemtl LightWood.003
f 193/397/109 194/398/109 196/399/109 195/400/109
f 195/400/110 196/399/110 198/401/110 197/402/110
f 197/402/111 198/401/111 200/403/111 199/404/111
f 199/404/112 200/403/112 202/405/112 201/406/112
f 201/406/113 202/405/113 204/407/113 203/408/113
f 203/408/114 204/407/114 206/409/114 205/410/114
f 205/410/115 206/409/115 208/411/115 207/412/115
f 207/412/116 208/411/116 210/413/116 209/414/116
f 209/414/117 210/413/117 212/415/117 211/416/117
f 211/416/118 212/415/118 214/417/118 213/418/118
f 213/418/119 214/417/119 216/419/119 215/420/119
f 215/420/120 216/419/120 218/421/120 217/422/120
f 217/422/121 218/421/121 220/423/121 219/424/121
f 219/424/122 220/423/122 222/425/122 221/426/122
f 196/427/123 194/428/123 224/429/123 222/430/123 220/431/123 218/432/123 216/433/123 214/434/123 212/435/123 210/436/123 208/437/123 206/438/123 204/439/123 202/440/123 200/441/123 198/442/123
f 221/426/124 222/425/124 224/443/124 223/444/124
f 223/444/125 224/443/125 194/445/125 193/446/125
f 193/447/126 195/448/126 197/449/126 199/450/126 201/451/126 203/452/126 205/453/126 207/454/126 209/455/126 211/456/126 213/457/126 215/458/126 217/459/126 219/460/126 221/461/126 223/462/126
o Baluster_05
v -0.630947 0.170156 -0.030000
v -0.654768 1.079844 -0.030000
v -0.619470 0.170456 -0.027716
v -0.643291 1.080145 -0.027716
v -0.609741 0.170711 -0.021213
v -0.633562 1.080399 -0.021213
v -0.603240 0.170881 -0.011481
v -0.627061 1.080570 -0.011481
v -0.600957 0.170941 0.000000
v -0.624778 1.080629 0.000000
v -0.603240 0.170881 0.011481
v -0.627061 1.080570 0.011481
v -0.609741 0.170711 0.021213
v -0.633562 1.080399 0.021213
v -0.619470 0.170456 0.027716
v -0.643291 1.080145 0.027716
v -0.630947 0.170156 0.030000
v -0.654768 1.079844 0.030000
v -0.642423 0.169855 0.027716
v -0.666244 1.079544 0.027716
v -0.652153 0.169601 0.021213
v -0.675974 1.079289 0.021213
v -0.658653 0.169430 0.011481
v -0.682475 1.079118 0.011481
v -0.660936 0.169371 0.000000
v -0.684757 1.079059 0.000000
v -0.658653 0.169430 -0.011481
v -0.682475 1.079118 -0.011481
v -0.652153 0.169601 -0.021213
v -0.675974 1.079289 -0.021213
v -0.642423 0.169855 -0.027716
v -0.666244 1.079544 -0.027716
vn 0.1950 0.0051 -0.9808
vn 0.5554 0.0145 -0.8315
vn 0.8312 0.0218 -0.5556
vn 0.9804 0.0257 -0.1951
vn 0.9804 0.0257 0.1951
vn 0.8312 0.0218 0.5556
vn 0.5554 0.0145 0.8315
vn 0.1950 0.0051 0.9808
vn -0.1950 -0.0051 0.9808
vn -0.5554 -0.0145 0.8315
vn -0.8312 -0.0218 0.5556
vn -0.9804 -0.0257 0.1951
vn -0.9804 -0.0257 -0.1951
vn -0.8312 -0.0218 -0.5556
vn -0.0262 0.9997 -0.0000
vn -0.5554 -0.0145 -0.8315
vn -0.1950 -0.0051 -0.9808
vn 0.0262 -0.9997 -0.0000
vt 1.000000 0.500000
vt 1.000000 1.000000
vt 0.937500 1.000000
vt 0.937500 0.500000
vt 0.875000 1.000000
vt 0.875000 0.500000
vt 0.812500 1.000000
vt 0.812500 0.500000
vt 0.750000 1.000000
vt 0.750000 0.500000
vt 0.687500 1.000000
vt 0.687500 0.500000
vt 0.625000 1.000000
vt 0.625000 0.500000
vt 0.562500 1.000000
vt 0.562500 0.500000
vt 0.500000 1.000000
vt 0.500000 0.500000
vt 0.437500 1.000000
vt 0.437500 0.500000
vt 0.375000 1.000000
vt 0.375000 0.500000
vt 0.312500 1.000000
vt 0.312500 0.500000
vt 0.250000 1.000000
vt 0.250000 0.500000
vt 0.187500 1.000000
vt 0.187500 0.500000
vt 0.125000 1.000000
vt 0.125000 0.500000
vt 0.341844 0.471731
vt 0.250000 0.490000
vt 0.158156 0.471731
vt 0.080294 0.419706
vt 0.028269 0.341844
vt 0.010000 0.250000
vt 0.028269 0.158156
vt 0.080294 0.080294
vt 0.158156 0.028269
vt 0.250000 0.010000
vt 0.341844 0.028269
vt 0.419706 0.080294
vt 0.471731 0.158156
vt 0.490000 0.250000
vt 0.471731 0.341844
vt 0.419706 0.419706
vt 0.062500 1.000000
vt 0.062500 0.500000
vt 0.000000 1.000000
vt 0.000000 0.500000
vt 0.750000 0.490000
vt 0.841844 0.471731
vt 0.919706 0.419706
vt 0.971731 0.341844
vt 0.990000 0.250000
vt 0.971731 0.158156
vt 0.919706 0.080294
vt 0.841844 0.028269
vt 0.750000 0.010000
vt 0.658156 0.028269
vt 0.580294 0.080294
vt 0.528269 0.158156
vt 0.510000 0.250000
vt 0.528269 0.341844
vt 0.580294 0.419706
vt 0.658156 0.471731
s 0
usemtl LightWood.003
f 225/463/127 226/464/127 228/465/127 227/466/127
f 227/466/128 228/465/128 230/467/128 229/468/128
f 229/468/129 230/467/129 232/469/129 231/470/129
f 231/470/130 232/469/130 234/471/130 233/472/130
f 233/472/131 234/471/131 236/473/131 235/474/131
f 235/474/132 236/473/132 238/475/132 237/476/132
f 237/476/133 238/475/133 240/477/133 239/478/133
f 239/478/134 240/477/134 242/479/134 241/480/134
f 241/480/135 242/479/135 244/481/135 243/482/135
f 243/482/136 244/481/136 246/483/136 245/484/136
f 245/484/137 246/483/137 248/485/137 247/486/137
f 247/486/138 248/485/138 250/487/138 249/488/138
f 249/488/139 250/487/139 252/489/139 251/490/139
f 251/490/140 252/489/140 254/491/140 253/492/140
f 228/493/141 226/494/141 256/495/141 254/496/141 252/497/141 250/498/141 248/499/141 246/500/141 244/501/141 242/502/141 240/503/141 238/504/141 236/505/141 234/506/141 232/507/141 230/508/141
f 253/492/142 254/491/142 256/509/142 255/510/142
f 255/510/143 256/509/143 226/511/143 225/512/143
f 225/513/144 227/514/144 229/515/144 231/516/144 233/517/144 235/518/144 237/519/144 239/520/144 241/521/144 243/522/144 245/523/144 247/524/144 249/525/144 251/526/144 253/527/144 255/528/144
o Baluster_06
v -0.511910 0.170156 -0.030000
v -0.488090 1.079844 -0.030000
v -0.500434 0.169855 -0.027716
v -0.476613 1.079544 -0.027716
v -0.490705 0.169601 -0.021213
v -0.466884 1.079289 -0.021213
v -0.484204 0.169430 -0.011481
v -0.460383 1.079118 -0.011481
v -0.481921 0.169371 0.000000
v -0.458100 1.079059 0.000000
v -0.484204 0.169430 0.011481
v -0.460383 1.079118 0.011481
v -0.490705 0.169601 0.021213
v -0.466884 1.079289 0.021213
v -0.500434 0.169855 0.027716
v -0.476613 1.079544 0.027716
v -0.511910 0.170156 0.030000
v -0.488090 1.079844 0.030000
v -0.523387 0.170456 0.027716
v -0.499566 1.080145 0.027716
v -0.533116 0.170711 0.021213
v -0.509295 1.080399 0.021213
v -0.539617 0.170881 0.011481
v -0.515796 1.080570 0.011481
v -0.541900 0.170941 0.000000
v -0.518079 1.080629 0.000000
v -0.539617 0.170881 -0.011481
v -0.515796 1.080570 -0.011481
v -0.533116 0.170711 -0.021213
v -0.509295 1.080399 -0.021213
v -0.523387 0.170456 -0.027716
v -0.499566 1.080145 -0.027716
vn 0.1950 -0.0051 -0.9808
vn 0.5554 -0.0145 -0.8315
vn 0.8312 -0.0218 -0.5556
vn 0.9804 -0.0257 -0.1951
vn 0.9804 -0.0257 0.1951
vn 0.8312 -0.0218 0.5556
vn 0.5554 -0.0145 0.8315
vn 0.1950 -0.0051 0.9808
vn -0.1950 0.0051 0.9808
vn -0.5554 0.0145 0.8315
vn -0.8312 0.0218 0.5556
vn -0.9804 0.0257 0.1951
vn -0.9804 0.0257 -0.1951
vn -0.8312 0.0218 -0.5556
vn 0.0262 0.9997 -0.0000
vn -0.5554 0.0145 -0.8315
vn -0.1950 0.0051 -0.9808
vn -0.0262 -0.9997 -0.0000
vt 1.000000 0.500000
vt 1.000000 1.000000
vt 0.937500 1.000000
vt 0.937500 0.500000
vt 0.875000 1.000000
vt 0.875000 0.500000
vt 0.812500 1.000000
vt 0.812500 0.500000
vt 0.750000 1.000000
vt 0.750000 0.500000
vt 0.687500 1.000000
vt 0.687500 0.500000
vt 0.625000 1.000000
vt 0.625000 0.500000
vt 0.562500 1.000000
vt 0.562500 0.500000
vt 0.500000 1.000000
vt 0.500000 0.500000
vt 0.437500 1.000000
vt 0.437500 0.500000
vt 0.375000 1.000000
vt 0.375000 0.500000
vt 0.312500 1.000000
vt 0.312500 0.500000
vt 0.250000 1.000000
vt 0.250000 0.500000
vt 0.187500 1.000000
vt 0.187500 0.500000
vt 0.125000 1.000000
vt 0.125000 0.500000
vt 0.341844 0.471731
vt 0.250000 0.490000
vt 0.158156 0.471731
vt 0.080294 0.419706
vt 0.028269 0.341844
vt 0.010000 0.250000
vt 0.028269 0.158156
vt 0.080294 0.080294
vt 0.158156 0.028269
vt 0.250000 0.010000
vt 0.341844 0.028269
vt 0.419706 0.080294
vt 0.471731 0.158156
vt 0.490000 0.250000
vt 0.471731 0.341844
vt 0.419706 0.419706
vt 0.062500 1.000000
vt 0.062500 0.500000
vt 0.000000 1.000000
vt 0.000000 0.500000
vt 0.750000 0.490000
vt 0.841844 0.471731
vt 0.919706 0.419706
vt 0.971731 0.341844
vt 0.990000 0.250000
vt 0.971731 0.158156
vt 0.919706 0.080294
vt 0.841844 0.028269
vt 0.750000 0.010000
vt 0.658156 0.028269
vt 0.580294 0.080294
vt 0.528269 0.158156
vt 0.510000 0.250000
vt 0.528269 0.341844
vt 0.580294 0.419706
vt 0.658156 0.471731
s 0
usemtl DarkWood.003
f 257/529/145 258/530/145 260/531/145 259/532/145
f 259/532/146 260/531/146 262/533/146 261/534/146
f 261/534/147 262/533/147 264/535/147 263/536/147
f 263/536/148 264/535/148 266/537/148 265/538/148
f 265/538/149 266/537/149 268/539/149 267/540/149
f 267/540/150 268/539/150 270/541/150 269/542/150
f 269/542/151 270/541/151 272/543/151 271/544/151
f 271/544/152 272/543/152 274/545/152 273/546/152
f 273/546/153 274/545/153 276/547/153 275/548/153
f 275/548/154 276/547/154 278/549/154 277/550/154
f 277/550/155 278/549/155 280/551/155 279/552/155
f 279/552/156 280/551/156 282/553/156 281/554/156
f 281/554/157 282/553/157 284/555/157 283/556/157
f 283/556/158 284/555/158 286/557/158 285/558/158
f 260/559/159 258/560/159 288/561/159 286/562/159 284/563/159 282/564/159 280/565/159 278/566/159 276/567/159 274/568/159 272/569/159 270/570/159 268/571/159 266/572/159 264/573/159 262/574/159
f 285/558/160 286/557/160 288/575/160 287/576/160
f 287/576/161 288/575/161 258/577/161 257/578/161
f 257/579/162 259/580/162 261/581/162 263/582/162 265/583/162 267/584/162 269/585/162 271/586/162 273/587/162 275/588/162 277/589/162 279/590/162 281/591/162 283/592/162 285/593/162 287/594/162
o Baluster_07
v -0.345232 0.170156 -0.030000
v -0.369053 1.079844 -0.030000
v -0.333756 0.170456 -0.027716
v -0.357577 1.080145 -0.027716
v -0.324026 0.170711 -0.021213
v -0.347847 1.080399 -0.021213
v -0.317525 0.170881 -0.011481
v -0.341347 1.080570 -0.011481
v -0.315243 0.170941 0.000000
v -0.339064 1.080629 0.000000
v -0.317525 0.170881 0.011481
v -0.341347 1.080570 0.011481
v -0.324026 0.170711 0.021213
v -0.347847 1.080399 0.021213
v -0.333756 0.170456 0.027716
v -0.357577 1.080145 0.027716
v -0.345232 0.170156 0.030000
v -0.369053 1.079844 0.030000
v -0.356709 0.169855 0.027716
v -0.380530 1.079544 0.027716
v -0.366438 0.169601 0.021213
v -0.390259 1.079289 0.021213
v -0.372939 0.169430 0.011481
v -0.396760 1.079118 0.011481
v -0.375222 0.169371 0.000000
v -0.399043 1.079059 0.000000
v -0.372939 0.169430 -0.011481
v -0.396760 1.079118 -0.011481
v -0.366438 0.169601 -0.021213
v -0.390259 1.079289 -0.021213
v -0.356709 0.169855 -0.027716
v -0.380530 1.079544 -0.027716
vn 0.1950 0.0051 -0.9808
vn 0.5554 0.0145 -0.8315
vn 0.8312 0.0218 -0.5556
vn 0.9804 0.0257 -0.1951
vn 0.9804 0.0257 0.1951
vn 0.8312 0.0218 0.5556
vn 0.5554 0.0145 0.8315
vn 0.1950 0.0051 0.9808
vn -0.1950 -0.0051 0.9808
vn -0.5554 -0.0145 0.8315
vn -0.8312 -0.0218 0.5556
vn -0.9804 -0.0257 0.1951
vn -0.9804 -0.0257 -0.1951
vn -0.8312 -0.0218 -0.5556
vn -0.0262 0.9997 -0.0000
vn -0.5554 -0.0145 -0.8315
vn -0.1950 -0.0051 -0.9808
vn 0.0262 -0.9997 -0.0000
vt 1.000000 0.500000
vt 1.000000 1.000000
vt 0.937500 1.000000
vt 0.937500 0.500000
vt 0.875000 1.000000
vt 0.875000 0.500000
vt 0.812500 1.000000
vt 0.812500 0.500000
vt 0.750000 1.000000
vt 0.750000 0.500000
vt 0.687500 1.000000
vt 0.687500 0.500000
vt 0.625000 1.000000
vt 0.625000 0.500000
vt 0.562500 1.000000
vt 0.562500 0.500000
vt 0.500000 1.000000
vt 0.500000 0.500000
vt 0.437500 1.000000
vt 0.437500 0.500000
vt 0.375000 1.000000
vt 0.375000 0.500000
vt 0.312500 1.000000
vt 0.312500 0.500000
vt 0.250000 1.000000
vt 0.250000 0.500000
vt 0.187500 1.000000
vt 0.187500 0.500000
vt 0.125000 1.000000
vt 0.125000 0.500000
vt 0.341844 0.471731
vt 0.250000 0.490000
vt 0.158156 0.471731
vt 0.080294 0.419706
vt 0.028269 0.341844
vt 0.010000 0.250000
vt 0.028269 0.158156
vt 0.080294 0.080294
vt 0.158156 0.028269
vt 0.250000 0.010000
vt 0.341844 0.028269
vt 0.419706 0.080294
vt 0.471731 0.158156
vt 0.490000 0.250000
vt 0.471731 0.341844
vt 0.419706 0.419706
vt 0.062500 1.000000
vt 0.062500 0.500000
vt 0.000000 1.000000
vt 0.000000 0.500000
vt 0.750000 0.490000
vt 0.841844 0.471731
vt 0.919706 0.419706
vt 0.971731 0.341844
vt 0.990000 0.250000
vt 0.971731 0.158156
vt 0.919706 0.080294
vt 0.841844 0.028269
vt 0.750000 0.010000
vt 0.658156 0.028269
vt 0.580294 0.080294
vt 0.528269 0.158156
vt 0.510000 0.250000
vt 0.528269 0.341844
vt 0.580294 0.419706
vt 0.658156 0.471731
s 0
usemtl LightWood.003
f 289/595/163 290/596/163 292/597/163 291/598/163
f 291/598/164 292/597/164 294/599/164 293/600/164
f 293/600/165 294/599/165 296/601/165 295/602/165
f 295/602/166 296/601/166 298/603/166 297/604/166
f 297/604/167 298/603/167 300/605/167 299/606/167
f 299/606/168 300/605/168 302/607/168 301/608/168
f 301/608/169 302/607/169 304/609/169 303/610/169
f 303/610/170 304/609/170 306/611/170 305/612/170
f 305/612/171 306/611/171 308/613/171 307/614/171
f 307/614/172 308/613/172 310/615/172 309/616/172
f 309/616/173 310/615/173 312/617/173 311/618/173
f 311/618/174 312/617/174 314/619/174 313/620/174
f 313/620/175 314/619/175 316/621/175 315/622/175
f 315/622/176 316/621/176 318/623/176 317/624/176
f 292/625/177 290/626/177 320/627/177 318/628/177 316/629/177 314/630/177 312/631/177 310/632/177 308/633/177 306/634/177 304/635/177 302/636/177 300/637/177 298/638/177 296/639/177 294/640/177
f 317/624/178 318/623/178 320/641/178 319/642/178
f 319/642/179 320/641/179 290/643/179 289/644/179
f 289/645/180 291/646/180 293/647/180 295/648/180 297/649/180 299/650/180 301/651/180 303/652/180 305/653/180 307/654/180 309/655/180 311/656/180 313/657/180 315/658/180 317/659/180 319/660/180
o Baluster_08
v -0.226196 0.170156 -0.030000
v -0.202375 1.079844 -0.030000
v -0.214720 0.169855 -0.027716
v -0.190899 1.079544 -0.027716
v -0.204990 0.169601 -0.021213
v -0.181169 1.079289 -0.021213
v -0.198489 0.169430 -0.011481
v -0.174668 1.079118 -0.011481
v -0.196207 0.169371 0.000000
v -0.172385 1.079059 0.000000
v -0.198489 0.169430 0.011481
v -0.174668 1.079118 0.011481
v -0.204990 0.169601 0.021213
v -0.181169 1.079289 0.021213
v -0.214720 0.169855 0.027716
v -0.190899 1.079544 0.027716
v -0.226196 0.170156 0.030000
v -0.202375 1.079844 0.030000
v -0.237673 0.170456 0.027716
v -0.213852 1.080145 0.027716
v -0.247402 0.170711 0.021213
v -0.223581 1.080399 0.021213
v -0.253903 0.170881 0.011481
v -0.230082 1.080570 0.011481
v -0.256186 0.170941 0.000000
v -0.232365 1.080629 0.000000
v -0.253903 0.170881 -0.011481
v -0.230082 1.080570 -0.011481
v -0.247402 0.170711 -0.021213
v -0.223581 1.080399 -0.021213
v -0.237673 0.170456 -0.027716
v -0.213852 1.080145 -0.027716
vn 0.1950 -0.0051 -0.9808
vn 0.5554 -0.0145 -0.8315
vn 0.8312 -0.0218 -0.5556
vn 0.9804 -0.0257 -0.1951
vn 0.9804 -0.0257 0.1951
vn 0.8312 -0.0218 0.5556
vn 0.5554 -0.0145 0.8315
vn 0.1950 -0.0051 0.9808
vn -0.1950 0.0051 0.9808
vn -0.5554 0.0145 0.8315
vn -0.8312 0.0218 0.5556
vn -0.9804 0.0257 0.1951
vn -0.9804 0.0257 -0.1951
vn -0.8312 0.0218 -0.5556
vn 0.0262 0.9997 -0.0000
vn -0.5554 0.0145 -0.8315
vn -0.1950 0.0051 -0.9808
vn -0.0262 -0.9997 -0.0000
vt 1.000000 0.500000
vt 1.000000 1.000000
vt 0.937500 1.000000
vt 0.937500 0.500000
vt 0.875000 1.000000
vt 0.875000 0.500000
vt 0.812500 1.000000
vt 0.812500 0.500000
vt 0.750000 1.000000
vt 0.750000 0.500000
vt 0.687500 1.000000
vt 0.687500 0.500000
vt 0.625000 1.000000
vt 0.625000 0.500000
vt 0.562500 1.000000
vt 0.562500 0.500000
vt 0.500000 1.000000
vt 0.500000 0.500000
vt 0.437500 1.000000
vt 0.437500 0.500000
vt 0.375000 1.000000
vt 0.375000 0.500000
vt 0.312500 1.000000
vt 0.312500 0.500000
vt 0.250000 1.000000
vt 0.250000 0.500000
vt 0.187500 1.000000
vt 0.187500 0.500000
vt 0.125000 1.000000
vt 0.125000 0.500000
vt 0.341844 0.471731
vt 0.250000 0.490000
vt 0.158156 0.471731
vt 0.080294 0.419706
vt 0.028269 0.341844
vt 0.010000 0.250000
vt 0.028269 0.158156
vt 0.080294 0.080294
vt 0.158156 0.028269
vt 0.250000 0.010000
vt 0.341844 0.028269
vt 0.419706 0.080294
vt 0.471731 0.158156
vt 0.490000 0.250000
vt 0.471731 0.341844
vt 0.419706 0.419706
vt 0.062500 1.000000
vt 0.062500 0.500000
vt 0.000000 1.000000
vt 0.000000 0.500000
vt 0.750000 0.490000
vt 0.841844 0.471731
vt 0.919706 0.419706
vt 0.971731 0.341844
vt 0.990000 0.250000
vt 0.971731 0.158156
vt 0.919706 0.080294
vt 0.841844 0.028269
vt 0.750000 0.010000
vt 0.658156 0.028269
vt 0.580294 0.080294
vt 0.528269 0.158156
vt 0.510000 0.250000
vt 0.528269 0.341844
vt 0.580294 0.419706
vt 0.658156 0.471731
s 0
usemtl LightWood.003
f 321/661/181 322/662/181 324/663/181 323/664/181
f 323/664/182 324/663/182 326/665/182 325/666/182
f 325/666/183 326/665/183 328/667/183 327/668/183
f 327/668/184 328/667/184 330/669/184 329/670/184
f 329/670/185 330/669/185 332/671/185 331/672/185
f 331/672/186 332/671/186 334/673/186 333/674/186
f 333/674/187 334/673/187 336/675/187 335/676/187
f 335/676/188 336/675/188 338/677/188 337/678/188
f 337/678/189 338/677/189 340/679/189 339/680/189
f 339/680/190 340/679/190 342/681/190 341/682/190
f 341/682/191 342/681/191 344/683/191 343/684/191
f 343/684/192 344/683/192 346/685/192 345/686/192
f 345/686/193 346/685/193 348/687/193 347/688/193
f 347/688/194 348/687/194 350/689/194 349/690/194
f 324/691/195 322/692/195 352/693/195 350/694/195 348/695/195 346/696/195 344/697/195 342/698/195 340/699/195 338/700/195 336/701/195 334/702/195 332/703/195 330/704/195 328/705/195 326/706/195
f 349/690/196 350/689/196 352/707/196 351/708/196
f 351/708/197 352/707/197 322/709/197 321/710/197
f 321/711/198 323/712/198 325/713/198 327/714/198 329/715/198 331/716/198 333/717/198 335/718/198 337/719/198 339/720/198 341/721/198 343/722/198 345/723/198 347/724/198 349/725/198 351/726/198
o Baluster_09
v -0.059518 0.170156 -0.030000
v -0.083339 1.079844 -0.030000
v -0.048041 0.170456 -0.027716
v -0.071863 1.080145 -0.027716
v -0.038312 0.170711 -0.021213
v -0.062133 1.080399 -0.021213
v -0.031811 0.170881 -0.011481
v -0.055632 1.080570 -0.011481
v -0.029528 0.170941 0.000000
v -0.053349 1.080629 0.000000
v -0.031811 0.170881 0.011481
v -0.055632 1.080570 0.011481
v -0.038312 0.170711 0.021213
v -0.062133 1.080399 0.021213
v -0.048041 0.170456 0.027716
v -0.071863 1.080145 0.027716
v -0.059518 0.170156 0.030000
v -0.083339 1.079844 0.030000
v -0.070995 0.169855 0.027716
v -0.094816 1.079544 0.027716
v -0.080724 0.169601 0.021213
v -0.104545 1.079289 0.021213
v -0.087225 0.169430 0.011481
v -0.111046 1.079118 0.011481
v -0.089508 0.169371 0.000000
v -0.113329 1.079059 0.000000
v -0.087225 0.169430 -0.011481
v -0.111046 1.079118 -0.011481
v -0.080724 0.169601 -0.021213
v -0.104545 1.079289 -0.021213
v -0.070995 0.169855 -0.027716
v -0.094816 1.079544 -0.027716
vn 0.1950 0.0051 -0.9808
vn 0.5554 0.0145 -0.8315
vn 0.8312 0.0218 -0.5556
vn 0.9804 0.0257 -0.1951
vn 0.9804 0.0257 0.1951
vn 0.8312 0.0218 0.5556
vn 0.5554 0.0145 0.8315
vn 0.1950 0.0051 0.9808
vn -0.1950 -0.0051 0.9808
vn -0.5554 -0.0145 0.8315
vn -0.8312 -0.0218 0.5556
vn -0.9804 -0.0257 0.1951
vn -0.9804 -0.0257 -0.1951
vn -0.8312 -0.0218 -0.5556
vn -0.0262 0.9997 -0.0000
vn -0.5554 -0.0145 -0.8315
vn -0.1950 -0.0051 -0.9808
vn 0.0262 -0.9997 -0.0000
vt 1.000000 0.500000
vt 1.000000 1.000000
vt 0.937500 1.000000
vt 0.937500 0.500000
vt 0.875000 1.000000
vt 0.875000 0.500000
vt 0.812500 1.000000
vt 0.812500 0.500000
vt 0.750000 1.000000
vt 0.750000 0.500000
vt 0.687500 1.000000
vt 0.687500 0.500000
vt 0.625000 1.000000
vt 0.625000 0.500000
vt 0.562500 1.000000
vt 0.562500 0.500000
vt 0.500000 1.000000
vt 0.500000 0.500000
vt 0.437500 1.000000
vt 0.437500 0.500000
vt 0.375000 1.000000
vt 0.375000 0.500000
vt 0.312500 1.000000
vt 0.312500 0.500000
vt 0.250000 1.000000
vt 0.250000 0.500000
vt 0.187500 1.000000
vt 0.187500 0.500000
vt 0.125000 1.000000
vt 0.125000 0.500000
vt 0.341844 0.471731
vt 0.250000 0.490000
vt 0.158156 0.471731
vt 0.080294 0.419706
vt 0.028269 0.341844
vt 0.010000 0.250000
vt 0.028269 0.158156
vt 0.080294 0.080294
vt 0.158156 0.028269
vt 0.250000 0.010000
vt 0.341844 0.028269
vt 0.419706 0.080294
vt 0.471731 0.158156
vt 0.490000 0.250000
vt 0.471731 0.341844
vt 0.419706 0.419706
vt 0.062500 1.000000
vt 0.062500 0.500000
vt 0.000000 1.000000
vt 0.000000 0.500000
vt 0.750000 0.490000
vt 0.841844 0.471731
vt 0.919706 0.419706
vt 0.971731 0.341844
vt 0.990000 0.250000
vt 0.971731 0.158156
vt 0.919706 0.080294
vt 0.841844 0.028269
vt 0.750000 0.010000
vt 0.658156 0.028269
vt 0.580294 0.080294
vt 0.528269 0.158156
vt 0.510000 0.250000
vt 0.528269 0.341844
vt 0.580294 0.419706
vt 0.658156 0.471731
s 0
usemtl DarkWood.003
f 353/727/199 354/728/199 356/729/199 355/730/199
f 355/730/200 356/729/200 358/731/200 357/732/200
f 357/732/201 358/731/201 360/733/201 359/734/201
f 359/734/202 360/733/202 362/735/202 361/736/202
f 361/736/203 362/735/203 364/737/203 363/738/203
f 363/738/204 364/737/204 366/739/204 365/740/204
f 365/740/205 366/739/205 368/741/205 367/742/205
f 367/742/206 368/741/206 370/743/206 369/744/206
f 369/744/207 370/743/207 372/745/207 371/746/207
f 371/746/208 372/745/208 374/747/208 373/748/208
f 373/748/209 374/747/209 376/749/209 375/750/209
f 375/750/210 376/749/210 378/751/210 377/752/210
f 377/752/211 378/751/211 380/753/211 379/754/211
f 379/754/212 380/753/212 382/755/212 381/756/212
f 356/757/213 354/758/213 384/759/213 382/760/213 380/761/213 378/762/213 376/763/213 374/764/213 372/765/213 370/766/213 368/767/213 366/768/213 364/769/213 362/770/213 360/771/213 358/772/213
f 381/756/214 382/755/214 384/773/214 383/774/214
f 383/774/215 384/773/215 354/775/215 353/776/215
f 353/777/216 355/778/216 357/779/216 359/780/216 361/781/216 363/782/216 365/783/216 367/784/216 369/785/216 371/786/216 373/787/216 375/788/216 377/789/216 379/790/216 381/791/216 383/792/216
o Baluster_10
v 0.059518 0.170156 -0.030000
v 0.083339 1.079844 -0.030000
v 0.070995 0.169855 -0.027716
v 0.094816 1.079544 -0.027716
v 0.080724 0.169601 -0.021213
v 0.104545 1.079289 -0.021213
v 0.087225 0.169430 -0.011481
v 0.111046 1.079118 -0.011481
v 0.089508 0.169371 0.000000
v 0.113329 1.079059 0.000000
v 0.087225 0.169430 0.011481
v 0.111046 1.079118 0.011481
v 0.080724 0.169601 0.021213
v 0.104545 1.079289 0.021213
v 0.070995 0.169855 0.027716
v 0.094816 1.079544 0.027716
v 0.059518 0.170156 0.030000
v 0.083339 1.079844 0.030000
v 0.048041 0.170456 0.027716
v 0.071863 1.080145 0.027716
v 0.038312 0.170711 0.021213
v 0.062133 1.080399 0.021213
v 0.031811 0.170881 0.011481
v 0.055632 1.080570 0.011481
v 0.029528 0.170941 0.000000
v 0.053349 1.080629 0.000000
v 0.031811 0.170881 -0.011481
v 0.055632 1.080570 -0.011481
v 0.038312 0.170711 -0.021213
v 0.062133 1.080399 -0.021213
v 0.048041 0.170456 -0.027716
v 0.071863 1.080145 -0.027716
vn 0.1950 -0.0051 -0.9808
vn 0.5554 -0.0145 -0.8315
vn 0.8312 -0.0218 -0.5556
vn 0.9804 -0.0257 -0.1951
vn 0.9804 -0.0257 0.1951
vn 0.8312 -0.0218 0.5556
vn 0.5554 -0.0145 0.8315
vn 0.1950 -0.0051 0.9808
vn -0.1950 0.0051 0.9808
vn -0.5554 0.0145 0.8315
vn -0.8312 0.0218 0.5556
vn -0.9804 0.0257 0.1951
vn -0.9804 0.0257 -0.1951
vn -0.8312 0.0218 -0.5556
vn 0.0262 0.9997 -0.0000
vn -0.5554 0.0145 -0.8315
vn -0.1950 0.0051 -0.9808
vn -0.0262 -0.9997 -0.0000
vt 1.000000 0.500000
vt 1.000000 1.000000
vt 0.937500 1.000000
vt 0.937500 0.500000
vt 0.875000 1.000000
vt 0.875000 0.500000
vt 0.812500 1.000000
vt 0.812500 0.500000
vt 0.750000 1.000000
vt 0.750000 0.500000
vt 0.687500 1.000000
vt 0.687500 0.500000
vt 0.625000 1.000000
vt 0.625000 0.500000
vt 0.562500 1.000000
vt 0.562500 0.500000
vt 0.500000 1.000000
vt 0.500000 0.500000
vt 0.437500 1.000000
vt 0.437500 0.500000
vt 0.375000 1.000000
vt 0.375000 0.500000
vt 0.312500 1.000000
vt 0.312500 0.500000
vt 0.250000 1.000000
vt 0.250000 0.500000
vt 0.187500 1.000000
vt 0.187500 0.500000
vt 0.125000 1.000000
vt 0.125000 0.500000
vt 0.341844 0.471731
vt 0.250000 0.490000
vt 0.158156 0.471731
vt 0.080294 0.419706
vt 0.028269 0.341844
vt 0.010000 0.250000
vt 0.028269 0.158156
vt 0.080294 0.080294
vt 0.158156 0.028269
vt 0.250000 0.010000
vt 0.341844 0.028269
vt 0.419706 0.080294
vt 0.471731 0.158156
vt 0.490000 0.250000
vt 0.471731 0.341844
vt 0.419706 0.419706
vt 0.062500 1.000000
vt 0.062500 0.500000
vt 0.000000 1.000000
vt 0.000000 0.500000
vt 0.750000 0.490000
vt 0.841844 0.471731
vt 0.919706 0.419706
vt 0.971731 0.341844
vt 0.990000 0.250000
vt 0.971731 0.158156
vt 0.919706 0.080294
vt 0.841844 0.028269
vt 0.750000 0.010000
vt 0.658156 0.028269
vt 0.580294 0.080294
vt 0.528269 0.158156
vt 0.510000 0.250000
vt 0.528269 0.341844
vt 0.580294 0.419706
vt 0.658156 0.471731
s 0
usemtl LightWood.003
f 385/793/217 386/794/217 388/795/217 387/796/217
f 387/796/218 388/795/218 390/797/218 389/798/218
f 389/798/219 390/797/219 392/799/219 391/800/219
f 391/800/220 392/799/220 394/801/220 393/802/220
f 393/802/221 394/801/221 396/803/221 395/804/221
f 395/804/222 396/803/222 398/805/222 397/806/222
f 397/806/223 398/805/223 400/807/223 399/808/223
f 399/808/224 400/807/224 402/809/224 401/810/224
f 401/810/225 402/809/225 404/811/225 403/812/225
f 403/812/226 404/811/226 406/813/226 405/814/226
f 405/814/227 406/813/227 408/815/227 407/816/227
f 407/816/228 408/815/228 410/817/228 409/818/228
f 409/818/229 410/817/229 412/819/229 411/820/229
f 411/820/230 412/819/230 414/821/230 413/822/230
f 388/823/231 386/824/231 416/825/231 414/826/231 412/827/231 410/828/231 408/829/231 406/830/231 404/831/231 402/832/231 400/833/231 398/834/231 396/835/231 394/836/231 392/837/231 390/838/231
f 413/822/232 414/821/232 416/839/232 415/840/232
f 415/840/233 416/839/233 386/841/233 385/842/233
f 385/843/234 387/844/234 389/845/234 391/846/234 393/847/234 395/848/234 397/849/234 399/850/234 401/851/234 403/852/234 405/853/234 407/854/234 409/855/234 411/856/234 413/857/234 415/858/234
o Baluster_11
v 0.226196 0.170156 -0.030000
v 0.202375 1.079844 -0.030000
v 0.237673 0.170456 -0.027716
v 0.213852 1.080145 -0.027716
v 0.247402 0.170711 -0.021213
v 0.223581 1.080399 -0.021213
v 0.253903 0.170881 -0.011481
v 0.230082 1.080570 -0.011481
v 0.256186 0.170941 0.000000
v 0.232365 1.080629 0.000000
v 0.253903 0.170881 0.011481
v 0.230082 1.080570 0.011481
v 0.247402 0.170711 0.021213
v 0.223581 1.080399 0.021213
v 0.237673 0.170456 0.027716
v 0.213852 1.080145 0.027716
v 0.226196 0.170156 0.030000
v 0.202375 1.079844 0.030000
v 0.214720 0.169855 0.027716
v 0.190899 1.079544 0.027716
v 0.204990 0.169601 0.021213
v 0.181169 1.079289 0.021213
v 0.198489 0.169430 0.011481
v 0.174668 1.079118 0.011481
v 0.196207 0.169371 0.000000
v 0.172385 1.079059 0.000000
v 0.198489 0.169430 -0.011481
v 0.174668 1.079118 -0.011481
v 0.204990 0.169601 -0.021213
v 0.181169 1.079289 -0.021213
v 0.214720 0.169855 -0.027716
v 0.190899 1.079544 -0.027716
vn 0.1950 0.0051 -0.9808
vn 0.5554 0.0145 -0.8315
vn 0.8312 0.0218 -0.5556
vn 0.9804 0.0257 -0.1951
vn 0.9804 0.0257 0.1951
vn 0.8312 0.0218 0.5556
vn 0.5554 0.0145 0.8315
vn 0.1950 0.0051 0.9808
vn -0.1950 -0.0051 0.9808
vn -0.5554 -0.0145 0.8315
vn -0.8312 -0.0218 0.5556
vn -0.9804 -0.0257 0.1951
vn -0.9804 -0.0257 -0.1951
vn -0.8312 -0.0218 -0.5556
vn -0.0262 0.9997 -0.0000
vn -0.5554 -0.0145 -0.8315
vn -0.1950 -0.0051 -0.9808
vn 0.0262 -0.9997 -0.0000
vt 1.000000 0.500000
vt 1.000000 1.000000
vt 0.937500 1.000000
vt 0.937500 0.500000
vt 0.875000 1.000000
vt 0.875000 0.500000
vt 0.812500 1.000000
vt 0.812500 0.500000
vt 0.750000 1.000000
vt 0.750000 0.500000
vt 0.687500 1.000000
vt 0.687500 0.500000
vt 0.625000 1.000000
vt 0.625000 0.500000
vt 0.562500 1.000000
vt 0.562500 0.500000
vt 0.500000 1.000000
vt 0.500000 0.500000
vt 0.437500 1.000000
vt 0.437500 0.500000
vt 0.375000 1.000000
vt 0.375000 0.500000
vt 0.312500 1.000000
vt 0.312500 0.500000
vt 0.250000 1.000000
vt 0.250000 0.500000
vt 0.187500 1.000000
vt 0.187500 0.500000
vt 0.125000 1.000000
vt 0.125000 0.500000
vt 0.341844 0.471731
vt 0.250000 0.490000
vt 0.158156 0.471731
vt 0.080294 0.419706
vt 0.028269 0.341844
vt 0.010000 0.250000
vt 0.028269 0.158156
vt 0.080294 0.080294
vt 0.158156 0.028269
vt 0.250000 0.010000
vt 0.341844 0.028269
vt 0.419706 0.080294
vt 0.471731 0.158156
vt 0.490000 0.250000
vt 0.471731 0.341844
vt 0.419706 0.419706
vt 0.062500 1.000000
vt 0.062500 0.500000
vt 0.000000 1.000000
vt 0.000000 0.500000
vt 0.750000 0.490000
vt 0.841844 0.471731
vt 0.919706 0.419706
vt 0.971731 0.341844
vt 0.990000 0.250000
vt 0.971731 0.158156
vt 0.919706 0.080294
vt 0.841844 0.028269
vt 0.750000 0.010000
vt 0.658156 0.028269
vt 0.580294 0.080294
vt 0.528269 0.158156
vt 0.510000 0.250000
vt 0.528269 0.341844
vt 0.580294 0.419706
vt 0.658156 0.471731
s 0
usemtl LightWood.003
f 417/859/235 418/860/235 420/861/235 419/862/235
f 419/862/236 420/861/236 422/863/236 421/864/236
f 421/864/237 422/863/237 424/865/237 423/866/237
f 423/866/238 424/865/238 426/867/238 425/868/238
f 425/868/239 426/867/239 428/869/239 427/870/239
f 427/870/240 428/869/240 430/871/240 429/872/240
f 429/872/241 430/871/241 432/873/241 431/874/241
f 431/874/242 432/873/242 434/875/242 433/876/242
f 433/876/243 434/875/243 436/877/243 435/878/243
f 435/878/244 436/877/244 438/879/244 437/880/244
f 437/880/245 438/879/245 440/881/245 439/882/245
f 439/882/246 440/881/246 442/883/246 441/884/246
f 441/884/247 442/883/247 444/885/247 443/886/247
f 443/886/248 444/885/248 446/887/248 445/888/248
f 420/889/249 418/890/249 448/891/249 446/892/249 444/893/249 442/894/249 440/895/249 438/896/249 436/897/249 434/898/249 432/899/249 430/900/249 428/901/249 426/902/249 424/903/249 422/904/249
f 445/888/250 446/887/250 448/905/250 447/906/250
f 447/906/251 448/905/251 418/907/251 417/908/251
f 417/909/252 419/910/252 421/911/252 423/912/252 425/913/252 427/914/252 429/915/252 431/916/252 433/917/252 435/918/252 437/919/252 439/920/252 441/921/252 443/922/252 445/923/252 447/924/252
o Baluster_12
v 0.345232 0.170156 -0.030000
v 0.369053 1.079844 -0.030000
v 0.356709 0.169855 -0.027716
v 0.380530 1.079544 -0.027716
v 0.366438 0.169601 -0.021213
v 0.390259 1.079289 -0.021213
v 0.372939 0.169430 -0.011481
v 0.396760 1.079118 -0.011481
v 0.375222 0.169371 0.000000
v 0.399043 1.079059 0.000000
v 0.372939 0.169430 0.011481
v 0.396760 1.079118 0.011481
v 0.366438 0.169601 0.021213
v 0.390259 1.079289 0.021213
v 0.356709 0.169855 0.027716
v 0.380530 1.079544 0.027716
v 0.345232 0.170156 0.030000
v 0.369053 1.079844 0.030000
v 0.333756 0.170456 0.027716
v 0.357577 1.080145 0.027716
v 0.324026 0.170711 0.021213
v 0.347847 1.080399 0.021213
v 0.317525 0.170881 0.011481
v 0.341347 1.080570 0.011481
v 0.315243 0.170941 0.000000
v 0.339064 1.080629 0.000000
v 0.317525 0.170881 -0.011481
v 0.341347 1.080570 -0.011481
v 0.324026 0.170711 -0.021213
v 0.347847 1.080399 -0.021213
v 0.333756 0.170456 -0.027716
v 0.357577 1.080145 -0.027716
vn 0.1950 -0.0051 -0.9808
vn 0.5554 -0.0145 -0.8315
vn 0.8312 -0.0218 -0.5556
vn 0.9804 -0.0257 -0.1951
vn 0.9804 -0.0257 0.1951
vn 0.8312 -0.0218 0.5556
vn 0.5554 -0.0145 0.8315
vn 0.1950 -0.0051 0.9808
vn -0.1950 0.0051 0.9808
vn -0.5554 0.0145 0.8315
vn -0.8312 0.0218 0.5556
vn -0.9804 0.0257 0.1951
vn -0.9804 0.0257 -0.1951
vn -0.8312 0.0218 -0.5556
vn 0.0262 0.9997 -0.0000
vn -0.5554 0.0145 -0.8315
vn -0.1950 0.0051 -0.9808
vn -0.0262 -0.9997 -0.0000
vt 1.000000 0.500000
vt 1.000000 1.000000
vt 0.937500 1.000000
vt 0.937500 0.500000
vt 0.875000 1.000000
vt 0.875000 0.500000
vt 0.812500 1.000000
vt 0.812500 0.500000
vt 0.750000 1.000000
vt 0.750000 0.500000
vt 0.687500 1.000000
vt 0.687500 0.500000
vt 0.625000 1.000000
vt 0.625000 0.500000
vt 0.562500 1.000000
vt 0.562500 0.500000
vt 0.500000 1.000000
vt 0.500000 0.500000
vt 0.437500 1.000000
vt 0.437500 0.500000
vt 0.375000 1.000000
vt 0.375000 0.500000
vt 0.312500 1.000000
vt 0.312500 0.500000
vt 0.250000 1.000000
vt 0.250000 0.500000
vt 0.187500 1.000000
vt 0.187500 0.500000
vt 0.125000 1.000000
vt 0.125000 0.500000
vt 0.341844 0.471731
vt 0.250000 0.490000
vt 0.158156 0.471731
vt 0.080294 0.419706
vt 0.028269 0.341844
vt 0.010000 0.250000
vt 0.028269 0.158156
vt 0.080294 0.080294
vt 0.158156 0.028269
vt 0.250000 0.010000
vt 0.341844 0.028269
vt 0.419706 0.080294
vt 0.471731 0.158156
vt 0.490000 0.250000
vt 0.471731 0.341844
vt 0.419706 0.419706
vt 0.062500 1.000000
vt 0.062500 0.500000
vt 0.000000 1.000000
vt 0.000000 0.500000
vt 0.750000 0.490000
vt 0.841844 0.471731
vt 0.919706 0.419706
vt 0.971731 0.341844
vt 0.990000 0.250000
vt 0.971731 0.158156
vt 0.919706 0.080294
vt 0.841844 0.028269
vt 0.750000 0.010000
vt 0.658156 0.028269
vt 0.580294 0.080294
vt 0.528269 0.158156
vt 0.510000 0.250000
vt 0.528269 0.341844
vt 0.580294 0.419706
vt 0.658156 0.471731
s 0
usemtl DarkWood.003
f 449/925/253 450/926/253 452/927/253 451/928/253
f 451/928/254 452/927/254 454/929/254 453/930/254
f 453/930/255 454/929/255 456/931/255 455/932/255
f 455/932/256 456/931/256 458/933/256 457/934/256
f 457/934/257 458/933/257 460/935/257 459/936/257
f 459/936/258 460/935/258 462/937/258 461/938/258
f 461/938/259 462/937/259 464/939/259 463/940/259
f 463/940/260 464/939/260 466/941/260 465/942/260
f 465/942/261 466/941/261 468/943/261 467/944/261
f 467/944/262 468/943/262 470/945/262 469/946/262
f 469/946/263 470/945/263 472/947/263 471/948/263
f 471/948/264 472/947/264 474/949/264 473/950/264
f 473/950/265 474/949/265 476/951/265 475/952/265
f 475/952/266 476/951/266 478/953/266 477/954/266
f 452/955/267 450/956/267 480/957/267 478/958/267 476/959/267 474/960/267 472/961/267 470/962/267 468/963/267 466/964/267 464/965/267 462/966/267 460/967/267 458/968/267 456/969/267 454/970/267
f 477/954/268 478/953/268 480/971/268 479/972/268
f 479/972/269 480/971/269 450/973/269 449/974/269
f 449/975/270 451/976/270 453/977/270 455/978/270 457/979/270 459/980/270 461/981/270 463/982/270 465/983/270 467/984/270 469/985/270 471/986/270 473/987/270 475/988/270 477/989/270 479/990/270
o Baluster_13
v 0.511910 0.170156 -0.030000
v 0.488090 1.079844 -0.030000
v 0.523387 0.170456 -0.027716
v 0.499566 1.080145 -0.027716
v 0.533116 0.170711 -0.021213
v 0.509295 1.080399 -0.021213
v 0.539617 0.170881 -0.011481
v 0.515796 1.080570 -0.011481
v 0.541900 0.170941 0.000000
v 0.518079 1.080629 0.000000
v 0.539617 0.170881 0.011481
v 0.515796 1.080570 0.011481
v 0.533116 0.170711 0.021213
v 0.509295 1.080399 0.021213
v 0.523387 0.170456 0.027716
v 0.499566 1.080145 0.027716
v 0.511910 0.170156 0.030000
v 0.488090 1.079844 0.030000
v 0.500434 0.169855 0.027716
v 0.476613 1.079544 0.027716
v 0.490705 0.169601 0.021213
v 0.466884 1.079289 0.021213
v 0.484204 0.169430 0.011481
v 0.460383 1.079118 0.011481
v 0.481921 0.169371 0.000000
v 0.458100 1.079059 0.000000
v 0.484204 0.169430 -0.011481
v 0.460383 1.079118 -0.011481
v 0.490705 0.169601 -0.021213
v 0.466884 1.079289 -0.021213
v 0.500434 0.169855 -0.027716
v 0.476613 1.079544 -0.027716
vn 0.1950 0.0051 -0.9808
vn 0.5554 0.0145 -0.8315
vn 0.8312 0.0218 -0.5556
vn 0.9804 0.0257 -0.1951
vn 0.9804 0.0257 0.1951
vn 0.8312 0.0218 0.5556
vn 0.5554 0.0145 0.8315
vn 0.1950 0.0051 0.9808
vn -0.1950 -0.0051 0.9808
vn -0.5554 -0.0145 0.8315
vn -0.8312 -0.0218 0.5556
vn -0.9804 -0.0257 0.1951
vn -0.9804 -0.0257 -0.1951
vn -0.8312 -0.0218 -0.5556
vn -0.0262 0.9997 -0.0000
vn -0.5554 -0.0145 -0.8315
vn -0.1950 -0.0051 -0.9808
vn 0.0262 -0.9997 -0.0000
vt 1.000000 0.500000
vt 1.000000 1.000000
vt 0.937500 1.000000
vt 0.937500 0.500000
vt 0.875000 1.000000
vt 0.875000 0.500000
vt 0.812500 1.000000
vt 0.812500 0.500000
vt 0.750000 1.000000
vt 0.750000 0.500000
vt 0.687500 1.000000
vt 0.687500 0.500000
vt 0.625000 1.000000
vt 0.625000 0.500000
vt 0.562500 1.000000
vt 0.562500 0.500000
vt 0.500000 1.000000
vt 0.500000 0.500000
vt 0.437500 1.000000
vt 0.437500 0.500000
vt 0.375000 1.000000
vt 0.375000 0.500000
vt 0.312500 1.000000
vt 0.312500 0.500000
vt 0.250000 1.000000
vt 0.250000 0.500000
vt 0.187500 1.000000
vt 0.187500 0.500000
vt 0.125000 1.000000
vt 0.125000 0.500000
vt 0.341844 0.471731
vt 0.250000 0.490000
vt 0.158156 0.471731
vt 0.080294 0.419706
vt 0.028269 0.341844
vt 0.010000 0.250000
vt 0.028269 0.158156
vt 0.080294 0.080294
vt 0.158156 0.028269
vt 0.250000 0.010000
vt 0.341844 0.028269
vt 0.419706 0.080294
vt 0.471731 0.158156
vt 0.490000 0.250000
vt 0.471731 0.341844
vt 0.419706 0.419706
vt 0.062500 1.000000
vt 0.062500 0.500000
vt 0.000000 1.000000
vt 0.000000 0.500000
vt 0.750000 0.490000
vt 0.841844 0.471731
vt 0.919706 0.419706
vt 0.971731 0.341844
vt 0.990000 0.250000
vt 0.971731 0.158156
vt 0.919706 0.080294
vt 0.841844 0.028269
vt 0.750000 0.010000
vt 0.658156 0.028269
vt 0.580294 0.080294
vt 0.528269 0.158156
vt 0.510000 0.250000
vt 0.528269 0.341844
vt 0.580294 0.419706
vt 0.658156 0.471731
s 0
usemtl LightWood.003
f 481/991/271 482/992/271 484/993/271 483/994/271
f 483/994/272 484/993/272 486/995/272 485/996/272
f 485/996/273 486/995/273 488/997/273 487/998/273
f 487/998/274 488/997/274 490/999/274 489/1000/274
f 489/1000/275 490/999/275 492/1001/275 491/1002/275
f 491/1002/276 492/1001/276 494/1003/276 493/1004/276
f 493/1004/277 494/1003/277 496/1005/277 495/1006/277
f 495/1006/278 496/1005/278 498/1007/278 497/1008/278
f 497/1008/279 498/1007/279 500/1009/279 499/1010/279
f 499/1010/280 500/1009/280 502/1011/280 501/1012/280
f 501/1012/281 502/1011/281 504/1013/281 503/1014/281
f 503/1014/282 504/1013/282 506/1015/282 505/1016/282
f 505/1016/283 506/1015/283 508/1017/283 507/1018/283
f 507/1018/284 508/1017/284 510/1019/284 509/1020/284
f 484/1021/285 482/1022/285 512/1023/285 510/1024/285 508/1025/285 506/1026/285 504/1027/285 502/1028/285 500/1029/285 498/1030/285 496/1031/285 494/1032/285 492/1033/285 490/1034/285 488/1035/285 486/1036/285
f 509/1020/286 510/1019/286 512/1037/286 511/1038/286
f 511/1038/287 512/1037/287 482/1039/287 481/1040/287
f 481/1041/288 483/1042/288 485/1043/288 487/1044/288 489/1045/288 491/1046/288 493/1047/288 495/1048/288 497/1049/288 499/1050/288 501/1051/288 503/1052/288 505/1053/288 507/1054/288 509/1055/288 511/1056/288
o Baluster_14
v 0.630947 0.170156 -0.030000
v 0.654768 1.079844 -0.030000
v 0.642423 0.169855 -0.027716
v 0.666244 1.079544 -0.027716
v 0.652153 0.169601 -0.021213
v 0.675974 1.079289 -0.021213
v 0.658653 0.169430 -0.011481
v 0.682475 1.079118 -0.011481
v 0.660936 0.169371 0.000000
v 0.684757 1.079059 0.000000
v 0.658653 0.169430 0.011481
v 0.682475 1.079118 0.011481
v 0.652153 0.169601 0.021213
v 0.675974 1.079289 0.021213
v 0.642423 0.169855 0.027716
v 0.666244 1.079544 0.027716
v 0.630947 0.170156 0.030000
v 0.654768 1.079844 0.030000
v 0.619470 0.170456 0.027716
v 0.643291 1.080145 0.027716
v 0.609741 0.170711 0.021213
v 0.633562 1.080399 0.021213
v 0.603240 0.170881 0.011481
v 0.627061 1.080570 0.011481
v 0.600957 0.170941 0.000000
v 0.624778 1.080629 0.000000
v 0.603240 0.170881 -0.011481
v 0.627061 1.080570 -0.011481
v 0.609741 0.170711 -0.021213
v 0.633562 1.080399 -0.021213
v 0.619470 0.170456 -0.027716
v 0.643291 1.080145 -0.027716
vn 0.1950 -0.0051 -0.9808
vn 0.5554 -0.0145 -0.8315
vn 0.8312 -0.0218 -0.5556
vn 0.9804 -0.0257 -0.1951
vn 0.9804 -0.0257 0.1951
vn 0.8312 -0.0218 0.5556
vn 0.5554 -0.0145 0.8315
vn 0.1950 -0.0051 0.9808
vn -0.1950 0.0051 0.9808
vn -0.5554 0.0145 0.8315
vn -0.8312 0.0218 0.5556
vn -0.9804 0.0257 0.1951
vn -0.9804 0.0257 -0.1951
vn -0.8312 0.0218 -0.5556
vn 0.0262 0.9997 -0.0000
vn -0.5554 0.0145 -0.8315
vn -0.1950 0.0051 -0.9808
vn -0.0262 -0.9997 -0.0000
vt 1.000000 0.500000
vt 1.000000 1.000000
vt 0.937500 1.000000
vt 0.937500 0.500000
vt 0.875000 1.000000
vt 0.875000 0.500000
vt 0.812500 1.000000
vt 0.812500 0.500000
vt 0.750000 1.000000
vt 0.750000 0.500000
vt 0.687500 1.000000
vt 0.687500 0.500000
vt 0.625000 1.000000
vt 0.625000 0.500000
vt 0.562500 1.000000
vt 0.562500 0.500000
vt 0.500000 1.000000
vt 0.500000 0.500000
vt 0.437500 1.000000
vt 0.437500 0.500000
vt 0.375000 1.000000
vt 0.375000 0.500000
vt 0.312500 1.000000
vt 0.312500 0.500000
vt 0.250000 1.000000
vt 0.250000 0.500000
vt 0.187500 1.000000
vt 0.187500 0.500000
vt 0.125000 1.000000
vt 0.125000 0.500000
vt 0.341844 0.471731
vt 0.250000 0.490000
vt 0.158156 0.471731
vt 0.080294 0.419706
vt 0.028269 0.341844
vt 0.010000 0.250000
vt 0.028269 0.158156
vt 0.080294 0.080294
vt 0.158156 0.028269
vt 0.250000 0.010000
vt 0.341844 0.028269
vt 0.419706 0.080294
vt 0.471731 0.158156
vt 0.490000 0.250000
vt 0.471731 0.341844
vt 0.419706 0.419706
vt 0.062500 1.000000
vt 0.062500 0.500000
vt 0.000000 1.000000
vt 0.000000 0.500000
vt 0.750000 0.490000
vt 0.841844 0.471731
vt 0.919706 0.419706
vt 0.971731 0.341844
vt 0.990000 0.250000
vt 0.971731 0.158156
vt 0.919706 0.080294
vt 0.841844 0.028269
vt 0.750000 0.010000
vt 0.658156 0.028269
vt 0.580294 0.080294
vt 0.528269 0.158156
vt 0.510000 0.250000
vt 0.528269 0.341844
vt 0.580294 0.419706
vt 0.658156 0.471731
s 0
usemtl LightWood.003
f 513/1057/289 514/1058/289 516/1059/289 515/1060/289
f 515/1060/290 516/1059/290 518/1061/290 517/1062/290
f 517/1062/291 518/1061/291 520/1063/291 519/1064/291
f 519/1064/292 520/1063/292 522/1065/292 521/1066/292
f 521/1066/293 522/1065/293 524/1067/293 523/1068/293
f 523/1068/294 524/1067/294 526/1069/294 525/1070/294
f 525/1070/295 526/1069/295 528/1071/295 527/1072/295
f 527/1072/296 528/1071/296 530/1073/296 529/1074/296
f 529/1074/297 530/1073/297 532/1075/297 531/1076/297
f 531/1076/298 532/1075/298 534/1077/298 533/1078/298
f 533/1078/299 534/1077/299 536/1079/299 535/1080/299
f 535/1080/300 536/1079/300 538/1081/300 537/1082/300
f 537/1082/301 538/1081/301 540/1083/301 539/1084/301
f 539/1084/302 540/1083/302 542/1085/302 541/1086/302
f 516/1087/303 514/1088/303 544/1089/303 542/1090/303 540/1091/303 538/1092/303 536/1093/303 534/1094/303 532/1095/303 530/1096/303 528/1097/303 526/1098/303 524/1099/303 522/1100/303 520/1101/303 518/1102/303
f 541/1086/304 542/1085/304 544/1103/304 543/1104/304
f 543/1104/305 544/1103/305 514/1105/305 513/1106/305
f 513/1107/306 515/1108/306 517/1109/306 519/1110/306 521/1111/306 523/1112/306 525/1113/306 527/1114/306 529/1115/306 531/1116/306 533/1117/306 535/1118/306 537/1119/306 539/1120/306 541/1121/306 543/1122/306
o Baluster_15
v 0.797625 0.170156 -0.030000
v 0.773804 1.079844 -0.030000
v 0.809101 0.170456 -0.027716
v 0.785280 1.080145 -0.027716
v 0.818831 0.170711 -0.021213
v 0.795010 1.080399 -0.021213
v 0.825332 0.170881 -0.011481
v 0.801511 1.080570 -0.011481
v 0.827614 0.170941 0.000000
v 0.803793 1.080629 0.000000
v 0.825332 0.170881 0.011481
v 0.801511 1.080570 0.011481
v 0.818831 0.170711 0.021213
v 0.795010 1.080399 0.021213
v 0.809101 0.170456 0.027716
v 0.785280 1.080145 0.027716
v 0.797625 0.170156 0.030000
v 0.773804 1.079844 0.030000
v 0.786148 0.169855 0.027716
v 0.762327 1.079544 0.027716
v 0.776419 0.169601 0.021213
v 0.752598 1.079289 0.021213
v 0.769918 0.169430 0.011481
v 0.746097 1.079118 0.011481
v 0.767635 0.169371 0.000000
v 0.743814 1.079059 0.000000
v 0.769918 0.169430 -0.011481
v 0.746097 1.079118 -0.011481
v 0.776419 0.169601 -0.021213
v 0.752598 1.079289 -0.021213
v 0.786148 0.169855 -0.027716
v 0.762327 1.079544 -0.027716
vn 0.1950 0.0051 -0.9808
vn 0.5554 0.0145 -0.8315
vn 0.8312 0.0218 -0.5556
vn 0.9804 0.0257 -0.1951
vn 0.9804 0.0257 0.1951
vn 0.8312 0.0218 0.5556
vn 0.5554 0.0145 0.8315
vn 0.1950 0.0051 0.9808
vn -0.1950 -0.0051 0.9808
vn -0.5554 -0.0145 0.8315
vn -0.8312 -0.0218 0.5556
vn -0.9804 -0.0257 0.1951
vn -0.9804 -0.0257 -0.1951
vn -0.8312 -0.0218 -0.5556
vn -0.0262 0.9997 -0.0000
vn -0.5554 -0.0145 -0.8315
vn -0.1950 -0.0051 -0.9808
vn 0.0262 -0.9997 -0.0000
vt 1.000000 0.500000
vt 1.000000 1.000000
vt 0.937500 1.000000
vt 0.937500 0.500000
vt 0.875000 1.000000
vt 0.875000 0.500000
vt 0.812500 1.000000
vt 0.812500 0.500000
vt 0.750000 1.000000
vt 0.750000 0.500000
vt 0.687500 1.000000
vt 0.687500 0.500000
vt 0.625000 1.000000
vt 0.625000 0.500000
vt 0.562500 1.000000
vt 0.562500 0.500000
vt 0.500000 1.000000
vt 0.500000 0.500000
vt 0.437500 1.000000
vt 0.437500 0.500000
vt 0.375000 1.000000
vt 0.375000 0.500000
vt 0.312500 1.000000
vt 0.312500 0.500000
vt 0.250000 1.000000
vt 0.250000 0.500000
vt 0.187500 1.000000
vt 0.187500 0.500000
vt 0.125000 1.000000
vt 0.125000 0.500000
vt 0.341844 0.471731
vt 0.250000 0.490000
vt 0.158156 0.471731
vt 0.080294 0.419706
vt 0.028269 0.341844
vt 0.010000 0.250000
vt 0.028269 0.158156
vt 0.080294 0.080294
vt 0.158156 0.028269
vt 0.250000 0.010000
vt 0.341844 0.028269
vt 0.419706 0.080294
vt 0.471731 0.158156
vt 0.490000 0.250000
vt 0.471731 0.341844
vt 0.419706 0.419706
vt 0.062500 1.000000
vt 0.062500 0.500000
vt 0.000000 1.000000
vt 0.000000 0.500000
vt 0.750000 0.490000
vt 0.841844 0.471731
vt 0.919706 0.419706
vt 0.971731 0.341844
vt 0.990000 0.250000
vt 0.971731 0.158156
vt 0.919706 0.080294
vt 0.841844 0.028269
vt 0.750000 0.010000
vt 0.658156 0.028269
vt 0.580294 0.080294
vt 0.528269 0.158156
vt 0.510000 0.250000
vt 0.528269 0.341844
vt 0.580294 0.419706
vt 0.658156 0.471731
s 0
usemtl DarkWood.003
f 545/1123/307 546/1124/307 548/1125/307 547/1126/307
f 547/1126/308 548/1125/308 550/1127/308 549/1128/308
f 549/1128/309 550/1127/309 552/1129/309 551/1130/309
f 551/1130/310 552/1129/310 554/1131/310 553/1132/310
f 553/1132/311 554/1131/311 556/1133/311 555/1134/311
f 555/1134/312 556/1133/312 558/1135/312 557/1136/312
f 557/1136/313 558/1135/313 560/1137/313 559/1138/313
f 559/1138/314 560/1137/314 562/1139/314 561/1140/314
f 561/1140/315 562/1139/315 564/1141/315 563/1142/315
f 563/1142/316 564/1141/316 566/1143/316 565/1144/316
f 565/1144/317 566/1143/317 568/1145/317 567/1146/317
f 567/1146/318 568/1145/318 570/1147/318 569/1148/318
f 569/1148/319 570/1147/319 572/1149/319 571/1150/319
f 571/1150/320 572/1149/320 574/1151/320 573/1152/320
f 548/1153/321 546/1154/321 576/1155/321 574/1156/321 572/1157/321 570/1158/321 568/1159/321 566/1160/321 564/1161/321 562/1162/321 560/1163/321 558/1164/321 556/1165/321 554/1166/321 552/1167/321 550/1168/321
f 573/1152/322 574/1151/322 576/1169/322 575/1170/322
f 575/1170/323 576/1169/323 546/1171/323 545/1172/323
f 545/1173/324 547/1174/324 549/1175/324 551/1176/324 553/1177/324 555/1178/324 557/1179/324 559/1180/324 561/1181/324 563/1182/324 565/1183/324 567/1184/324 569/1185/324 571/1186/324 573/1187/324 575/1188/324
o Baluster_16
v 0.916661 0.170156 -0.030000
v 0.940482 1.079844 -0.030000
v 0.928137 0.169855 -0.027716
v 0.951958 1.079544 -0.027716
v 0.937867 0.169601 -0.021213
v 0.961688 1.079289 -0.021213
v 0.944368 0.169430 -0.011481
v 0.968189 1.079118 -0.011481
v 0.946651 0.169371 0.000000
v 0.970472 1.079059 0.000000
v 0.944368 0.169430 0.011481
v 0.968189 1.079118 0.011481
v 0.937867 0.169601 0.021213
v 0.961688 1.079289 0.021213
v 0.928137 0.169855 0.027716
v 0.951958 1.079544 0.027716
v 0.916661 0.170156 0.030000
v 0.940482 1.079844 0.030000
v 0.905184 0.170456 0.027716
v 0.929005 1.080145 0.027716
v 0.895455 0.170711 0.021213
v 0.919276 1.080399 0.021213
v 0.888954 0.170881 0.011481
v 0.912775 1.080570 0.011481
v 0.886671 0.170941 0.000000
v 0.910492 1.080629 0.000000
v 0.888954 0.170881 -0.011481
v 0.912775 1.080570 -0.011481
v 0.895455 0.170711 -0.021213
v 0.919276 1.080399 -0.021213
v 0.905184 0.170456 -0.027716
v 0.929005 1.080145 -0.027716
vn 0.1950 -0.0051 -0.9808
vn 0.5554 -0.0145 -0.8315
vn 0.8312 -0.0218 -0.5556
vn 0.9804 -0.0257 -0.1951
vn 0.9804 -0.0257 0.1951
vn 0.8312 -0.0218 0.5556
vn 0.5554 -0.0145 0.8315
vn 0.1950 -0.0051 0.9808
vn -0.1950 0.0051 0.9808
vn -0.5554 0.0145 0.8315
vn -0.8312 0.0218 0.5556
vn -0.9804 0.0257 0.1951
vn -0.9804 0.0257 -0.1951
vn -0.8312 0.0218 -0.5556
vn 0.0262 0.9997 -0.0000
vn -0.5554 0.0145 -0.8315
vn -0.1950 0.0051 -0.9808
vn -0.0262 -0.9997 -0.0000
vt 1.000000 0.500000
vt 1.000000 1.000000
vt 0.937500 1.000000
vt 0.937500 0.500000
vt 0.875000 1.000000
vt 0.875000 0.500000
vt 0.812500 1.000000
vt 0.812500 0.500000
vt 0.750000 1.000000
vt 0.750000 0.500000
vt 0.687500 1.000000
vt 0.687500 0.500000
vt 0.625000 1.000000
vt 0.625000 0.500000
vt 0.562500 1.000000
vt 0.562500 0.500000
vt 0.500000 1.000000
vt 0.500000 0.500000
vt 0.437500 1.000000
vt 0.437500 0.500000
vt 0.375000 1.000000
vt 0.375000 0.500000
vt 0.312500 1.000000
vt 0.312500 0.500000
vt 0.250000 1.000000
vt 0.250000 0.500000
vt 0.187500 1.000000
vt 0.187500 0.500000
vt 0.125000 1.000000
vt 0.125000 0.500000
vt 0.341844 0.471731
vt 0.250000 0.490000
vt 0.158156 0.471731
vt 0.080294 0.419706
vt 0.028269 0.341844
vt 0.010000 0.250000
vt 0.028269 0.158156
vt 0.080294 0.080294
vt 0.158156 0.028269
vt 0.250000 0.010000
vt 0.341844 0.028269
vt 0.419706 0.080294
vt 0.471731 0.158156
vt 0.490000 0.250000
vt 0.471731 0.341844
vt 0.419706 0.419706
vt 0.062500 1.000000
vt 0.062500 0.500000
vt 0.000000 1.000000
vt 0.000000 0.500000
vt 0.750000 0.490000
vt 0.841844 0.471731
vt 0.919706 0.419706
vt 0.971731 0.341844
vt 0.990000 0.250000
vt 0.971731 0.158156
vt 0.919706 0.080294
vt 0.841844 0.028269
vt 0.750000 0.010000
vt 0.658156 0.028269
vt 0.580294 0.080294
vt 0.528269 0.158156
vt 0.510000 0.250000
vt 0.528269 0.341844
vt 0.580294 0.419706
vt 0.658156 0.471731
s 0
usemtl LightWood.003
f 577/1189/325 578/1190/325 580/1191/325 579/1192/325
f 579/1192/326 580/1191/326 582/1193/326 581/1194/326
f 581/1194/327 582/1193/327 584/1195/327 583/1196/327
f 583/1196/328 584/1195/328 586/1197/328 585/1198/328
f 585/1198/329 586/1197/329 588/1199/329 587/1200/329
f 587/1200/330 588/1199/330 590/1201/330 589/1202/330
f 589/1202/331 590/1201/331 592/1203/331 591/1204/331
f 591/1204/332 592/1203/332 594/1205/332 593/1206/332
f 593/1206/333 594/1205/333 596/1207/333 595/1208/333
f 595/1208/334 596/1207/334 598/1209/334 597/1210/334
f 597/1210/335 598/1209/335 600/1211/335 599/1212/335
f 599/1212/336 600/1211/336 602/1213/336 601/1214/336
f 601/1214/337 602/1213/337 604/1215/337 603/1216/337
f 603/1216/338 604/1215/338 606/1217/338 605/1218/338
f 580/1219/339 578/1220/339 608/1221/339 606/1222/339 604/1223/339 602/1224/339 600/1225/339 598/1226/339 596/1227/339 594/1228/339 592/1229/339 590/1230/339 588/1231/339 586/1232/339 584/1233/339 582/1234/339
f 605/1218/340 606/1217/340 608/1235/340 607/1236/340
f 607/1236/341 608/1235/341 578/1237/341 577/1238/341
f 577/1239/342 579/1240/342 581/1241/342 583/1242/342 585/1243/342 587/1244/342 589/1245/342 591/1246/342 593/1247/342 595/1248/342 597/1249/342 599/1250/342 601/1251/342 603/1252/342 605/1253/342 607/1254/342
o Baluster_17
v 1.083339 0.170156 -0.030000
v 1.059518 1.079844 -0.030000
v 1.094816 0.170456 -0.027716
v 1.070995 1.080145 -0.027716
v 1.104545 0.170711 -0.021213
v 1.080724 1.080399 -0.021213
v 1.111046 0.170881 -0.011481
v 1.087225 1.080570 -0.011481
v 1.113329 0.170941 0.000000
v 1.089508 1.080629 0.000000
v 1.111046 0.170881 0.011481
v 1.087225 1.080570 0.011481
v 1.104545 0.170711 0.021213
v 1.080724 1.080399 0.021213
v 1.094816 0.170456 0.027716
v 1.070995 1.080145 0.027716
v 1.083339 0.170156 0.030000
v 1.059518 1.079844 0.030000
v 1.071862 0.169855 0.027716
v 1.048041 1.079544 0.027716
v 1.062133 0.169601 0.021213
v 1.038312 1.079289 0.021213
v 1.055632 0.169430 0.011481
v 1.031811 1.079118 0.011481
v 1.053349 0.169371 0.000000
v 1.029528 1.079059 0.000000
v 1.055632 0.169430 -0.011481
v 1.031811 1.079118 -0.011481
v 1.062133 0.169601 -0.021213
v 1.038312 1.079289 -0.021213
v 1.071862 0.169855 -0.027716
v 1.048041 1.079544 -0.027716
vn 0.1950 0.0051 -0.9808
vn 0.5554 0.0145 -0.8315
vn 0.8312 0.0218 -0.5556
vn 0.9804 0.0257 -0.1951
vn 0.9804 0.0257 0.1951
vn 0.8312 0.0218 0.5556
vn 0.5554 0.0145 0.8315
vn 0.1950 0.0051 0.9808
vn -0.1950 -0.0051 0.9808
vn -0.5554 -0.0145 0.8315
vn -0.8312 -0.0218 0.5556
vn -0.9804 -0.0257 0.1951
vn -0.9804 -0.0257 -0.1951
vn -0.8312 -0.0218 -0.5556
vn -0.0262 0.9997 -0.0000
vn -0.5554 -0.0145 -0.8315
vn -0.1950 -0.0051 -0.9808
vn 0.0262 -0.9997 -0.0000
vt 1.000000 0.500000
vt 1.000000 1.000000
vt 0.937500 1.000000
vt 0.937500 0.500000
vt 0.875000 1.000000
vt 0.875000 0.500000
vt 0.812500 1.000000
vt 0.812500 0.500000
vt 0.750000 1.000000
vt 0.750000 0.500000
vt 0.687500 1.000000
vt 0.687500 0.500000
vt 0.625000 1.000000
vt 0.625000 0.500000
vt 0.562500 1.000000
vt 0.562500 0.500000
vt 0.500000 1.000000
vt 0.500000 0.500000
vt 0.437500 1.000000
vt 0.437500 0.500000
vt 0.375000 1.000000
vt 0.375000 0.500000
vt 0.312500 1.000000
vt 0.312500 0.500000
vt 0.250000 1.000000
vt 0.250000 0.500000
vt 0.187500 1.000000
vt 0.187500 0.500000
vt 0.125000 1.000000
vt 0.125000 0.500000
vt 0.341844 0.471731
vt 0.250000 0.490000
vt 0.158156 0.471731
vt 0.080294 0.419706
vt 0.028269 0.341844
vt 0.010000 0.250000
vt 0.028269 0.158156
vt 0.080294 0.080294
vt 0.158156 0.028269
vt 0.250000 0.010000
vt 0.341844 0.028269
vt 0.419706 0.080294
vt 0.471731 0.158156
vt 0.490000 0.250000
vt 0.471731 0.341844
vt 0.419706 0.419706
vt 0.062500 1.000000
vt 0.062500 0.500000
vt 0.000000 1.000000
vt 0.000000 0.500000
vt 0.750000 0.490000
vt 0.841844 0.471731
vt 0.919706 0.419706
vt 0.971731 0.341844
vt 0.990000 0.250000
vt 0.971731 0.158156
vt 0.919706 0.080294
vt 0.841844 0.028269
vt 0.750000 0.010000
vt 0.658156 0.028269
vt 0.580294 0.080294
vt 0.528269 0.158156
vt 0.510000 0.250000
vt 0.528269 0.341844
vt 0.580294 0.419706
vt 0.658156 0.471731
s 0
usemtl LightWood.003
f 609/1255/343 610/1256/343 612/1257/343 611/1258/343
f 611/1258/344 612/1257/344 614/1259/344 613/1260/344
f 613/1260/345 614/1259/345 616/1261/345 615/1262/345
f 615/1262/346 616/1261/346 618/1263/346 617/1264/346
f 617/1264/347 618/1263/347 620/1265/347 619/1266/347
f 619/1266/348 620/1265/348 622/1267/348 621/1268/348
f 621/1268/349 622/1267/349 624/1269/349 623/1270/349
f 623/1270/350 624/1269/350 626/1271/350 625/1272/350
f 625/1272/351 626/1271/351 628/1273/351 627/1274/351
f 627/1274/352 628/1273/352 630/1275/352 629/1276/352
f 629/1276/353 630/1275/353 632/1277/353 631/1278/353
f 631/1278/354 632/1277/354 634/1279/354 633/1280/354
f 633/1280/355 634/1279/355 636/1281/355 635/1282/355
f 635/1282/356 636/1281/356 638/1283/356 637/1284/356
f 612/1285/357 610/1286/357 640/1287/357 638/1288/357 636/1289/357 634/1290/357 632/1291/357 630/1292/357 628/1293/357 626/1294/357 624/1295/357 622/1296/357 620/1297/357 618/1298/357 616/1299/357 614/1300/357
f 637/1284/358 638/1283/358 640/1301/358 639/1302/358
f 639/1302/359 640/1301/359 610/1303/359 609/1304/359
f 609/1305/360 611/1306/360 613/1307/360 615/1308/360 617/1309/360 619/1310/360 621/1311/360 623/1312/360 625/1313/360 627/1314/360 629/1315/360 631/1316/360 633/1317/360 635/1318/360 637/1319/360 639/1320/360
o Baluster_18
v 1.202375 0.170156 -0.030000
v 1.226196 1.079844 -0.030000
v 1.213852 0.169855 -0.027716
v 1.237673 1.079544 -0.027716
v 1.223581 0.169601 -0.021213
v 1.247402 1.079289 -0.021213
v 1.230082 0.169430 -0.011481
v 1.253903 1.079118 -0.011481
v 1.232365 0.169371 0.000000
v 1.256186 1.079059 0.000000
v 1.230082 0.169430 0.011481
v 1.253903 1.079118 0.011481
v 1.223581 0.169601 0.021213
v 1.247402 1.079289 0.021213
v 1.213852 0.169855 0.027716
v 1.237673 1.079544 0.027716
v 1.202375 0.170156 0.030000
v 1.226196 1.079844 0.030000
v 1.190899 0.170456 0.027716
v 1.214720 1.080145 0.027716
v 1.181169 0.170711 0.021213
v 1.204990 1.080399 0.021213
v 1.174668 0.170881 0.011481
v 1.198489 1.080570 0.011481
v 1.172385 0.170941 0.000000
v 1.196207 1.080629 0.000000
v 1.174668 0.170881 -0.011481
v 1.198489 1.080570 -0.011481
v 1.181169 0.170711 -0.021213
v 1.204990 1.080399 -0.021213
v 1.190899 0.170456 -0.027716
v 1.214720 1.080145 -0.027716
vn 0.1950 -0.0051 -0.9808
vn 0.5554 -0.0145 -0.8315
vn 0.8312 -0.0218 -0.5556
vn 0.9804 -0.0257 -0.1951
vn 0.9804 -0.0257 0.1951
vn 0.8312 -0.0218 0.5556
vn 0.5554 -0.0145 0.8315
vn 0.1950 -0.0051 0.9808
vn -0.1950 0.0051 0.9808
vn -0.5554 0.0145 0.8315
vn -0.8312 0.0218 0.5556
vn -0.9804 0.0257 0.1951
vn -0.9804 0.0257 -0.1951
vn -0.8312 0.0218 -0.5556
vn 0.0262 0.9997 -0.0000
vn -0.5554 0.0145 -0.8315
vn -0.1950 0.0051 -0.9808
vn -0.0262 -0.9997 -0.0000
vt 1.000000 0.500000
vt 1.000000 1.000000
vt 0.937500 1.000000
vt 0.937500 0.500000
vt 0.875000 1.000000
vt 0.875000 0.500000
vt 0.812500 1.000000
vt 0.812500 0.500000
vt 0.750000 1.000000
vt 0.750000 0.500000
vt 0.687500 1.000000
vt 0.687500 0.500000
vt 0.625000 1.000000
vt 0.625000 0.500000
vt 0.562500 1.000000
vt 0.562500 0.500000
vt 0.500000 1.000000
vt 0.500000 0.500000
vt 0.437500 1.000000
vt 0.437500 0.500000
vt 0.375000 1.000000
vt 0.375000 0.500000
vt 0.312500 1.000000
vt 0.312500 0.500000
vt 0.250000 1.000000
vt 0.250000 0.500000
vt 0.187500 1.000000
vt 0.187500 0.500000
vt 0.125000 1.000000
vt 0.125000 0.500000
vt 0.341844 0.471731
vt 0.250000 0.490000
vt 0.158156 0.471731
vt 0.080294 0.419706
vt 0.028269 0.341844
vt 0.010000 0.250000
vt 0.028269 0.158156
vt 0.080294 0.080294
vt 0.158156 0.028269
vt 0.250000 0.010000
vt 0.341844 0.028269
vt 0.419706 0.080294
vt 0.471731 0.158156
vt 0.490000 0.250000
vt 0.471731 0.341844
vt 0.419706 0.419706
vt 0.062500 1.000000
vt 0.062500 0.500000
vt 0.000000 1.000000
vt 0.000000 0.500000
vt 0.750000 0.490000
vt 0.841844 0.471731
vt 0.919706 0.419706
vt 0.971731 0.341844
vt 0.990000 0.250000
vt 0.971731 0.158156
vt 0.919706 0.080294
vt 0.841844 0.028269
vt 0.750000 0.010000
vt 0.658156 0.028269
vt 0.580294 0.080294
vt 0.528269 0.158156
vt 0.510000 0.250000
vt 0.528269 0.341844
vt 0.580294 0.419706
vt 0.658156 0.471731
s 0
usemtl DarkWood.003
f 641/1321/361 642/1322/361 644/1323/361 643/1324/361
f 643/1324/362 644/1323/362 646/1325/362 645/1326/362
f 645/1326/363 646/1325/363 648/1327/363 647/1328/363
f 647/1328/364 648/1327/364 650/1329/364 649/1330/364
f 649/1330/365 650/1329/365 652/1331/365 651/1332/365
f 651/1332/366 652/1331/366 654/1333/366 653/1334/366
f 653/1334/367 654/1333/367 656/1335/367 655/1336/367
f 655/1336/368 656/1335/368 658/1337/368 657/1338/368
f 657/1338/369 658/1337/369 660/1339/369 659/1340/369
f 659/1340/370 660/1339/370 662/1341/370 661/1342/370
f 661/1342/371 662/1341/371 664/1343/371 663/1344/371
f 663/1344/372 664/1343/372 666/1345/372 665/1346/372
f 665/1346/373 666/1345/373 668/1347/373 667/1348/373
f 667/1348/374 668/1347/374 670/1349/374 669/1350/374
f 644/1351/375 642/1352/375 672/1353/375 670/1354/375 668/1355/375 666/1356/375 664/1357/375 662/1358/375 660/1359/375 658/1360/375 656/1361/375 654/1362/375 652/1363/375 650/1364/375 648/1365/375 646/1366/375
f 669/1350/376 670/1349/376 672/1367/376 671/1368/376
f 671/1368/377 672/1367/377 642/1369/377 641/1370/377
f 641/1371/378 643/1372/378 645/1373/378 647/1374/378 649/1375/378 651/1376/378 653/1377/378 655/1378/378 657/1379/378 659/1380/378 661/1381/378 663/1382/378 665/1383/378 667/1384/378 669/1385/378 671/1386/378
o Baluster_19
v 1.369053 0.170156 -0.030000
v 1.345232 1.079844 -0.030000
v 1.380530 0.170456 -0.027716
v 1.356709 1.080145 -0.027716
v 1.390259 0.170711 -0.021213
v 1.366438 1.080399 -0.021213
v 1.396760 0.170881 -0.011481
v 1.372939 1.080570 -0.011481
v 1.399043 0.170941 0.000000
v 1.375222 1.080629 0.000000
v 1.396760 0.170881 0.011481
v 1.372939 1.080570 0.011481
v 1.390259 0.170711 0.021213
v 1.366438 1.080399 0.021213
v 1.380530 0.170456 0.027716
v 1.356709 1.080145 0.027716
v 1.369053 0.170156 0.030000
v 1.345232 1.079844 0.030000
v 1.357577 0.169855 0.027716
v 1.333756 1.079544 0.027716
v 1.347847 0.169601 0.021213
v 1.324026 1.079289 0.021213
v 1.341346 0.169430 0.011481
v 1.317525 1.079118 0.011481
v 1.339064 0.169371 0.000000
v 1.315243 1.079059 0.000000
v 1.341346 0.169430 -0.011481
v 1.317525 1.079118 -0.011481
v 1.347847 0.169601 -0.021213
v 1.324026 1.079289 -0.021213
v 1.357577 0.169855 -0.027716
v 1.333756 1.079544 -0.027716
vn 0.1950 0.0051 -0.9808
vn 0.5554 0.0145 -0.8315
vn 0.8312 0.0218 -0.5556
vn 0.9804 0.0257 -0.1951
vn 0.9804 0.0257 0.1951
vn 0.8312 0.0218 0.5556
vn 0.5554 0.0145 0.8315
vn 0.1950 0.0051 0.9808
vn -0.1950 -0.0051 0.9808
vn -0.5554 -0.0145 0.8315
vn -0.8312 -0.0218 0.5556
vn -0.9804 -0.0257 0.1951
vn -0.9804 -0.0257 -0.1951
vn -0.8312 -0.0218 -0.5556
vn -0.0262 0.9997 -0.0000
vn -0.5554 -0.0145 -0.8315
vn -0.1950 -0.0051 -0.9808
vn 0.0262 -0.9997 -0.0000
vt 1.000000 0.500000
vt 1.000000 1.000000
vt 0.937500 1.000000
vt 0.937500 0.500000
vt 0.875000 1.000000
vt 0.875000 0.500000
vt 0.812500 1.000000
vt 0.812500 0.500000
vt 0.750000 1.000000
vt 0.750000 0.500000
vt 0.687500 1.000000
vt 0.687500 0.500000
vt 0.625000 1.000000
vt 0.625000 0.500000
vt 0.562500 1.000000
vt 0.562500 0.500000
vt 0.500000 1.000000
vt 0.500000 0.500000
vt 0.437500 1.000000
vt 0.437500 0.500000
vt 0.375000 1.000000
vt 0.375000 0.500000
vt 0.312500 1.000000
vt 0.312500 0.500000
vt 0.250000 1.000000
vt 0.250000 0.500000
vt 0.187500 1.000000
vt 0.187500 0.500000
vt 0.125000 1.000000
vt 0.125000 0.500000
vt 0.341844 0.471731
vt 0.250000 0.490000
vt 0.158156 0.471731
vt 0.080294 0.419706
vt 0.028269 0.341844
vt 0.010000 0.250000
vt 0.028269 0.158156
vt 0.080294 0.080294
vt 0.158156 0.028269
vt 0.250000 0.010000
vt 0.341844 0.028269
vt 0.419706 0.080294
vt 0.471731 0.158156
vt 0.490000 0.250000
vt 0.471731 0.341844
vt 0.419706 0.419706
vt 0.062500 1.000000
vt 0.062500 0.500000
vt 0.000000 1.000000
vt 0.000000 0.500000
vt 0.750000 0.490000
vt 0.841844 0.471731
vt 0.919706 0.419706
vt 0.971731 0.341844
vt 0.990000 0.250000
vt 0.971731 0.158156
vt 0.919706 0.080294
vt 0.841844 0.028269
vt 0.750000 0.010000
vt 0.658156 0.028269
vt 0.580294 0.080294
vt 0.528269 0.158156
vt 0.510000 0.250000
vt 0.528269 0.341844
vt 0.580294 0.419706
vt 0.658156 0.471731
s 0
usemtl LightWood.003
f 673/1387/379 674/1388/379 676/1389/379 675/1390/379
f 675/1390/380 676/1389/380 678/1391/380 677/1392/380
f 677/1392/381 678/1391/381 680/1393/381 679/1394/381
f 679/1394/382 680/1393/382 682/1395/382 681/1396/382
f 681/1396/383 682/1395/383 684/1397/383 683/1398/383
f 683/1398/384 684/1397/384 686/1399/384 685/1400/384
f 685/1400/385 686/1399/385 688/1401/385 687/1402/385
f 687/1402/386 688/1401/386 690/1403/386 689/1404/386
f 689/1404/387 690/1403/387 692/1405/387 691/1406/387
f 691/1406/388 692/1405/388 694/1407/388 693/1408/388
f 693/1408/389 694/1407/389 696/1409/389 695/1410/389
f 695/1410/390 696/1409/390 698/1411/390 697/1412/390
f 697/1412/391 698/1411/391 700/1413/391 699/1414/391
f 699/1414/392 700/1413/392 702/1415/392 701/1416/392
f 676/1417/393 674/1418/393 704/1419/393 702/1420/393 700/1421/393 698/1422/393 696/1423/393 694/1424/393 692/1425/393 690/1426/393 688/1427/393 686/1428/393 684/1429/393 682/1430/393 680/1431/393 678/1432/393
f 701/1416/394 702/1415/394 704/1433/394 703/1434/394
f 703/1434/395 704/1433/395 674/1435/395 673/1436/395
f 673/1437/396 675/1438/396 677/1439/396 679/1440/396 681/1441/396 683/1442/396 685/1443/396 687/1444/396 689/1445/396 691/1446/396 693/1447/396 695/1448/396 697/1449/396 699/1450/396 701/1451/396 703/1452/396
o Post_Left
v -1.500000 0.000000 -0.084000
v -1.500000 1.300000 -0.084000
v -1.467855 0.000000 -0.077606
v -1.467855 1.300000 -0.077606
v -1.440603 0.000000 -0.059397
v -1.440603 1.300000 -0.059397
v -1.422394 0.000000 -0.032145
v -1.422394 1.300000 -0.032145
v -1.416000 0.000000 0.000000
v -1.416000 1.300000 0.000000
v -1.422394 0.000000 0.032145
v -1.422394 1.300000 0.032145
v -1.440603 0.000000 0.059397
v -1.440603 1.300000 0.059397
v -1.467855 0.000000 0.077606
v -1.467855 1.300000 0.077606
v -1.500000 0.000000 0.084000
v -1.500000 1.300000 0.084000
v -1.532145 0.000000 0.077606
v -1.532145 1.300000 0.077606
v -1.559397 0.000000 0.059397
v -1.559397 1.300000 0.059397
v -1.577606 0.000000 0.032145
v -1.577606 1.300000 0.032145
v -1.584000 0.000000 0.000000
v -1.584000 1.300000 0.000000
v -1.577606 0.000000 -0.032145
v -1.577606 1.300000 -0.032145
v -1.559397 0.000000 -0.059397
v -1.559397 1.300000 -0.059397
v -1.532145 0.000000 -0.077606
v -1.532145 1.300000 -0.077606
vn 0.1951 -0.0000 -0.9808
vn 0.5556 -0.0000 -0.8315
vn 0.8315 -0.0000 -0.5556
vn 0.9808 -0.0000 -0.1951
vn 0.9808 -0.0000 0.1951
vn 0.8315 -0.0000 0.5556
vn 0.5556 -0.0000 0.8315
vn 0.1951 -0.0000 0.9808
vn -0.1951 -0.0000 0.9808
vn -0.5556 -0.0000 0.8315
vn -0.8315 -0.0000 0.5556
vn -0.9808 -0.0000 0.1951
vn -0.9808 -0.0000 -0.1951
vn -0.8315 -0.0000 -0.5556
vn -0.0000 1.0000 -0.0000
vn -0.5556 -0.0000 -0.8315
vn -0.1951 -0.0000 -0.9808
vn -0.0000 -1.0000 -0.0000
vt 1.000000 0.500000
vt 1.000000 1.000000
vt 0.937500 1.000000
vt 0.937500 0.500000
vt 0.875000 1.000000
vt 0.875000 0.500000
vt 0.812500 1.000000
vt 0.812500 0.500000
vt 0.750000 1.000000
vt 0.750000 0.500000
vt 0.687500 1.000000
vt 0.687500 0.500000
vt 0.625000 1.000000
vt 0.625000 0.500000
vt 0.562500 1.000000
vt 0.562500 0.500000
vt 0.500000 1.000000
vt 0.500000 0.500000
vt 0.437500 1.000000
vt 0.437500 0.500000
vt 0.375000 1.000000
vt 0.375000 0.500000
vt 0.312500 1.000000
vt 0.312500 0.500000
vt 0.250000 1.000000
vt 0.250000 0.500000
vt 0.187500 1.000000
vt 0.187500 0.500000
vt 0.125000 1.000000
vt 0.125000 0.500000
vt 0.341844 0.471731
vt 0.250000 0.490000
vt 0.158156 0.471731
vt 0.080294 0.419706
vt 0.028269 0.341844
vt 0.010000 0.250000
vt 0.028269 0.158156
vt 0.080294 0.080294
vt 0.158156 0.028269
vt 0.250000 0.010000
vt 0.341844 0.028269
vt 0.419706 0.080294
vt 0.471731 0.158156
vt 0.490000 0.250000
vt 0.471731 0.341844
vt 0.419706 0.419706
vt 0.062500 1.000000
vt 0.062500 0.500000
vt 0.000000 1.000000
vt 0.000000 0.500000
vt 0.750000 0.490000
vt 0.841844 0.471731
vt 0.919706 0.419706
vt 0.971731 0.341844
vt 0.990000 0.250000
vt 0.971731 0.158156
vt 0.919706 0.080294
vt 0.841844 0.028269
vt 0.750000 0.010000
vt 0.658156 0.028269
vt 0.580294 0.080294
vt 0.528269 0.158156
vt 0.510000 0.250000
vt 0.528269 0.341844
vt 0.580294 0.419706
vt 0.658156 0.471731
s 0
usemtl DarkWood.003
f 705/1453/397 706/1454/397 708/1455/397 707/1456/397
f 707/1456/398 708/1455/398 710/1457/398 709/1458/398
f 709/1458/399 710/1457/399 712/1459/399 711/1460/399
f 711/1460/400 712/1459/400 714/1461/400 713/1462/400
f 713/1462/401 714/1461/401 716/1463/401 715/1464/401
f 715/1464/402 716/1463/402 718/1465/402 717/1466/402
f 717/1466/403 718/1465/403 720/1467/403 719/1468/403
f 719/1468/404 720/1467/404 722/1469/404 721/1470/404
f 721/1470/405 722/1469/405 724/1471/405 723/1472/405
f 723/1472/406 724/1471/406 726/1473/406 725/1474/406
f 725/1474/407 726/1473/407 728/1475/407 727/1476/407
f 727/1476/408 728/1475/408 730/1477/408 729/1478/408
f 729/1478/409 730/1477/409 732/1479/409 731/1480/409
f 731/1480/410 732/1479/410 734/1481/410 733/1482/410
f 708/1483/411 706/1484/411 736/1485/411 734/1486/411 732/1487/411 730/1488/411 728/1489/411 726/1490/411 724/1491/411 722/1492/411 720/1493/411 718/1494/411 716/1495/411 714/1496/411 712/1497/411 710/1498/411
f 733/1482/412 734/1481/412 736/1499/412 735/1500/412
f 735/1500/413 736/1499/413 706/1501/413 705/1502/413
f 705/1503/414 707/1504/414 709/1505/414 711/1506/414 713/1507/414 715/1508/414 717/1509/414 719/1510/414 721/1511/414 723/1512/414 725/1513/414 727/1514/414 729/1515/414 731/1516/414 733/1517/414 735/1518/414
o Post_Right
v 1.500000 0.000000 -0.084000
v 1.500000 1.300000 -0.084000
v 1.532145 0.000000 -0.077606
v 1.532145 1.300000 -0.077606
v 1.559397 0.000000 -0.059397
v 1.559397 1.300000 -0.059397
v 1.577606 0.000000 -0.032145
v 1.577606 1.300000 -0.032145
v 1.584000 0.000000 0.000000
v 1.584000 1.300000 0.000000
v 1.577606 0.000000 0.032145
v 1.577606 1.300000 0.032145
v 1.559397 0.000000 0.059397
v 1.559397 1.300000 0.059397
v 1.532145 0.000000 0.077606
v 1.532145 1.300000 0.077606
v 1.500000 0.000000 0.084000
v 1.500000 1.300000 0.084000
v 1.467855 0.000000 0.077606
v 1.467855 1.300000 0.077606
v 1.440603 0.000000 0.059397
v 1.440603 1.300000 0.059397
v 1.422394 0.000000 0.032145
v 1.422394 1.300000 0.032145
v 1.416000 0.000000 0.000000
v 1.416000 1.300000 0.000000
v 1.422394 0.000000 -0.032145
v 1.422394 1.300000 -0.032145
v 1.440603 0.000000 -0.059397
v 1.440603 1.300000 -0.059397
v 1.467855 0.000000 -0.077606
v 1.467855 1.300000 -0.077606
vn 0.1951 -0.0000 -0.9808
vn 0.5556 -0.0000 -0.8315
vn 0.8315 -0.0000 -0.5556
vn 0.9808 -0.0000 -0.1951
vn 0.9808 -0.0000 0.1951
vn 0.8315 -0.0000 0.5556
vn 0.5556 -0.0000 0.8315
vn 0.1951 -0.0000 0.9808
vn -0.1951 -0.0000 0.9808
vn -0.5556 -0.0000 0.8315
vn -0.8315 -0.0000 0.5556
vn -0.9808 -0.0000 0.1951
vn -0.9808 -0.0000 -0.1951
vn -0.8315 -0.0000 -0.5556
vn -0.0000 1.0000 -0.0000
vn -0.5556 -0.0000 -0.8315
vn -0.1951 -0.0000 -0.9808
vn -0.0000 -1.0000 -0.0000
vt 1.000000 0.500000
vt 1.000000 1.000000
vt 0.937500 1.000000
vt 0.937500 0.500000
vt 0.875000 1.000000
vt 0.875000 0.500000
vt 0.812500 1.000000
vt 0.812500 0.500000
vt 0.750000 1.000000
vt 0.750000 0.500000
vt 0.687500 1.000000
vt 0.687500 0.500000
vt 0.625000 1.000000
vt 0.625000 0.500000
vt 0.562500 1.000000
vt 0.562500 0.500000
vt 0.500000 1.000000
vt 0.500000 0.500000
vt 0.437500 1.000000
vt 0.437500 0.500000
vt 0.375000 1.000000
vt 0.375000 0.500000
vt 0.312500 1.000000
vt 0.312500 0.500000
vt 0.250000 1.000000
vt 0.250000 0.500000
vt 0.187500 1.000000
vt 0.187500 0.500000
vt 0.125000 1.000000
vt 0.125000 0.500000
vt 0.341844 0.471731
vt 0.250000 0.490000
vt 0.158156 0.471731
vt 0.080294 0.419706
vt 0.028269 0.341844
vt 0.010000 0.250000
vt 0.028269 0.158156
vt 0.080294 0.080294
vt 0.158156 0.028269
vt 0.250000 0.010000
vt 0.341844 0.028269
vt 0.419706 0.080294
vt 0.471731 0.158156
vt 0.490000 0.250000
vt 0.471731 0.341844
vt 0.419706 0.419706
vt 0.062500 1.000000
vt 0.062500 0.500000
vt 0.000000 1.000000
vt 0.000000 0.500000
vt 0.750000 0.490000
vt 0.841844 0.471731
vt 0.919706 0.419706
vt 0.971731 0.341844
vt 0.990000 0.250000
vt 0.971731 0.158156
vt 0.919706 0.080294
vt 0.841844 0.028269
vt 0.750000 0.010000
vt 0.658156 0.028269
vt 0.580294 0.080294
vt 0.528269 0.158156
vt 0.510000 0.250000
vt 0.528269 0.341844
vt 0.580294 0.419706
vt 0.658156 0.471731
s 0
usemtl DarkWood.003
f 737/1519/415 738/1520/415 740/1521/415 739/1522/415
f 739/1522/416 740/1521/416 742/1523/416 741/1524/416
f 741/1524/417 742/1523/417 744/1525/417 743/1526/417
f 743/1526/418 744/1525/418 746/1527/418 745/1528/418
f 745/1528/419 746/1527/419 748/1529/419 747/1530/419
f 747/1530/420 748/1529/420 750/1531/420 749/1532/420
f 749/1532/421 750/1531/421 752/1533/421 751/1534/421
f 751/1534/422 752/1533/422 754/1535/422 753/1536/422
f 753/1536/423 754/1535/423 756/1537/423 755/1538/423
f 755/1538/424 756/1537/424 758/1539/424 757/1540/424
f 757/1540/425 758/1539/425 760/1541/425 759/1542/425
f 759/1542/426 760/1541/426 762/1543/426 761/1544/426
f 761/1544/427 762/1543/427 764/1545/427 763/1546/427
f 763/1546/428 764/1545/428 766/1547/428 765/1548/428
f 740/1549/429 738/1550/429 768/1551/429 766/1552/429 764/1553/429 762/1554/429 760/1555/429 758/1556/429 756/1557/429 754/1558/429 752/1559/429 750/1560/429 748/1561/429 746/1562/429 744/1563/429 742/1564/429
f 765/1548/430 766/1547/430 768/1565/430 767/1566/430
f 767/1566/431 768/1565/431 738/1567/431 737/1568/431
f 737/1569/432 739/1570/432 741/1571/432 743/1572/432 745/1573/432 747/1574/432 749/1575/432 751/1576/432 753/1577/432 755/1578/432 757/1579/432 759/1580/432 761/1581/432 763/1582/432 765/1583/432 767/1584/432
